<svg width="217" height="271" viewBox="0 0 217 271" fill="none" xmlns="http://www.w3.org/2000/svg">
<rect x="0.5" y="0.5" width="216" height="270" rx="14.5" stroke="#7B4F2F"/>
<ellipse cx="75.3585" cy="176.939" rx="3.92857" ry="3.93945" fill="#F7E5D0"/>
<ellipse cx="91.0728" cy="176.939" rx="3.92857" ry="3.93945" fill="#F7E5D0"/>
<ellipse cx="106.787" cy="176.939" rx="3.92857" ry="3.93945" fill="#F7E5D0"/>
<ellipse cx="122.501" cy="176.939" rx="3.92856" ry="3.93945" fill="#F7E5D0"/>
<ellipse cx="138.216" cy="176.939" rx="3.92857" ry="3.93945" fill="#F7E5D0"/>
<ellipse cx="153.93" cy="176.939" rx="3.92857" ry="3.93945" fill="#F7E5D0"/>
<ellipse cx="169.644" cy="176.939" rx="3.92858" ry="3.93945" fill="#F7E5D0"/>
<ellipse cx="75.3585" cy="192.697" rx="3.92857" ry="3.93945" fill="#F7E5D0"/>
<ellipse cx="91.0728" cy="192.697" rx="3.92857" ry="3.93945" fill="#F7E5D0"/>
<ellipse cx="106.787" cy="192.697" rx="3.92857" ry="3.93945" fill="#F7E5D0"/>
<ellipse cx="122.501" cy="192.697" rx="3.92856" ry="3.93945" fill="#F7E5D0"/>
<ellipse cx="138.216" cy="192.697" rx="3.92856" ry="3.93945" fill="#F7E5D0"/>
<ellipse cx="153.93" cy="192.697" rx="3.92857" ry="3.93945" fill="#F7E5D0"/>
<ellipse cx="169.644" cy="192.697" rx="3.92858" ry="3.93945" fill="#F7E5D0"/>
<ellipse cx="75.3585" cy="208.455" rx="3.92857" ry="3.93958" fill="#F7E5D0"/>
<ellipse cx="91.0728" cy="208.455" rx="3.92857" ry="3.93958" fill="#F7E5D0"/>
<ellipse cx="106.787" cy="208.455" rx="3.92857" ry="3.93958" fill="#F7E5D0"/>
<ellipse cx="122.501" cy="208.455" rx="3.92856" ry="3.93958" fill="#F7E5D0"/>
<ellipse cx="138.216" cy="208.455" rx="3.92856" ry="3.93958" fill="#F7E5D0"/>
<ellipse cx="153.93" cy="208.455" rx="3.92857" ry="3.93958" fill="#F7E5D0"/>
<ellipse cx="169.644" cy="208.455" rx="3.92858" ry="3.93958" fill="#F7E5D0"/>
<ellipse cx="75.3585" cy="224.214" rx="3.92857" ry="3.93933" fill="#F7E5D0"/>
<ellipse cx="91.0728" cy="224.214" rx="3.92857" ry="3.93933" fill="#F7E5D0"/>
<ellipse cx="106.787" cy="224.214" rx="3.92857" ry="3.93933" fill="#F7E5D0"/>
<ellipse cx="122.501" cy="224.214" rx="3.92856" ry="3.93933" fill="#F7E5D0"/>
<ellipse cx="138.216" cy="224.214" rx="3.92856" ry="3.93933" fill="#F7E5D0"/>
<ellipse cx="153.93" cy="224.214" rx="3.92857" ry="3.93933" fill="#F7E5D0"/>
<ellipse cx="169.644" cy="224.214" rx="3.92858" ry="3.93933" fill="#F7E5D0"/>
<path d="M42.253 158.93H43.256L48.271 171H47.013L45.449 167.226H40.026L38.479 171H37.204L42.253 158.93ZM45.177 166.291L42.746 160.324L40.281 166.291H45.177ZM49.7633 171V162.143H50.9193V171H49.7633ZM49.7633 160.29V158.59H50.9193V160.29H49.7633ZM52.8704 166.597C52.8704 165.758 53.0404 164.993 53.3804 164.302C53.7318 163.599 54.2134 163.038 54.8254 162.619C55.4374 162.2 56.1344 161.99 56.9164 161.99C57.6531 161.99 58.3104 162.188 58.8884 162.585C59.4778 162.97 59.9368 163.441 60.2654 163.996V158.59H61.4214V169.606C61.4214 169.765 61.4554 169.884 61.5234 169.963C61.5914 170.031 61.6934 170.071 61.8294 170.082V171C61.6028 171.034 61.4271 171.045 61.3024 171.034C61.0644 171.023 60.8548 170.926 60.6734 170.745C60.4921 170.564 60.4014 170.365 60.4014 170.15V169.283C60.0501 169.861 59.5741 170.32 58.9734 170.66C58.3728 171 57.7494 171.17 57.1034 171.17C56.4914 171.17 55.9248 171.045 55.4034 170.796C54.8934 170.547 54.4458 170.207 54.0604 169.776C53.6864 169.345 53.3918 168.858 53.1764 168.314C52.9724 167.759 52.8704 167.186 52.8704 166.597ZM60.2654 167.957V165.22C60.1181 164.812 59.8801 164.444 59.5514 164.115C59.2228 163.775 58.8488 163.509 58.4294 163.316C58.0214 163.112 57.6134 163.01 57.2054 163.01C56.7294 163.01 56.2988 163.112 55.9134 163.316C55.5281 163.509 55.1938 163.775 54.9104 164.115C54.6384 164.455 54.4288 164.84 54.2814 165.271C54.1341 165.702 54.0604 166.144 54.0604 166.597C54.0604 167.073 54.1398 167.526 54.2984 167.957C54.4684 168.388 54.7064 168.773 55.0124 169.113C55.3184 169.442 55.6698 169.697 56.0664 169.878C56.4631 170.059 56.8938 170.15 57.3584 170.15C57.6531 170.15 57.9591 170.093 58.2764 169.98C58.5938 169.867 58.8941 169.714 59.1774 169.521C59.4721 169.317 59.7158 169.079 59.9084 168.807C60.1011 168.535 60.2201 168.252 60.2654 167.957ZM67.8656 171.17C67.231 171.17 66.6416 171.051 66.0976 170.813C65.5536 170.564 65.0833 170.229 64.6866 169.81C64.29 169.379 63.9783 168.886 63.7516 168.331C63.5363 167.776 63.4286 167.181 63.4286 166.546C63.4286 165.719 63.6156 164.959 63.9896 164.268C64.375 163.577 64.902 163.027 65.5706 162.619C66.2393 162.2 66.9986 161.99 67.8486 161.99C68.7213 161.99 69.4806 162.2 70.1266 162.619C70.784 163.038 71.2996 163.594 71.6736 164.285C72.0476 164.965 72.2346 165.713 72.2346 166.529C72.2346 166.62 72.2346 166.71 72.2346 166.801C72.2346 166.88 72.229 166.943 72.2176 166.988H64.6356C64.6923 167.623 64.868 168.189 65.1626 168.688C65.4686 169.175 65.8596 169.566 66.3356 169.861C66.823 170.144 67.35 170.286 67.9166 170.286C68.4946 170.286 69.0386 170.139 69.5486 169.844C70.07 169.549 70.4326 169.164 70.6366 168.688L71.6396 168.96C71.4583 169.379 71.1806 169.759 70.8066 170.099C70.4326 170.439 69.9906 170.705 69.4806 170.898C68.982 171.079 68.4436 171.17 67.8656 171.17ZM64.6016 166.155H71.1466C71.1013 165.509 70.9256 164.942 70.6196 164.455C70.325 163.968 69.934 163.588 69.4466 163.316C68.9706 163.033 68.4436 162.891 67.8656 162.891C67.2876 162.891 66.7606 163.033 66.2846 163.316C65.8086 163.588 65.4176 163.973 65.1116 164.472C64.817 164.959 64.647 165.52 64.6016 166.155ZM73.154 170.218L79.087 163.01H73.29V162.143H80.396V162.925L74.497 170.133H80.379V171H73.154V170.218ZM90.0191 171.17C89.4185 171.17 88.8688 171.045 88.3701 170.796C87.8828 170.547 87.4635 170.207 87.1121 169.776C86.7608 169.345 86.4888 168.858 86.2961 168.314C86.1035 167.759 86.0071 167.181 86.0071 166.58C86.0071 165.957 86.1148 165.373 86.3301 164.829C86.5455 164.274 86.8401 163.786 87.2141 163.367C87.5995 162.936 88.0471 162.602 88.5571 162.364C89.0785 162.115 89.6338 161.99 90.2231 161.99C90.9145 161.99 91.5491 162.171 92.1271 162.534C92.7165 162.885 93.1755 163.333 93.5041 163.877V162.143H94.5411V174.621H93.3851V169.164C92.5125 170.501 91.3905 171.17 90.0191 171.17ZM90.3761 170.15C90.8408 170.15 91.2601 170.059 91.6341 169.878C92.0195 169.685 92.3538 169.43 92.6371 169.113C92.9318 168.796 93.1811 168.444 93.3851 168.059V165.322C93.3511 165.016 93.2378 164.727 93.0451 164.455C92.8525 164.172 92.6145 163.922 92.3311 163.707C92.0478 163.48 91.7418 163.31 91.4131 163.197C91.0845 163.072 90.7615 163.01 90.4441 163.01C89.9568 163.01 89.5148 163.112 89.1181 163.316C88.7328 163.52 88.3928 163.792 88.0981 164.132C87.8035 164.472 87.5768 164.857 87.4181 165.288C87.2595 165.719 87.1801 166.155 87.1801 166.597C87.1801 167.232 87.3161 167.821 87.5881 168.365C87.8715 168.909 88.2511 169.345 88.7271 169.674C89.2031 169.991 89.7528 170.15 90.3761 170.15ZM97.0093 167.345V162.143H98.1653V167.141C98.1653 168.15 98.3353 168.903 98.6753 169.402C99.0267 169.901 99.5423 170.15 100.222 170.15C100.676 170.15 101.112 170.054 101.531 169.861C101.962 169.657 102.342 169.374 102.67 169.011C102.999 168.637 103.248 168.206 103.418 167.719V162.143H104.574V169.606C104.574 169.765 104.608 169.884 104.676 169.963C104.744 170.031 104.846 170.071 104.982 170.082V171C104.846 171.011 104.739 171.017 104.659 171.017C104.58 171.028 104.506 171.034 104.438 171.034C104.212 171.011 104.013 170.921 103.843 170.762C103.685 170.603 103.6 170.411 103.588 170.184L103.554 168.994C103.169 169.674 102.642 170.207 101.973 170.592C101.316 170.977 100.602 171.17 99.8313 171.17C98.902 171.17 98.1993 170.847 97.7233 170.201C97.2473 169.555 97.0093 168.603 97.0093 167.345ZM111.013 171.17C110.378 171.17 109.789 171.051 109.245 170.813C108.701 170.564 108.231 170.229 107.834 169.81C107.437 169.379 107.126 168.886 106.899 168.331C106.684 167.776 106.576 167.181 106.576 166.546C106.576 165.719 106.763 164.959 107.137 164.268C107.522 163.577 108.049 163.027 108.718 162.619C109.387 162.2 110.146 161.99 110.996 161.99C111.869 161.99 112.628 162.2 113.274 162.619C113.931 163.038 114.447 163.594 114.821 164.285C115.195 164.965 115.382 165.713 115.382 166.529C115.382 166.62 115.382 166.71 115.382 166.801C115.382 166.88 115.376 166.943 115.365 166.988H107.783C107.84 167.623 108.015 168.189 108.31 168.688C108.616 169.175 109.007 169.566 109.483 169.861C109.97 170.144 110.497 170.286 111.064 170.286C111.642 170.286 112.186 170.139 112.696 169.844C113.217 169.549 113.58 169.164 113.784 168.688L114.787 168.96C114.606 169.379 114.328 169.759 113.954 170.099C113.58 170.439 113.138 170.705 112.628 170.898C112.129 171.079 111.591 171.17 111.013 171.17ZM107.749 166.155H114.294C114.249 165.509 114.073 164.942 113.767 164.455C113.472 163.968 113.081 163.588 112.594 163.316C112.118 163.033 111.591 162.891 111.013 162.891C110.435 162.891 109.908 163.033 109.432 163.316C108.956 163.588 108.565 163.973 108.259 164.472C107.964 164.959 107.794 165.52 107.749 166.155ZM117.217 158.59H118.373V168.994C118.373 169.436 118.452 169.725 118.611 169.861C118.769 169.997 118.962 170.065 119.189 170.065C119.393 170.065 119.597 170.042 119.801 169.997C120.005 169.952 120.18 169.906 120.328 169.861L120.532 170.796C120.316 170.887 120.05 170.96 119.733 171.017C119.427 171.074 119.16 171.102 118.934 171.102C118.412 171.102 117.993 170.949 117.676 170.643C117.37 170.337 117.217 169.918 117.217 169.385V158.59ZM125.214 171.17C124.614 171.17 124.064 171.045 123.565 170.796C123.078 170.547 122.659 170.207 122.307 169.776C121.956 169.345 121.684 168.858 121.491 168.314C121.299 167.759 121.202 167.181 121.202 166.58C121.202 165.957 121.31 165.373 121.525 164.829C121.741 164.274 122.035 163.786 122.409 163.367C122.795 162.936 123.242 162.602 123.752 162.364C124.274 162.115 124.829 161.99 125.418 161.99C126.11 161.99 126.744 162.171 127.322 162.534C127.912 162.885 128.371 163.333 128.699 163.877V162.143H129.736V174.621H128.58V169.164C127.708 170.501 126.586 171.17 125.214 171.17ZM125.571 170.15C126.036 170.15 126.455 170.059 126.829 169.878C127.215 169.685 127.549 169.43 127.832 169.113C128.127 168.796 128.376 168.444 128.58 168.059V165.322C128.546 165.016 128.433 164.727 128.24 164.455C128.048 164.172 127.81 163.922 127.526 163.707C127.243 163.48 126.937 163.31 126.608 163.197C126.28 163.072 125.957 163.01 125.639 163.01C125.152 163.01 124.71 163.112 124.313 163.316C123.928 163.52 123.588 163.792 123.293 164.132C122.999 164.472 122.772 164.857 122.613 165.288C122.455 165.719 122.375 166.155 122.375 166.597C122.375 167.232 122.511 167.821 122.783 168.365C123.067 168.909 123.446 169.345 123.922 169.674C124.398 169.991 124.948 170.15 125.571 170.15ZM132.205 167.345V162.143H133.361V167.141C133.361 168.15 133.531 168.903 133.871 169.402C134.222 169.901 134.738 170.15 135.418 170.15C135.871 170.15 136.307 170.054 136.727 169.861C137.157 169.657 137.537 169.374 137.866 169.011C138.194 168.637 138.444 168.206 138.614 167.719V162.143H139.77V169.606C139.77 169.765 139.804 169.884 139.872 169.963C139.94 170.031 140.042 170.071 140.178 170.082V171C140.042 171.011 139.934 171.017 139.855 171.017C139.775 171.028 139.702 171.034 139.634 171.034C139.407 171.011 139.209 170.921 139.039 170.762C138.88 170.603 138.795 170.411 138.784 170.184L138.75 168.994C138.364 169.674 137.837 170.207 137.169 170.592C136.511 170.977 135.797 171.17 135.027 171.17C134.097 171.17 133.395 170.847 132.919 170.201C132.443 169.555 132.205 168.603 132.205 167.345ZM141.568 162.143L141.857 160.324H141.449V158.59H142.571V160.324L142.146 162.143H141.568ZM143.992 167.345V162.143H145.148V167.141C145.148 168.15 145.318 168.903 145.658 169.402C146.009 169.901 146.525 170.15 147.205 170.15C147.658 170.15 148.094 170.054 148.514 169.861C148.944 169.657 149.324 169.374 149.653 169.011C149.981 168.637 150.231 168.206 150.401 167.719V162.143H151.557V169.606C151.557 169.765 151.591 169.884 151.659 169.963C151.727 170.031 151.829 170.071 151.965 170.082V171C151.829 171.011 151.721 171.017 151.642 171.017C151.562 171.028 151.489 171.034 151.421 171.034C151.194 171.011 150.996 170.921 150.826 170.762C150.667 170.603 150.582 170.411 150.571 170.184L150.537 168.994C150.151 169.674 149.624 170.207 148.956 170.592C148.298 170.977 147.584 171.17 146.814 171.17C145.884 171.17 145.182 170.847 144.706 170.201C144.23 169.555 143.992 168.603 143.992 167.345ZM161.617 171H160.461V166.053C160.461 165.01 160.308 164.251 160.002 163.775C159.696 163.288 159.214 163.044 158.557 163.044C158.103 163.044 157.656 163.157 157.214 163.384C156.772 163.599 156.381 163.9 156.041 164.285C155.712 164.659 155.474 165.09 155.327 165.577V171H154.171V162.143H155.225V164.149C155.463 163.718 155.774 163.344 156.16 163.027C156.545 162.698 156.981 162.443 157.469 162.262C157.956 162.081 158.46 161.99 158.982 161.99C159.469 161.99 159.883 162.081 160.223 162.262C160.563 162.443 160.835 162.704 161.039 163.044C161.243 163.373 161.39 163.775 161.481 164.251C161.571 164.716 161.617 165.237 161.617 165.815V171ZM171.832 171.17C171.231 171.17 170.681 171.045 170.183 170.796C169.695 170.547 169.276 170.207 168.925 169.776C168.573 169.345 168.301 168.858 168.109 168.314C167.916 167.759 167.82 167.181 167.82 166.58C167.82 165.957 167.927 165.373 168.143 164.829C168.358 164.274 168.653 163.786 169.027 163.367C169.412 162.936 169.86 162.602 170.37 162.364C170.891 162.115 171.446 161.99 172.036 161.99C172.727 161.99 173.362 162.171 173.94 162.534C174.529 162.885 174.988 163.333 175.317 163.877V162.143H176.354V174.621H175.198V169.164C174.325 170.501 173.203 171.17 171.832 171.17ZM172.189 170.15C172.653 170.15 173.073 170.059 173.447 169.878C173.832 169.685 174.166 169.43 174.45 169.113C174.744 168.796 174.994 168.444 175.198 168.059V165.322C175.164 165.016 175.05 164.727 174.858 164.455C174.665 164.172 174.427 163.922 174.144 163.707C173.86 163.48 173.554 163.31 173.226 163.197C172.897 163.072 172.574 163.01 172.257 163.01C171.769 163.01 171.327 163.112 170.931 163.316C170.545 163.52 170.205 163.792 169.911 164.132C169.616 164.472 169.389 164.857 169.231 165.288C169.072 165.719 168.993 166.155 168.993 166.597C168.993 167.232 169.129 167.821 169.401 168.365C169.684 168.909 170.064 169.345 170.54 169.674C171.016 169.991 171.565 170.15 172.189 170.15ZM178.822 167.345V162.143H179.978V167.141C179.978 168.15 180.148 168.903 180.488 169.402C180.839 169.901 181.355 170.15 182.035 170.15C182.488 170.15 182.925 170.054 183.344 169.861C183.775 169.657 184.154 169.374 184.483 169.011C184.812 168.637 185.061 168.206 185.231 167.719V162.143H186.387V169.606C186.387 169.765 186.421 169.884 186.489 169.963C186.557 170.031 186.659 170.071 186.795 170.082V171C186.659 171.011 186.551 171.017 186.472 171.017C186.393 171.028 186.319 171.034 186.251 171.034C186.024 171.011 185.826 170.921 185.656 170.762C185.497 170.603 185.412 170.411 185.401 170.184L185.367 168.994C184.982 169.674 184.455 170.207 183.786 170.592C183.129 170.977 182.415 171.17 181.644 171.17C180.715 171.17 180.012 170.847 179.536 170.201C179.06 169.555 178.822 168.603 178.822 167.345ZM189.001 171V162.143H190.157V171H189.001ZM189.001 160.29V158.59H190.157V160.29H189.001ZM40.91 194L37.323 185.143H38.53L41.556 192.844L44.599 185.143H45.738L42.151 194H40.91ZM47.3395 194V185.143H48.4955V194H47.3395ZM47.3395 183.29V181.59H48.4955V183.29H47.3395ZM54.8666 194.17C54.2319 194.17 53.6426 194.051 53.0986 193.813C52.5546 193.564 52.0843 193.229 51.6876 192.81C51.2909 192.379 50.9793 191.886 50.7526 191.331C50.5373 190.776 50.4296 190.181 50.4296 189.546C50.4296 188.719 50.6166 187.959 50.9906 187.268C51.3759 186.577 51.9029 186.027 52.5716 185.619C53.2403 185.2 53.9996 184.99 54.8496 184.99C55.7223 184.99 56.4816 185.2 57.1276 185.619C57.7849 186.038 58.3006 186.594 58.6746 187.285C59.0486 187.965 59.2356 188.713 59.2356 189.529C59.2356 189.62 59.2356 189.71 59.2356 189.801C59.2356 189.88 59.2299 189.943 59.2186 189.988H51.6366C51.6933 190.623 51.8689 191.189 52.1636 191.688C52.4696 192.175 52.8606 192.566 53.3366 192.861C53.8239 193.144 54.3509 193.286 54.9176 193.286C55.4956 193.286 56.0396 193.139 56.5496 192.844C57.0709 192.549 57.4336 192.164 57.6376 191.688L58.6406 191.96C58.4593 192.379 58.1816 192.759 57.8076 193.099C57.4336 193.439 56.9916 193.705 56.4816 193.898C55.9829 194.079 55.4446 194.17 54.8666 194.17ZM51.6026 189.155H58.1476C58.1023 188.509 57.9266 187.942 57.6206 187.455C57.3259 186.968 56.9349 186.588 56.4476 186.316C55.9716 186.033 55.4446 185.891 54.8666 185.891C54.2886 185.891 53.7616 186.033 53.2856 186.316C52.8096 186.588 52.4186 186.973 52.1126 187.472C51.8179 187.959 51.6479 188.52 51.6026 189.155ZM68.4651 194H67.3091V189.053C67.3091 188.01 67.1561 187.251 66.8501 186.775C66.5441 186.288 66.0625 186.044 65.4051 186.044C64.9518 186.044 64.5041 186.157 64.0621 186.384C63.6201 186.599 63.2291 186.9 62.8891 187.285C62.5605 187.659 62.3225 188.09 62.1751 188.577V194H61.0191V185.143H62.0731V187.149C62.3111 186.718 62.6228 186.344 63.0081 186.027C63.3935 185.698 63.8298 185.443 64.3171 185.262C64.8045 185.081 65.3088 184.99 65.8301 184.99C66.3175 184.99 66.7311 185.081 67.0711 185.262C67.4111 185.443 67.6831 185.704 67.8871 186.044C68.0911 186.373 68.2385 186.775 68.3291 187.251C68.4198 187.716 68.4651 188.237 68.4651 188.815V194ZM70.3353 189.597C70.3353 188.758 70.5053 187.993 70.8453 187.302C71.1966 186.599 71.6783 186.038 72.2903 185.619C72.9023 185.2 73.5993 184.99 74.3813 184.99C75.1179 184.99 75.7753 185.188 76.3533 185.585C76.9426 185.97 77.4016 186.441 77.7303 186.996V181.59H78.8863V192.606C78.8863 192.765 78.9203 192.884 78.9883 192.963C79.0563 193.031 79.1583 193.071 79.2943 193.082V194C79.0676 194.034 78.8919 194.045 78.7673 194.034C78.5293 194.023 78.3196 193.926 78.1383 193.745C77.9569 193.564 77.8663 193.365 77.8663 193.15V192.283C77.5149 192.861 77.0389 193.32 76.4383 193.66C75.8376 194 75.2143 194.17 74.5683 194.17C73.9563 194.17 73.3896 194.045 72.8683 193.796C72.3583 193.547 71.9106 193.207 71.5253 192.776C71.1513 192.345 70.8566 191.858 70.6413 191.314C70.4373 190.759 70.3353 190.186 70.3353 189.597ZM77.7303 190.957V188.22C77.5829 187.812 77.3449 187.444 77.0163 187.115C76.6876 186.775 76.3136 186.509 75.8943 186.316C75.4863 186.112 75.0783 186.01 74.6703 186.01C74.1943 186.01 73.7636 186.112 73.3783 186.316C72.9929 186.509 72.6586 186.775 72.3753 187.115C72.1033 187.455 71.8936 187.84 71.7463 188.271C71.5989 188.702 71.5253 189.144 71.5253 189.597C71.5253 190.073 71.6046 190.526 71.7633 190.957C71.9333 191.388 72.1713 191.773 72.4773 192.113C72.7833 192.442 73.1346 192.697 73.5313 192.878C73.9279 193.059 74.3586 193.15 74.8233 193.15C75.1179 193.15 75.4239 193.093 75.7413 192.98C76.0586 192.867 76.3589 192.714 76.6423 192.521C76.9369 192.317 77.1806 192.079 77.3733 191.807C77.5659 191.535 77.6849 191.252 77.7303 190.957ZM85.9255 186.163C85.1548 186.186 84.4748 186.401 83.8855 186.809C83.3075 187.217 82.8995 187.778 82.6615 188.492V194H81.5055V185.143H82.5935V187.268C82.8995 186.645 83.3018 186.14 83.8005 185.755C84.3105 185.37 84.8488 185.154 85.4155 185.109C85.5288 185.098 85.6251 185.092 85.7045 185.092C85.7951 185.092 85.8688 185.098 85.9255 185.109V186.163ZM86.7182 191.45C86.7182 190.895 86.8769 190.419 87.1942 190.022C87.5116 189.614 87.9479 189.302 88.5032 189.087C89.0699 188.86 89.7216 188.747 90.4582 188.747C90.8889 188.747 91.3366 188.781 91.8012 188.849C92.2659 188.917 92.6796 189.019 93.0422 189.155V188.407C93.0422 187.659 92.8212 187.064 92.3792 186.622C91.9372 186.18 91.3252 185.959 90.5432 185.959C90.0672 185.959 89.5969 186.05 89.1322 186.231C88.6789 186.401 88.2029 186.656 87.7042 186.996L87.2622 186.18C87.8402 185.783 88.4069 185.489 88.9622 185.296C89.5176 185.092 90.0842 184.99 90.6622 184.99C91.7502 184.99 92.6116 185.302 93.2462 185.925C93.8809 186.548 94.1982 187.41 94.1982 188.509V192.606C94.1982 192.765 94.2322 192.884 94.3002 192.963C94.3682 193.031 94.4759 193.071 94.6232 193.082V194C94.4986 194.011 94.3909 194.023 94.3002 194.034C94.2096 194.045 94.1416 194.045 94.0962 194.034C93.8129 194.023 93.5976 193.932 93.4502 193.762C93.3029 193.592 93.2236 193.411 93.2122 193.218L93.1952 192.572C92.7986 193.082 92.2829 193.479 91.6482 193.762C91.0136 194.034 90.3676 194.17 89.7102 194.17C89.1436 194.17 88.6279 194.051 88.1632 193.813C87.7099 193.564 87.3529 193.235 87.0922 192.827C86.8429 192.408 86.7182 191.949 86.7182 191.45ZM92.6512 192.13C92.7759 191.971 92.8722 191.818 92.9402 191.671C93.0082 191.524 93.0422 191.393 93.0422 191.28V189.988C92.6569 189.841 92.2546 189.727 91.8352 189.648C91.4272 189.569 91.0136 189.529 90.5942 189.529C89.7669 189.529 89.0982 189.693 88.5882 190.022C88.0782 190.351 87.8232 190.798 87.8232 191.365C87.8232 191.694 87.9082 192.005 88.0782 192.3C88.2482 192.583 88.4976 192.821 88.8262 193.014C89.1549 193.195 89.5402 193.286 89.9822 193.286C90.5376 193.286 91.0532 193.178 91.5292 192.963C92.0166 192.748 92.3906 192.47 92.6512 192.13ZM105.449 186.163C104.678 186.186 103.998 186.401 103.409 186.809C102.831 187.217 102.423 187.778 102.185 188.492V194H101.029V185.143H102.117V187.268C102.423 186.645 102.825 186.14 103.324 185.755C103.834 185.37 104.372 185.154 104.939 185.109C105.052 185.098 105.149 185.092 105.228 185.092C105.319 185.092 105.392 185.098 105.449 185.109V186.163ZM110.532 194.17C109.897 194.17 109.308 194.051 108.764 193.813C108.22 193.564 107.749 193.229 107.353 192.81C106.956 192.379 106.644 191.886 106.418 191.331C106.202 190.776 106.095 190.181 106.095 189.546C106.095 188.719 106.282 187.959 106.656 187.268C107.041 186.577 107.568 186.027 108.237 185.619C108.905 185.2 109.665 184.99 110.515 184.99C111.387 184.99 112.147 185.2 112.793 185.619C113.45 186.038 113.966 186.594 114.34 187.285C114.714 187.965 114.901 188.713 114.901 189.529C114.901 189.62 114.901 189.71 114.901 189.801C114.901 189.88 114.895 189.943 114.884 189.988H107.302C107.358 190.623 107.534 191.189 107.829 191.688C108.135 192.175 108.526 192.566 109.002 192.861C109.489 193.144 110.016 193.286 110.583 193.286C111.161 193.286 111.705 193.139 112.215 192.844C112.736 192.549 113.099 192.164 113.303 191.688L114.306 191.96C114.124 192.379 113.847 192.759 113.473 193.099C113.099 193.439 112.657 193.705 112.147 193.898C111.648 194.079 111.11 194.17 110.532 194.17ZM107.268 189.155H113.813C113.767 188.509 113.592 187.942 113.286 187.455C112.991 186.968 112.6 186.588 112.113 186.316C111.637 186.033 111.11 185.891 110.532 185.891C109.954 185.891 109.427 186.033 108.951 186.316C108.475 186.588 108.084 186.973 107.778 187.472C107.483 187.959 107.313 188.52 107.268 189.155ZM110.872 183.46L110.107 183.171L111.11 181.59H112.334L110.872 183.46ZM120.526 194.17C119.88 194.17 119.285 194.051 118.741 193.813C118.209 193.564 117.738 193.224 117.33 192.793C116.934 192.362 116.622 191.869 116.395 191.314C116.18 190.759 116.072 190.169 116.072 189.546C116.072 188.707 116.259 187.942 116.633 187.251C117.007 186.56 117.529 186.01 118.197 185.602C118.866 185.194 119.637 184.99 120.509 184.99C121.337 184.99 122.068 185.183 122.702 185.568C123.337 185.942 123.807 186.452 124.113 187.098L122.991 187.455C122.742 187.002 122.391 186.65 121.937 186.401C121.495 186.14 121.002 186.01 120.458 186.01C119.869 186.01 119.331 186.163 118.843 186.469C118.356 186.775 117.965 187.194 117.67 187.727C117.387 188.26 117.245 188.866 117.245 189.546C117.245 190.215 117.393 190.821 117.687 191.365C117.982 191.909 118.373 192.345 118.86 192.674C119.348 192.991 119.886 193.15 120.475 193.15C120.861 193.15 121.229 193.082 121.58 192.946C121.943 192.81 122.255 192.629 122.515 192.402C122.787 192.164 122.969 191.909 123.059 191.637L124.198 191.977C124.04 192.396 123.773 192.776 123.399 193.116C123.037 193.445 122.606 193.705 122.107 193.898C121.62 194.079 121.093 194.17 120.526 194.17ZM125.929 190.345V185.143H127.085V190.141C127.085 191.15 127.255 191.903 127.595 192.402C127.947 192.901 128.462 193.15 129.142 193.15C129.596 193.15 130.032 193.054 130.451 192.861C130.882 192.657 131.262 192.374 131.59 192.011C131.919 191.637 132.168 191.206 132.338 190.719V185.143H133.494V192.606C133.494 192.765 133.528 192.884 133.596 192.963C133.664 193.031 133.766 193.071 133.902 193.082V194C133.766 194.011 133.659 194.017 133.579 194.017C133.5 194.028 133.426 194.034 133.358 194.034C133.132 194.011 132.933 193.921 132.763 193.762C132.605 193.603 132.52 193.411 132.508 193.184L132.474 191.994C132.089 192.674 131.562 193.207 130.893 193.592C130.236 193.977 129.522 194.17 128.751 194.17C127.822 194.17 127.119 193.847 126.643 193.201C126.167 192.555 125.929 191.603 125.929 190.345ZM140.63 194.17C139.893 194.17 139.23 193.977 138.641 193.592C138.063 193.207 137.604 192.731 137.264 192.164V197.621H136.108V185.143H137.145V186.86C137.496 186.305 137.967 185.857 138.556 185.517C139.145 185.166 139.774 184.99 140.443 184.99C141.055 184.99 141.616 185.12 142.126 185.381C142.636 185.63 143.078 185.97 143.452 186.401C143.826 186.832 144.115 187.325 144.319 187.88C144.534 188.424 144.642 188.991 144.642 189.58C144.642 190.407 144.472 191.172 144.132 191.875C143.803 192.566 143.339 193.122 142.738 193.541C142.137 193.96 141.435 194.17 140.63 194.17ZM140.307 193.15C140.794 193.15 141.231 193.054 141.616 192.861C142.001 192.657 142.33 192.385 142.602 192.045C142.885 191.705 143.101 191.325 143.248 190.906C143.395 190.475 143.469 190.033 143.469 189.58C143.469 189.104 143.384 188.651 143.214 188.22C143.055 187.789 142.823 187.41 142.517 187.081C142.211 186.752 141.86 186.492 141.463 186.299C141.066 186.106 140.636 186.01 140.171 186.01C139.876 186.01 139.57 186.067 139.253 186.18C138.936 186.293 138.63 186.458 138.335 186.673C138.052 186.877 137.814 187.109 137.621 187.37C137.428 187.631 137.309 187.908 137.264 188.203V190.923C137.445 191.342 137.689 191.722 137.995 192.062C138.301 192.391 138.652 192.657 139.049 192.861C139.457 193.054 139.876 193.15 140.307 193.15ZM150.425 194.17C149.791 194.17 149.201 194.051 148.657 193.813C148.113 193.564 147.643 193.229 147.246 192.81C146.85 192.379 146.538 191.886 146.311 191.331C146.096 190.776 145.988 190.181 145.988 189.546C145.988 188.719 146.175 187.959 146.549 187.268C146.935 186.577 147.462 186.027 148.13 185.619C148.799 185.2 149.558 184.99 150.408 184.99C151.281 184.99 152.04 185.2 152.686 185.619C153.344 186.038 153.859 186.594 154.233 187.285C154.607 187.965 154.794 188.713 154.794 189.529C154.794 189.62 154.794 189.71 154.794 189.801C154.794 189.88 154.789 189.943 154.777 189.988H147.195C147.252 190.623 147.428 191.189 147.722 191.688C148.028 192.175 148.419 192.566 148.895 192.861C149.383 193.144 149.91 193.286 150.476 193.286C151.054 193.286 151.598 193.139 152.108 192.844C152.63 192.549 152.992 192.164 153.196 191.688L154.199 191.96C154.018 192.379 153.74 192.759 153.366 193.099C152.992 193.439 152.55 193.705 152.04 193.898C151.542 194.079 151.003 194.17 150.425 194.17ZM147.161 189.155H153.706C153.661 188.509 153.485 187.942 153.179 187.455C152.885 186.968 152.494 186.588 152.006 186.316C151.53 186.033 151.003 185.891 150.425 185.891C149.847 185.891 149.32 186.033 148.844 186.316C148.368 186.588 147.977 186.973 147.671 187.472C147.377 187.959 147.207 188.52 147.161 189.155ZM150.765 183.46L150 183.171L151.003 181.59H152.227L150.765 183.46ZM160.998 186.163C160.227 186.186 159.547 186.401 158.958 186.809C158.38 187.217 157.972 187.778 157.734 188.492V194H156.578V185.143H157.666V187.268C157.972 186.645 158.374 186.14 158.873 185.755C159.383 185.37 159.921 185.154 160.488 185.109C160.601 185.098 160.697 185.092 160.777 185.092C160.867 185.092 160.941 185.098 160.998 185.109V186.163ZM166.08 194.17C165.446 194.17 164.856 194.051 164.312 193.813C163.768 193.564 163.298 193.229 162.901 192.81C162.505 192.379 162.193 191.886 161.966 191.331C161.751 190.776 161.643 190.181 161.643 189.546C161.643 188.719 161.83 187.959 162.204 187.268C162.59 186.577 163.117 186.027 163.785 185.619C164.454 185.2 165.213 184.99 166.063 184.99C166.936 184.99 167.695 185.2 168.341 185.619C168.999 186.038 169.514 186.594 169.888 187.285C170.262 187.965 170.449 188.713 170.449 189.529C170.449 189.62 170.449 189.71 170.449 189.801C170.449 189.88 170.444 189.943 170.432 189.988H162.85C162.907 190.623 163.083 191.189 163.377 191.688C163.683 192.175 164.074 192.566 164.55 192.861C165.038 193.144 165.565 193.286 166.131 193.286C166.709 193.286 167.253 193.139 167.763 192.844C168.285 192.549 168.647 192.164 168.851 191.688L169.854 191.96C169.673 192.379 169.395 192.759 169.021 193.099C168.647 193.439 168.205 193.705 167.695 193.898C167.197 194.079 166.658 194.17 166.08 194.17ZM162.816 189.155H169.361C169.316 188.509 169.14 187.942 168.834 187.455C168.54 186.968 168.149 186.588 167.661 186.316C167.185 186.033 166.658 185.891 166.08 185.891C165.502 185.891 164.975 186.033 164.499 186.316C164.023 186.588 163.632 186.973 163.326 187.472C163.032 187.959 162.862 188.52 162.816 189.155ZM176.653 186.163C175.882 186.186 175.202 186.401 174.613 186.809C174.035 187.217 173.627 187.778 173.389 188.492V194H172.233V185.143H173.321V187.268C173.627 186.645 174.029 186.14 174.528 185.755C175.038 185.37 175.576 185.154 176.143 185.109C176.256 185.098 176.353 185.092 176.432 185.092C176.523 185.092 176.596 185.098 176.653 185.109V186.163ZM42.117 217.17C41.471 217.17 40.876 217.051 40.332 216.813C39.7993 216.564 39.329 216.224 38.921 215.793C38.5243 215.362 38.2127 214.869 37.986 214.314C37.7707 213.759 37.663 213.169 37.663 212.546C37.663 211.707 37.85 210.942 38.224 210.251C38.598 209.56 39.1193 209.01 39.788 208.602C40.4567 208.194 41.2273 207.99 42.1 207.99C42.9273 207.99 43.6583 208.183 44.293 208.568C44.9277 208.942 45.398 209.452 45.704 210.098L44.582 210.455C44.3327 210.002 43.9813 209.65 43.528 209.401C43.086 209.14 42.593 209.01 42.049 209.01C41.4597 209.01 40.9213 209.163 40.434 209.469C39.9467 209.775 39.5557 210.194 39.261 210.727C38.9777 211.26 38.836 211.866 38.836 212.546C38.836 213.215 38.9833 213.821 39.278 214.365C39.5727 214.909 39.9637 215.345 40.451 215.674C40.9383 215.991 41.4767 216.15 42.066 216.15C42.4513 216.15 42.8197 216.082 43.171 215.946C43.5337 215.81 43.8453 215.629 44.106 215.402C44.378 215.164 44.5593 214.909 44.65 214.637L45.789 214.977C45.6303 215.396 45.364 215.776 44.99 216.116C44.6273 216.445 44.1967 216.705 43.698 216.898C43.2107 217.079 42.6837 217.17 42.117 217.17ZM51.3471 217.17C50.7124 217.17 50.1231 217.051 49.5791 216.813C49.0351 216.564 48.5647 216.229 48.1681 215.81C47.7714 215.379 47.4597 214.886 47.2331 214.331C47.0177 213.776 46.9101 213.181 46.9101 212.546C46.9101 211.719 47.0971 210.959 47.4711 210.268C47.8564 209.577 48.3834 209.027 49.0521 208.619C49.7207 208.2 50.4801 207.99 51.3301 207.99C52.2027 207.99 52.9621 208.2 53.6081 208.619C54.2654 209.038 54.7811 209.594 55.1551 210.285C55.5291 210.965 55.7161 211.713 55.7161 212.529C55.7161 212.62 55.7161 212.71 55.7161 212.801C55.7161 212.88 55.7104 212.943 55.6991 212.988H48.1171C48.1737 213.623 48.3494 214.189 48.6441 214.688C48.9501 215.175 49.3411 215.566 49.8171 215.861C50.3044 216.144 50.8314 216.286 51.3981 216.286C51.9761 216.286 52.5201 216.139 53.0301 215.844C53.5514 215.549 53.9141 215.164 54.1181 214.688L55.1211 214.96C54.9397 215.379 54.6621 215.759 54.2881 216.099C53.9141 216.439 53.4721 216.705 52.9621 216.898C52.4634 217.079 51.9251 217.17 51.3471 217.17ZM48.0831 212.155H54.6281C54.5827 211.509 54.4071 210.942 54.1011 210.455C53.8064 209.968 53.4154 209.588 52.9281 209.316C52.4521 209.033 51.9251 208.891 51.3471 208.891C50.7691 208.891 50.2421 209.033 49.7661 209.316C49.2901 209.588 48.8991 209.973 48.5931 210.472C48.2984 210.959 48.1284 211.52 48.0831 212.155ZM61.6666 216.575C61.5759 216.609 61.4343 216.671 61.2416 216.762C61.0489 216.853 60.8166 216.932 60.5446 217C60.2726 217.068 59.9779 217.102 59.6606 217.102C59.3319 217.102 59.0203 217.04 58.7256 216.915C58.4423 216.79 58.2156 216.603 58.0456 216.354C57.8756 216.093 57.7906 215.776 57.7906 215.402V209.061H56.5666V208.143H57.7906V205.151H58.9466V208.143H60.9866V209.061H58.9466V215.079C58.9693 215.396 59.0826 215.634 59.2866 215.793C59.5019 215.952 59.7456 216.031 60.0176 216.031C60.3349 216.031 60.6239 215.98 60.8846 215.878C61.1453 215.765 61.3039 215.685 61.3606 215.64L61.6666 216.575ZM67.3609 216.575C67.2703 216.609 67.1286 216.671 66.9359 216.762C66.7433 216.853 66.5109 216.932 66.2389 217C65.9669 217.068 65.6723 217.102 65.3549 217.102C65.0263 217.102 64.7146 217.04 64.4199 216.915C64.1366 216.79 63.9099 216.603 63.7399 216.354C63.5699 216.093 63.4849 215.776 63.4849 215.402V209.061H62.2609V208.143H63.4849V205.151H64.6409V208.143H66.6809V209.061H64.6409V215.079C64.6636 215.396 64.7769 215.634 64.9809 215.793C65.1963 215.952 65.4399 216.031 65.7119 216.031C66.0293 216.031 66.3183 215.98 66.5789 215.878C66.8396 215.765 66.9983 215.685 67.0549 215.64L67.3609 216.575ZM72.4809 217.17C71.8462 217.17 71.2569 217.051 70.7129 216.813C70.1689 216.564 69.6985 216.229 69.3019 215.81C68.9052 215.379 68.5935 214.886 68.3669 214.331C68.1515 213.776 68.0439 213.181 68.0439 212.546C68.0439 211.719 68.2309 210.959 68.6049 210.268C68.9902 209.577 69.5172 209.027 70.1859 208.619C70.8545 208.2 71.6139 207.99 72.4639 207.99C73.3365 207.99 74.0959 208.2 74.7419 208.619C75.3992 209.038 75.9149 209.594 76.2889 210.285C76.6629 210.965 76.8499 211.713 76.8499 212.529C76.8499 212.62 76.8499 212.71 76.8499 212.801C76.8499 212.88 76.8442 212.943 76.8329 212.988H69.2509C69.3075 213.623 69.4832 214.189 69.7779 214.688C70.0839 215.175 70.4749 215.566 70.9509 215.861C71.4382 216.144 71.9652 216.286 72.5319 216.286C73.1099 216.286 73.6539 216.139 74.1639 215.844C74.6852 215.549 75.0479 215.164 75.2519 214.688L76.2549 214.96C76.0735 215.379 75.7959 215.759 75.4219 216.099C75.0479 216.439 74.6059 216.705 74.0959 216.898C73.5972 217.079 73.0589 217.17 72.4809 217.17ZM69.2169 212.155H75.7619C75.7165 211.509 75.5409 210.942 75.2349 210.455C74.9402 209.968 74.5492 209.588 74.0619 209.316C73.5859 209.033 73.0589 208.891 72.4809 208.891C71.9029 208.891 71.3759 209.033 70.8999 209.316C70.4239 209.588 70.0329 209.973 69.7269 210.472C69.4322 210.959 69.2622 211.52 69.2169 212.155ZM87.3014 217.17C86.6101 217.17 85.9697 216.994 85.3804 216.643C84.7911 216.28 84.3321 215.827 84.0034 215.283V217H82.9664V204.59H84.1224V209.996C84.5191 209.395 84.9951 208.914 85.5504 208.551C86.1057 208.177 86.7517 207.99 87.4884 207.99C88.1117 207.99 88.6671 208.12 89.1544 208.381C89.6531 208.642 90.0781 208.993 90.4294 209.435C90.7807 209.866 91.0471 210.359 91.2284 210.914C91.4097 211.458 91.5004 212.019 91.5004 212.597C91.5004 213.22 91.3927 213.804 91.1774 214.348C90.9734 214.892 90.6787 215.379 90.2934 215.81C89.9081 216.229 89.4604 216.564 88.9504 216.813C88.4517 217.051 87.9021 217.17 87.3014 217.17ZM87.0294 216.15C87.5054 216.15 87.9474 216.054 88.3554 215.861C88.7634 215.668 89.1147 215.402 89.4094 215.062C89.7041 214.722 89.9307 214.342 90.0894 213.923C90.2481 213.492 90.3274 213.05 90.3274 212.597C90.3274 211.974 90.1914 211.39 89.9194 210.846C89.6587 210.291 89.2904 209.849 88.8144 209.52C88.3497 209.18 87.8001 209.01 87.1654 209.01C86.7121 209.01 86.2871 209.112 85.8904 209.316C85.5051 209.52 85.1594 209.792 84.8534 210.132C84.5587 210.461 84.3151 210.823 84.1224 211.22V213.974C84.1677 214.28 84.2867 214.569 84.4794 214.841C84.6721 215.102 84.9101 215.328 85.1934 215.521C85.4881 215.714 85.7941 215.867 86.1114 215.98C86.4287 216.093 86.7347 216.15 87.0294 216.15ZM92.7446 214.45C92.7446 213.895 92.9033 213.419 93.2206 213.022C93.5379 212.614 93.9743 212.302 94.5296 212.087C95.0963 211.86 95.7479 211.747 96.4846 211.747C96.9153 211.747 97.3629 211.781 97.8276 211.849C98.2923 211.917 98.7059 212.019 99.0686 212.155V211.407C99.0686 210.659 98.8476 210.064 98.4056 209.622C97.9636 209.18 97.3516 208.959 96.5696 208.959C96.0936 208.959 95.6233 209.05 95.1586 209.231C94.7053 209.401 94.2293 209.656 93.7306 209.996L93.2886 209.18C93.8666 208.783 94.4333 208.489 94.9886 208.296C95.5439 208.092 96.1106 207.99 96.6886 207.99C97.7766 207.99 98.6379 208.302 99.2726 208.925C99.9073 209.548 100.225 210.41 100.225 211.509V215.606C100.225 215.765 100.259 215.884 100.327 215.963C100.395 216.031 100.502 216.071 100.65 216.082V217C100.525 217.011 100.417 217.023 100.327 217.034C100.236 217.045 100.168 217.045 100.123 217.034C99.8393 217.023 99.6239 216.932 99.4766 216.762C99.3293 216.592 99.2499 216.411 99.2386 216.218L99.2216 215.572C98.8249 216.082 98.3093 216.479 97.6746 216.762C97.0399 217.034 96.3939 217.17 95.7366 217.17C95.1699 217.17 94.6543 217.051 94.1896 216.813C93.7363 216.564 93.3793 216.235 93.1186 215.827C92.8693 215.408 92.7446 214.949 92.7446 214.45ZM98.6776 215.13C98.8023 214.971 98.8986 214.818 98.9666 214.671C99.0346 214.524 99.0686 214.393 99.0686 214.28V212.988C98.6833 212.841 98.2809 212.727 97.8616 212.648C97.4536 212.569 97.0399 212.529 96.6206 212.529C95.7933 212.529 95.1246 212.693 94.6146 213.022C94.1046 213.351 93.8496 213.798 93.8496 214.365C93.8496 214.694 93.9346 215.005 94.1046 215.3C94.2746 215.583 94.5239 215.821 94.8526 216.014C95.1813 216.195 95.5666 216.286 96.0086 216.286C96.5639 216.286 97.0796 216.178 97.5556 215.963C98.0429 215.748 98.4169 215.47 98.6776 215.13ZM106.275 217.119C105.675 217.119 105.119 216.994 104.609 216.745C104.099 216.496 103.657 216.161 103.283 215.742C102.921 215.311 102.637 214.824 102.433 214.28C102.229 213.736 102.127 213.175 102.127 212.597C102.127 211.974 102.224 211.39 102.416 210.846C102.62 210.291 102.904 209.798 103.266 209.367C103.64 208.936 104.077 208.602 104.575 208.364C105.074 208.115 105.629 207.99 106.241 207.99C107.001 207.99 107.658 208.183 108.213 208.568C108.78 208.953 109.256 209.429 109.641 209.996V208.143H110.678V217.034C110.678 217.85 110.48 218.536 110.083 219.091C109.698 219.658 109.171 220.083 108.502 220.366C107.845 220.649 107.125 220.791 106.343 220.791C105.335 220.791 104.519 220.61 103.895 220.247C103.272 219.884 102.762 219.397 102.365 218.785L103.079 218.224C103.431 218.779 103.895 219.193 104.473 219.465C105.063 219.737 105.686 219.873 106.343 219.873C106.921 219.873 107.448 219.765 107.924 219.55C108.412 219.346 108.797 219.034 109.08 218.615C109.375 218.196 109.522 217.669 109.522 217.034V215.283C109.182 215.838 108.718 216.286 108.128 216.626C107.539 216.955 106.921 217.119 106.275 217.119ZM106.598 216.15C106.95 216.15 107.284 216.088 107.601 215.963C107.93 215.838 108.23 215.674 108.502 215.47C108.774 215.255 109.001 215.017 109.182 214.756C109.364 214.495 109.477 214.229 109.522 213.957V211.22C109.352 210.789 109.109 210.41 108.791 210.081C108.474 209.741 108.111 209.48 107.703 209.299C107.307 209.106 106.893 209.01 106.462 209.01C105.964 209.01 105.516 209.118 105.119 209.333C104.734 209.537 104.405 209.815 104.133 210.166C103.873 210.506 103.669 210.891 103.521 211.322C103.374 211.753 103.3 212.183 103.3 212.614C103.3 213.09 103.385 213.543 103.555 213.974C103.725 214.393 103.958 214.773 104.252 215.113C104.558 215.442 104.91 215.697 105.306 215.878C105.714 216.059 106.145 216.15 106.598 216.15ZM113.146 213.345V208.143H114.302V213.141C114.302 214.15 114.472 214.903 114.812 215.402C115.163 215.901 115.679 216.15 116.359 216.15C116.812 216.15 117.249 216.054 117.668 215.861C118.099 215.657 118.478 215.374 118.807 215.011C119.136 214.637 119.385 214.206 119.555 213.719V208.143H120.711V215.606C120.711 215.765 120.745 215.884 120.813 215.963C120.881 216.031 120.983 216.071 121.119 216.082V217C120.983 217.011 120.875 217.017 120.796 217.017C120.717 217.028 120.643 217.034 120.575 217.034C120.348 217.011 120.15 216.921 119.98 216.762C119.821 216.603 119.736 216.411 119.725 216.184L119.691 214.994C119.306 215.674 118.779 216.207 118.11 216.592C117.453 216.977 116.739 217.17 115.968 217.17C115.039 217.17 114.336 216.847 113.86 216.201C113.384 215.555 113.146 214.603 113.146 213.345ZM127.15 217.17C126.515 217.17 125.926 217.051 125.382 216.813C124.838 216.564 124.367 216.229 123.971 215.81C123.574 215.379 123.262 214.886 123.036 214.331C122.82 213.776 122.713 213.181 122.713 212.546C122.713 211.719 122.9 210.959 123.274 210.268C123.659 209.577 124.186 209.027 124.855 208.619C125.523 208.2 126.283 207.99 127.133 207.99C128.005 207.99 128.765 208.2 129.411 208.619C130.068 209.038 130.584 209.594 130.958 210.285C131.332 210.965 131.519 211.713 131.519 212.529C131.519 212.62 131.519 212.71 131.519 212.801C131.519 212.88 131.513 212.943 131.502 212.988H123.92C123.976 213.623 124.152 214.189 124.447 214.688C124.753 215.175 125.144 215.566 125.62 215.861C126.107 216.144 126.634 216.286 127.201 216.286C127.779 216.286 128.323 216.139 128.833 215.844C129.354 215.549 129.717 215.164 129.921 214.688L130.924 214.96C130.742 215.379 130.465 215.759 130.091 216.099C129.717 216.439 129.275 216.705 128.765 216.898C128.266 217.079 127.728 217.17 127.15 217.17ZM123.886 212.155H130.431C130.385 211.509 130.21 210.942 129.904 210.455C129.609 209.968 129.218 209.588 128.731 209.316C128.255 209.033 127.728 208.891 127.15 208.891C126.572 208.891 126.045 209.033 125.569 209.316C125.093 209.588 124.702 209.973 124.396 210.472C124.101 210.959 123.931 211.52 123.886 212.155ZM137.469 216.575C137.379 216.609 137.237 216.671 137.044 216.762C136.852 216.853 136.619 216.932 136.347 217C136.075 217.068 135.781 217.102 135.463 217.102C135.135 217.102 134.823 217.04 134.528 216.915C134.245 216.79 134.018 216.603 133.848 216.354C133.678 216.093 133.593 215.776 133.593 215.402V209.061H132.369V208.143H133.593V205.151H134.749V208.143H136.789V209.061H134.749V215.079C134.772 215.396 134.885 215.634 135.089 215.793C135.305 215.952 135.548 216.031 135.82 216.031C136.138 216.031 136.427 215.98 136.687 215.878C136.948 215.765 137.107 215.685 137.163 215.64L137.469 216.575ZM143.164 216.575C143.073 216.609 142.931 216.671 142.739 216.762C142.546 216.853 142.314 216.932 142.042 217C141.77 217.068 141.475 217.102 141.158 217.102C140.829 217.102 140.517 217.04 140.223 216.915C139.939 216.79 139.713 216.603 139.543 216.354C139.373 216.093 139.288 215.776 139.288 215.402V209.061H138.064V208.143H139.288V205.151H140.444V208.143H142.484V209.061H140.444V215.079C140.466 215.396 140.58 215.634 140.784 215.793C140.999 215.952 141.243 216.031 141.515 216.031C141.832 216.031 142.121 215.98 142.382 215.878C142.642 215.765 142.801 215.685 142.858 215.64L143.164 216.575ZM148.284 217.17C147.649 217.17 147.06 217.051 146.516 216.813C145.972 216.564 145.501 216.229 145.105 215.81C144.708 215.379 144.396 214.886 144.17 214.331C143.954 213.776 143.847 213.181 143.847 212.546C143.847 211.719 144.034 210.959 144.408 210.268C144.793 209.577 145.32 209.027 145.989 208.619C146.657 208.2 147.417 207.99 148.267 207.99C149.139 207.99 149.899 208.2 150.545 208.619C151.202 209.038 151.718 209.594 152.092 210.285C152.466 210.965 152.653 211.713 152.653 212.529C152.653 212.62 152.653 212.71 152.653 212.801C152.653 212.88 152.647 212.943 152.636 212.988H145.054C145.11 213.623 145.286 214.189 145.581 214.688C145.887 215.175 146.278 215.566 146.754 215.861C147.241 216.144 147.768 216.286 148.335 216.286C148.913 216.286 149.457 216.139 149.967 215.844C150.488 215.549 150.851 215.164 151.055 214.688L152.058 214.96C151.876 215.379 151.599 215.759 151.225 216.099C150.851 216.439 150.409 216.705 149.899 216.898C149.4 217.079 148.862 217.17 148.284 217.17ZM145.02 212.155H151.565C151.519 211.509 151.344 210.942 151.038 210.455C150.743 209.968 150.352 209.588 149.865 209.316C149.389 209.033 148.862 208.891 148.284 208.891C147.706 208.891 147.179 209.033 146.703 209.316C146.227 209.588 145.836 209.973 145.53 210.472C145.235 210.959 145.065 211.52 145.02 212.155Z" fill="black"/>
<path d="M130.297 113.291C129.609 113.416 128.953 113.479 128.328 113.479C127.703 113.416 127.016 113.51 126.266 113.76C125.328 113.323 124.797 113.229 124.672 113.479C124.609 113.729 124.391 113.823 124.016 113.76C124.141 113.448 124.078 113.354 123.828 113.479C123.578 113.604 123.297 113.635 122.984 113.573C122.422 113.26 121.859 113.104 121.297 113.104C120.797 113.041 120.484 113.01 120.359 113.01C119.984 113.073 119.734 113.198 119.609 113.385C119.547 113.573 119.516 113.791 119.516 114.041C119.578 114.229 119.609 114.479 119.609 114.791C119.672 115.041 119.609 115.323 119.422 115.635C119.547 117.073 119.578 118.198 119.516 119.01C119.453 119.823 119.516 120.885 119.703 122.198C119.578 122.948 119.391 123.291 119.141 123.229C118.953 123.166 118.828 123.229 118.766 123.416C118.766 123.729 118.703 123.979 118.578 124.166C118.516 124.354 118.641 124.51 118.953 124.635C118.828 125.385 118.797 125.979 118.859 126.416C118.984 126.854 118.922 127.291 118.672 127.729C119.109 128.479 119.703 129.104 120.453 129.604C121.203 130.041 122.047 130.385 122.984 130.635C123.984 130.823 125.016 130.948 126.078 131.01C127.203 131.01 128.328 130.948 129.453 130.823C129.641 130.948 129.703 131.198 129.641 131.573C129.578 131.948 129.641 132.198 129.828 132.323C129.703 132.51 129.609 132.729 129.547 132.979C129.484 133.166 129.297 133.323 128.984 133.448C128.422 133.323 127.672 133.198 126.734 133.073C125.797 132.948 125.078 133.166 124.578 133.729C123.953 133.291 123.234 133.135 122.422 133.26C121.672 133.323 120.922 133.416 120.172 133.541C119.047 133.479 118.047 133.385 117.172 133.26C116.297 133.073 115.391 132.916 114.453 132.791C114.141 133.041 113.859 133.198 113.609 133.26C113.422 133.385 113.266 133.323 113.141 133.073C112.891 133.385 112.672 133.573 112.484 133.635C112.297 133.698 112.172 133.51 112.109 133.073C110.859 132.885 109.703 132.76 108.641 132.698C107.641 132.573 106.516 132.385 105.266 132.135C105.016 132.448 104.641 132.541 104.141 132.416C103.703 132.291 103.422 132.448 103.297 132.885C102.109 132.76 100.859 132.76 99.5469 132.885C98.2344 132.948 97.2031 133.229 96.4531 133.729C96.0781 133.604 95.7656 133.573 95.5156 133.635C95.3281 133.698 94.9844 133.698 94.4844 133.635C94.3594 133.323 94.2031 133.104 94.0156 132.979C93.8906 132.791 93.7656 132.51 93.6406 132.135C94.9531 131.76 96.1094 131.479 97.1094 131.291C98.1094 131.041 99.1094 130.791 100.109 130.541C100.484 130.416 100.922 130.385 101.422 130.448C101.922 130.448 102.391 130.385 102.828 130.26C103.453 130.135 103.922 129.948 104.234 129.698C104.547 129.385 104.953 129.104 105.453 128.854C105.328 127.791 105.359 127.104 105.547 126.791C105.797 126.416 105.984 126.01 106.109 125.573C105.359 125.573 104.797 125.948 104.422 126.698C104.297 126.51 104.172 126.416 104.047 126.416C103.984 126.416 103.859 126.448 103.672 126.51C103.547 126.51 103.422 126.51 103.297 126.51C103.172 126.51 103.016 126.448 102.828 126.323C103.078 126.073 103.297 125.854 103.484 125.666C103.734 125.416 104.016 125.229 104.328 125.104C104.516 124.979 104.672 124.823 104.797 124.635C104.984 124.448 105.203 124.385 105.453 124.448C105.828 123.448 106.109 122.791 106.297 122.479C106.484 122.104 106.578 121.729 106.578 121.354C106.266 120.854 106.172 120.448 106.297 120.135C106.422 119.823 106.422 119.51 106.297 119.198C106.422 118.698 106.484 118.229 106.484 117.791C106.172 117.791 105.922 117.854 105.734 117.979C105.547 118.104 105.328 118.198 105.078 118.26C105.016 117.635 104.797 117.323 104.422 117.323C104.359 116.823 104.609 116.573 105.172 116.573C105.109 115.635 105.203 115.229 105.453 115.354C105.766 115.479 105.891 115.416 105.828 115.166C104.766 115.041 103.578 114.885 102.266 114.698C100.953 114.51 99.7656 114.354 98.7031 114.229C98.2656 114.604 97.8281 114.635 97.3906 114.323C97.0156 114.01 96.6406 113.979 96.2656 114.229C95.6406 114.229 94.9844 114.229 94.2969 114.229C93.6719 114.166 93.2031 114.01 92.8906 113.76C92.5156 114.073 92.2344 114.198 92.0469 114.135C91.8594 114.073 91.6406 114.01 91.3906 113.948C90.8281 113.823 90.2656 113.854 89.7031 114.041C89.1406 114.166 88.6094 114.291 88.1094 114.416C87.6719 114.479 87.2656 114.479 86.8906 114.416C86.5781 114.291 86.3281 113.885 86.1406 113.198C86.5781 112.698 86.8281 112.166 86.8906 111.604C86.9531 111.041 87.1094 110.479 87.3594 109.916C87.4844 109.541 87.7031 109.229 88.0156 108.979C88.3281 108.666 88.5781 108.354 88.7656 108.041C89.0781 107.416 89.3906 106.729 89.7031 105.979C90.0781 105.229 90.4219 104.573 90.7344 104.01C91.5469 102.823 92.1719 101.791 92.6094 100.916C93.0469 100.041 93.4844 99.1663 93.9219 98.2913C94.3594 97.4163 94.7969 96.5725 95.2344 95.76C95.7344 94.885 96.3281 94.1038 97.0156 93.4163C97.0156 93.1038 97.1094 92.885 97.2969 92.76C97.5469 92.5725 97.6406 92.26 97.5781 91.8225C97.8906 91.635 98.1406 91.385 98.3281 91.0725C98.5156 90.76 98.7344 90.4788 98.9844 90.2288C99.2969 89.1663 99.7969 88.3225 100.484 87.6975C101.172 87.0725 101.797 86.385 102.359 85.635C102.297 85.0725 102.391 84.6975 102.641 84.51C102.953 84.3225 103.172 84.0413 103.297 83.6663C104.234 83.0413 104.922 82.2288 105.359 81.2288C105.859 80.1663 106.453 79.1975 107.141 78.3225C108.016 77.635 108.641 77.0725 109.016 76.635C109.453 76.135 109.891 75.635 110.328 75.135C110.328 74.635 110.516 74.26 110.891 74.01C111.266 73.6975 111.609 73.385 111.922 73.0725C112.109 72.76 112.266 72.4475 112.391 72.135C112.516 71.8225 112.703 71.51 112.953 71.1975C113.078 71.01 113.234 70.8538 113.422 70.7288C113.672 70.5413 113.859 70.3538 113.984 70.1663C114.359 69.4163 114.703 68.8225 115.016 68.385C115.391 67.9475 115.672 67.4788 115.859 66.9788C115.984 66.6038 116.047 66.1975 116.047 65.76C116.109 65.26 116.172 64.8225 116.234 64.4475C116.297 64.01 116.391 63.6038 116.516 63.2288C116.641 62.8538 116.891 62.5725 117.266 62.385C117.766 62.9475 118.078 63.4788 118.203 63.9788C118.391 64.4788 118.516 65.0413 118.578 65.6663C119.453 65.2288 120.016 65.1663 120.266 65.4788C120.578 65.7913 120.672 66.1975 120.547 66.6975C120.047 66.9475 119.734 67.2288 119.609 67.5413C119.484 67.7913 119.516 68.0725 119.703 68.385C119.203 68.9475 118.984 69.3538 119.047 69.6038C119.109 69.7913 119.078 70.0413 118.953 70.3538C119.328 71.1038 119.422 71.9163 119.234 72.7913C119.109 73.6038 119.172 74.51 119.422 75.51C119.422 77.01 119.422 78.3225 119.422 79.4475C119.484 80.5725 119.453 81.6663 119.328 82.7288C119.516 82.9788 119.547 83.2913 119.422 83.6663C119.297 83.9788 119.359 84.2913 119.609 84.6038C119.922 85.2288 120.172 85.6038 120.359 85.7288C120.547 85.8538 120.703 86.01 120.828 86.1975C120.391 86.4475 120.109 86.7913 119.984 87.2288C119.859 87.6038 119.547 87.8538 119.047 87.9788C119.109 88.8538 119.078 89.5413 118.953 90.0413C118.891 90.5413 118.859 91.2288 118.859 92.1038C118.922 92.7913 118.984 93.4475 119.047 94.0725C119.109 94.6975 119.297 95.26 119.609 95.76C119.234 96.385 118.953 96.8538 118.766 97.1663C118.641 97.4163 118.734 97.6975 119.047 98.01C119.422 98.5725 119.484 98.9163 119.234 99.0413C118.984 99.1038 118.828 99.2288 118.766 99.4163C118.578 100.416 118.672 101.01 119.047 101.198C119.484 101.385 119.766 101.729 119.891 102.229C119.703 102.479 119.516 102.729 119.328 102.979C119.141 103.229 118.984 103.51 118.859 103.823C119.109 103.948 119.266 104.135 119.328 104.385C119.453 104.635 119.703 104.729 120.078 104.666C120.203 105.291 120.141 105.729 119.891 105.979C119.641 106.229 119.391 106.51 119.141 106.823C119.391 107.635 119.672 108.416 119.984 109.166C120.734 109.354 121.516 109.385 122.328 109.26C123.203 109.073 123.953 108.916 124.578 108.791C125.453 109.041 126.266 109.073 127.016 108.885C127.766 108.698 128.547 108.698 129.359 108.885C129.672 109.573 129.922 110.26 130.109 110.948C130.297 111.635 130.359 112.416 130.297 113.291ZM117.641 67.3538C117.203 67.6663 116.859 67.9788 116.609 68.2913C116.359 68.6038 116.328 68.9163 116.516 69.2288C116.703 68.9163 116.922 68.6663 117.172 68.4788C117.484 68.2288 117.641 67.8538 117.641 67.3538ZM118.109 72.885C117.672 72.885 117.328 72.9788 117.078 73.1663C116.891 73.3538 116.703 73.6038 116.516 73.9163C115.828 74.1038 115.297 74.4788 114.922 75.0413C114.547 75.5413 114.016 75.885 113.328 76.0725C113.391 76.51 113.109 76.7288 112.484 76.7288C111.609 77.5413 110.734 78.3538 109.859 79.1663C108.984 79.9163 108.266 80.8225 107.703 81.885C108.453 81.5725 109.016 81.1663 109.391 80.6663C109.953 80.7913 110.328 80.635 110.516 80.1975C110.703 79.6975 111.047 79.3538 111.547 79.1663C111.984 78.4163 112.391 78.01 112.766 77.9475C113.141 77.8225 113.391 77.635 113.516 77.385C113.828 77.1975 114.141 76.9475 114.453 76.635C114.828 76.3225 115.297 76.135 115.859 76.0725C116.297 75.5725 116.828 75.1038 117.453 74.6663C118.141 74.1663 118.359 73.5725 118.109 72.885ZM118.578 77.1975C118.453 76.885 118.359 76.635 118.297 76.4475C118.297 76.1975 118.266 75.9475 118.203 75.6975C118.016 75.76 117.828 75.885 117.641 76.0725C117.516 76.1975 117.297 76.2288 116.984 76.1663C116.172 77.2288 115.172 78.1038 113.984 78.7913C112.859 79.4163 111.953 80.2913 111.266 81.4163C110.953 81.3538 110.734 81.26 110.609 81.135C110.547 81.01 110.359 80.9475 110.047 80.9475C109.922 81.4475 109.859 82.01 109.859 82.635C109.484 82.635 109.234 82.7913 109.109 83.1038C109.047 83.3538 108.859 83.51 108.547 83.5725C108.547 83.885 108.297 84.1663 107.797 84.4163C107.297 84.6663 107.047 85.0413 107.047 85.5413C107.422 85.5413 107.578 85.6975 107.516 86.01C107.453 86.3225 107.516 86.5725 107.703 86.76C108.141 86.635 108.453 86.3538 108.641 85.9163C108.828 85.4788 109.109 85.1975 109.484 85.0725C109.609 85.0725 109.797 85.135 110.047 85.26C110.297 85.385 110.453 85.385 110.516 85.26L111.547 85.635C111.797 85.3225 112.078 85.1038 112.391 84.9788C112.766 84.7913 113.016 84.51 113.141 84.135C113.641 84.1975 113.984 84.1038 114.172 83.8538C114.422 83.5413 114.703 83.2288 115.016 82.9163C115.391 82.9163 115.516 83.0725 115.391 83.385C115.328 83.635 115.234 83.8225 115.109 83.9475C114.672 84.135 114.391 84.2913 114.266 84.4163C114.203 84.4788 114.141 84.5725 114.078 84.6975C113.703 84.635 113.422 84.6975 113.234 84.885C113.109 85.0725 112.859 85.135 112.484 85.0725C112.859 85.5725 112.984 85.8538 112.859 85.9163C112.797 85.9788 112.828 86.0725 112.953 86.1975C113.578 85.9475 114.016 85.8225 114.266 85.8225C114.516 85.51 114.828 85.1975 115.203 84.885C115.578 84.5725 115.984 84.51 116.422 84.6975C116.984 84.3225 117.297 84.1663 117.359 84.2288C117.484 84.2913 117.609 84.385 117.734 84.51C117.672 85.1975 117.703 85.5725 117.828 85.635C117.953 84.0725 118.109 82.6038 118.297 81.2288C118.547 79.8538 118.516 78.5725 118.203 77.385L118.578 77.1975ZM117.172 85.8225C116.859 85.9475 116.547 86.1038 116.234 86.2913C115.984 86.4788 115.703 86.635 115.391 86.76C115.828 86.9475 116.109 87.01 116.234 86.9475C116.422 86.8225 116.609 86.7288 116.797 86.6663L117.172 85.8225ZM117.266 87.7913C116.953 87.9163 116.734 87.9788 116.609 87.9788C116.484 87.9788 116.266 87.9163 115.953 87.7913C115.828 88.0413 115.547 88.135 115.109 88.0725C114.672 88.01 114.484 88.1975 114.547 88.635C114.922 88.76 115.234 88.7288 115.484 88.5413C115.734 88.2913 116.016 88.135 116.328 88.0725L117.266 87.7913ZM117.828 91.1663C117.828 90.7913 117.797 90.51 117.734 90.3225C117.672 90.135 117.703 89.885 117.828 89.5725C117.391 89.9475 116.953 90.1975 116.516 90.3225C116.141 90.385 115.828 90.5413 115.578 90.7913C116.016 90.6663 116.391 90.5413 116.703 90.4163C117.016 90.2288 117.234 90.26 117.359 90.51L117.828 91.1663ZM109.109 82.3538C108.359 82.2913 107.828 82.51 107.516 83.01C107.703 83.3225 107.922 83.385 108.172 83.1975C108.422 83.01 108.609 82.9788 108.734 83.1038L109.109 82.3538ZM112.016 88.5413C111.516 88.1663 111.172 87.9475 110.984 87.885L112.016 88.5413ZM112.484 86.385C112.234 86.3225 111.984 86.2288 111.734 86.1038C111.547 85.9788 111.328 86.0413 111.078 86.2913C110.953 86.1038 110.797 85.9788 110.609 85.9163C110.484 85.8538 110.391 85.7288 110.328 85.5413C109.953 85.7288 109.797 86.01 109.859 86.385C109.984 86.76 110.141 86.9475 110.328 86.9475C110.078 87.1975 109.922 87.385 109.859 87.51C109.797 87.5725 109.672 87.6038 109.484 87.6038C109.172 87.1663 108.828 87.01 108.453 87.135C108.141 87.1975 107.828 87.0725 107.516 86.76C107.203 86.885 107.047 87.135 107.047 87.51C107.047 87.885 107.016 88.2288 106.953 88.5413C107.266 88.6038 107.453 88.6038 107.516 88.5413C107.641 88.4163 107.797 88.3538 107.984 88.3538C107.984 87.8538 108.172 87.6038 108.547 87.6038C108.984 87.5413 109.266 87.6038 109.391 87.7913C109.266 87.9163 109.109 87.9788 108.922 87.9788C108.734 87.9163 108.547 87.885 108.359 87.885C108.359 88.135 108.391 88.2913 108.453 88.3538C108.578 88.3538 108.703 88.3225 108.828 88.26C109.016 88.1975 109.172 88.1663 109.297 88.1663C109.422 88.1663 109.484 88.26 109.484 88.4475C109.922 88.135 110.203 87.9475 110.328 87.885C110.516 87.76 110.609 87.635 110.609 87.51C110.859 87.51 111.109 87.4163 111.359 87.2288C111.609 87.0413 111.922 87.01 112.297 87.135L112.484 86.385ZM109.484 87.135C109.922 86.885 109.953 86.5725 109.578 86.1975C109.266 85.76 108.953 85.76 108.641 86.1975C109.266 86.5725 109.547 86.7913 109.484 86.8538C109.484 86.9163 109.484 87.01 109.484 87.135ZM115.484 93.135C115.484 92.885 115.328 92.6975 115.016 92.5725C114.766 92.4475 114.766 92.2288 115.016 91.9163C114.641 92.6038 114.578 92.9475 114.828 92.9475C115.141 92.885 115.359 92.9475 115.484 93.135ZM113.422 93.3225C113.109 92.8225 112.859 92.5413 112.672 92.4788C112.547 92.4163 112.484 92.4475 112.484 92.5725C112.922 92.8225 113.141 93.0413 113.141 93.2288C113.141 93.3538 113.234 93.385 113.422 93.3225ZM115.766 89.2913C115.453 89.1038 115.109 88.9788 114.734 88.9163C114.422 88.8538 114.141 88.76 113.891 88.635C113.453 89.01 113.453 89.1663 113.891 89.1038C114.391 88.9788 114.672 89.0725 114.734 89.385C114.172 89.385 113.797 89.3538 113.609 89.2913C112.859 89.4163 112.266 89.4475 111.828 89.385C111.453 89.3225 111.203 89.4475 111.078 89.76C111.266 90.135 111.359 90.4475 111.359 90.6975C111.359 90.885 111.203 90.9475 110.891 90.885C110.891 91.385 111.078 91.5413 111.453 91.3538C111.891 91.1038 112.141 91.01 112.203 91.0725C112.016 91.4475 111.766 91.7288 111.453 91.9163C111.203 91.7913 110.984 91.76 110.797 91.8225C110.609 91.885 110.422 91.9788 110.234 92.1038C109.797 92.7913 109.359 93.3538 108.922 93.7913C108.484 94.1663 107.984 94.4788 107.422 94.7288C107.547 95.1663 107.547 95.5725 107.422 95.9475C107.297 96.26 107.422 96.4475 107.797 96.51C107.797 96.135 107.859 95.885 107.984 95.76C108.109 95.635 108.266 95.5725 108.453 95.5725C108.703 95.51 108.953 95.4788 109.203 95.4788C109.453 95.4163 109.672 95.2913 109.859 95.1038C109.484 94.8538 109.359 94.6975 109.484 94.635C109.609 94.51 109.734 94.4475 109.859 94.4475C109.984 94.385 110.078 94.3225 110.141 94.26C110.266 94.1975 110.266 94.1038 110.141 93.9788C111.016 93.4788 111.641 93.0725 112.016 92.76C112.391 92.4475 112.734 92.0725 113.047 91.635C113.484 91.635 113.734 91.4788 113.797 91.1663C113.859 90.8538 114.047 90.6663 114.359 90.6038C114.734 90.2288 115.016 89.9788 115.203 89.8538C115.453 89.6663 115.641 89.4788 115.766 89.2913ZM109.672 89.01C109.672 88.5725 109.328 88.4163 108.641 88.5413C108.203 88.9163 107.797 88.9788 107.422 88.7288C107.484 88.9163 107.453 89.135 107.328 89.385C107.203 89.5725 107.203 89.76 107.328 89.9475C108.016 89.6975 108.359 89.51 108.359 89.385C108.359 89.26 108.453 89.1975 108.641 89.1975C109.016 89.4475 109.234 89.51 109.297 89.385C109.359 89.1975 109.484 89.0725 109.672 89.01ZM110.703 91.5413C110.578 91.2288 110.453 90.9788 110.328 90.7913C110.266 90.6038 110.328 90.385 110.516 90.135C109.953 90.6975 109.578 91.1038 109.391 91.3538C109.266 91.5413 109.141 91.4788 109.016 91.1663C109.703 91.1663 110.109 91.2288 110.234 91.3538C110.359 91.4788 110.516 91.5413 110.703 91.5413ZM116.984 97.5413C116.359 97.5413 116.047 97.76 116.047 98.1975C116.609 98.1975 116.922 97.9788 116.984 97.5413ZM108.922 91.8225C108.422 91.3225 108.109 91.2288 107.984 91.5413C107.922 91.8538 107.734 92.0413 107.422 92.1038C107.547 92.4163 107.484 92.635 107.234 92.76C107.047 92.885 107.109 93.01 107.422 93.135C107.484 92.6975 107.609 92.6038 107.797 92.8538C108.047 93.1038 108.266 93.1975 108.453 93.135C108.328 92.6975 108.328 92.4163 108.453 92.2913C108.578 92.1038 108.734 91.9475 108.922 91.8225ZM128.984 111.323C128.359 111.01 127.953 110.823 127.766 110.76C127.641 110.698 127.516 110.666 127.391 110.666C126.953 110.854 126.516 110.979 126.078 111.041C125.703 111.041 125.328 111.041 124.953 111.041C124.578 110.979 124.203 110.979 123.828 111.041C123.453 111.104 123.109 111.26 122.797 111.51C123.797 111.76 124.797 111.854 125.797 111.791C126.859 111.729 127.922 111.573 128.984 111.323ZM117.734 92.2913C116.984 92.4788 116.578 92.6038 116.516 92.6663C116.453 92.7288 116.359 92.7288 116.234 92.6663C116.172 93.1663 115.984 93.51 115.672 93.6975C115.359 93.885 115.047 94.1038 114.734 94.3538C114.359 93.8538 114.203 93.6038 114.266 93.6038C114.391 93.5413 114.453 93.4475 114.453 93.3225C114.266 93.385 114.078 93.51 113.891 93.6975C113.766 93.8225 113.547 93.7913 113.234 93.6038C112.734 94.1038 112.359 94.5413 112.109 94.9163C111.859 95.2288 111.391 95.3225 110.703 95.1975C110.766 95.5725 110.703 95.9163 110.516 96.2288C110.328 96.4788 110.016 96.5413 109.578 96.4163C109.703 97.0413 109.547 97.385 109.109 97.4475C108.672 97.51 108.453 97.7913 108.453 98.2913C108.266 98.4163 108.047 98.5413 107.797 98.6663C107.547 98.7913 107.328 98.9475 107.141 99.135C107.453 99.635 107.609 100.104 107.609 100.541C108.547 100.604 109.328 100.791 109.953 101.104C109.578 101.229 109.234 101.291 108.922 101.291C108.484 101.729 108.203 101.854 108.078 101.666C108.016 101.416 107.828 101.291 107.516 101.291C107.453 101.791 107.359 102.229 107.234 102.604C107.172 102.979 107.266 103.416 107.516 103.916C107.828 103.916 108.078 103.854 108.266 103.729C108.516 103.604 108.797 103.51 109.109 103.448C109.172 102.948 109.359 102.541 109.672 102.229C110.047 101.916 110.453 101.666 110.891 101.479C111.328 101.229 111.703 100.979 112.016 100.729C112.391 100.416 112.609 100.041 112.672 99.6038C113.109 99.4163 113.359 99.3225 113.422 99.3225C113.484 99.26 113.453 99.0725 113.328 98.76C113.641 98.6975 113.828 98.6663 113.891 98.6663C114.016 98.6663 114.234 98.635 114.547 98.5725C114.922 98.26 115.172 98.0413 115.297 97.9163C115.484 97.7288 115.578 97.6975 115.578 97.8225C115.766 97.51 115.922 97.2913 116.047 97.1663C116.172 96.9788 116.422 96.9475 116.797 97.0725C116.609 96.6975 116.547 96.4475 116.609 96.3225C116.672 96.135 116.766 95.9475 116.891 95.76C116.453 95.3225 116.266 95.0725 116.328 95.01C116.453 94.9475 116.453 94.8538 116.328 94.7288C116.141 95.2913 116.016 95.6038 115.953 95.6663C115.891 95.7288 115.766 95.7288 115.578 95.6663C115.266 95.1663 115.266 94.8538 115.578 94.7288C115.953 94.5413 116.297 94.3538 116.609 94.1663C116.922 93.9788 117.172 93.76 117.359 93.51C117.609 93.1975 117.734 92.7913 117.734 92.2913ZM118.109 107.76C118.172 107.073 118.016 106.666 117.641 106.541C117.203 107.041 116.922 107.323 116.797 107.385C116.734 107.448 116.734 107.541 116.797 107.666C116.484 107.416 116.359 107.104 116.422 106.729C116.547 106.354 116.797 106.291 117.172 106.541C117.609 105.791 117.734 105.354 117.547 105.229C117.359 105.104 117.328 104.885 117.453 104.573C116.891 103.948 116.578 103.729 116.516 103.916C116.453 104.104 116.328 104.26 116.141 104.385C116.016 104.198 115.797 104.135 115.484 104.198C115.172 104.198 115.047 104.041 115.109 103.729C115.422 103.604 115.641 103.541 115.766 103.541C115.891 103.479 116.109 103.448 116.422 103.448C116.859 102.635 117.172 102.135 117.359 101.948C117.547 101.76 117.641 101.448 117.641 101.01C116.953 101.135 116.609 101.229 116.609 101.291C116.672 101.354 116.641 101.385 116.516 101.385C116.453 100.823 116.641 100.26 117.078 99.6975C117.516 99.135 117.578 98.6038 117.266 98.1038C116.891 98.5413 116.516 98.8538 116.141 99.0413C115.391 99.4788 114.797 99.6663 114.359 99.6038C114.172 100.291 114.016 100.604 113.891 100.541C113.828 100.416 113.703 100.385 113.516 100.448C113.078 100.698 112.828 100.823 112.766 100.823C112.703 100.823 112.641 100.854 112.578 100.916C112.641 101.229 112.578 101.416 112.391 101.479C112.203 101.541 112.047 101.635 111.922 101.76C112.047 102.01 111.953 102.198 111.641 102.323C111.328 102.385 111.016 102.416 110.703 102.416C110.516 103.104 110.234 103.448 109.859 103.448C109.547 103.448 109.297 103.541 109.109 103.729C109.047 104.229 108.828 104.76 108.453 105.323C108.078 105.885 107.641 106.166 107.141 106.166C107.266 106.479 107.266 106.823 107.141 107.198C107.078 107.573 107.172 107.916 107.422 108.229C107.109 108.541 107.016 109.041 107.141 109.729C107.516 109.604 107.766 109.666 107.891 109.916C108.016 110.104 108.203 110.26 108.453 110.385C108.453 109.823 108.328 109.541 108.078 109.541C107.891 109.479 107.766 109.291 107.703 108.979C108.391 109.166 108.797 109.354 108.922 109.541C108.984 109.291 109.016 109.041 109.016 108.791C109.016 108.541 109.172 108.479 109.484 108.604C109.234 108.729 109.141 108.916 109.203 109.166C109.328 109.354 109.328 109.573 109.203 109.823C109.516 109.573 109.734 109.448 109.859 109.448C109.984 109.385 110.109 109.291 110.234 109.166C110.609 109.479 110.828 109.51 110.891 109.26C111.016 109.01 111.203 108.823 111.453 108.698C111.453 108.635 111.641 108.604 112.016 108.604C112.391 108.604 112.703 108.698 112.953 108.885C112.578 109.01 112.172 109.041 111.734 108.979C111.672 109.604 111.391 109.979 110.891 110.104C110.391 110.229 109.922 110.354 109.484 110.479C109.672 110.854 109.703 111.073 109.578 111.135C109.516 111.135 109.422 111.104 109.297 111.041C109.172 110.979 109.016 110.948 108.828 110.948C108.703 110.885 108.547 110.885 108.359 110.948C108.672 111.26 108.703 111.666 108.453 112.166C108.266 112.666 107.953 112.885 107.516 112.823C108.078 113.385 108.453 113.635 108.641 113.573C108.891 113.51 109.234 113.448 109.672 113.385C109.984 112.76 110.078 112.416 109.953 112.354C109.828 112.291 109.859 112.26 110.047 112.26C110.609 112.073 110.953 111.948 111.078 111.885C111.203 111.76 111.203 111.604 111.078 111.416C111.703 111.291 112.109 111.198 112.297 111.135C112.484 111.073 112.578 110.916 112.578 110.666C112.703 110.791 112.984 110.666 113.422 110.291C113.859 109.854 114.234 109.448 114.547 109.073C114.609 108.885 114.797 108.729 115.109 108.604C115.422 108.479 115.641 108.26 115.766 107.948C115.828 108.073 115.984 108.104 116.234 108.041C116.484 107.979 116.672 108.01 116.797 108.135C116.484 108.198 116.203 108.291 115.953 108.416C115.703 108.479 115.672 108.666 115.859 108.979C116.547 108.604 116.953 108.416 117.078 108.416C117.203 108.416 117.422 108.354 117.734 108.229L118.109 107.76ZM118.203 113.854C118.141 113.729 118.078 113.541 118.016 113.291C117.953 113.041 117.766 112.854 117.453 112.729C117.266 112.791 117.078 112.885 116.891 113.01C116.703 113.073 116.516 113.041 116.328 112.916C116.516 113.354 116.641 113.604 116.703 113.666C116.828 113.666 117.016 113.729 117.266 113.854H118.203ZM117.828 111.979C117.828 111.666 117.766 111.416 117.641 111.229C117.578 110.979 117.391 110.823 117.078 110.76C116.453 111.26 116.172 111.541 116.234 111.604C116.359 111.666 116.391 111.76 116.328 111.885C116.016 111.885 115.703 111.916 115.391 111.979C115.078 111.979 115.047 112.135 115.297 112.448C115.047 112.573 114.797 112.666 114.547 112.729C114.297 112.791 114.172 112.979 114.172 113.291C113.797 113.666 113.641 113.916 113.703 114.041C113.828 114.104 113.797 114.198 113.609 114.323C113.359 113.885 113.141 113.698 112.953 113.76C112.828 113.823 112.672 113.76 112.484 113.573C112.547 113.823 112.641 114.041 112.766 114.229C112.953 114.354 113.109 114.479 113.234 114.604C112.734 114.791 112.359 114.76 112.109 114.51C111.672 114.823 111.422 114.979 111.359 114.979C111.359 114.979 111.328 115.041 111.266 115.166C111.828 115.354 112.141 115.416 112.203 115.354C112.328 115.291 112.422 115.166 112.484 114.979C112.359 115.604 112.297 115.948 112.297 116.01C112.359 116.073 112.453 116.135 112.578 116.198C112.641 115.885 112.797 115.666 113.047 115.541C113.359 115.354 113.609 115.354 113.797 115.541C114.297 115.104 114.609 114.854 114.734 114.791C114.859 114.666 114.891 114.479 114.828 114.229C114.953 114.104 115.141 114.041 115.391 114.041C115.641 114.041 115.828 113.979 115.953 113.854C116.141 113.479 116.266 113.166 116.328 112.916C116.453 112.604 116.672 112.51 116.984 112.635C117.047 112.323 117.328 112.104 117.828 111.979ZM106.203 99.7913C106.391 99.5413 106.422 99.1975 106.297 98.76C106.234 98.26 106.141 97.885 106.016 97.635C106.203 96.9475 106.234 96.2913 106.109 95.6663C106.047 94.9788 106.078 94.2913 106.203 93.6038C105.828 93.3538 105.453 93.3225 105.078 93.51C104.828 92.885 104.797 92.5725 104.984 92.5725C105.234 92.51 105.422 92.4163 105.547 92.2913C105.797 91.4163 105.828 90.885 105.641 90.6975C106.078 90.3225 106.234 89.8225 106.109 89.1975C105.984 88.51 105.797 88.01 105.547 87.6975C105.297 87.76 105.047 87.7913 104.797 87.7913C104.547 87.7913 104.359 87.635 104.234 87.3225C104.547 87.0725 104.766 87.01 104.891 87.135C105.016 87.1975 105.141 87.135 105.266 86.9475C105.141 86.635 105.016 86.4475 104.891 86.385C104.766 86.26 104.609 86.1975 104.422 86.1975C103.984 87.01 103.453 87.6663 102.828 88.1663C102.203 88.6663 101.797 89.3538 101.609 90.2288C101.297 90.2288 101.109 90.3538 101.047 90.6038C100.984 90.8538 100.891 91.135 100.766 91.4475C100.453 91.5725 100.203 91.7288 100.016 91.9163C99.8906 92.1038 99.7344 92.2913 99.5469 92.4788C99.0469 93.6663 98.4531 94.6663 97.7656 95.4788C97.0781 96.2913 96.5781 97.2913 96.2656 98.4788C95.7656 99.5413 95.2031 100.416 94.5781 101.104C94.0156 101.729 93.6719 102.479 93.5469 103.354C91.9844 105.354 90.8281 107.666 90.0781 110.291C90.9531 110.416 91.8594 110.385 92.7969 110.198C93.7344 109.948 94.7031 110.01 95.7031 110.385C96.0156 110.073 96.4531 109.948 97.0156 110.01C97.5781 110.073 98.0156 110.229 98.3281 110.479C98.7656 110.291 99.3281 110.229 100.016 110.291C100.703 110.291 101.391 110.354 102.078 110.479C102.828 110.541 103.516 110.541 104.141 110.479C104.828 110.416 105.391 110.198 105.828 109.823C105.578 109.323 105.578 108.854 105.828 108.416C106.141 107.979 106.141 107.51 105.828 107.01C105.641 107.26 105.422 107.323 105.172 107.198C104.922 107.01 104.703 106.854 104.516 106.729C105.016 106.166 105.234 105.791 105.172 105.604C105.109 105.416 105.141 105.229 105.266 105.041C105.703 104.916 105.984 104.666 106.109 104.291C106.234 103.854 106.266 103.385 106.203 102.885C106.203 102.385 106.172 101.854 106.109 101.291C106.047 100.729 106.078 100.229 106.203 99.7913ZM116.891 109.166C116.578 109.416 116.359 109.51 116.234 109.448C116.109 109.385 115.984 109.479 115.859 109.729C115.359 109.854 115.016 109.948 114.828 110.01C114.641 110.01 114.672 110.135 114.922 110.385C114.359 110.385 114.016 110.416 113.891 110.479C113.703 111.104 113.516 111.448 113.328 111.51C113.141 111.51 113.047 111.604 113.047 111.791C112.547 112.229 112.172 112.51 111.922 112.635C111.734 112.76 111.516 112.854 111.266 112.916C111.078 112.979 110.891 113.073 110.703 113.198C110.516 113.323 110.453 113.51 110.516 113.76C109.828 113.885 109.391 114.166 109.203 114.604C109.016 114.979 108.734 115.323 108.359 115.635C108.172 116.198 108.078 116.604 108.078 116.854C108.391 116.729 108.641 116.51 108.828 116.198C109.078 115.885 109.422 115.791 109.859 115.916C110.047 115.604 110.172 115.385 110.234 115.26C110.359 115.073 110.578 115.104 110.891 115.354C110.828 114.854 110.953 114.479 111.266 114.229C111.641 113.979 111.984 113.885 112.297 113.948C112.797 113.135 113.109 112.698 113.234 112.635C113.922 112.01 114.328 111.698 114.453 111.698C114.641 111.323 114.859 111.135 115.109 111.135C115.359 111.135 115.422 110.948 115.297 110.573C115.547 110.385 115.766 110.354 115.953 110.479C116.141 110.604 116.297 110.573 116.422 110.385C116.234 110.01 116.266 109.823 116.516 109.823C116.766 109.76 116.891 109.541 116.891 109.166ZM114.828 116.76C114.703 116.635 114.609 116.479 114.547 116.291C114.484 116.104 114.328 116.01 114.078 116.01C114.266 116.448 114.516 116.698 114.828 116.76ZM113.984 116.198C113.484 116.448 113.109 116.604 112.859 116.666C112.609 116.729 112.328 116.916 112.016 117.229C112.266 117.104 112.422 117.104 112.484 117.229C112.609 117.291 112.828 117.323 113.141 117.323C113.266 117.073 113.422 116.916 113.609 116.854C113.859 116.729 113.984 116.51 113.984 116.198ZM111.922 117.229C111.922 116.916 111.828 116.698 111.641 116.573C111.516 116.448 111.359 116.416 111.172 116.479C110.984 116.479 110.797 116.573 110.609 116.76C110.422 116.885 110.297 117.041 110.234 117.229C110.672 117.666 110.922 117.854 110.984 117.791C111.109 117.666 111.172 117.573 111.172 117.51C111.234 117.385 111.297 117.291 111.359 117.229C111.484 117.166 111.672 117.166 111.922 117.229ZM116.891 122.291C116.766 122.541 116.547 122.666 116.234 122.666C115.984 122.604 115.828 122.698 115.766 122.948C116.016 123.26 116.328 123.26 116.703 122.948C117.078 122.635 117.141 122.416 116.891 122.291ZM118.297 116.76C118.359 116.26 118.359 115.823 118.297 115.448C118.297 115.01 118.234 114.698 118.109 114.51C117.609 114.948 117.141 115.229 116.703 115.354C116.328 115.416 116.047 115.573 115.859 115.823C115.109 116.01 114.734 116.166 114.734 116.291C115.297 116.354 115.641 116.698 115.766 117.323C115.328 117.198 115.172 117.291 115.297 117.604C115.422 117.916 115.359 118.135 115.109 118.26C114.797 118.135 114.578 118.198 114.453 118.448C114.328 118.698 114.109 118.823 113.797 118.823C113.922 118.635 113.891 118.479 113.703 118.354C113.516 118.166 113.453 117.916 113.516 117.604C113.266 117.729 113.141 117.948 113.141 118.26C113.141 118.573 112.984 118.729 112.672 118.729C113.234 119.354 113.547 119.698 113.609 119.76C113.359 120.635 113.109 120.948 112.859 120.698C112.609 120.448 112.391 120.448 112.203 120.698C112.703 121.135 112.891 121.416 112.766 121.541C112.641 121.604 112.547 121.729 112.484 121.916C112.547 121.291 112.297 120.979 111.734 120.979C111.922 121.604 111.828 121.916 111.453 121.916C111.141 121.854 110.953 121.76 110.891 121.635C110.953 121.26 110.922 121.041 110.797 120.979C110.734 120.854 110.609 120.76 110.422 120.698C109.984 121.51 109.641 122.041 109.391 122.291C109.141 122.479 108.859 122.698 108.547 122.948C108.859 122.948 109.172 122.916 109.484 122.854C109.859 122.791 110.172 122.823 110.422 122.948C110.109 123.135 109.797 123.291 109.484 123.416C109.172 123.479 108.922 123.666 108.734 123.979C108.172 124.166 107.828 124.323 107.703 124.448C107.641 124.573 107.578 124.729 107.516 124.916C108.141 124.854 108.609 124.885 108.922 125.01C109.047 124.385 109.297 124.073 109.672 124.073C110.109 124.01 110.547 123.823 110.984 123.51C110.984 123.073 111.109 122.854 111.359 122.854C111.609 122.791 111.672 122.666 111.547 122.479C111.922 122.416 112.297 122.354 112.672 122.291C113.109 122.229 113.484 122.104 113.797 121.916C114.047 120.916 114.297 120.479 114.547 120.604C114.859 120.666 115.047 120.51 115.109 120.135C114.797 120.01 114.516 120.041 114.266 120.229C114.078 120.416 113.922 120.448 113.797 120.323C114.047 119.948 114.234 119.791 114.359 119.854C114.484 119.916 114.703 119.854 115.016 119.666C115.641 119.916 115.922 119.979 115.859 119.854C115.797 119.729 115.859 119.635 116.047 119.573C116.734 119.635 117.297 119.416 117.734 118.916C118.172 118.354 118.359 117.635 118.297 116.76ZM113.141 120.041C113.016 119.729 112.828 119.666 112.578 119.854C112.391 119.979 112.234 120.073 112.109 120.135C112.422 120.01 112.641 119.979 112.766 120.041C112.891 120.041 113.016 120.041 113.141 120.041ZM110.328 117.698C109.891 117.698 109.578 117.823 109.391 118.073C109.203 118.26 108.984 118.416 108.734 118.541C109.484 118.541 109.859 118.479 109.859 118.354C109.922 118.166 110.078 117.948 110.328 117.698ZM112.297 117.885C111.609 117.948 111.047 118.26 110.609 118.823C110.234 119.323 109.766 119.635 109.203 119.76C109.078 120.26 108.953 120.573 108.828 120.698C108.766 120.76 108.609 120.76 108.359 120.698C108.797 120.823 109.141 120.76 109.391 120.51C109.703 120.198 110.016 120.041 110.328 120.041C110.328 119.729 110.422 119.51 110.609 119.385C110.859 119.198 111.109 119.041 111.359 118.916C111.609 118.729 111.828 118.573 112.016 118.448C112.203 118.323 112.297 118.135 112.297 117.885ZM116.328 124.354C116.453 124.104 116.391 123.916 116.141 123.791C115.891 123.604 115.641 123.448 115.391 123.323C114.953 123.51 114.578 123.729 114.266 123.979C113.953 124.229 113.547 124.416 113.047 124.541C113.109 124.854 113.141 125.073 113.141 125.198C113.203 125.26 113.297 125.448 113.422 125.76C113.734 125.01 114.016 124.573 114.266 124.448C114.578 124.26 114.859 124.229 115.109 124.354C115.797 124.166 116.078 124.135 115.953 124.26C115.891 124.385 116.016 124.416 116.328 124.354ZM118.766 130.166C118.266 129.729 117.891 129.323 117.641 128.948C117.391 128.573 117.453 128.229 117.828 127.916C117.516 127.791 117.391 127.573 117.453 127.26C117.516 126.885 117.484 126.51 117.359 126.135C116.922 126.198 116.609 126.291 116.422 126.416C116.234 126.479 116.109 126.416 116.047 126.229C116.234 125.666 116.328 125.323 116.328 125.198C116.391 125.073 116.328 125.041 116.141 125.104C115.891 125.791 115.859 126.229 116.047 126.416C115.734 126.541 115.547 126.479 115.484 126.229C115.422 125.979 115.234 125.948 114.922 126.135C115.109 126.26 115.266 126.354 115.391 126.416C115.578 126.416 115.734 126.51 115.859 126.698C115.609 126.823 115.297 126.791 114.922 126.604C114.609 126.354 114.297 126.323 113.984 126.51C114.109 127.26 114.109 127.698 113.984 127.823C113.922 127.948 113.859 128.104 113.797 128.291C114.297 128.354 114.578 128.416 114.641 128.479C114.766 128.479 114.828 128.573 114.828 128.76C115.391 128.448 115.797 128.26 116.047 128.198C116.297 128.135 116.578 128.073 116.891 128.01C116.391 128.385 116.109 128.635 116.047 128.76C115.984 128.823 115.922 128.916 115.859 129.041C115.797 129.104 115.734 129.166 115.672 129.229C115.609 129.291 115.484 129.26 115.297 129.135C115.422 129.448 115.453 129.666 115.391 129.791C115.328 129.916 115.234 130.104 115.109 130.354C115.297 130.354 115.547 130.323 115.859 130.26C116.172 130.198 116.484 130.166 116.797 130.166C117.109 130.104 117.359 130.135 117.547 130.26C117.734 130.323 117.797 130.479 117.734 130.729C118.172 130.604 118.453 130.541 118.578 130.541C118.703 130.479 118.766 130.354 118.766 130.166ZM103.297 112.635C102.109 112.323 101.234 112.198 100.672 112.26C100.109 112.323 99.3906 112.323 98.5156 112.26C98.2031 112.198 97.7969 112.104 97.2969 111.979C96.8594 111.854 96.4531 111.979 96.0781 112.354C97.1406 112.416 98.3906 112.541 99.8281 112.729C101.266 112.916 102.422 112.885 103.297 112.635ZM113.141 125.76C112.891 125.448 112.672 125.291 112.484 125.291C112.359 125.229 112.234 125.26 112.109 125.385C112.234 125.885 112.484 126.229 112.859 126.416L113.141 125.76ZM111.547 125.198C111.109 124.698 110.828 124.51 110.703 124.635C110.641 124.698 110.484 124.698 110.234 124.635C110.672 124.885 110.891 125.073 110.891 125.198C110.953 125.323 111.078 125.354 111.266 125.291L111.547 125.198ZM113.234 127.916C112.922 127.854 112.641 127.823 112.391 127.823C112.203 127.823 112.109 127.916 112.109 128.104C112.359 127.854 112.734 127.791 113.234 127.916ZM113.984 130.26C113.922 129.948 113.953 129.76 114.078 129.698C114.203 129.573 114.172 129.416 113.984 129.229C113.859 129.541 113.703 129.698 113.516 129.698C113.391 129.698 113.203 129.791 112.953 129.979C112.953 130.229 113.078 130.354 113.328 130.354C113.641 130.354 113.859 130.323 113.984 130.26ZM113.328 129.135C113.016 128.823 112.797 128.729 112.672 128.854C112.547 128.979 112.328 129.01 112.016 128.948C112.578 129.073 113.016 129.135 113.328 129.135ZM111.078 128.291C110.516 127.916 110.203 127.635 110.141 127.448C110.641 127.073 111.016 126.76 111.266 126.51C111.578 126.198 111.484 126.135 110.984 126.323C110.922 126.635 110.797 126.854 110.609 126.979C110.422 127.104 110.203 127.198 109.953 127.26C109.703 127.323 109.453 127.416 109.203 127.541C108.953 127.604 108.797 127.76 108.734 128.01C109.734 127.885 110.141 128.041 109.953 128.479C110.141 128.479 110.297 128.448 110.422 128.385C110.547 128.26 110.766 128.229 111.078 128.291ZM95.3281 112.073C94.9531 112.073 94.6094 112.104 94.2969 112.166C93.9844 112.166 93.6719 112.229 93.3594 112.354C92.6094 112.291 92.1094 112.104 91.8594 111.791C92.2969 112.104 92.8594 112.354 93.5469 112.541C94.2969 112.666 94.8906 112.51 95.3281 112.073ZM111.734 129.791C111.484 129.729 111.297 129.698 111.172 129.698C111.047 129.698 110.891 129.76 110.703 129.885C109.891 129.823 109.422 129.635 109.297 129.323C109.234 129.01 109.109 128.666 108.922 128.291C108.797 128.541 108.609 128.729 108.359 128.854C108.172 128.916 107.953 129.01 107.703 129.135C107.828 129.448 107.703 129.729 107.328 129.979C107.016 130.166 106.797 130.416 106.672 130.729C107.234 130.916 107.828 130.979 108.453 130.916C109.141 130.854 109.672 130.76 110.047 130.635C110.109 130.385 110.359 130.26 110.797 130.26C111.234 130.26 111.547 130.104 111.734 129.791ZM116.984 79.9163C116.859 80.1663 116.641 80.26 116.328 80.1975C116.078 80.135 115.828 80.0725 115.578 80.01C115.703 79.6975 115.922 79.5725 116.234 79.635C116.609 79.6975 116.859 79.7913 116.984 79.9163ZM116.141 80.6663C115.953 80.9788 115.672 81.1038 115.297 81.0413C114.922 80.9163 114.578 80.7913 114.266 80.6663C114.578 80.3538 114.891 80.26 115.203 80.385C115.516 80.51 115.828 80.6038 116.141 80.6663ZM117.266 81.6975C117.141 82.01 116.859 82.1663 116.422 82.1663C115.984 82.1038 115.766 82.3225 115.766 82.8225C115.328 82.4475 115.391 82.135 115.953 81.885C116.516 81.635 116.953 81.5725 117.266 81.6975ZM115.297 81.4163C115.047 81.6663 114.797 81.8225 114.547 81.885C114.359 81.885 114.172 82.0413 113.984 82.3538C113.359 82.8538 112.984 83.1663 112.859 83.2913C112.797 83.4163 112.672 83.51 112.484 83.5725C112.172 82.885 112.359 82.4788 113.047 82.3538C113.109 82.2288 113.172 82.135 113.234 82.0725C113.359 82.01 113.453 81.9475 113.516 81.885C113.641 81.76 113.766 81.6663 113.891 81.6038C114.016 81.5413 114.141 81.6038 114.266 81.7913C114.641 81.3538 114.984 81.2288 115.297 81.4163ZM111.641 83.8538C111.766 84.1038 111.641 84.385 111.266 84.6975C110.953 85.01 110.672 85.01 110.422 84.6975C110.609 84.5725 110.828 84.4475 111.078 84.3225C111.328 84.1975 111.516 84.0413 111.641 83.8538ZM113.516 90.2288C113.328 90.2288 113.203 90.3538 113.141 90.6038C113.078 90.7913 112.891 90.8225 112.578 90.6975C112.703 90.3225 112.859 90.135 113.047 90.135C113.297 90.0725 113.422 89.9163 113.422 89.6663L113.516 90.2288ZM113.141 96.135C113.016 96.26 112.891 96.385 112.766 96.51C112.703 96.635 112.578 96.76 112.391 96.885C112.453 96.635 112.516 96.4163 112.578 96.2288C112.703 96.0413 112.891 96.01 113.141 96.135ZM114.453 94.635C114.141 95.01 113.953 95.26 113.891 95.385C113.828 95.51 113.734 95.6038 113.609 95.6663C113.172 95.3538 112.922 95.3538 112.859 95.6663C112.797 95.9163 112.641 95.885 112.391 95.5725C112.141 95.6975 112.047 95.9163 112.109 96.2288C112.234 96.5413 112.109 96.76 111.734 96.885C111.609 96.8225 111.453 96.885 111.266 97.0725C111.141 97.26 111.047 97.4475 110.984 97.635C110.922 97.135 111.109 96.6038 111.547 96.0413C111.984 95.4788 112.484 95.1663 113.047 95.1038C113.672 94.7288 113.984 94.5413 113.984 94.5413C113.984 94.4788 114.047 94.4475 114.172 94.4475L114.453 94.635ZM116.047 102.791C115.172 102.541 114.672 102.666 114.547 103.166C114.734 102.479 114.922 102.135 115.109 102.135C115.297 102.135 115.422 102.073 115.484 101.948L116.047 102.791ZM110.328 98.9475C109.953 98.6975 109.672 98.635 109.484 98.76C109.359 98.885 109.234 98.9475 109.109 98.9475C109.047 98.51 109.141 98.26 109.391 98.1975C109.641 98.0725 109.922 98.0725 110.234 98.1975L110.328 98.9475ZM115.109 104.01C114.797 103.948 114.547 103.916 114.359 103.916C114.234 103.854 114.109 103.854 113.984 103.916C114.297 104.104 114.484 104.198 114.547 104.198C114.609 104.135 114.797 104.073 115.109 104.01ZM109.391 99.6038C109.141 100.104 108.859 100.354 108.547 100.354C108.297 100.354 108.109 100.354 107.984 100.354C108.172 100.229 108.297 100.073 108.359 99.885C108.484 99.6975 108.609 99.51 108.734 99.3225L109.391 99.6038ZM114.359 104.948C114.359 105.448 114.203 105.791 113.891 105.979C113.828 105.666 113.828 105.479 113.891 105.416C114.016 105.291 113.984 105.135 113.797 104.948H114.359ZM115.953 105.698C115.828 105.885 115.641 106.041 115.391 106.166C115.141 106.229 114.922 106.323 114.734 106.448C114.547 106.823 114.453 107.166 114.453 107.479C114.141 107.166 113.922 107.166 113.797 107.479C113.734 107.729 113.641 107.916 113.516 108.041C113.203 108.104 112.984 108.073 112.859 107.948C112.734 107.76 112.578 107.604 112.391 107.479C112.328 108.041 112.172 108.323 111.922 108.323C111.734 108.26 111.516 108.229 111.266 108.229C111.266 107.916 111.359 107.666 111.547 107.479C111.734 107.229 111.922 107.01 112.109 106.823C112.359 106.948 112.547 107.104 112.672 107.291C112.859 107.416 113.078 107.541 113.328 107.666C113.578 107.541 113.609 107.354 113.422 107.104C113.297 106.854 113.359 106.666 113.609 106.541C113.859 106.666 114.078 106.635 114.266 106.448C114.453 106.26 114.641 106.073 114.828 105.885C115.016 105.698 115.172 105.573 115.297 105.51C115.484 105.385 115.703 105.448 115.953 105.698ZM112.016 105.698C111.828 105.573 111.641 105.573 111.453 105.698C111.328 105.76 111.172 105.823 110.984 105.885C111.422 105.51 111.672 105.323 111.734 105.323C111.859 105.323 111.953 105.448 112.016 105.698ZM110.516 106.916C110.453 107.229 110.297 107.416 110.047 107.479C109.797 107.479 109.609 107.541 109.484 107.666C109.484 107.166 109.828 106.916 110.516 106.916ZM117.734 117.51L116.328 117.885C116.828 117.51 117.078 117.354 117.078 117.416C117.141 117.479 117.234 117.51 117.359 117.51H117.734ZM116.328 118.823C116.328 119.073 116.266 119.198 116.141 119.198C116.016 119.198 115.891 119.198 115.766 119.198C115.703 119.135 115.609 119.104 115.484 119.104C115.359 119.104 115.297 119.198 115.297 119.385C115.109 119.135 114.922 119.073 114.734 119.198C114.547 119.26 114.422 119.135 114.359 118.823C115.109 118.948 115.578 118.979 115.766 118.916C115.953 118.791 116.141 118.76 116.328 118.823ZM116.703 127.448C116.266 127.948 115.672 128.198 114.922 128.198C114.922 127.885 114.922 127.666 114.922 127.541C114.922 127.416 114.953 127.291 115.016 127.166C115.766 127.041 116.172 127.073 116.234 127.26C116.297 127.385 116.453 127.448 116.703 127.448Z" fill="#7B4F2F"/>
</svg>
