<svg width="154" height="155" viewBox="0 0 154 155" fill="none" xmlns="http://www.w3.org/2000/svg">
<g clip-path="url(#clip0_160_1792)">
<path fill-rule="evenodd" clip-rule="evenodd" d="M114.802 50.1829C114.176 50.8964 113.726 51.746 113.486 52.6643C113.268 53.3284 112.981 53.9676 112.629 54.5713C112.524 54.7484 112.431 54.9318 112.349 55.1206C111.639 56.7194 110.967 58.3383 110.253 59.9414C110.057 60.4009 109.814 60.8389 109.528 61.2483C108.764 62.2974 107.957 63.3223 107.158 64.3471C107.048 64.5124 106.91 64.6569 106.751 64.7741C105.957 65.2978 105.168 65.8255 104.357 66.3162C103.273 66.9416 102.018 67.2021 100.775 67.0594C100.685 67.1459 100.569 67.2015 100.445 67.2179C100.32 67.2343 100.194 67.2107 100.084 67.1506C99.7292 67.3176 99.3785 67.4969 99.0146 67.6474C98.9694 67.6541 98.9232 67.6484 98.8809 67.631C98.8386 67.6137 98.8018 67.5852 98.7744 67.5486C98.7219 67.4165 98.7042 67.2732 98.7229 67.1323C98.7452 67.096 98.776 67.0656 98.8125 67.0437C98.849 67.0218 98.8903 67.0089 98.9329 67.0063C99.3181 67.0558 99.6956 67.1305 100.077 67.1926C100.291 67.054 100.508 66.8944 100.768 67.093C101.031 66.9449 101.291 66.776 101.551 66.6572C102.784 66.0798 103.817 65.1489 104.519 63.9828C104.885 63.3856 105.201 62.7562 105.554 62.1551C106.136 61.1604 106.714 60.17 107.317 59.1874C107.529 58.7863 107.848 58.4522 108.238 58.2224C108.722 57.9473 109.095 57.5139 109.295 56.9954C109.661 56.2331 109.983 55.4506 110.259 54.6516C110.738 53.1751 111.18 51.6869 111.566 50.1874C112.107 48.1082 112.592 46.0094 113.082 43.9147C113.132 43.626 113.157 43.3335 113.157 43.0404C113.018 43.1839 112.901 43.347 112.81 43.5245C112.383 44.7493 111.948 45.966 111.551 47.2194C110.945 49.1373 110.401 51.0746 109.799 52.9966C109.547 53.8082 109.227 54.6047 108.925 55.4259C108.622 56.247 108.331 56.8341 107.41 56.8849C106.463 57.4225 105.391 57.7023 104.302 57.6963C104.281 57.7176 104.176 57.6658 104.171 57.6451C104.159 57.5483 104.167 57.4502 104.194 57.3565C104.232 57.2633 104.293 57.1814 104.372 57.1185C104.77 56.8111 105.088 56.411 105.297 55.953C105.48 55.6537 105.695 55.3744 105.937 55.1198C106.349 54.5591 106.766 53.9941 107.158 53.4214C107.255 53.2444 107.316 53.05 107.337 52.8494C107.554 51.7672 107.703 50.6699 107.979 49.6114C108.108 48.7578 108.502 47.9661 109.104 47.3474C110.315 46.2838 110.684 44.7764 110.951 43.3256C111.283 41.602 111.4 39.8375 111.597 38.0919C111.639 37.7915 111.656 37.488 111.647 37.1848C111.558 35.7389 111.579 34.2884 111.709 32.8456C111.539 32.0146 111.374 31.1793 111.187 30.3487C111.187 30.3487 111.023 30.3066 110.936 30.3045C110.915 30.3122 110.895 30.3248 110.88 30.341C110.864 30.3573 110.853 30.3769 110.846 30.3984C110.848 30.4985 110.88 30.5938 110.89 30.6938C111.023 31.3322 111.085 31.983 111.078 32.6349C110.878 34.4431 111.078 36.2504 110.87 38.0504C110.846 38.4018 110.802 38.7514 110.736 39.0973C110.488 40.1251 110.351 41.1767 110.329 42.2338C110.219 43.385 109.937 44.5133 109.493 45.5807C109.175 46.3264 108.612 46.9408 107.897 47.3213C107.112 47.7707 106.301 48.1743 105.47 48.5302C105.426 48.5403 105.38 48.5401 105.337 48.5295C105.293 48.5189 105.252 48.4983 105.218 48.4692C105.188 48.4308 105.169 48.3857 105.16 48.3379C105.152 48.2902 105.155 48.2411 105.17 48.1948C106.087 46.3429 106.645 44.3338 106.814 42.274C106.954 41.0267 107.182 39.7908 107.496 38.5758C107.579 38.1329 107.579 37.6784 107.494 37.2357C107.055 34.2874 106.61 31.3405 106.157 28.3953C106.054 27.7505 105.872 27.1202 105.716 26.4893C105.43 25.3186 105.056 24.1625 104.857 22.9773C104.711 21.9269 104.253 20.9445 103.543 20.1565L103.569 20.1809C103.459 20.5008 103.637 20.7597 103.735 21.0413C103.898 21.4614 104.032 21.8921 104.137 22.3303C104.478 23.8963 104.794 25.4712 105.123 27.0416C105.217 27.482 105.336 27.9218 105.4 28.367C105.738 30.6553 106.058 32.944 106.383 35.2368C106.447 35.5818 106.482 35.9315 106.487 36.2823C106.493 36.8894 106.366 37.4905 106.116 38.0436C105.866 38.5967 105.498 39.0886 105.038 39.4849C104.559 39.9933 103.987 40.4061 103.354 40.7015C103.102 40.795 102.929 40.7364 102.949 40.5022C102.978 39.6472 102.911 38.7916 102.747 37.9518C102.57 36.647 102.302 35.356 101.948 34.0878C101.765 33.4241 101.632 32.7091 101.507 32.0357C101.462 31.5342 101.307 31.0489 101.053 30.6143C100.92 30.4027 100.848 30.159 100.844 29.9094C100.665 28.5133 100.292 27.1491 99.735 25.8564C99.3873 24.9126 98.99 23.9867 98.5929 23.0691C98.4162 22.6558 98.194 22.256 97.976 21.8603C97.2357 20.5499 96.4885 19.2411 95.7343 17.9338C95.4372 17.3519 94.9797 16.8671 94.4159 16.5368C94.3679 16.5247 94.3171 16.5318 94.2744 16.5568C94.2547 16.5649 94.2369 16.5771 94.2222 16.5926C94.2074 16.608 94.1961 16.6264 94.1888 16.6464C94.1842 16.6944 94.1956 16.7426 94.2212 16.7835C95.2909 18.0736 95.8375 19.6724 96.7177 21.0755C97.3836 22.1414 97.9177 23.284 98.3084 24.4785C98.7264 25.7505 99.3479 26.9801 99.7289 28.2821C99.9649 29.0995 100.16 29.9282 100.313 30.7651C100.415 31.2852 100.412 31.8205 100.303 32.3393C100.195 32.8581 99.9836 33.35 99.6819 33.7858C99.4277 34.1633 99.1733 34.5324 98.9106 34.9018C98.7802 35.0384 98.6942 35.2909 98.4578 35.1795C98.365 35.1399 98.3101 34.9325 98.3027 34.7949C98.2651 34.3453 98.2546 33.8938 98.2712 33.4429C98.3198 31.9737 97.889 30.5286 97.0438 29.3259C96.7242 28.877 96.4631 28.3892 96.2668 27.8744C96.0776 27.2136 95.7596 26.5967 95.331 26.0593C94.8715 25.4011 94.488 24.6929 94.188 23.9484C93.2396 22.1737 91.9712 20.5897 90.4468 19.2762C90.3016 19.1377 90.1564 18.9991 90.0198 18.8687C89.2829 18.122 88.4923 17.4302 87.6545 16.7988C86.7544 16.0731 85.931 15.2571 85.1971 14.3637C84.5823 13.6298 83.759 13.1001 82.8362 12.8448C82.7522 12.8218 82.653 12.8658 82.5574 12.8806C82.5652 12.9746 82.5871 13.067 82.6222 13.1546C82.6756 13.2415 82.7506 13.3131 82.84 13.3624C83.7632 13.8736 84.5711 14.5696 85.2131 15.4071C86.0561 16.4729 87.0659 17.3953 88.2034 18.1387C88.3684 18.2478 88.5199 18.376 88.6548 18.5206C89.2356 19.0749 89.8163 19.6291 90.4296 20.1492C90.8058 20.4788 91.1461 20.8473 91.4447 21.2486C92.457 22.6239 93.3592 24.0771 94.1428 25.5944C94.3603 26.0454 94.5415 26.5131 94.6848 26.9928C94.8073 27.4021 94.8182 27.8367 94.7163 28.2516C94.6144 28.6666 94.4034 29.0467 94.1052 29.3527C94.0686 29.3911 93.9141 29.3905 93.8547 29.3501C93.7844 29.2776 93.7311 29.1905 93.6984 29.0949C92.9807 27.7753 92.1068 26.5468 91.0956 25.4358C90.5856 24.8861 90.0107 24.4004 89.3836 23.9895C88.9839 23.6815 88.5401 23.4455 88.1284 23.1587C87.9242 23.0126 87.7416 22.8384 87.5862 22.6411C86.9829 21.8369 86.4291 21.0065 85.8057 20.232C85.3832 19.7375 84.9274 19.2725 84.4415 18.8402C83.7222 18.1456 82.9021 17.5637 82.009 17.1142C81.6272 16.874 81.2625 16.6078 80.9174 16.3172C80.1751 15.8126 79.4245 15.3166 78.6534 14.8336C78.1834 14.5482 77.6931 14.2924 77.1988 14.0409C76.7045 13.7894 76.2105 13.5546 75.7005 13.3453C74.9785 12.9982 74.2256 12.7194 73.4516 12.5126C72.6567 12.406 71.854 12.3689 71.0527 12.4016C70.9536 12.4014 70.8552 12.4178 70.7615 12.4501C70.741 12.4589 70.7225 12.4718 70.7071 12.4879C70.6917 12.5041 70.6797 12.5231 70.6719 12.544C70.6474 12.5697 70.6577 12.6529 70.6833 12.6774C70.7886 12.7818 70.9105 12.8678 71.0441 12.932C71.3602 13.0876 71.702 13.1844 72.0528 13.2174C73.4672 13.1802 74.6298 13.9798 75.9229 14.2919C77.3838 15.1722 78.9891 15.7986 80.3376 16.8735C80.8053 17.2383 81.3057 17.569 81.802 17.9039C83.0747 18.7188 84.1781 19.7719 85.0514 21.0052C85.7217 21.8802 86.2785 22.8365 86.7084 23.8515C86.9127 24.3152 86.9895 24.825 86.9307 25.3284C86.8266 26.0814 86.7649 26.8397 86.7457 27.5996C86.7059 27.9463 86.7558 28.2973 86.8906 28.6191C87.3442 29.4519 87.4966 30.4378 88.1895 31.1481C88.2856 31.2658 88.3352 31.4147 88.3287 31.5665C88.3252 31.6341 88.3065 31.7 88.2739 31.7593C88.2413 31.8187 88.1956 31.8698 88.1405 31.909C87.95 31.9783 87.7436 31.9916 87.5458 31.9473C87.348 31.9031 87.167 31.8033 87.0241 31.6595C86.4969 31.1888 86.0679 30.6185 85.7617 29.9814C85.18 28.6436 84.434 27.3834 83.5409 26.2299C83.3842 26.0337 83.24 25.8279 83.109 25.6137C82.3093 24.331 81.2763 23.2095 80.0635 22.3072C79.3101 21.7269 78.6202 21.0685 78.0054 20.3429C77.546 19.8148 77.0386 19.3304 76.4896 18.8962C76.3609 18.7737 76.2077 18.6799 76.0401 18.6212C75.8724 18.5625 75.6942 18.5401 75.5172 18.5556C75.4738 18.5732 75.4347 18.5999 75.4024 18.6337C75.3701 18.6676 75.3453 18.7079 75.3298 18.7521C75.3003 18.8455 75.3046 18.9464 75.3418 19.037C75.379 19.1277 75.4468 19.2024 75.5334 19.2483C76.3555 19.5923 76.857 20.3321 77.4222 20.9368C78.1606 21.7508 78.9932 22.4742 79.9023 23.0917C80.982 23.7357 81.8929 24.6275 82.5598 25.6933C82.7573 26.0428 82.9931 26.3692 83.263 26.6664C83.6796 27.1048 83.9867 27.6355 84.1591 28.2152C84.2868 28.5974 84.4696 28.9588 84.7018 29.2881C85.5903 30.8013 86.3255 32.3995 86.8964 34.0589C86.9263 34.0874 86.9445 34.1538 86.9414 34.1998C87.0153 35.0544 87.3264 35.8713 87.8398 36.5586C87.9006 36.6383 87.9402 36.7322 87.9547 36.8314C87.9667 36.9775 87.924 37.1229 87.8348 37.2392C87.778 37.2837 87.7113 37.3139 87.6404 37.3272C87.5695 37.3405 87.4964 37.3365 87.4274 37.3155C86.4656 36.7678 85.5705 36.1106 84.7599 35.357C84.6767 35.3029 84.6043 35.2338 84.5464 35.1533C84.1962 34.101 83.3131 33.4703 82.6512 32.6591C81.9894 31.8479 81.4201 31.068 80.8667 30.2542C80.2443 29.3419 79.6752 28.3908 79.0733 27.4655C78.61 26.754 78.1302 26.0513 77.6544 25.3443C77.6246 25.3158 77.5619 25.3131 77.5198 25.2973C77.5005 25.3448 77.4862 25.3941 77.4773 25.4445C77.476 25.4949 77.4872 25.5448 77.5099 25.5898C78.3725 27.5702 79.4702 29.4398 80.7793 31.1581C81.4371 31.9735 81.9598 32.9049 82.5397 33.7848C83.0588 34.6394 83.6591 35.4419 84.3324 36.1811C85.0637 36.9281 85.6646 37.8117 86.3511 38.6056C86.6349 38.9581 86.9636 39.2718 87.329 39.5388C88.034 40.0242 88.6232 40.659 89.0548 41.3982L89.9102 42.8102C89.9102 42.8102 89.8914 42.8983 89.8628 42.9282C89.8422 42.9696 89.8095 43.0039 89.7691 43.0264C89.7196 43.0397 89.6673 43.038 89.6187 43.0216C88.7372 42.663 87.8319 42.3661 86.9093 42.1329C86.0319 41.8916 85.2574 41.3702 84.7038 40.648C83.7785 39.463 82.6854 38.4197 81.8543 37.1532C81.6898 36.9 81.4936 36.6689 81.2705 36.4655C81.117 36.3661 80.949 36.2912 80.7726 36.2433C80.7759 36.3851 80.7298 36.5532 80.7909 36.6687C81.1321 37.3371 81.4528 38.0184 81.86 38.6519C82.6459 39.8742 83.539 41.0241 84.5286 42.0882C85.0723 42.747 85.5388 43.4659 85.9187 44.2309C86.5106 45.227 87.0274 46.2657 87.4649 47.3386C87.8891 48.4154 88.6154 49.3466 89.5565 50.0202C90.0365 50.3722 90.4512 50.7926 90.92 51.1991L90.8644 51.1461C90.5737 51.2114 90.2562 51.3816 90 51.3166C88.9579 51.161 87.9619 50.7811 87.0808 50.2032C86.643 49.8669 86.1809 49.5645 85.7391 49.2408C85.5308 49.104 85.3393 48.9431 85.1685 48.7615C83.5509 46.8403 82.1393 44.7547 80.957 42.5389C80.6604 41.9947 80.4929 41.435 80.2588 40.8852C80.2375 40.8648 80.1862 40.8159 80.1241 40.8383C80.1025 40.8471 80.0829 40.8604 80.0667 40.8773C80.0506 40.8942 80.0382 40.9144 80.0304 40.9365C80.0375 41.2832 80.0833 41.628 80.1671 41.9645C80.6036 43.4066 81.2518 44.776 82.0905 46.0277C82.7896 47.0051 83.4276 48.0464 84.0901 49.0622C84.6691 50.1179 85.3853 51.0923 86.2201 51.96C86.3896 52.1445 86.5322 52.352 86.6436 52.5764C87.1082 53.3462 87.4165 54.2116 88.1276 54.8087C88.2232 54.9264 88.302 55.0566 88.3621 55.1957C88.6183 55.8492 88.9598 56.4659 89.3776 57.0299C89.4545 57.1032 89.4268 57.346 89.354 57.4479C89.3023 57.4884 89.241 57.5147 89.1761 57.5243C89.1111 57.5338 89.0448 57.5263 88.9837 57.5025C87.628 56.4778 86.1747 55.564 85.2341 54.0788C84.9437 53.6082 84.5769 53.1893 84.1489 52.8391C83.4633 52.2501 82.8895 51.5422 82.4553 50.7494C81.8739 49.8111 81.2596 48.8902 80.6661 47.9647C80.3991 48.8686 80.7972 49.6483 81.1699 50.412C81.8356 51.8239 82.7493 53.1049 83.8674 54.1942C85.3988 55.6828 86.4053 57.6284 86.7354 59.7384C87.0228 61.5274 87.5594 63.2673 88.3297 64.9073C88.3767 64.9521 88.3307 65.1286 88.3059 65.1375C88.2128 65.164 88.1133 65.1559 88.0256 65.1148L86.0446 63.7708C85.65 63.4597 85.2256 63.1885 84.7774 62.9612C84.0072 62.5805 83.4015 61.9329 83.0733 61.1389C82.4002 59.8437 81.7767 58.5306 81.1154 57.2059C80.9896 56.9874 80.8916 56.7541 80.8237 56.5113C80.6163 55.4974 79.918 54.733 79.4135 53.868C79.2369 53.6262 79.0185 53.4179 78.7687 53.2527C78.6663 53.1549 78.4767 53.08 78.3849 53.2616C78.3553 53.3277 78.3391 53.3991 78.3372 53.4715C78.3353 53.5439 78.3477 53.616 78.3738 53.6835C78.475 53.9025 78.6673 54.0942 78.7727 54.3172C79.2124 55.2672 79.9163 56.0941 80.1374 57.1619C80.2276 57.4498 80.3606 57.7226 80.5321 57.9709C80.9841 58.7013 81.3274 59.4935 81.5513 60.3227C81.6589 60.7113 81.8208 61.0828 82.0321 61.4262C82.3234 61.9553 82.5191 62.5316 82.6104 63.1286C82.6352 63.4285 82.7069 63.7227 82.8228 64.0004C83.2804 64.9559 83.5538 65.9891 83.6286 67.046C83.8223 69.0088 84.5174 70.8888 85.6471 72.5056C85.7101 72.5828 85.7447 72.6792 85.7454 72.7788C85.734 72.8206 85.7125 72.8589 85.6826 72.8903C85.6527 72.9216 85.6154 72.9449 85.5742 72.9582C84.7632 72.9391 83.9814 72.652 83.3508 72.1417C83.1038 71.8933 82.8235 71.6807 82.5178 71.5098C82.2926 71.395 82.0936 71.235 81.9331 71.0398C81.7727 70.8445 81.6543 70.6182 81.5854 70.3751C81.2063 69.336 80.8355 68.2968 80.4977 67.2401C79.8392 65.1324 79.3491 62.9758 79.0322 60.7906C78.9373 60.1941 78.8092 59.6033 78.6486 59.021C78.5662 58.7852 78.4469 58.5639 78.2952 58.3655C78.2525 58.3247 78.1352 58.3107 78.0475 58.3086C78.0242 58.3166 78.0031 58.3301 77.9861 58.3479C77.969 58.3657 77.9566 58.3874 77.9497 58.4111C77.8859 58.5991 77.8497 58.7955 77.8422 58.9939C77.8789 59.494 77.9323 59.9938 78.0319 60.505C78.2309 61.6985 78.4257 62.888 78.6876 64.0926C78.8374 64.7905 79.0444 65.4286 79.2146 66.1052C79.5417 67.3162 79.9346 68.5084 80.3917 69.6765C80.6955 70.5294 81.0407 71.3647 81.3487 72.2217C81.3807 72.3178 81.4249 72.4094 81.4803 72.4942C82.5901 73.8962 83.0521 75.6263 83.6828 77.2482C84.1634 78.5229 84.5858 79.8072 85.0498 81.0823C85.4117 82.0232 85.8971 82.9118 86.4933 83.7247C86.872 84.294 87.3872 84.7594 87.9918 85.0786C88.5965 85.3977 89.2715 85.5605 89.9551 85.5519L90.2602 85.5657C90.3098 85.5641 90.359 85.5743 90.4038 85.5954C90.4487 85.6166 90.4878 85.6481 90.5181 85.6873C90.5484 85.7266 90.5689 85.7724 90.5779 85.8212C90.587 85.8699 90.5843 85.9201 90.5702 85.9676C90.4763 86.4094 90.3381 86.8406 90.1577 87.2547C89.5805 88.484 88.9043 89.6642 88.1358 90.7838C87.0702 92.1738 86.2723 93.7622 85.0412 95.035C83.9643 96.1616 82.9949 97.3863 82.1456 98.693C82.0387 98.8597 81.915 99.0151 81.7765 99.1567C80.846 100.072 79.9197 100.991 78.9763 101.894C78.3229 102.519 77.6183 103.095 76.9777 103.732C75.4778 105.147 73.8499 106.421 72.1149 107.536C70.9562 108.331 69.7929 109.114 68.579 109.873C67.8933 110.306 67.2014 110.715 66.5034 111.098C66.0096 111.346 65.566 111.684 65.1948 112.093C64.622 112.77 63.7717 113.011 63.0385 113.438C62.9996 113.42 62.9679 113.39 62.9489 113.352C62.919 113.324 62.9297 113.244 62.9582 113.214C63.5084 112.638 64.0156 112.012 64.5613 111.423C65.2938 110.665 65.9472 109.834 66.5116 108.944C66.7165 108.658 66.9358 108.382 67.1687 108.119C67.3102 107.919 67.5219 107.689 67.5128 107.476C67.5551 107.028 67.7248 106.601 68.0018 106.245C68.7929 104.904 69.5587 103.546 70.4642 102.272C70.9208 101.623 71.2076 100.852 71.6046 100.154C72.0016 99.4556 72.3888 98.8704 72.7829 98.2267C73.8933 96.4306 74.9994 94.6305 76.11 92.8428C76.3621 92.4111 76.6396 91.9948 76.941 91.596C77.5065 90.9562 77.9403 90.2112 78.2175 89.4036C78.3334 89.0714 78.4826 88.7518 78.6628 88.4497C78.857 88.1578 79.0326 87.8539 79.1885 87.5398C79.8795 85.9304 80.4192 84.2602 80.8005 82.5507C80.8257 82.3007 80.8687 82.0527 80.9294 81.8088C81.3729 80.6002 81.2809 79.3374 81.4985 78.1091C81.5529 77.9401 81.5685 77.7611 81.5442 77.5853C81.5199 77.4095 81.4562 77.2415 81.358 77.0937C81.2954 77.0186 81.2058 76.9712 81.1086 76.9617C81.0251 76.9637 80.8846 77.0254 80.8652 77.0884C80.6595 77.7571 80.4498 78.4299 80.2903 79.11C80.2318 79.5625 80.0135 79.9793 79.6747 80.285C79.3307 80.5788 79.0898 80.9751 78.9872 81.4157C78.7436 82.131 78.3809 82.8001 77.9145 83.3946C77.7273 83.6207 77.5677 83.8683 77.439 84.1321C77.2074 84.5771 76.918 84.9895 76.5784 85.3587C76.03 86.0103 75.5708 86.7307 75.0523 87.4108C74.0624 88.74 72.9397 89.965 71.7016 91.0669C71.0402 91.6829 70.4538 92.3748 69.9545 93.1283C69.2219 94.2672 68.3643 95.3207 67.3975 96.269C66.9396 96.7337 66.5357 97.2488 66.1934 97.8042C65.8153 98.3356 65.4062 98.8442 64.9681 99.3274C64.2118 100.197 63.5621 101.16 62.7888 102.013C62.0155 102.866 61.5554 103.724 60.8893 104.524C59.6745 106.129 58.291 107.599 56.7624 108.908C56.4181 109.2 56.0894 109.51 55.7779 109.837C55.5105 110.127 55.2224 110.398 54.9159 110.646C53.9502 111.372 53.083 112.22 52.3362 113.17C51.9572 113.567 51.5741 113.968 51.1951 114.365C50.9406 114.606 50.6985 114.86 50.4697 115.125C49.7837 115.925 49.0469 116.68 48.2637 117.385C47.2189 118.412 46.0363 119.257 44.9654 120.243C43.6346 121.395 42.2284 122.457 40.7561 123.422C40.5419 123.555 40.3387 123.705 40.1487 123.87C39.9983 124.005 39.8808 124.172 39.8052 124.358C39.7503 124.51 40.1489 124.956 40.3797 125.005C41.0676 125.169 41.7874 125.142 42.4612 124.927C43.7417 124.517 45.0383 124.082 46.3178 123.63C47.03 123.38 47.7201 123.076 48.4279 122.813C49.2707 122.479 50.1403 122.217 51.0273 122.03C52.0195 121.864 52.9797 121.544 53.8734 121.083C54.1433 120.955 54.4346 120.879 54.7324 120.858C55.4272 120.754 56.1359 120.713 56.8259 120.58C58.3579 120.297 59.9079 120.121 61.4645 120.054C61.6163 120.055 61.768 120.047 61.919 120.031C65.0529 119.611 68.2171 119.416 71.3464 118.976C72.0477 118.865 72.7413 118.709 73.423 118.51C74.9208 118.112 76.3855 117.543 77.9618 117.465C79.2636 116.896 80.726 116.945 82.0327 116.406C82.1695 116.344 82.3126 116.297 82.4594 116.266C84.5688 115.954 86.4882 115.012 88.5075 114.418C89.3244 114.177 90.127 113.866 90.9427 113.576C91.4184 113.407 91.8823 113.206 92.3315 112.976C93.6137 112.282 94.9487 111.704 96.2705 111.097C97.7167 110.52 99.1098 109.819 100.434 109C100.483 108.949 100.65 108.953 100.676 108.995C100.702 109.036 100.705 109.169 100.699 109.261C100.687 109.31 100.666 109.356 100.635 109.396C100.152 110.339 99.6646 111.268 99.1983 112.219C98.8356 113.156 98.3615 114.045 97.7863 114.869C97.6629 115.04 97.5751 115.234 97.5283 115.439C97.2335 116.232 96.8294 116.981 96.3277 117.663C95.9533 118.257 95.6767 118.908 95.5084 119.59C94.8592 122.071 93.8859 124.457 92.6136 126.684C92.5415 126.816 92.4593 126.942 92.3678 127.061C90.9022 128.845 89.543 130.713 88.0775 132.497C87.57 133.114 86.969 133.658 86.4147 134.239C86.3037 134.342 86.199 134.452 86.1009 134.568C85.0505 135.984 83.7045 137.155 82.1564 138C81.908 138.164 81.6897 138.369 81.5109 138.607C81.4784 138.646 81.4555 138.691 81.4443 138.74C81.4331 138.789 81.4339 138.84 81.4465 138.889C81.4722 138.928 81.5074 138.96 81.5487 138.983C81.59 139.005 81.6363 139.017 81.6833 139.017C82.5409 138.993 83.3725 138.717 84.0737 138.222C85.393 137.215 86.7773 136.295 88.2178 135.47C89.6117 134.578 90.911 133.546 92.0954 132.39C92.1935 132.275 92.2983 132.165 92.4092 132.062C94.4273 130.52 95.9717 128.534 97.5331 126.565C98.1285 125.756 98.8081 125.012 99.5604 124.347C100.053 123.916 100.468 123.404 100.786 122.832C102.244 120.355 103.537 117.804 104.868 115.264C105.608 113.779 106.252 112.248 106.794 110.68C107.12 109.784 107.453 108.862 107.746 107.974C107.975 107.413 108.063 106.804 108.001 106.202C107.952 105.909 107.927 105.612 107.926 105.314C107.97 104.148 107.636 102.999 106.973 102.038C106.062 100.573 106.284 100.614 104.619 101.024C104.329 101.098 104.043 101.201 103.744 101.249C102.854 101.4 102.001 101.714 101.227 102.177C100.46 102.557 99.6737 102.896 98.8708 103.192C98.1353 103.518 97.4128 103.865 96.6817 104.203C96.4587 104.308 96.2581 104.476 96.0265 104.573C93.525 105.613 91.2163 107.048 88.7111 108.109C85.9832 109.332 83.1593 110.33 80.2679 111.09C79.0018 111.4 77.726 111.651 76.4791 112.068C75.5633 112.331 74.6306 112.532 73.6875 112.667C72.5454 112.839 71.4223 113.12 70.3337 113.506C69.7627 113.82 69.0948 113.91 68.4609 113.758C68.4079 113.813 68.325 113.84 68.2633 113.879L68.4362 113.775C68.4863 113.773 68.5355 113.762 68.5816 113.743C69.5203 113.178 70.3684 112.486 71.3374 111.967C71.8074 111.714 72.2027 111.299 72.7065 111.062C72.8503 111.009 72.9798 110.923 73.0848 110.811C73.9745 109.759 75.2731 109.228 76.283 108.315C76.5973 108.064 76.9281 107.835 77.2731 107.628C77.5306 107.474 77.7725 107.295 77.9954 107.094C79.002 106.039 80.0086 104.984 80.9642 103.889C83.2517 101.355 85.3623 98.6664 87.2811 95.8428C87.4678 95.5453 87.6791 95.2638 87.9127 95.0015C89.4491 93.3917 90.5521 91.458 91.7914 89.6381C92.1483 89.0325 92.4291 88.3851 92.6273 87.7107C92.8 87.2383 93.1218 86.8351 93.5441 86.5621C93.8257 86.3507 94.17 86.2398 94.522 86.247C94.9233 86.2418 95.324 86.2157 95.7226 86.1689C97.4642 85.9435 99.0955 85.1917 100.398 84.0141C100.592 83.8544 100.765 83.6724 100.916 83.4719C101.73 82.3966 102.544 81.313 103.332 80.2217C103.567 79.8876 103.765 79.5288 103.921 79.1517C104.389 78.0945 105.026 77.1207 105.808 76.2688C106.962 75.0038 107.834 73.5076 108.365 71.8797C108.494 71.5033 108.662 71.1412 108.866 70.7993C109.311 70.0082 109.789 69.233 110.235 68.4586C110.347 68.2823 110.435 68.0922 110.497 67.8931C110.689 67.2752 110.949 66.6809 111.274 66.1215C111.655 65.2609 111.966 64.3713 112.206 63.4612C112.424 62.7965 112.609 62.1158 112.802 61.4434C112.956 60.9221 113.195 60.3988 112.915 59.8459C112.342 60.6698 111.938 61.5986 111.726 62.579C111.445 63.9444 110.926 65.2497 110.192 66.4348C109.744 67.0924 109.482 67.8708 109.094 68.5771C108.753 69.1904 108.353 69.7717 107.996 70.377C107.784 70.7156 107.608 71.075 107.47 71.4497C106.993 72.6668 106.365 73.819 105.6 74.8792C105.242 75.4512 104.596 75.7 104.114 76.1371C104.031 76.1951 103.933 76.2265 103.832 76.2272C102.932 76.2816 102.032 76.3318 101.135 76.3778C101.109 76.3765 101.084 76.3698 101.062 76.3581C101.039 76.3464 101.019 76.3299 101.004 76.3098C100.995 76.2894 100.993 76.2672 100.995 76.2454C100.997 76.2235 101.005 76.2025 101.017 76.1843C101.258 75.9323 101.502 75.6761 101.768 75.4487C102.931 74.4022 103.823 73.0892 104.368 71.6223C104.699 70.7796 105 69.925 105.31 69.0786C105.457 68.7067 105.645 68.3522 105.87 68.0219C106.886 66.4701 108.097 65.0475 108.939 63.3788C108.985 63.2912 109.036 63.2064 109.092 63.1247C110.116 61.7551 110.954 60.2559 111.585 58.6662C111.913 57.8778 112.258 57.1058 112.594 56.3172C112.876 55.6719 113.178 55.0386 113.472 54.3972C113.526 54.313 113.574 54.2254 113.616 54.135C114.036 52.9033 114.45 51.6663 114.858 50.4238C114.881 50.3481 114.807 50.237 114.784 50.1416L114.802 50.1829ZM98.4519 63.21L98.4414 63.1184L98.4228 63.2149L98.3861 63.2533L98.4519 63.21ZM60.1429 118.164C60.0433 118.192 60.0113 118.431 59.8446 118.263L60.1353 118.198L60.7907 118.195C61.0055 118.098 61.2233 117.947 61.4536 118.159C61.7478 117.964 62.0854 117.846 62.4365 117.814C62.7876 117.781 63.1412 117.837 63.4658 117.974C63.5636 117.902 63.6795 117.857 63.8008 117.846C63.9221 117.835 64.0441 117.858 64.1532 117.912L64.9311 117.431C64.8383 117.391 64.749 117.322 64.6615 117.328C63.0048 117.366 61.3518 117.502 59.7112 117.736C58.1807 117.989 56.627 118.138 55.078 118.316C54.7784 118.356 54.478 118.363 54.1946 118.387C54.1711 118.379 54.1497 118.367 54.1319 118.35C54.1141 118.333 54.1005 118.312 54.0921 118.289C54.1028 118.209 54.1127 118.096 54.1701 118.053C54.2842 117.955 54.42 117.886 54.5662 117.852C55.702 117.653 56.8226 117.376 57.9202 117.022C58.4512 116.876 59.0193 116.888 59.5417 116.734C60.0641 116.58 60.7095 116.861 61.2991 116.722C62.2293 116.508 63.169 116.345 64.112 116.143C64.7765 115.909 65.4937 115.869 66.18 116.028C66.4757 116.083 66.7792 116.078 67.0732 116.016C69.1725 115.808 71.2718 115.6 73.3836 115.388C73.979 115.32 74.5639 115.16 75.1498 115.042L75.1295 115.064C74.9948 115.017 74.8589 114.92 74.7296 114.927C73.4293 115.024 72.1292 115.127 70.8291 115.235C70.3332 115.276 69.8294 115.333 69.3332 115.357C69.1337 115.359 68.9353 115.327 68.7465 115.263C68.6667 115.244 68.6141 115.136 68.5458 115.071C68.6069 115.007 68.6884 114.922 68.7333 114.875C70.3945 114.502 72.0601 114.136 73.7301 113.777C74.2716 113.682 74.808 113.559 75.3372 113.41C77.042 112.819 78.782 112.335 80.5471 111.961C83.0702 111.488 85.4076 110.39 87.8312 109.586C88.1068 109.469 88.3755 109.336 88.636 109.188C89.6722 108.683 90.6906 108.138 91.7536 107.708C92.4993 107.411 93.2161 107.047 93.8949 106.619C94.5498 106.155 95.2702 105.792 96.0324 105.542C96.4113 105.409 96.7663 105.216 97.0837 104.97C97.7584 104.538 98.4875 104.196 99.2519 103.955C99.3454 103.926 99.4413 103.906 99.5385 103.894C99.4907 103.957 99.436 104.014 99.3755 104.065C98.6468 104.504 97.9182 104.951 97.1808 105.373C96.6162 105.691 96.0301 105.98 95.4741 106.306C95.4212 106.362 95.3734 106.463 95.321 106.543C95.3851 106.605 95.479 106.694 95.5533 106.659C96.1861 106.514 96.8057 106.317 97.4058 106.069C98.8679 105.392 100.34 104.79 101.838 104.221C102.391 103.987 102.927 103.712 103.439 103.398C103.555 103.312 103.641 103.192 103.685 103.054C103.971 102.234 104.684 102.008 105.415 101.841C105.498 101.812 105.587 101.802 105.675 101.812C105.763 101.822 105.848 101.852 105.923 101.899C105.997 101.946 106.061 102.01 106.108 102.085C106.155 102.16 106.184 102.244 106.194 102.332L106.592 103.797C106.668 104.033 106.857 104.049 107.078 104.048C107.12 104.054 107.16 104.071 107.194 104.096C107.228 104.122 107.256 104.155 107.273 104.194C107.365 104.588 107.318 105.002 107.142 105.366C107.099 105.513 107.065 105.66 107.027 105.811C107.441 106.369 107.271 106.941 107.046 107.502C106.977 107.634 106.88 107.749 106.761 107.839C106.643 107.929 106.506 107.992 106.361 108.023C106.192 108.333 105.928 108.582 105.609 108.733L105.637 108.875L105.647 108.737L106.398 108.026C106.476 107.25 106.696 106.495 107.048 105.798L106.87 105.506C106.502 105.762 106.239 106.142 106.126 106.575C105.988 106.892 105.926 107.306 105.689 107.504C104.911 108.165 104.511 109.097 103.882 109.859L103.614 110.028C103.451 110.345 103.198 110.635 103.254 111.03L103.228 111.006C103.559 110.71 104.101 110.86 104.363 110.457C104.677 110.642 104.966 110.681 105.255 110.378C105.544 110.075 105.724 109.887 105.926 109.607C106.056 109.47 106.14 109.289 106.265 109.115C106.307 109.258 106.321 109.408 106.305 109.557C106.289 109.706 106.244 109.85 106.172 109.981C105.712 111.173 105.368 112.371 104.814 113.49C103.459 116.236 102.133 119.001 100.507 121.619C100.345 121.871 100.165 122.111 99.9686 122.337C98.5227 124.066 97.0641 125.791 95.6182 127.52C94.6558 128.682 93.7315 129.864 92.3626 130.597C92.0814 130.807 91.8135 131.033 91.5601 131.276C90.9934 131.681 90.3968 132.059 89.8172 132.444C89.8172 132.444 89.7252 132.437 89.6996 132.413C89.683 132.397 89.6703 132.378 89.6626 132.356C89.6548 132.335 89.6522 132.311 89.6549 132.289C89.6874 132.193 89.7271 132.1 89.7737 132.01C89.9026 131.8 90.0148 131.58 90.109 131.351C90.2611 130.893 90.6472 131.335 90.8595 131.129C91.0718 130.924 91.2616 130.828 91.4455 130.661C92.0794 130.09 92.7046 129.512 93.3342 128.938L93.8902 128.433C95.079 127.315 95.8349 125.891 96.6883 124.535C96.8471 124.278 96.9552 123.994 97.0069 123.696C97.0364 123.529 96.9025 123.336 96.8398 123.153C96.6686 123.333 96.5229 123.528 96.3304 123.687C96.2896 123.73 96.1594 123.695 96.0713 123.677C96.0579 123.657 96.0488 123.634 96.0447 123.61C96.0405 123.587 96.0414 123.563 96.0472 123.539C96.0578 123.392 96.1 123.249 96.171 123.119C96.6365 122.479 96.9086 121.719 96.9549 120.93C96.6875 121.099 96.4321 121.247 96.1443 121.437C96.1682 121.471 96.1846 121.509 96.1924 121.55C96.2002 121.591 96.1992 121.632 96.1895 121.673C96.1797 121.713 96.1614 121.75 96.1359 121.783C96.1104 121.815 96.0782 121.842 96.0415 121.861C96.137 122.197 95.8717 122.278 95.6572 122.392L95.6883 122.471L95.6499 122.434C95.8088 122.267 95.9252 122.068 96.0628 121.882C96.1012 121.739 96.1313 121.596 96.1657 121.457C96.1683 120.856 96.2671 120.795 96.9351 120.976C97.1084 120.889 97.28 120.726 97.4512 120.726C97.6261 120.728 97.798 120.68 97.9461 120.587C98.0943 120.494 98.2125 120.36 98.2864 120.201C98.4787 119.855 98.7093 119.536 98.9222 119.176C98.9395 119.131 98.9445 119.083 98.9368 119.035C98.9291 118.988 98.9089 118.943 98.8783 118.906C98.8228 118.853 98.6894 118.864 98.5982 118.892C98.1623 118.998 98.0603 119.455 97.7618 119.725C97.7129 119.776 97.5996 119.75 97.5163 119.76C97.5152 119.71 97.4887 119.652 97.513 119.618C97.6417 119.407 97.7872 119.203 97.9285 118.995C98.5178 118.129 99.12 117.276 99.6965 116.399C99.7836 116.224 99.8413 116.037 99.8673 115.844C99.8681 115.821 99.8638 115.8 99.8546 115.779C99.8454 115.759 99.8317 115.742 99.8145 115.728C99.7803 115.695 99.6967 115.689 99.668 115.71C99.4598 115.836 99.2708 115.991 99.1067 116.17C98.783 116.612 98.5019 117.086 98.191 117.54C98.138 117.596 98.0175 117.619 97.9303 117.642C97.8432 117.665 97.7296 117.451 97.8011 117.29C98.0294 116.63 98.3163 115.992 98.6584 115.383C99.2252 114.443 99.7241 113.463 100.151 112.451C100.546 111.644 100.949 110.838 101.36 110.039C101.794 109.308 102.183 108.552 102.526 107.774C102.939 106.869 103.497 106.037 104.176 105.31C104.254 105.229 104.442 105.237 104.583 105.2L104.562 105.18C104.646 104.844 104.713 104.508 104.81 104.176C104.864 103.983 104.981 103.809 105.03 103.62C105.089 103.429 105.111 103.229 105.096 103.03C105.056 102.9 104.969 102.79 104.851 102.722C104.821 102.694 104.652 102.777 104.62 102.845C104.323 103.532 104.085 104.26 103.287 104.567C103.166 104.607 103.087 104.776 103.023 104.919C102.746 105.276 102.501 105.656 102.29 106.055C101.973 106.623 101.554 107.128 101.056 107.545C101.025 107.586 100.986 107.619 100.942 107.644C100.898 107.669 100.849 107.684 100.798 107.689C100.747 107.693 100.696 107.688 100.648 107.671C100.6 107.655 100.556 107.63 100.518 107.595C100.437 107.503 100.329 107.439 100.209 107.411C100.09 107.383 99.9644 107.393 99.8508 107.44C98.5233 107.885 97.2725 108.532 96.1423 109.359C96.1342 109.547 96.1853 109.767 96.1094 109.915C95.9875 110.053 95.8337 110.158 95.6615 110.222C95.6411 110.243 95.565 110.203 95.5351 110.175C95.5194 110.158 95.5076 110.137 95.5006 110.115C95.4936 110.093 95.4915 110.069 95.4946 110.046C95.542 109.887 95.6266 109.741 95.7414 109.621C95.8562 109.501 95.9978 109.409 96.1548 109.355C95.7077 109.387 95.2781 109.541 94.9127 109.801C94.3271 110.181 93.694 110.482 93.0298 110.697C92.7528 110.808 92.4838 110.938 92.2248 111.087C91.6422 111.347 91.0682 111.615 90.4599 111.85C89.8517 112.086 89.169 112.348 88.4757 112.519C87.9004 112.692 87.3609 112.968 86.8832 113.332C86.7125 113.523 86.5776 113.742 86.485 113.981C86.5592 113.924 86.6375 113.873 86.7194 113.829C86.7925 113.807 86.8679 113.794 86.944 113.79C86.9332 113.826 86.9171 113.86 86.8962 113.892C86.8585 113.919 86.8143 113.936 86.768 113.941C86.6778 113.95 86.587 113.95 86.4966 113.943C85.3786 114.507 84.1908 114.921 82.9641 115.173C82.4238 115.278 81.8892 115.445 81.3753 115.607C81.0451 115.719 80.7065 115.806 80.3626 115.864C79.663 115.93 78.9774 116.101 78.3287 116.371C78.1776 116.46 78.0008 116.495 77.8273 116.47C77.6538 116.445 77.4938 116.362 77.3736 116.235C77.1132 115.986 76.7021 116.083 76.3652 116.137C76.0283 116.191 75.4793 116.279 75.0383 116.347C75.0373 116.265 75.0495 116.183 75.0744 116.104C75.1377 115.953 75.1928 115.809 74.9511 115.832C74.5552 115.862 74.1609 115.959 73.7642 115.956C71.7127 116.011 69.6679 116.214 67.6454 116.562C67.1947 116.609 66.7737 116.809 66.452 117.128C66.6197 117.158 66.7874 117.187 66.9512 117.229C67.0705 117.261 67.1873 117.301 67.3005 117.35C67.5183 117.199 67.732 117.052 67.9837 117.284C68.2639 117.128 68.5395 116.95 68.8889 117.071C69.1076 116.962 69.3302 116.84 69.5877 116.963C69.8068 116.87 70.0205 116.723 70.2588 116.918L70.5957 116.864C70.5672 116.894 70.5224 116.941 70.5142 116.95C70.4262 116.932 70.3392 116.909 70.2538 116.881C70.0353 116.999 69.8264 117.175 69.5867 116.921C69.3733 117.077 69.1509 117.207 68.8632 117.047C68.5977 117.226 68.2757 117.302 67.9581 117.26C67.739 117.353 67.5257 117.516 67.2749 117.326C66.8532 117.591 66.3749 117.752 65.879 117.797C65.6805 117.812 65.4879 117.872 65.3154 117.971C65.1429 118.07 64.9948 118.207 64.882 118.371C64.7837 118.516 64.6543 118.637 64.5033 118.726C64.3523 118.815 64.1834 118.869 64.0089 118.884C63.5863 118.963 63.1598 119.019 62.7311 119.052L55.6035 119.723L55.5608 119.682L55.6248 119.744C55.8507 119.475 56.1645 119.294 56.5106 119.234C57.1014 119.145 57.6877 119.044 58.2788 118.972C59.7771 118.77 61.239 118.623 62.7171 118.451C62.457 118.399 62.1974 118.363 61.9412 118.298C61.7758 118.255 61.613 118.203 61.4533 118.142C61.24 118.306 61.0218 118.44 60.7901 118.17C60.5809 118.33 60.3703 118.43 60.1429 118.164ZM86.3778 95.2418L86.3586 95.1337L86.3359 95.2345L85.9196 95.8245C85.36 96.8512 84.6817 97.8087 83.8987 98.6771C83.6565 98.9119 83.3963 99.1274 83.1205 99.3215C82.822 100.062 82.3859 100.74 81.8352 101.318C80.8429 102.449 79.8293 103.562 78.7945 104.658C78.1871 105.326 77.5365 105.953 76.8469 106.536C75.4129 107.705 73.7464 108.57 72.4246 109.896C72.3491 109.962 72.2664 110.02 72.1782 110.068C70.9455 110.915 69.5528 111.528 68.4416 112.573C68.316 112.651 68.1795 112.711 68.0366 112.749C67.7096 112.875 67.3946 113.031 67.0955 113.214C65.6092 114.284 63.859 114.784 62.2014 115.495C62.0657 115.559 61.9197 115.599 61.77 115.613C61.6219 115.614 61.4742 115.597 61.3304 115.561C61.3048 115.536 61.2208 115.513 61.2322 115.467C61.2437 115.421 61.2064 115.255 61.2514 115.216C61.434 115.044 61.6457 114.907 61.8765 114.809C62.6829 114.529 63.451 114.149 64.1631 113.679C64.3735 113.541 64.6076 113.444 64.8536 113.391C65.3463 113.27 65.7974 113.018 66.16 112.663C66.9548 111.994 67.812 111.402 68.7198 110.896C70.2584 109.917 71.7766 108.959 73.2899 107.972C74.8123 106.992 76.2372 105.868 77.5452 104.616C78.3902 103.79 79.3873 103.045 80.1975 102.162C81.1348 101.18 82.1451 100.284 83.1296 99.3547C83.7345 97.9581 84.7042 96.75 85.9371 95.8575C85.9287 95.4986 86.1938 95.4089 86.3778 95.2418ZM92.2334 67.0582L91.646 66.5793C91.4478 66.5909 91.2494 66.5579 91.0656 66.4827C90.8818 66.4075 90.7171 66.292 90.5838 66.1448C89.8856 65.5635 89.324 64.8353 88.9393 64.0122C87.9067 62.0518 87.2854 59.9012 87.1136 57.6922C87.1118 57.6171 87.1586 57.4741 87.2044 57.4688C87.3021 57.4558 87.4012 57.4804 87.4815 57.5375C88.2438 58.0258 89.0798 58.3884 89.9572 58.6112C90.3393 58.729 90.6991 58.9097 91.0218 59.1458C91.8831 59.7394 92.6236 60.5195 93.654 60.842C93.7935 60.8998 93.9182 60.9883 94.019 61.1007C95.1135 62.2024 96.3186 63.2139 96.7645 64.7899C96.7919 64.8895 96.8565 64.9757 96.8837 65.0669C97.0161 65.5522 97.1525 66.0333 97.2682 66.5191C97.2749 66.5672 97.2702 66.6163 97.2546 66.6623C97.239 66.7083 97.2129 66.75 97.1784 66.7842C97.1336 66.8312 96.9826 66.8013 96.9187 66.7485C96.7571 66.6344 96.6133 66.4971 96.4917 66.341C95.9927 65.5302 95.5102 64.7106 95.0112 63.8998C94.8576 63.6481 94.686 63.408 94.4976 63.1812C94.4549 63.1404 94.3045 63.1356 94.2428 63.1746C94.2103 63.2044 94.1863 63.2423 94.1734 63.2844C94.1604 63.3266 94.1589 63.3714 94.169 63.4143C94.5932 64.5907 95.1813 65.7014 95.9159 66.7135C96.0614 66.9136 96.1945 67.1224 96.3146 67.3388C96.3255 67.3737 96.3286 67.4107 96.3238 67.447C96.3191 67.4833 96.3065 67.5181 96.287 67.5491C96.2675 67.5801 96.2415 67.6065 96.2108 67.6265C96.1802 67.6465 96.1455 67.6597 96.1093 67.665C95.8708 67.6414 95.554 67.6654 95.4174 67.535C94.9207 67.0403 94.4514 66.5189 94.0116 65.973C93.6038 65.494 93.6457 65.5014 93.2559 66.1493C93.2143 66.2046 93.1609 66.2498 93.0995 66.2816C93.038 66.3134 92.9702 66.3309 92.9011 66.3329C92.4569 66.2566 92.0407 66.0647 91.6941 65.7765C91.6045 65.691 91.4075 65.8375 91.3691 65.9803C91.3435 66.1031 91.3512 66.2304 91.3914 66.3491C91.4316 66.4678 91.5028 66.5736 91.5977 66.6555L92.181 67.1387C92.2984 67.1321 92.4151 67.1606 92.5162 67.2208C92.6173 67.2809 92.6981 67.3698 92.7483 67.4762C92.8038 67.5292 93.0087 67.3658 92.9517 67.6051L92.7681 67.4298C92.5513 67.4432 92.404 67.2129 92.2334 67.0582ZM96.3231 69.1338C96.2435 69.1231 96.0976 69.3102 96.1041 69.0554L96.3231 69.1338ZM89.8223 37.9694L89.7346 37.9672L89.8014 37.9657L90.333 38.3833L90.8067 38.4683C91.2615 38.4302 91.7135 38.5692 92.0683 38.8563C92.7601 39.4283 93.5044 39.9337 94.2911 40.3659C94.7344 40.5899 95.1163 40.9188 95.4037 41.3238C95.6911 41.7289 95.8752 42.1981 95.9401 42.6905C95.9908 42.848 96.0021 43.0156 95.9731 43.1785C95.9442 43.3415 95.8759 43.4948 95.7741 43.6253C95.4983 43.9741 95.2198 44.2061 94.7785 44.0786C94.4974 43.9837 94.1937 43.9791 93.9098 44.0654C93.5134 44.1487 93.1002 44.0712 92.7609 43.8501C91.5946 43.251 90.9632 42.1344 90.1645 41.1844C90.0069 40.6511 89.6757 40.1857 89.2236 39.862C89.0554 39.6765 88.913 39.4692 88.8 39.2457C88.7701 39.2172 88.7762 39.1168 88.7926 39.1081C88.8091 39.0994 88.9741 39.012 89.025 39.0442C89.5653 39.3135 90.0118 39.7396 90.3059 40.2668C90.5613 40.6969 90.9009 41.071 91.3044 41.3666C92.1841 42.1099 93.1674 42.7213 94.2232 43.1814C94.3919 43.2526 94.7268 43.2949 94.7792 43.2143C94.9488 42.9682 94.6511 42.9126 94.503 42.8284C94.025 42.5598 93.5268 42.3209 93.0567 42.0355C92.7919 41.9001 92.5723 41.6905 92.4248 41.4323C92.2028 40.9273 91.8371 40.4987 91.3732 40.2002C90.99 39.8835 90.6189 39.5456 90.2521 39.2118C90.2265 39.1874 90.2205 39.1082 90.2364 39.0744C90.245 39.0505 90.2585 39.0287 90.2761 39.0103C90.2936 38.9919 90.3148 38.9774 90.3383 38.9677C90.4341 38.9612 90.5391 38.988 90.6391 38.9773C91.0267 38.9474 91.035 38.9472 90.9084 38.5327C90.89 38.4857 90.868 38.4401 90.8426 38.3965L90.3732 38.3156L89.8223 37.9694ZM102.281 49.4521C102.232 49.5781 102.168 49.6974 102.089 49.8072C102.06 49.8371 101.942 49.7981 101.863 49.7875C101.783 49.7768 101.894 49.6865 101.927 49.6691C102.046 49.5953 102.17 49.5423 102.294 49.481L102.272 49.4105L102.281 49.4521ZM103.243 48.8117C103.303 48.6419 103.401 48.4881 103.53 48.362C103.659 48.236 103.815 48.1411 103.986 48.0847C103.715 47.7361 103.945 47.4093 104.063 47.0976C104.363 46.4607 104.545 45.7746 104.6 45.0727C104.625 45.0471 104.572 44.9398 104.555 44.9402C104.539 44.9406 104.334 44.9412 104.314 44.9876C103.807 46.1912 103.147 47.3249 102.351 48.3608C102.264 48.3753 102.298 48.5958 102.138 48.4993L102.385 48.3683L102.219 47.6875C101.763 47.9114 101.409 48.3003 101.23 48.7752C100.912 49.405 100.362 49.8865 99.6954 50.1177C99.5625 50.1745 99.433 50.2388 99.3075 50.3105C99.3075 50.3105 99.2761 50.3947 99.2893 50.4236C99.299 50.4471 99.3135 50.4682 99.3319 50.4858C99.3503 50.5033 99.3721 50.5169 99.396 50.5255C99.7428 50.5383 100.089 50.5344 100.44 50.5512C100.503 50.554 100.567 50.6234 100.631 50.6595C100.599 50.6971 100.565 50.7327 100.529 50.7663C100.058 51.059 99.5152 51.2135 98.9611 51.212C98.8601 51.2127 98.7623 51.1769 98.6856 51.1112C98.6088 51.0454 98.5585 50.9542 98.5437 50.8543C98.4957 50.6623 98.4967 50.4613 98.5467 50.2698C98.6716 49.9441 98.8147 49.6258 98.9754 49.3162L98.955 49.3376C98.6747 48.7763 98.9049 48.2616 99.0428 47.7324C99.0955 47.5013 99.136 47.2676 99.1643 47.0323C99.1558 47.0116 99.143 46.9929 99.1268 46.9775C99.1106 46.962 99.0914 46.9502 99.0703 46.9427C99.0404 46.9141 98.9608 46.9035 98.9321 46.925C98.8112 47.0083 98.6988 47.1032 98.5964 47.2084C98.4945 47.3151 98.4481 47.4749 98.3505 47.5857C98.282 47.6423 98.2016 47.6827 98.1153 47.7039C98.08 47.6212 98.0111 47.531 98.0217 47.4514C98.3256 46.2855 99.0579 45.277 100.073 44.6273C100.691 44.2941 101.221 43.818 101.618 43.2385C101.81 42.9464 102.017 42.6643 102.237 42.3933C102.383 42.1915 102.566 42.0199 102.777 41.8881C103.719 41.435 104.577 40.8248 105.315 40.0838C105.354 40.0554 105.395 40.0293 105.438 40.0058C105.471 39.9913 105.507 39.9844 105.543 39.9856C105.579 39.9867 105.614 39.9958 105.646 40.0122C105.678 40.0287 105.706 40.0521 105.728 40.0806C105.749 40.1092 105.764 40.1423 105.772 40.1775C105.955 41.2336 105.691 42.271 105.599 43.3169C105.429 45.0193 104.842 46.6535 103.89 48.0744L103.205 48.7917L103.199 48.8837L103.243 48.8117ZM96.9841 118.779C96.9705 118.954 96.9481 119.129 96.917 119.302C96.8925 119.328 96.7889 119.36 96.7227 119.386C96.7258 119.34 96.712 119.286 96.732 119.248C96.8244 119.092 96.9253 118.943 97.0219 118.791C97.0534 118.706 96.9024 118.497 97.1671 118.57C97.1062 118.643 97.045 118.707 96.9841 118.779ZM98.3094 42.6018C98.3737 42.776 98.4171 42.9572 98.4389 43.1415C98.4276 43.3371 98.3957 43.5309 98.3439 43.7199C98.2995 43.8958 98.2435 44.0687 98.1764 44.2373C98.1479 44.2672 98.0182 44.2577 97.9307 44.2639C97.9206 44.189 97.8845 44.0729 97.9171 44.0388C98.0434 43.9064 98.2212 43.8313 98.3774 43.7274C98.2437 43.3632 98.0556 42.996 98.3389 42.6136L98.3756 42.5752L98.3094 42.6018ZM93.7382 127.643C93.7234 127.547 93.6623 127.432 93.6984 127.368C93.8063 127.161 93.8542 126.889 94.167 126.877L94.2567 126.963C94.1619 127.125 94.0568 127.281 93.9419 127.429C93.8825 127.508 93.8142 127.58 93.7382 127.643C93.7065 127.681 93.6724 127.716 93.6363 127.75C93.6164 127.774 93.5946 127.797 93.5711 127.818C93.6029 127.75 93.6685 127.699 93.7382 127.643ZM71.51 92.6954C71.5411 92.9889 71.4611 93.2834 71.2858 93.5209C71.1105 93.7583 70.8526 93.9215 70.563 93.9783C70.6216 94.1648 70.7683 94.3701 70.7303 94.5296C70.6847 94.7777 70.5541 95.0022 70.361 95.1645C69.9869 95.4112 70.5807 95.6353 70.319 95.8668C70.1519 96.0419 70.0022 96.25 69.8055 96.4049C69.6211 96.5767 69.4189 96.7284 69.2023 96.8573C68.7805 97.1253 68.4214 97.4812 68.1495 97.9005C67.4885 98.7782 66.7441 99.5897 65.9265 100.324C65.42 100.803 64.8706 101.233 64.3383 101.68C64.3057 101.714 64.2385 101.699 64.1886 101.709C64.1388 101.718 64.1657 101.621 64.1778 101.6C64.3231 101.339 64.4861 101.089 64.6654 100.85C65.511 99.87 66.3691 98.8939 67.138 97.849C67.4381 97.3893 67.8297 96.9965 68.2884 96.6949C68.6526 96.4338 68.9471 96.0871 69.1458 95.6855C69.5449 95.0544 70.0272 94.4801 70.5797 93.9779C70.6141 93.6998 70.7181 93.435 70.8821 93.2078C71.0461 92.9807 71.2648 92.7986 71.5179 92.6785C71.5279 92.6427 71.5354 92.6062 71.5405 92.5694C71.5375 92.6237 71.5216 92.6575 71.51 92.6954ZM88.6368 73.9555C88.3305 73.7122 88.02 73.4648 87.7176 73.2088C87.6574 73.1435 87.6066 73.0702 87.5664 72.991C87.6882 73.0021 87.8081 73.0287 87.9231 73.0704C88.2615 73.2797 88.5102 73.6071 88.6209 73.9893C89.2492 74.1163 89.849 74.357 90.3909 74.6995C90.5078 74.7797 90.5989 74.8922 90.6531 75.0232C90.7362 75.1841 90.4657 75.2196 90.1986 75.0463C89.6981 74.7073 89.1711 74.3105 88.649 73.9427L88.6368 73.9555ZM93.5033 69.0618C93.4708 69.0838 93.4363 69.1028 93.4003 69.1184C93.4003 69.1184 93.3619 69.0818 93.3448 69.0655L93.508 69.0825C94.1333 69.2224 94.7542 69.3499 95.3717 69.515C95.4279 69.5557 95.4744 69.6081 95.5083 69.6686C95.5421 69.7291 95.5624 69.7962 95.5678 69.8653C95.5677 70.0128 95.5325 70.1582 95.4649 70.2894C95.3862 70.4916 95.0708 70.5741 95.0001 70.4088C94.7346 69.7637 94.1399 69.5062 93.606 69.1679C93.5692 69.1338 93.5386 69.0935 93.5156 69.049L93.5033 69.0618ZM50.1863 121.236L50.2067 121.214C49.2835 121.549 48.3564 121.896 47.4288 122.218C47.3502 122.249 47.2452 122.223 47.1491 122.221C47.2021 122.165 47.2201 122.044 47.282 122.013C48.0787 121.623 48.8623 121.212 49.6852 120.872C49.9703 120.744 50.1141 121.003 50.1863 121.236ZM91.6575 58.1206C91.3492 58.0436 91.0718 57.8742 90.8625 57.6351C90.6532 57.3959 90.522 57.0985 90.4866 56.7827C90.4834 56.6833 90.4536 56.5865 90.4002 56.5026C90.3469 56.4186 90.2719 56.3506 90.1832 56.3055C89.5608 55.9318 89.4493 55.2705 89.2554 54.653C89.2373 54.595 89.3311 54.4968 89.3751 54.4164C89.4192 54.3361 89.4803 54.4516 89.4937 54.4888C89.5729 54.7233 89.679 54.9478 89.8099 55.1578C90.5348 55.9884 91.284 56.785 92.0293 57.5943C92.0437 57.4937 92.1035 57.3713 92.0685 57.3053C91.7598 56.6776 91.401 56.0758 90.9953 55.5059C90.2186 54.6608 89.535 53.7348 88.9562 52.7437C88.9413 52.7234 88.9214 52.7073 88.8985 52.6969C88.8756 52.6865 88.8505 52.6821 88.8254 52.6841C88.7445 52.7259 88.6799 52.7935 88.642 52.8763C88.6259 53.0234 88.6265 53.1718 88.644 53.3188C88.6588 53.4492 88.659 53.5808 88.6448 53.7112C88.618 53.8162 88.2426 53.6538 88.1467 53.4807C87.8808 52.9984 87.619 52.5119 87.3655 52.0251C87.3281 51.9326 87.2993 51.8369 87.2795 51.7391C87.2731 51.7034 87.2752 51.6667 87.2856 51.632C87.296 51.5973 87.3145 51.5656 87.3395 51.5394C87.3645 51.5131 87.3954 51.4932 87.4296 51.4812C87.4638 51.4691 87.5003 51.4653 87.5362 51.4701C88.8471 51.7751 90.1811 51.9702 91.5244 52.0534C92.5524 52.4553 93.6466 52.651 94.7149 52.9851C95.9764 53.3732 97.1827 54.7938 96.9353 56.1814C96.8944 56.3953 96.8482 56.5634 96.6071 56.6108C96.3106 56.628 96.0195 56.6984 95.7478 56.8187C95.4784 56.9591 95.1833 57.0437 94.8804 57.0672C94.5775 57.0908 94.2729 57.0529 93.985 56.9558C93.645 56.8761 93.2972 56.8216 92.9412 56.7756C92.9178 56.7774 92.895 56.7841 92.8744 56.7954C92.8538 56.8067 92.8358 56.8222 92.8217 56.841C92.7972 56.8666 92.7868 56.9545 92.8079 56.9666C93.0158 57.1078 93.2398 57.2237 93.4395 57.3735C93.6625 57.5361 93.9192 57.6465 94.1906 57.6966C94.4621 57.7466 94.7413 57.735 95.0076 57.6626C95.5064 57.5963 95.9867 57.4304 96.4199 57.1746C96.481 57.1105 96.7083 57.1887 96.7937 57.2702C96.8517 57.3526 96.8786 57.453 96.8695 57.5534C96.8604 57.6538 96.8158 57.7477 96.7439 57.8183C96.623 57.9017 96.489 57.9641 96.3474 58.0029C95.998 58.0611 95.6475 58.0693 95.298 58.1192C94.9485 58.1691 94.9079 58.3997 95.1125 58.7581C95.1723 58.8152 95.2255 58.9475 95.2016 58.9982C95.174 59.0353 95.1378 59.0651 95.0961 59.085C95.0543 59.1049 95.0083 59.1143 94.9621 59.1123C94.72 59.0604 94.4824 58.9891 94.2516 58.8993C93.6028 58.6472 92.9495 58.3827 92.3005 58.1223L92.3987 58.3956C92.449 58.5823 92.3881 58.6547 92.195 58.6091C92.0727 58.577 91.9599 58.5158 91.8663 58.4307C91.7728 58.3457 91.7011 58.2393 91.6575 58.1206ZM55.5743 119.01C55.6515 118.964 55.7314 118.923 55.8136 118.887C55.8381 118.862 55.9014 118.89 55.9474 118.893C55.8944 118.948 55.8639 119.074 55.7884 119.059C55.7129 119.044 55.6324 118.992 55.5563 118.952C55.0865 119.403 54.5114 119.729 53.8834 119.901C52.9975 120.043 52.0758 120.085 51.1842 120.164C51.1301 120.17 51.0647 120.05 51.0091 119.997C51.0077 119.972 51.0128 119.948 51.024 119.925C51.0353 119.903 51.0521 119.884 51.073 119.871C51.4023 119.655 51.7593 119.485 52.1342 119.366C53.1521 119.154 54.2055 119.033 55.2458 118.884C55.3669 118.885 55.4647 118.962 55.5743 119.01ZM55.3023 114.507C55.1679 114.648 55.0037 114.769 54.8606 114.902C54.8227 114.933 54.7886 114.969 54.7588 115.009C54.8181 115.063 54.8853 115.108 54.9581 115.142C55.1002 115.179 55.2445 115.208 55.3901 115.228C56.1481 114.433 56.9277 113.668 57.6346 112.833C58.1851 112.191 58.6722 111.497 59.0893 110.762C59.2945 110.367 59.5561 110.003 59.8657 109.683C60.5871 108.927 61.3385 108.209 62.0641 107.457C62.1989 107.304 62.3039 107.128 62.3734 106.936C62.3846 106.89 62.3854 106.843 62.3756 106.797C62.3659 106.751 62.3459 106.708 62.3171 106.67C62.2804 106.646 62.2385 106.631 62.1949 106.626C62.1512 106.621 62.107 106.627 62.066 106.643C61.6136 106.937 61.17 107.248 60.7178 107.551C60.6933 107.577 60.5971 107.566 60.5798 107.542C60.5643 107.493 60.5675 107.441 60.5889 107.395C60.944 106.869 61.6093 106.574 61.735 105.878C61.369 106.116 60.9989 106.359 60.6246 106.597C60.596 106.627 60.5287 106.603 60.4786 106.605C60.4936 106.529 60.4827 106.421 60.5275 106.374C60.6871 106.217 60.8767 106.094 61.085 106.012C61.2934 105.931 61.516 105.892 61.7397 105.899C61.9861 105.726 62.2411 105.562 62.4705 105.372C62.552 105.287 62.5088 105.221 62.3552 105.262C62.0725 105.311 61.9236 105.193 62.199 105.007C62.6663 104.628 63.0994 104.209 63.4932 103.754C63.5065 103.707 63.525 103.662 63.5485 103.619C63.5658 103.59 63.5895 103.565 63.6178 103.546L63.4426 103.73C63.6357 103.841 63.8627 103.878 64.0812 103.835C64.2997 103.791 64.4951 103.67 64.6311 103.493C65.3117 102.78 65.9922 102.067 66.6986 101.387L66.6701 101.417C66.9097 100.593 67.5746 100.102 68.1465 99.5622C68.5665 99.2004 68.9134 98.7615 69.1684 98.2692C69.2319 98.1258 69.0595 97.896 69.2773 97.7448C70.6155 96.8603 71.7855 95.7445 72.7324 94.4495C72.9272 94.2197 73.1354 94.0016 73.3559 93.7962C73.5073 93.667 73.6338 93.5113 73.7293 93.3366C74.0907 92.5034 74.6585 91.776 75.3792 91.2232C75.4207 91.1949 75.4547 91.1567 75.478 91.1121C75.5013 91.0676 75.5133 91.018 75.513 90.9677C75.5126 90.9174 75.4999 90.8679 75.476 90.8237C75.452 90.7794 75.4176 90.7418 75.3757 90.714C75.3202 90.661 75.2584 90.5205 75.2866 90.4739C75.4137 90.2574 75.5583 90.0515 75.7189 89.8585C76.6313 88.7921 77.4127 87.6203 78.0465 86.3682C78.1594 86.2033 78.2375 86.017 78.276 85.8209C78.3145 85.6247 78.3126 85.4228 78.2703 85.2274C78.2336 85.0015 78.2495 84.7701 78.3168 84.5513C78.3841 84.3325 78.501 84.1321 78.6584 83.9659C79.2128 83.1854 79.642 82.3232 79.9306 81.4104C79.9733 81.2716 80.0393 81.2367 80.1377 81.3388C80.1527 81.3595 80.1633 81.3831 80.1689 81.4081C80.1745 81.4331 80.175 81.459 80.1703 81.4841C80.0886 82.1302 79.9498 82.7677 79.7555 83.3892C79.4797 84.0331 79.3136 84.7185 79.2642 85.4172C79.2433 85.6153 79.1973 85.8099 79.1274 85.9965C78.5882 87.5788 77.6265 88.9456 76.8293 90.3878C76.1453 91.1272 75.5894 91.9755 75.1844 92.8977C75.0247 93.2104 74.8736 93.5312 74.6885 93.8278C73.7376 95.3028 72.7698 96.7699 71.8189 98.245C71.585 98.5743 71.3767 98.9211 71.196 99.2823C70.0302 101.744 68.3822 103.94 66.9487 106.203C66.5701 106.797 65.9747 107.224 65.7064 107.89C65.0176 108.252 64.816 109.276 63.8431 109.269C63.7451 109.29 63.6585 109.347 63.6005 109.429C62.9221 110.229 62.292 111.069 61.7137 111.945C61.5653 112.231 61.3564 112.482 61.1015 112.68C60.8466 112.877 60.5518 113.017 60.2374 113.09C59.6095 113.254 59.0222 113.547 58.5123 113.948C58.4116 114.019 58.3355 114.12 58.2948 114.236C58.2541 114.352 58.2508 114.478 58.2853 114.596C58.3403 114.983 58.1875 115.237 57.8964 115.286C57.1654 115.47 56.4679 115.768 55.8296 116.169C55.409 116.452 54.9008 116.575 54.3973 116.516C53.8976 117.009 53.2662 117.347 52.5789 117.489C52.2303 117.581 52.0496 117.351 52.1241 116.965C52.1387 116.842 52.1816 116.724 52.2495 116.621C52.3173 116.517 52.4082 116.43 52.5151 116.368C53.1012 115.993 53.6244 115.529 54.0653 114.991C54.8012 114.111 55.6524 113.335 56.5957 112.682C56.613 112.595 56.6434 112.511 56.686 112.434C56.748 112.383 56.8196 112.346 56.8963 112.324C56.8623 112.388 56.8233 112.449 56.7795 112.507C56.7143 112.575 56.6532 112.639 56.5622 112.674C56.4417 112.878 56.3295 113.081 56.2004 113.276C55.8411 113.637 55.5332 114.046 55.2853 114.491L55.3023 114.507ZM95.9052 33.4939C95.7484 33.2137 95.6208 32.937 95.4386 32.6406C95.3887 32.5371 95.3035 32.4547 95.1984 32.4082C95.0933 32.3617 94.9751 32.3541 94.8649 32.3868L94.8241 32.4295L94.8515 32.3495C94.7216 31.9727 94.5793 31.6002 94.4743 31.2144C94.4153 31.0284 94.415 30.8287 94.4735 30.6425C94.6931 30.1949 94.9352 29.7587 95.1987 29.3355C95.2414 29.2741 95.2978 29.2234 95.3634 29.1874C95.4291 29.1514 95.5021 29.1312 95.5769 29.1282C95.6517 29.1253 95.7261 29.1397 95.7944 29.1704C95.8626 29.201 95.9229 29.2471 95.9703 29.305C97.3381 31.0265 97.5682 33.0168 97.329 35.114C97.3228 35.1644 97.2987 35.2108 97.2611 35.245C97.2053 35.3232 97.1264 35.382 97.0354 35.4131C96.991 35.4072 96.9489 35.3899 96.9132 35.363C96.8775 35.336 96.8493 35.3003 96.8314 35.2592C96.7955 34.6129 96.7846 33.9661 96.7403 33.32C96.709 32.874 96.6525 32.4203 96.5673 31.9881C96.5576 31.9298 96.4178 31.8454 96.3431 31.8639C96.2969 31.8745 96.2537 31.8955 96.2168 31.9253C96.1798 31.9551 96.1502 31.9929 96.13 32.0358C95.9362 32.4954 96.1701 33.0369 95.8505 33.4743L95.9316 33.7313L95.8146 33.7257L95.9052 33.4939ZM91.4603 36.5952L91.8628 37.0283C91.9096 37.1028 91.9492 37.1816 91.981 37.2636C91.8982 37.2905 91.8038 37.3637 91.7367 37.3486C91.2231 37.1577 90.6928 37.0149 90.1528 36.9221C89.7574 36.8862 89.3754 36.7608 89.0357 36.5554C88.6959 36.3499 88.4075 36.0698 88.1922 35.7362C87.5676 34.9116 87.6038 33.9589 87.5901 33.0157C87.5882 32.9323 87.7939 32.8022 87.8973 32.7622C88.1421 32.7161 88.3925 32.7075 88.6399 32.7366C89.0585 32.7852 89.4321 32.8725 89.2916 33.4728C89.2573 33.6114 89.4209 33.8247 89.5331 33.9807C90.2195 34.91 91.1153 35.6643 92.1479 36.1825C92.4524 36.3508 92.5847 36.2976 92.627 35.9626C92.8272 35.8758 93.0497 35.8542 93.2629 35.9009C93.476 35.9477 93.6691 36.0604 93.8146 36.223L94.2422 36.8351C94.5356 37.2457 94.6418 37.6816 94.4643 37.7651C94.306 37.8409 94.1328 37.8805 93.9574 37.881C93.7819 37.8815 93.6085 37.8428 93.4498 37.7679C93.1004 37.5734 92.7683 37.3493 92.4573 37.098C92.2537 36.9608 92.0782 36.777 91.8583 36.6569C91.7483 36.5927 91.5821 36.6299 91.4401 36.6249L91.4603 36.5952ZM59.4501 107.614C59.4487 108.094 58.8005 108.406 59.1061 108.975C59.1412 109.049 58.9997 109.248 58.8936 109.351C56.7439 111.518 54.5988 113.697 52.4066 115.832C51.8786 116.289 51.4174 116.818 51.0363 117.404C50.9059 117.675 50.7088 117.908 50.4635 118.081C49.7303 118.507 48.9581 118.872 48.1944 119.245C48.1659 119.275 48.0467 119.177 47.9912 119.124C47.9357 119.071 47.972 119.016 47.9964 118.99C48.3698 118.532 48.7786 118.104 49.219 117.709C49.6888 117.348 50.1149 116.933 50.4886 116.473C50.7773 116.063 51.1038 115.681 51.4639 115.332C52.2071 114.66 52.8872 113.922 53.4958 113.126C54.0383 112.469 54.6565 111.879 55.3376 111.367C55.6236 111.164 55.8881 110.933 56.1273 110.676C57.1826 109.61 58.2919 108.599 59.4509 107.647C59.5079 107.587 59.4365 107.389 59.6261 107.464C59.5978 107.502 59.524 107.562 59.4501 107.614ZM97.4704 39.5653C97.3948 39.9011 97.3276 40.245 97.2392 40.5685C97.2106 40.5984 97.0736 40.6308 96.9861 40.637C96.9639 40.6317 96.9436 40.6205 96.9271 40.6048C96.9106 40.5891 96.8986 40.5693 96.8922 40.5474C96.8996 40.0976 96.9549 39.6498 97.0572 39.2118C97.2415 38.2213 97.7313 37.3135 98.4579 36.6157C99.261 35.9354 99.9423 35.1232 100.473 34.214C100.519 34.1275 100.588 34.0552 100.672 34.0048C100.714 33.9921 100.758 33.9906 100.8 34.0007C100.842 34.0107 100.88 34.0318 100.912 34.0619C100.992 34.1872 101.055 34.3236 101.096 34.4667C101.544 36.1608 101.833 37.8927 101.96 39.6401C101.982 40.1392 101.91 40.638 101.748 41.1105C101.653 41.3941 101.487 41.6482 101.264 41.8482C101.105 42.0147 100.784 42.2059 100.624 42.1429C100.35 42.0365 100.514 41.7196 100.567 41.4929C100.684 40.9516 100.792 40.4022 100.926 39.8772C100.936 39.7789 100.925 39.6796 100.894 39.5857C100.894 39.5857 100.83 39.5245 100.789 39.5255C100.747 39.5265 100.672 39.5282 100.66 39.5577C100.351 40.2914 100.06 41.0413 99.7469 41.7625C99.6721 42.1591 99.4528 42.5139 99.1314 42.758L99.2119 42.9899L99.1527 42.7784C99.3747 42.1711 99.4898 41.5299 99.4926 40.8834C99.5745 40.1928 99.6993 39.5081 99.8665 38.8331C99.9068 38.6383 99.9342 38.441 99.9487 38.2425C99.945 38.1512 99.9106 38.0637 99.8511 37.9943C99.7111 37.998 99.5749 38.0402 99.4573 38.1162C99.3557 38.225 99.2767 38.3529 99.2248 38.4924C99.1728 38.6319 99.149 38.7803 99.1548 38.929C99.0615 39.7228 98.8264 40.4933 98.4605 41.2039C98.4076 41.2594 98.3086 41.3118 98.2218 41.3514C98.1351 41.391 97.9278 41.2747 97.9443 41.0865C97.8986 40.5615 97.9481 39.9967 97.4629 39.5989L97.4704 39.5653ZM103.6 53.9177C103.469 53.9801 103.349 54.0648 103.247 54.1681C102.925 54.6766 102.628 55.2095 102.331 55.7007C101.96 56.2855 101.577 56.8581 101.189 57.4265C101.153 57.465 101.019 57.4514 100.931 57.4409C100.911 57.4259 100.895 57.4066 100.883 57.3845C100.872 57.3623 100.866 57.3379 100.865 57.313C100.848 56.921 101.241 56.6029 101.048 56.1816L100.204 57.0654C100.205 57.1977 100.191 57.3296 100.163 57.4588C100.135 57.4887 100.035 57.5161 99.9647 57.547C99.9546 57.472 99.9061 57.3605 99.9385 57.318C100.032 57.229 100.134 57.1484 100.242 57.0771C100.257 56.8336 100.289 56.5915 100.338 56.3526C100.391 56.1343 100.394 55.9087 100.172 55.8596C99.8317 55.7799 99.5955 55.4973 99.2069 55.4855C99.1337 55.4908 99.0603 55.4775 98.9936 55.447C98.9269 55.4164 98.8689 55.3695 98.8251 55.3106C98.7813 55.2517 98.753 55.1827 98.7429 55.11C98.7328 55.0373 98.7412 54.9632 98.7673 54.8946C98.9284 54.317 99.1301 53.7514 99.3708 53.2022C99.5059 52.8766 99.7105 52.5844 99.9703 52.3462C100.23 52.1079 100.539 51.9293 100.875 51.8228C101.931 51.4899 102.894 50.914 103.687 50.1415C103.876 49.9829 104.093 49.8604 104.326 49.7801C104.926 49.5365 105.547 49.3133 106.151 49.0737C106.432 48.967 106.696 48.8356 106.969 48.7123C107.228 49.082 106.914 49.3858 106.833 49.7091C106.419 51.1007 105.976 52.4887 105.49 53.8611C105.022 55.0353 104.149 56.0024 103.028 56.5863C102.991 56.6247 102.86 56.5484 102.784 56.5085C102.708 56.4685 102.74 56.4093 102.755 56.3755C103.031 55.8222 103.286 55.2986 103.549 54.758C103.726 54.4867 103.807 54.2051 103.6 53.9177ZM87.8286 44.4953C87.5955 44.1668 87.3584 43.8425 87.1377 43.5095C87.1156 43.4665 87.1031 43.4192 87.1013 43.3709C87.0995 43.3226 87.1082 43.2745 87.127 43.23C87.1613 43.1949 87.2026 43.1673 87.2481 43.149C87.2937 43.1307 87.3426 43.122 87.3917 43.1236C88.2909 43.2367 89.1508 43.5599 89.9019 44.0671C90.2797 44.3116 90.698 44.4871 91.1373 44.5852C92.0721 44.7512 92.9956 44.9635 93.9211 45.088C94.8125 45.2574 95.6318 45.6923 96.2715 46.3358C96.4301 46.4729 96.5399 46.6579 96.5844 46.8629C96.6805 47.4034 96.7391 47.9489 96.7894 48.4947C96.7997 48.5779 96.7159 48.7427 96.6617 48.7481C96.523 48.7722 96.3803 48.7459 96.2592 48.674C95.9005 48.3317 95.7338 47.8054 95.2402 47.5873C94.792 47.3591 94.3964 47.0398 94.0786 46.6499C93.9668 46.5533 93.8335 46.4849 93.6899 46.4503C93.6432 46.4394 93.5947 46.4392 93.548 46.4497C93.5013 46.4602 93.4575 46.4811 93.4199 46.5108C93.3792 46.5535 93.3831 46.7204 93.4341 46.761C93.8596 47.2544 94.3548 47.6831 94.9041 48.0335C95.3849 48.3152 95.7623 48.744 95.9806 49.2567C95.9894 49.3009 95.9873 49.3466 95.9745 49.3898C95.9617 49.433 95.9385 49.4724 95.907 49.5047C95.8695 49.5315 95.826 49.5487 95.7803 49.5548C95.7346 49.561 95.6881 49.5559 95.6448 49.54C95.12 49.235 94.6115 48.9128 94.0908 48.6035C93.7438 48.4029 93.3931 48.2232 93.0299 48.0479C92.9702 47.9909 92.8333 48.0317 92.7375 48.0381C92.7193 48.0449 92.7029 48.0558 92.6895 48.0698C92.6761 48.0839 92.6661 48.1007 92.66 48.1192C92.6315 48.1491 92.642 48.2407 92.6633 48.2611C93.0508 48.5724 93.4548 48.8626 93.8735 49.1304C94.6442 49.5968 95.456 50.0371 96.2217 50.4659C96.3741 50.5542 96.6467 50.431 96.6871 50.7306C96.7073 50.8804 96.483 51.107 96.2062 51.2345C95.9295 51.362 95.5569 51.4959 95.225 51.5872C94.9416 51.6849 94.6424 51.7287 94.3429 51.7163C93.538 51.6602 92.77 51.3574 92.1434 50.8491C91.3894 50.2029 90.5783 49.6164 89.8454 48.9822C89.2474 48.5228 88.7822 47.9126 88.4974 47.2143C88.1871 46.3149 87.7908 45.4475 87.314 44.6242C87.2051 44.4305 87.4141 44.4424 87.5565 44.4641C87.6551 44.4748 87.7542 44.4795 87.8533 44.478L87.8286 44.4953ZM94.8446 84.3274C94.9293 84.0389 95.0959 83.7812 95.3241 83.5856C95.7134 83.2717 96.0598 82.9088 96.415 82.5623C96.4476 82.5282 96.442 82.4657 96.4491 82.4154C96.4563 82.3651 96.2595 82.3405 96.1976 82.3712C95.9704 82.4725 95.7565 82.6111 95.5292 82.7124C95.4844 82.7594 95.366 82.6953 95.2901 82.6637C95.2142 82.6321 95.2839 82.5762 95.2996 82.5341C95.3464 82.391 95.4226 82.2598 95.4568 82.1129C95.4909 81.966 95.4444 81.9378 95.4382 81.8503C95.3007 81.866 95.1373 81.8406 95.0387 81.9097C94.889 82.0381 94.7524 82.1811 94.6312 82.3367C94.4274 82.5502 94.2237 82.7637 94.0118 82.9858C93.9574 83.0344 93.8939 83.0718 93.8249 83.0956C93.7559 83.1194 93.6829 83.1293 93.61 83.1246C93.5345 83.1096 93.4546 82.9027 93.4433 82.7778C93.3598 81.8821 93.9037 81.0386 93.8447 80.1173C93.8379 80.0048 93.9935 79.8759 94.0783 79.7528C94.5553 79.0821 95.389 78.8497 95.9091 78.2364C96.0253 78.1428 96.1562 78.0692 96.2965 78.0186C97.3303 77.4906 98.4861 77.2474 99.645 77.3143C100.295 77.3499 100.946 77.3333 101.594 77.2647C101.742 77.2375 101.894 77.2505 102.036 77.3023C102.177 77.354 102.302 77.4427 102.398 77.559C102.69 77.9029 102.984 77.8 103.331 77.6333C103.384 77.5778 103.505 77.6125 103.589 77.6022C103.591 77.7024 103.627 77.8101 103.587 77.8862C102.925 79.2957 102.039 80.5882 100.963 81.7131C100.799 81.929 100.591 82.1073 100.353 82.236C100.115 82.3647 99.8515 82.4408 99.5813 82.4592C99.3838 82.4982 99.1965 82.5779 99.0315 82.6934C98.8087 82.8071 98.5949 82.9457 98.3721 83.0594C98.3273 83.1064 98.2178 83.0672 98.1386 83.0732C98.1756 82.9802 98.2241 82.8921 98.2828 82.811C98.7311 82.3413 99.2221 81.9124 99.6834 81.4632C99.6834 81.4632 99.6729 81.3716 99.6511 81.3346C99.6318 81.2942 99.5984 81.2623 99.5572 81.2449C99.4598 81.2402 99.3627 81.2596 99.2746 81.3016C98.5733 81.692 97.9225 82.1671 97.3371 82.7162C96.723 83.4193 95.8179 83.453 95.1497 83.9821C95.0478 84.0888 94.9459 84.1956 94.84 84.3066C94.8848 84.4391 95.0104 84.6324 94.9658 84.6878C94.8535 84.8352 94.6936 84.9392 94.5134 84.9822C94.3225 85.0019 94.1302 84.9612 93.9638 84.8656C93.9058 84.8287 93.8569 84.7792 93.8209 84.7208C93.7848 84.6623 93.7624 84.5964 93.7555 84.5281C93.7727 84.4689 93.8039 84.4147 93.8464 84.3701C93.889 84.3255 93.9417 84.2918 94 84.2719C94.2824 84.2745 94.5644 84.293 94.8446 84.3274ZM92.9187 74.4276C92.6246 74.3845 92.3385 74.2984 92.0694 74.1719C91.4283 73.7722 90.876 73.2451 90.4469 72.6233C90.0919 72.0805 89.7161 71.5423 89.3487 71.004C89.3057 70.915 89.2473 70.8344 89.1761 70.7659C89.1249 70.717 88.9948 70.6908 88.9496 70.721C88.8765 70.7851 88.8295 70.8739 88.8177 70.9704C88.7874 71.4638 89.1333 71.7939 89.3594 72.181C89.5855 72.5682 89.9471 72.8562 89.9999 73.3309C89.4195 73.5031 89.0621 73.0397 88.6971 72.781C87.9753 72.2634 87.1145 71.8744 86.5918 71.1225C86.5363 71.0696 86.3966 70.9851 86.3347 71.0158C86.0331 71.1523 85.8832 70.993 85.7569 70.7663C85.2887 70.0016 84.9556 69.162 84.7722 68.2843L83.9939 64.449C83.9606 64.3028 83.95 64.1524 83.9626 64.003C83.9743 63.9637 83.9952 63.9277 84.0235 63.898C84.0519 63.8683 84.0869 63.8458 84.1256 63.8322C84.3971 63.8001 84.6722 63.8225 84.9349 63.8981C85.1976 63.9737 85.4426 64.101 85.6555 64.2725C86.7712 65.2842 87.9744 66.195 89.251 66.9942C89.6665 67.2684 90.0824 67.5593 90.4778 67.8632C91.6376 68.7456 92.6873 69.7639 93.6046 70.8964C93.8556 71.2177 94.0709 71.5655 94.2466 71.9335C94.3608 72.173 94.3144 72.5122 94.0825 72.5928C93.4572 72.8119 93.5011 73.2618 93.5749 73.7402C93.6029 73.9881 93.6101 74.2379 93.5965 74.487C93.572 74.5126 93.462 74.6279 93.382 74.6005C93.2223 74.558 93.0672 74.5001 92.9187 74.4276ZM90.5848 80.1474C90.3982 79.847 90.0597 79.2955 89.7088 78.7484C89.6913 78.7299 89.6693 78.7163 89.645 78.7088C89.6207 78.7013 89.5949 78.7003 89.57 78.7057C89.513 78.7655 89.4192 78.8637 89.407 78.8765C89.5672 79.2986 89.7479 79.7077 89.9288 80.1252C90.1097 80.5426 90.2547 80.8523 90.397 81.2248C90.4236 81.2909 90.3675 81.3924 90.3444 81.4765C90.3213 81.5605 90.2396 81.4581 90.2054 81.4254C89.9535 81.185 89.7342 80.9104 89.478 80.6659C89.4267 80.617 89.2891 80.6244 89.202 80.6473C89.1149 80.6702 89.1393 80.8241 89.1739 80.8734C89.8633 81.7925 90.5162 82.7583 91.5932 83.2885C91.6615 83.3537 91.8003 83.3964 91.8024 83.4882C91.8477 83.6754 91.8537 83.8701 91.8199 84.0597C91.7913 84.1241 91.7477 84.1806 91.6929 84.2248C91.638 84.2689 91.5734 84.2993 91.5044 84.3134C89.9788 84.4158 88.809 83.6665 87.7712 82.6679C87.4631 82.3403 87.2092 81.9657 87.0189 81.5582C86.8485 81.0865 86.5826 80.6549 86.2378 80.2906C86.0291 80.0717 85.8644 79.8147 85.7526 79.5337C85.191 78.4728 84.6875 77.3821 84.2444 76.2665C83.901 75.3268 83.4955 74.4094 83.1232 73.4829C83.0965 73.4084 83.1236 73.3201 83.1217 73.2367C83.2179 73.2469 83.3179 73.2363 83.406 73.2551C83.8823 73.4086 84.366 73.5381 84.8554 73.6429C85.6522 73.761 86.4154 74.0447 87.0959 74.4758C88.9566 75.6723 90.8334 76.8434 92.154 78.6914C92.269 78.8131 92.3421 78.9685 92.3625 79.1348C92.3829 79.3011 92.3496 79.4696 92.2674 79.6155C92.2076 79.738 92.1084 79.9616 92.2932 80.0074C92.7128 80.0978 92.7177 80.3064 92.5877 80.6393C92.4107 81.1068 92.2758 81.5901 92.1074 82.0658C92.049 82.2467 91.7365 82.2748 91.616 82.119C91.5169 82.0063 91.4275 81.8855 91.3487 81.7578C91.1343 81.3328 90.9233 80.8785 90.5766 80.156L90.5848 80.1474ZM100.28 75.3414C98.8921 76.0952 97.3008 76.3882 95.7359 76.178C95.627 76.1639 95.5395 75.9906 95.4498 75.905C95.3601 75.8194 95.5163 75.7156 95.5864 75.6763C96.3448 75.2579 96.7519 74.4551 97.4888 74.0079C97.8555 73.7415 98.1965 73.4414 98.5075 73.1116C98.5819 73.0474 98.6413 72.9676 98.6816 72.8779C98.716 72.7877 98.7151 72.6879 98.6792 72.5983C98.6553 72.5642 98.6228 72.5371 98.585 72.5196C98.5472 72.5022 98.5054 72.495 98.464 72.4989C98.2345 72.5929 98.0172 72.7143 97.8169 72.8605C97.1121 73.4281 96.4449 73.9989 95.7321 74.5833C95.6956 74.6048 95.6542 74.6167 95.6118 74.6177C95.5694 74.6186 95.5275 74.6088 95.4901 74.5889C95.4555 74.5542 95.4283 74.5128 95.41 74.4674C95.3918 74.4219 95.3828 74.3732 95.3837 74.3242C95.3844 74.1768 95.4196 74.0316 95.4865 73.9002C95.6476 73.6459 95.8386 73.4202 96.0206 73.1696C96.151 73.033 96.0349 72.8896 95.9241 72.792C95.8282 72.7097 95.7679 72.5935 95.7556 72.4678C95.7433 72.342 95.7801 72.2164 95.8583 72.1172C96.0496 71.7681 96.2976 71.4534 96.5922 71.1857C97.058 70.8184 97.4696 70.3871 97.8148 69.9047C97.8574 69.854 97.9116 69.8143 97.9727 69.7889C98.0339 69.7635 98.1003 69.7532 98.1663 69.7588C98.6594 69.9602 98.857 69.6592 98.9068 69.2906C98.9509 69.0458 99.066 68.8194 99.2377 68.6395C99.4094 68.4596 99.6302 68.3341 99.8727 68.2786C100.731 68.003 101.61 67.7941 102.501 67.6537C103.237 67.4968 103.995 67.4791 104.737 67.6016C104.785 67.6101 104.831 67.63 104.869 67.6595C104.908 67.6891 104.939 67.7274 104.96 67.7714C104.981 67.8154 104.992 67.8637 104.99 67.9125C104.989 67.9612 104.976 68.0089 104.952 68.0516C104.917 68.1442 104.873 68.2333 104.821 68.3177C104.021 69.4636 103.196 70.6017 102.425 71.7427C101.867 72.6972 101.105 73.5163 100.193 74.1411C100.136 74.2009 100.128 74.4056 100.148 74.5304C100.168 74.6552 100.293 74.669 100.393 74.6499C100.54 74.6249 100.686 74.5894 100.829 74.5438L101.103 74.4956C101.058 74.5426 101.078 74.6507 101.033 74.6976C100.779 74.9206 100.509 75.144 100.271 75.35L100.28 75.3414ZM99.8175 59.1118C100.773 58.6157 101.834 58.3602 102.91 58.3675C103.862 58.3496 104.813 58.2815 105.757 58.1633C106.094 58.1096 106.261 58.2935 106.13 58.568C105.516 59.8347 104.958 61.1378 104.247 62.3443C103.678 63.2295 103.034 64.0644 102.322 64.8398C101.959 65.2633 101.48 65.5718 100.945 65.7278C100.846 65.7412 100.747 65.7421 100.648 65.7305C100.535 65.729 100.405 65.4982 100.469 65.3799C100.497 65.2846 100.543 65.1956 100.605 65.1179C101.75 64.2687 102.464 63.0246 103.455 62.0287C103.497 62.0054 103.532 61.9696 103.553 61.9263C103.587 61.8368 103.595 61.7397 103.576 61.646C103.546 61.6178 103.51 61.5974 103.47 61.5867C103.43 61.5759 103.389 61.5752 103.349 61.5845C102.931 61.7404 102.509 61.9005 102.104 62.0937C101.829 62.2085 101.576 62.3698 101.355 62.5704C100.768 63.1852 100.177 63.8044 99.6504 64.4763C99.4653 64.7084 99.3295 64.9758 99.2513 65.2621C99.1999 65.4023 99.1202 65.5304 99.0171 65.6384C98.914 65.7464 98.7898 65.832 98.6522 65.8898C98.3597 66.0595 98.1369 65.9937 98.0845 65.7152C98.0321 65.4367 97.9682 65.0249 97.9266 64.6751C97.8851 64.3254 98.0432 64.305 98.3679 64.4436C98.6926 64.5821 98.8848 64.586 99.0092 64.3702C99.3666 63.7648 99.7538 63.1797 100.069 62.5502C100.254 62.1419 100.402 61.7179 100.511 61.2833C100.53 61.2119 100.477 61.0628 100.422 61.0432C100.376 61.0294 100.326 61.0277 100.279 61.0383C100.232 61.0489 100.188 61.0715 100.152 61.1038C99.8934 61.4689 99.6601 61.8501 99.4143 62.2274C99.1684 62.6047 98.9588 62.9268 98.4691 62.5166C98.4093 62.4595 98.2032 62.5729 98.0664 62.6137C97.9296 62.6544 97.7901 62.5783 97.7569 62.4079C97.6513 62.0436 97.6554 61.6562 97.7688 61.2942C97.8821 60.9322 98.0996 60.6116 98.3941 60.3724C98.8812 59.9561 99.3634 59.5107 99.8094 59.1203L99.8175 59.1118ZM92.4156 28.6865C92.7203 29.0441 92.921 29.4784 92.9959 29.9421C93.0076 30.4429 93.036 30.9432 93.056 31.4437C93.031 31.8461 92.8891 32.2325 92.6477 32.5554C92.6297 32.5879 92.6041 32.6157 92.5733 32.6365C92.5424 32.6572 92.5071 32.6704 92.4701 32.675C92.4332 32.6795 92.3957 32.6752 92.3608 32.6625C92.3258 32.6498 92.2943 32.629 92.2689 32.6018L91.1801 31.5626C90.7531 31.1551 90.3261 30.7475 89.8787 30.3614C89.8232 30.3084 89.6905 30.3449 89.5901 30.3389C89.5923 30.4307 89.5492 30.5527 89.5965 30.6143C89.8939 31.0123 90.2159 31.3931 90.5214 31.7825C90.547 31.807 90.5284 31.9034 90.5076 31.9081C90.4869 31.9128 90.3011 32.0048 90.2627 31.9681C90.0492 31.7643 89.8357 31.5606 89.6179 31.3527C88.7938 30.6111 88.2124 29.6382 87.9497 28.561C87.5581 27.1674 87.8177 25.7669 87.7475 24.37C87.7709 24.3391 87.8007 24.3138 87.8349 24.2957C87.8691 24.2776 87.9069 24.2671 87.9455 24.2651C89.1829 24.8325 90.2427 25.7256 91.0117 26.8489C91.1504 27.1163 91.3324 27.3589 91.5503 27.5669C91.9185 27.8725 92.2117 28.2584 92.4074 28.695L92.4156 28.6865ZM46.6357 120.613L46.5963 120.534C47.2235 120.219 47.8422 119.896 48.4654 119.585C48.5767 119.525 48.6998 119.491 48.826 119.484C48.9521 119.478 49.0782 119.499 49.1951 119.547C49.4309 119.618 49.6706 119.675 49.913 119.718C49.9352 119.726 49.9556 119.738 49.9726 119.754C49.9895 119.77 50.0027 119.79 50.0112 119.812C50.0112 119.812 49.9924 119.9 49.9594 119.917C49.4323 120.23 48.9137 120.551 48.3936 120.806C48.0429 120.985 47.6356 121.061 47.2851 121.249C46.1384 121.857 44.944 122.371 43.7138 122.785C43.5896 122.814 43.479 122.884 43.4008 122.985C43.3225 123.086 43.2813 123.21 43.2841 123.338C43.2882 123.439 43.2574 123.537 43.1969 123.618C43.1364 123.699 43.0499 123.756 42.9521 123.78L41.7997 124.132C41.751 124.142 41.7006 124.139 41.6534 124.123C41.6072 124.114 41.5629 124.097 41.5227 124.072C41.4245 123.978 41.4356 123.915 41.559 123.837C42.6489 123.131 43.851 122.582 44.7509 121.604C44.8688 121.514 45.0013 121.445 45.1427 121.399L46.6357 120.613ZM90.9255 87.9549C91.0718 87.964 91.1923 87.9403 91.2477 87.985C91.2839 88.0178 91.3125 88.0581 91.3316 88.103C91.3507 88.148 91.3597 88.1966 91.3581 88.2454C91.2918 88.5319 91.1813 88.8063 91.0306 89.0588C90.0737 90.4547 89.0913 91.8344 88.109 93.2142C88.0591 93.3006 87.9892 93.3738 87.9053 93.4277C87.8176 93.4641 87.7255 93.4888 87.6314 93.5009C87.624 93.4539 87.6229 93.4062 87.6281 93.359C87.7419 92.9254 87.9622 92.527 88.2691 92.2001C88.5695 91.8693 88.8379 91.5108 89.0707 91.1294C89.5401 90.3127 89.9587 89.4637 90.4153 88.6348C90.5698 88.3969 90.7402 88.1697 90.9255 87.9549ZM73.0609 117.487C72.9917 117.56 72.94 117.674 72.8653 117.692C71.2409 118.035 69.6247 118.369 67.9999 118.695C67.8504 118.713 67.6994 118.717 67.5492 118.706C67.5002 118.704 67.4519 118.694 67.4066 118.676C67.3383 118.61 67.1985 118.526 67.2102 118.488C67.2425 118.356 67.3194 118.239 67.4279 118.157C67.6666 118.077 67.913 118.023 68.1631 117.994C69.4415 117.794 70.7329 117.615 72.0374 117.457C72.3384 117.43 72.6407 117.421 72.9427 117.432C72.9883 117.418 73.0311 117.459 73.0609 117.487ZM95.3373 60.164C95.441 60.1324 95.7294 59.967 95.8982 60.0466C96.2181 60.1758 96.4823 60.4135 96.6445 60.718C96.7066 60.9323 96.725 61.1568 96.6986 61.3783C96.6722 61.5998 96.6016 61.8138 96.4909 62.0075C96.4602 62.0361 96.423 62.0568 96.3826 62.068C96.3421 62.0791 96.2996 62.0802 96.2586 62.0713C95.8657 61.6964 95.4729 61.3215 95.08 60.9465C94.8273 60.6727 94.8842 60.4251 95.3373 60.164ZM97.3659 84.1308C97.9143 83.8383 98.2357 83.6554 98.5365 83.4856C98.6017 83.4173 98.7053 83.3856 98.7876 83.3336C98.7371 83.4121 98.6817 83.4873 98.6217 83.5588C98.3032 83.7782 98.0255 84.0517 97.8014 84.367C97.718 84.5423 97.5905 84.693 97.4313 84.8043C97.2722 84.9156 97.0869 84.9837 96.8935 85.0018C96.8479 85.0081 96.8015 85.0032 96.7582 84.9875C96.7149 84.9717 96.6761 84.9457 96.6451 84.9116C96.6264 84.8702 96.6183 84.8248 96.6216 84.7795C96.6249 84.7342 96.6395 84.6905 96.6641 84.6523C96.9552 84.4243 97.2715 84.204 97.3496 84.1479L97.3659 84.1308ZM88.2902 113.158C88.5218 113.06 88.7943 112.929 89.0759 112.83C89.8296 112.571 90.5879 112.323 91.3461 112.076C91.3787 112.042 91.468 112.111 91.5353 112.134C91.4802 112.214 91.4128 112.285 91.3356 112.344C90.3534 112.712 89.371 113.074 88.3885 113.431C88.3559 113.465 88.2577 113.371 88.1985 113.339C88.1393 113.307 88.2338 113.243 88.2902 113.158ZM74.651 90.2508C74.5716 90.2484 74.3893 90.3111 74.321 90.2459C74.2527 90.1807 74.2313 89.9808 74.203 89.8395C74.1747 89.6983 74.23 89.7429 74.2583 89.7046C74.4836 89.4387 74.7245 89.1863 74.9796 88.9489C75.0367 88.8891 75.2841 88.9376 75.3486 89.0154C75.39 89.0732 75.4161 89.1406 75.4243 89.2113C75.4326 89.2819 75.4227 89.3535 75.3956 89.4193C75.1615 89.7088 74.913 89.9863 74.651 90.2508ZM98.0727 58.4094C98.1069 58.442 98.1737 58.4404 98.1997 58.4816C98.5958 58.9984 98.5943 59.2906 98.2056 59.6295C98.173 59.6637 98.1027 59.6945 98.0773 59.6784C98.0519 59.6623 97.8702 59.5705 97.8894 59.4991C97.9024 59.1607 97.9363 58.8259 97.9786 58.4909C97.9656 58.4703 98.0318 58.4437 98.0727 58.4094ZM96.8614 68.2278C96.8666 68.0941 96.8346 67.9737 96.8833 67.9142C97.0009 67.7534 97.1497 67.6179 97.3207 67.5157C97.3737 67.4602 97.6188 67.5881 97.6458 67.6709C97.6704 67.7417 97.6794 67.817 97.6721 67.8916C97.6649 67.9662 97.6416 68.0383 97.6038 68.1031C97.5661 68.1678 97.5148 68.2236 97.4534 68.2666C97.392 68.3097 97.3221 68.3389 97.2484 68.3524C97.1279 68.376 96.9877 68.2749 96.8657 68.2319L96.8614 68.2278ZM95.2676 35.8718C95.1653 35.7367 95.1053 35.5742 95.0954 35.405C95.0855 35.2357 95.1261 35.0674 95.212 34.9212C95.2317 34.8791 95.2646 34.8446 95.3058 34.823C95.3343 34.7931 95.4395 34.8283 95.4399 34.8449C95.4851 35.1737 95.5178 35.4986 95.5506 35.8318C95.5427 35.8527 95.5308 35.8718 95.5154 35.888C95.4999 35.9041 95.4814 35.917 95.4609 35.9257C95.3954 35.9121 95.3308 35.8941 95.2676 35.8718ZM94.3583 34.4735C94.3286 34.2738 94.2847 34.0035 94.2532 33.7287C94.2572 33.6844 94.2704 33.6414 94.292 33.6025C94.3219 33.6311 94.4054 33.6291 94.4143 33.654C94.5123 33.9189 94.6063 34.188 94.6795 34.4619C94.7051 34.4863 94.5898 34.5558 94.545 34.6028C94.5002 34.6498 94.4811 34.55 94.3664 34.465L94.3583 34.4735ZM92.242 77.8126C92.0557 77.5205 91.9736 77.4013 91.9251 77.2898C91.8765 77.1782 91.9264 77.1686 91.9291 77.106C91.9669 77.1345 92.0013 77.1674 92.0316 77.2038C92.1958 77.4421 92.3812 77.6924 92.5116 77.9148C92.5415 77.9434 92.518 78.0107 92.5149 78.0567C92.5118 78.1027 92.4062 78.0509 92.3804 78.0181C92.3245 77.9551 92.2804 77.8826 92.2502 77.804L92.242 77.8126ZM77.2891 85.9392C77.4355 85.9483 77.5189 85.9463 77.5985 85.957C77.615 86.0015 77.6146 86.0505 77.5975 86.0948C77.4644 86.2839 77.3194 86.4644 77.1634 86.6351C77.1227 86.6778 77.0008 86.6431 76.921 86.6241C76.8413 86.6051 76.8977 86.5203 76.9179 86.4906C77.0338 86.2666 77.1927 86.1001 77.2973 85.9306L77.2891 85.9392ZM93.3092 77.2074L93.5301 77.1897C93.7975 77.2002 93.9107 77.3979 93.7882 77.6972C93.7488 77.7983 93.5998 77.8519 93.5014 77.9293C93.4416 77.8723 93.3648 77.7989 93.3545 77.7157C93.3442 77.6324 93.3339 77.3696 93.3174 77.1988L93.3092 77.2074ZM98.9554 108.429L99.2642 108.422C99.2031 108.486 99.1598 108.6 99.0767 108.619C98.9616 108.651 98.8424 108.666 98.7229 108.664C98.8007 108.6 98.8576 108.532 98.9554 108.429ZM45.8131 122.757L45.6111 122.866C45.6164 122.827 45.6298 122.79 45.6503 122.757C45.6785 122.731 45.7125 122.713 45.7493 122.704C45.7493 122.704 45.7918 122.737 45.8131 122.757ZM93.4582 111.163L93.5653 111.102L93.6123 111.147C93.58 111.171 93.5455 111.193 93.5094 111.212L93.4582 111.163ZM64.2809 102.621L64.4806 102.591C64.4521 102.621 64.4536 102.688 64.4247 102.701C64.3603 102.716 64.2951 102.727 64.2293 102.735C64.2439 102.696 64.2612 102.658 64.2809 102.621ZM101.537 63.2174C101.48 63.2772 101.423 63.3369 101.366 63.3967C101.309 63.4565 101.319 63.3519 101.294 63.3274C101.346 63.2637 101.404 63.2038 101.465 63.1481C101.465 63.1481 101.499 63.1974 101.537 63.2174ZM92.5654 34.7533C92.5995 34.7636 92.6321 34.7783 92.6624 34.797C92.6773 34.8296 92.6852 34.865 92.6858 34.9008C92.6858 34.9008 92.6102 34.8859 92.5887 34.8572C92.5738 34.8245 92.5659 34.7892 92.5654 34.7533ZM93.2746 75.7219L93.3561 75.6365L93.4009 75.7691C93.3805 75.7904 93.3262 75.7875 93.2928 75.7883C93.2594 75.7891 93.2835 75.7468 93.2746 75.7219ZM73.1881 91.792L73.2394 91.8409L73.1357 91.8726L73.1881 91.792Z" fill="#EBC79E"/>
<path fill-rule="evenodd" clip-rule="evenodd" d="M113.153 43.003L113.207 42.8264C113.187 42.8477 113.154 42.8819 113.142 42.8947C113.153 42.9346 113.168 42.9734 113.186 43.0106L113.153 43.003Z" fill="#EBC79E"/>
<path fill-rule="evenodd" clip-rule="evenodd" d="M114.755 50.163C114.784 50.1331 114.808 50.1075 114.837 50.0776L114.806 50.1869L114.755 50.163Z" fill="#EBC79E"/>
<path fill-rule="evenodd" clip-rule="evenodd" d="M80.627 47.9112L80.693 47.8763L80.6606 47.9188L80.627 47.9112Z" fill="#EBC79E"/>
<path fill-rule="evenodd" clip-rule="evenodd" d="M103.556 20.1687C103.584 20.1437 103.61 20.1166 103.633 20.0876C103.633 20.0876 103.588 20.1346 103.568 20.1559L103.556 20.1687Z" fill="#EBC79E"/>
<path fill-rule="evenodd" clip-rule="evenodd" d="M98.1758 106.314C98.1456 106.35 98.113 106.385 98.078 106.416C97.6854 106.588 97.8211 107.036 97.6144 107.304C97.4077 107.572 96.9877 107.644 96.9134 108.038C96.889 108.064 96.9321 108.121 96.9538 108.158C96.9755 108.196 97.0435 108.244 97.0605 108.26C97.2076 108.256 97.3533 108.23 97.4929 108.183C98.0841 107.932 98.671 107.676 99.2493 107.412C99.8502 107.167 100.391 106.796 100.835 106.323C100.966 106.186 101.086 105.958 100.919 105.791C100.855 105.72 100.777 105.663 100.69 105.625C100.603 105.587 100.508 105.567 100.413 105.569C99.6258 105.669 98.866 105.923 98.1758 106.314ZM98.9624 106.746C98.9624 106.746 98.9393 106.651 98.9517 106.647C99.0265 106.591 99.1083 106.546 99.1949 106.511C99.1949 106.511 99.2622 106.535 99.2958 106.542C99.3294 106.55 99.2265 106.615 99.2021 106.641C99.1243 106.681 99.0443 106.716 98.9624 106.746Z" fill="#EBC79E"/>
<path fill-rule="evenodd" clip-rule="evenodd" d="M99.9266 114.431C100.014 114.433 100.149 114.472 100.181 114.429C101.252 113.238 102.1 111.863 102.683 110.371C102.69 110.327 102.685 110.282 102.67 110.24C102.654 110.198 102.628 110.16 102.594 110.131C102.552 110.09 102.424 110.173 102.346 110.212C102.267 110.251 102.28 110.28 102.269 110.335C101.721 111.174 101.173 112.014 100.637 112.857C100.367 113.277 100.123 113.712 99.8908 114.152C99.8718 114.232 99.9289 114.351 99.9266 114.431Z" fill="#EBC79E"/>
<path fill-rule="evenodd" clip-rule="evenodd" d="M105.526 104.999C105.371 105.161 105.238 105.343 105.104 105.526C104.914 105.785 104.732 106.052 104.546 106.316L104.55 106.27C104.591 106.469 104.568 106.676 104.484 106.861C104.4 107.046 104.258 107.2 104.081 107.299L104.109 107.269C104.141 107.308 104.176 107.342 104.216 107.371C104.46 107.604 104.721 107.698 104.804 107.5C105.203 106.705 105.761 105.966 105.522 104.986L105.526 104.999Z" fill="#EBC79E"/>
<path fill-rule="evenodd" clip-rule="evenodd" d="M99.1566 119.931C99.4712 119.767 99.7343 119.519 99.9166 119.215C100.099 118.911 100.193 118.562 100.189 118.207L100.211 118.228C99.7306 118.707 99.3771 119.297 99.182 119.947L99.1566 119.931Z" fill="#EBC79E"/>
<path fill-rule="evenodd" clip-rule="evenodd" d="M103.522 108.039C103.364 108.101 103.221 108.198 103.104 108.321C102.987 108.444 102.897 108.591 102.842 108.752C102.817 108.777 102.823 108.848 102.845 108.877C102.866 108.906 102.945 108.9 102.958 108.887C103.139 108.603 103.307 108.315 103.484 108.027L103.522 108.039Z" fill="#EBC79E"/>
<path fill-rule="evenodd" clip-rule="evenodd" d="M64.8803 117.423C65.1613 117.49 65.4529 117.498 65.7374 117.449C66.0219 117.399 66.2933 117.292 66.5352 117.134C65.9668 117.018 65.3754 117.121 64.8803 117.423Z" fill="#EBC79E"/>
<path fill-rule="evenodd" clip-rule="evenodd" d="M104.036 106.62C103.862 106.708 103.723 106.851 103.641 107.027C103.559 107.203 103.538 107.402 103.582 107.591L103.561 107.57L104.092 107.262L104.064 107.291L103.993 106.596L104.036 106.62Z" fill="#EBC79E"/>
<path fill-rule="evenodd" clip-rule="evenodd" d="M102.302 113.011C102.142 113.123 102.02 113.282 101.954 113.466C101.888 113.65 101.881 113.849 101.933 114.038L101.908 114.013C102.036 113.884 102.135 113.728 102.199 113.558C102.264 113.388 102.292 113.205 102.281 113.024L102.302 113.011Z" fill="#EBC79E"/>
<path fill-rule="evenodd" clip-rule="evenodd" d="M87.9155 111.764C87.8666 111.815 87.8433 111.89 87.807 111.946C87.8918 111.937 87.9745 111.914 88.0517 111.877C88.0925 111.835 88.1241 111.759 88.1602 111.695C88.0773 111.722 87.9985 111.745 87.9155 111.764Z" fill="#EBC79E"/>
<path fill-rule="evenodd" clip-rule="evenodd" d="M98.7375 120.925C98.8815 120.805 98.9946 120.652 99.0676 120.479C99.1405 120.306 99.1711 120.118 99.1568 119.93L99.1781 119.951C98.9969 120.036 98.8538 120.185 98.777 120.37C98.7002 120.555 98.6953 120.762 98.7631 120.95L98.7375 120.925Z" fill="#EBC79E"/>
<path fill-rule="evenodd" clip-rule="evenodd" d="M89.456 111.252C89.4303 111.227 89.4004 111.199 89.3632 111.212C89.3196 111.22 89.2802 111.243 89.252 111.277C89.2042 111.379 89.2551 111.411 89.3789 111.349C89.411 111.322 89.4372 111.289 89.456 111.252Z" fill="#EBC79E"/>
<path fill-rule="evenodd" clip-rule="evenodd" d="M75.096 115.048L75.3916 115.011C75.4404 115.006 75.4874 114.99 75.5282 114.962C75.5282 114.962 75.5771 114.911 75.5759 114.861C75.4909 114.864 75.4067 114.88 75.3266 114.909C75.2416 114.958 75.1619 115.016 75.0884 115.081L75.096 115.048Z" fill="#EBC79E"/>
<path fill-rule="evenodd" clip-rule="evenodd" d="M92.7719 109.479L92.8188 109.524C92.8545 109.508 92.8889 109.489 92.9219 109.468L92.8706 109.419C92.8376 109.436 92.8048 109.462 92.7719 109.479Z" fill="#EBC79E"/>
<path fill-rule="evenodd" clip-rule="evenodd" d="M104.399 106.06L104.036 106.62L104.559 106.303L104.556 106.349L104.374 106.086L104.399 106.06Z" fill="#EBC79E"/>
<path fill-rule="evenodd" clip-rule="evenodd" d="M102.841 111.582C103 111.416 103.116 111.209 103.249 111.018L103.275 111.042C103.052 111.173 102.83 111.295 102.862 111.603L102.841 111.582Z" fill="#EBC79E"/>
<path fill-rule="evenodd" clip-rule="evenodd" d="M102.272 112.999C102.381 112.948 102.475 112.869 102.545 112.771C102.614 112.673 102.657 112.558 102.668 112.438C102.554 112.483 102.454 112.56 102.383 112.66C102.312 112.761 102.272 112.88 102.268 113.003L102.272 112.999Z" fill="#EBC79E"/>
<path fill-rule="evenodd" clip-rule="evenodd" d="M101.549 114.569C101.665 114.378 101.782 114.179 101.898 113.988L101.933 114.038C101.706 114.164 101.492 114.294 101.583 114.618L101.549 114.569Z" fill="#EBC79E"/>
<path fill-rule="evenodd" clip-rule="evenodd" d="M101.587 114.58C101.522 114.648 101.427 114.688 101.349 114.744L101.425 114.818C101.487 114.753 101.513 114.648 101.553 114.564L101.587 114.58Z" fill="#EBC79E"/>
<path fill-rule="evenodd" clip-rule="evenodd" d="M100.628 117.688C100.423 117.826 100.175 117.924 100.203 118.236L100.182 118.216L100.607 117.668L100.628 117.688Z" fill="#EBC79E"/>
<path fill-rule="evenodd" clip-rule="evenodd" d="M98.7757 120.937C98.7186 120.997 98.6402 121.036 98.5705 121.092L98.6431 121.162C98.6747 121.086 98.7105 121.006 98.7378 120.926L98.7757 120.937Z" fill="#EBC79E"/>
<path fill-rule="evenodd" clip-rule="evenodd" d="M78.5722 114.269C78.607 114.256 78.6432 114.247 78.6801 114.242L78.71 114.27L78.6054 114.26L78.5722 114.269Z" fill="#EBC79E"/>
<path fill-rule="evenodd" clip-rule="evenodd" d="M106.9 105.551C106.977 105.47 107.093 105.426 107.188 105.369C106.896 105.23 106.896 105.23 106.9 105.551Z" fill="#EBC79E"/>
<path fill-rule="evenodd" clip-rule="evenodd" d="M104.467 105.587L104.57 105.18L104.592 105.2C104.557 105.338 104.523 105.477 104.484 105.612L104.467 105.587Z" fill="#EBC79E"/>
<path fill-rule="evenodd" clip-rule="evenodd" d="M104.364 106.053L104.466 105.587L104.488 105.607L104.386 106.073L104.364 106.053Z" fill="#EBC79E"/>
<path fill-rule="evenodd" clip-rule="evenodd" d="M103.582 107.591L103.522 108.039L103.496 108.014L103.561 107.57L103.582 107.591Z" fill="#EBC79E"/>
<path fill-rule="evenodd" clip-rule="evenodd" d="M103.717 109.604C103.742 109.582 103.765 109.558 103.786 109.531L103.751 109.612L103.717 109.604Z" fill="#EBC79E"/>
<path fill-rule="evenodd" clip-rule="evenodd" d="M103.656 110.052C103.734 109.971 103.846 109.931 103.944 109.87L103.708 109.596L103.734 109.62L103.656 110.052Z" fill="#EBC79E"/>
<path fill-rule="evenodd" clip-rule="evenodd" d="M102.75 111.994C102.785 111.855 102.815 111.721 102.841 111.583L102.862 111.603L102.772 112.023L102.75 111.994Z" fill="#EBC79E"/>
<path fill-rule="evenodd" clip-rule="evenodd" d="M102.655 112.426L102.737 111.982L102.762 112.006C102.699 112.058 102.655 112.13 102.639 112.211C102.624 112.291 102.637 112.375 102.677 112.446L102.655 112.426Z" fill="#EBC79E"/>
<path fill-rule="evenodd" clip-rule="evenodd" d="M100.616 117.659L100.606 117.609L100.645 117.671L100.616 117.659Z" fill="#EBC79E"/>
<path fill-rule="evenodd" clip-rule="evenodd" d="M96.8273 123.141L96.8805 123.094L96.8522 123.132L96.8273 123.141Z" fill="#EBC79E"/>
<path fill-rule="evenodd" clip-rule="evenodd" d="M78.5928 114.273L78.5128 114.246L78.5761 114.273L78.5928 114.273Z" fill="#EBC79E"/>
<path fill-rule="evenodd" clip-rule="evenodd" d="M62.5416 107.897C61.983 108.229 61.4617 108.62 60.9866 109.064C60.7985 109.22 60.6538 109.422 60.5662 109.65C60.4787 109.878 60.4513 110.124 60.4867 110.366C60.5968 110.969 60.1978 111.404 59.5318 111.666C59.2966 111.727 59.0772 111.837 58.888 111.99C58.3667 112.596 57.8145 113.174 57.2334 113.723C56.9502 114.065 56.7199 114.448 56.5502 114.858C56.5426 114.88 56.542 114.904 56.5485 114.926C56.555 114.948 56.5683 114.968 56.5865 114.982C56.6078 114.995 56.6316 115.002 56.6561 115.005C56.6807 115.007 56.7055 115.004 56.7287 114.996C56.8217 114.962 56.9081 114.912 56.9841 114.848C57.465 114.344 57.95 113.836 58.401 113.304C58.7759 112.911 59.0734 112.42 59.6898 112.355C60.1364 111.967 60.5457 111.538 60.9124 111.074C61.6708 109.937 62.7406 109.09 63.5718 108.031C63.6346 107.953 63.7041 107.88 63.7796 107.813C64.232 107.507 64.6557 107.16 65.0455 106.778C65.4205 106.385 65.5953 105.826 65.919 105.384C66.2993 104.866 66.7474 104.388 67.1701 103.893C67.8136 103.265 68.3406 102.528 68.7266 101.715C68.7511 101.69 68.7033 101.612 68.6651 101.583C68.6454 101.57 68.6225 101.563 68.599 101.562C68.5754 101.561 68.5521 101.567 68.5314 101.578C68.4038 101.65 68.2853 101.737 68.1784 101.837C67.4786 102.621 66.7703 103.398 66.0918 104.202C65.558 104.792 65.0861 105.436 64.6837 106.122C64.5288 106.465 64.2984 106.769 64.0099 107.011C63.7213 107.252 63.382 107.426 63.0171 107.518C63.0487 107.801 62.8475 107.944 62.6802 108.11C62.6232 108.17 62.6088 108.271 62.5733 108.359L62.5221 108.31C62.5832 108.246 62.6443 108.182 62.7394 108.142L62.4789 107.894L62.5416 107.897ZM61.1407 109.587L61.2323 109.576L61.1671 109.644L61.1407 109.587Z" fill="#EBC79E"/>
<path fill-rule="evenodd" clip-rule="evenodd" d="M64.3452 105.007C65.1603 104.153 65.9754 103.299 66.7563 102.413C67.0186 102.056 67.2474 101.676 67.4396 101.278C67.4681 101.248 67.4405 101.14 67.4279 101.136C67.4153 101.132 67.2344 101.074 67.1641 101.105C66.9884 101.205 66.8195 101.316 66.6584 101.438L66.6869 101.408C66.5208 101.866 66.257 102.283 65.9138 102.628C65.4483 103.253 64.9827 103.878 64.5385 104.523C64.4574 104.689 64.3983 104.866 64.3629 105.048L64.3452 105.007Z" fill="#EBC79E"/>
<path fill-rule="evenodd" clip-rule="evenodd" d="M55.3677 115.174C55.2158 115.254 55.0812 115.363 54.9718 115.495C54.8624 115.627 54.7803 115.78 54.7302 115.944L55.3677 115.174Z" fill="#EBC79E"/>
<path fill-rule="evenodd" clip-rule="evenodd" d="M64.3744 105.011C64.3214 105.066 64.2684 105.122 64.2114 105.181C64.2338 105.162 64.2543 105.141 64.2725 105.117C64.3051 105.083 64.3336 105.053 64.3621 105.023L64.3744 105.011Z" fill="#EBC79E"/>
<path fill-rule="evenodd" clip-rule="evenodd" d="M63.0646 107.571C62.8398 107.601 62.5456 107.516 62.546 107.892L62.5247 107.872L63.0679 107.534L63.0646 107.571Z" fill="#EBC79E"/>
<path fill-rule="evenodd" clip-rule="evenodd" d="M54.7503 115.906C54.6257 116.114 54.5009 116.313 54.3764 116.52C54.5009 116.313 54.6257 116.114 54.7503 115.906Z" fill="#EBC79E"/>
<path fill-rule="evenodd" clip-rule="evenodd" d="M92.9184 74.4275C92.9277 74.2895 93.0026 74.0999 92.9421 74.0095C92.5065 73.4143 92.0423 72.8406 91.5861 72.2584C91.5605 72.234 91.46 72.2196 91.4561 72.2322C91.4522 72.2448 91.36 72.4098 91.3866 72.476C91.6076 73.0327 91.9469 73.5348 92.3812 73.9474C92.5605 74.1186 92.7602 74.2684 92.9518 74.4267L92.9184 74.4275Z" fill="#EBC79E"/>
<path fill-rule="evenodd" clip-rule="evenodd" d="M88.0476 81.626C88.4352 82.3866 89.1072 82.9635 89.9178 83.2315C89.9432 83.233 89.9686 83.2282 89.9916 83.2174C90.0147 83.2067 90.0347 83.1904 90.0499 83.17C90.0773 83.09 90.1163 82.9722 90.0858 82.9186C90.0041 82.796 89.8962 82.693 89.7699 82.617C88.8139 82.0742 88.1028 81.1852 87.7831 80.1334C87.7606 80.0629 87.655 80.0111 87.5706 79.9713C87.5149 80.0895 87.4008 80.2091 87.4076 80.3217C87.4257 80.5192 87.4797 80.7118 87.567 80.8899C87.6885 81.0875 87.8308 81.2804 88.0476 81.626Z" fill="#EBC79E"/>
<path fill-rule="evenodd" clip-rule="evenodd" d="M90.2467 48.4842C90.6759 49.0928 91.2516 49.5834 91.9207 49.9105C92.7232 50.413 93.5687 50.8431 94.4473 51.1959C94.5846 51.256 94.7323 51.2885 94.8821 51.2915C95.0319 51.2944 95.1808 51.2678 95.3203 51.2131C95.3658 51.1952 95.4069 51.1676 95.4407 51.1322C95.4745 51.0968 95.5002 51.0545 95.5159 51.0082C95.5192 50.9636 95.5117 50.9189 95.494 50.8779C95.4763 50.8369 95.449 50.8008 95.4144 50.7726C95.2778 50.7129 95.1371 50.6631 94.9934 50.6237C93.4028 50.0274 91.9387 49.1366 90.6779 47.9982C90.5242 47.8668 90.3514 47.7596 90.1654 47.6803C90.0852 47.6446 89.9816 47.6762 89.8855 47.6743C89.8915 47.7711 89.9063 47.8672 89.9298 47.9613C90.025 48.1417 90.1309 48.3163 90.2467 48.4842Z" fill="#EBC79E"/>
<path fill-rule="evenodd" clip-rule="evenodd" d="M87.8318 44.4576L88.1514 44.9178C88.2252 45.0371 88.2924 45.0523 88.3234 44.9513C88.3239 44.9283 88.319 44.9055 88.3091 44.8847C88.2992 44.8639 88.2845 44.8457 88.2663 44.8316C88.1297 44.7012 87.9772 44.6045 87.8285 44.4953L87.8318 44.4576Z" fill="#EBC79E"/>
<path fill-rule="evenodd" clip-rule="evenodd" d="M98.5261 75.1862C99.5866 74.5194 100.465 73.5994 101.081 72.5089C101.257 72.1625 101.321 71.8813 101.175 71.8638C100.874 71.8375 100.75 72.0866 100.613 72.2819C100.024 73.153 99.259 73.8906 98.3669 74.4468C97.9512 74.7028 97.4751 74.8767 97.0379 75.104C96.9998 75.1303 96.9688 75.1658 96.9479 75.2071C96.927 75.2484 96.9168 75.2943 96.9181 75.3406C96.9364 75.3859 96.9641 75.4269 96.9994 75.4606C97.0348 75.4943 97.077 75.5201 97.1231 75.5362C97.3677 75.5982 97.6238 75.5986 97.8686 75.5376C98.1134 75.4765 98.3393 75.3558 98.5261 75.1862Z" fill="#EBC79E"/>
<path fill-rule="evenodd" clip-rule="evenodd" d="M98.9916 49.3158C99.289 49.7138 99.6255 49.8229 99.7862 49.5519C100.212 48.8239 100.625 48.0837 101.02 47.3355C101.073 47.28 100.944 47.0826 100.862 46.9885C100.78 46.8944 100.653 46.9767 100.592 47.0324C100.078 47.5067 99.6544 48.0695 99.3403 48.6939C99.2245 48.9179 99.1001 49.1337 98.9841 49.3494L98.9916 49.3158Z" fill="#EBC79E"/>
<path fill-rule="evenodd" clip-rule="evenodd" d="M102.292 47.2432C102.341 47.192 102.394 47.1365 102.413 47.0567C102.388 47.0737 102.368 47.0955 102.352 47.1208C102.335 47.161 102.325 47.2034 102.321 47.2467L102.292 47.2432Z" fill="#EBC79E"/>
<path fill-rule="evenodd" clip-rule="evenodd" d="M102.215 47.6833L102.292 47.2431C102.232 47.298 102.191 47.3712 102.176 47.4516C102.162 47.5319 102.174 47.6148 102.211 47.6876L102.215 47.6833Z" fill="#EBC79E"/>
<path fill-rule="evenodd" clip-rule="evenodd" d="M91.6366 58.142L92.3362 58.0672L92.0193 57.5444C91.5597 57.7096 91.5597 57.7096 91.6366 58.142Z" fill="#EBC79E"/>
<path fill-rule="evenodd" clip-rule="evenodd" d="M103.6 53.9176C103.624 53.892 103.653 53.8621 103.677 53.8364C103.672 53.8733 103.664 53.9097 103.655 53.9455L103.6 53.9176Z" fill="#EBC79E"/>
<path fill-rule="evenodd" clip-rule="evenodd" d="M101.081 56.1889L101.133 56.1L101.115 56.1965L101.081 56.1889Z" fill="#EBC79E"/>
<path fill-rule="evenodd" clip-rule="evenodd" d="M91.0815 28.613C90.9063 28.7966 90.7402 29.0134 90.963 29.2587C91.1858 29.504 91.507 29.8514 91.7803 30.1122C91.9127 30.2386 92.0526 30.1518 92.1242 29.9998C92.1958 29.8479 92.2742 29.6289 92.3619 29.4516C92.4496 29.2742 92.4643 29.0108 92.3073 28.9017C91.6325 28.429 91.3099 27.6642 90.7624 27.1008C90.7238 27.0772 90.6801 27.0631 90.635 27.0598C90.5899 27.0565 90.5447 27.064 90.5031 27.0818C90.4671 27.1064 90.4382 27.14 90.4193 27.1793C90.4004 27.2186 90.3922 27.2621 90.3956 27.3056C90.44 27.4457 90.5006 27.5802 90.5761 27.7063L91.0654 28.6385C91.1838 28.7025 91.3063 28.7623 91.4208 28.8389C91.4464 28.8634 91.5019 28.9163 91.486 28.9501C91.4472 29.0763 91.38 29.0611 91.3105 28.9459C91.2411 28.8306 91.1755 28.7027 91.0815 28.613Z" fill="#EBC79E"/>
<path fill-rule="evenodd" clip-rule="evenodd" d="M92.2511 31.4918C92.2368 31.443 92.2146 31.397 92.1853 31.3555C91.5135 30.772 90.9186 30.1054 90.4148 29.372C90.3852 29.3317 90.3412 29.3043 90.2919 29.2955C90.2035 29.2997 90.1165 29.3187 90.0344 29.3516C90.0166 29.3671 90.003 29.3868 89.9948 29.4088C89.9866 29.4309 89.984 29.4547 89.9872 29.478C90.467 30.4034 91.1665 31.197 92.0242 31.7893C92.0712 31.8341 92.2416 31.8009 92.2534 31.7714C92.2653 31.7419 92.2532 31.5836 92.2511 31.4918Z" fill="#EBC79E"/>
<path fill-rule="evenodd" clip-rule="evenodd" d="M93.3406 40.6175L93.3893 40.5579L93.3045 40.5015L93.3406 40.6175Z" fill="#EBC79E"/>
<path fill-rule="evenodd" clip-rule="evenodd" d="M92.3937 39.9425L92.2176 39.7337C92.1187 39.9656 92.3372 39.8478 92.4013 39.9089L92.3937 39.9425Z" fill="#EBC79E"/>
<path fill-rule="evenodd" clip-rule="evenodd" d="M92.4053 39.9047L92.502 39.9316L92.3937 39.9425L92.4053 39.9047Z" fill="#EBC79E"/>
<path fill-rule="evenodd" clip-rule="evenodd" d="M90.8476 36.2712C90.6896 36.1204 90.4948 35.9997 90.3081 35.8705C90.2825 35.846 90.2246 35.8724 90.1788 35.8777C90.1932 35.9567 90.1837 36.0863 90.2302 36.1145C90.4206 36.2227 90.6128 36.4061 90.8635 36.2375L90.8476 36.2712Z" fill="#EBC79E"/>
<path fill-rule="evenodd" clip-rule="evenodd" d="M91.4242 36.6419C91.4115 36.5793 91.3863 36.5199 91.3503 36.4671C91.3142 36.4144 91.2679 36.3694 91.2142 36.3349C91.1605 36.3003 91.1004 36.2769 91.0374 36.266C90.9745 36.255 90.91 36.2568 90.8477 36.2712L90.8722 36.2456C90.8849 36.3082 90.91 36.3677 90.9461 36.4204C90.9821 36.4731 91.0284 36.5181 91.0821 36.5527C91.1359 36.5872 91.196 36.6106 91.2589 36.6216C91.3219 36.6325 91.3864 36.6307 91.4486 36.6163L91.4242 36.6419Z" fill="#EBC79E"/>
<path fill-rule="evenodd" clip-rule="evenodd" d="M63.6597 118.233L63.4819 117.949L62.6837 118.452C63.0246 118.493 63.3694 118.416 63.6597 118.233Z" fill="#EBC79E"/>
<path fill-rule="evenodd" clip-rule="evenodd" d="M64.1526 117.879L63.6053 118.221C64.0205 118.299 64.0205 118.299 64.1526 117.879Z" fill="#EBC79E"/>
<path fill-rule="evenodd" clip-rule="evenodd" d="M52.8901 116.522L52.7659 116.566L52.8216 116.628L52.8901 116.522Z" fill="#EBC79E"/>
</g>
<defs>
<clipPath id="clip0_160_1792">
<rect width="98.5028" height="119.616" fill="white" transform="matrix(-0.723401 -0.690428 -0.690428 0.723401 153.844 68.0093)"/>
</clipPath>
</defs>
</svg>
