<svg width="217" height="271" viewBox="0 0 217 271" fill="none" xmlns="http://www.w3.org/2000/svg">
<rect x="0.5" y="0.5" width="216" height="270" rx="14.5" stroke="#7B4F2F"/>
<ellipse cx="75.3585" cy="176.939" rx="3.92857" ry="3.93945" fill="#F7E5D0"/>
<ellipse cx="91.0729" cy="176.939" rx="3.92857" ry="3.93945" fill="#F7E5D0"/>
<ellipse cx="106.787" cy="176.939" rx="3.92857" ry="3.93945" fill="#F7E5D0"/>
<ellipse cx="122.501" cy="176.939" rx="3.92856" ry="3.93945" fill="#F7E5D0"/>
<ellipse cx="138.216" cy="176.939" rx="3.92857" ry="3.93945" fill="#F7E5D0"/>
<ellipse cx="153.93" cy="176.939" rx="3.92857" ry="3.93945" fill="#F7E5D0"/>
<ellipse cx="169.644" cy="176.939" rx="3.92858" ry="3.93945" fill="#F7E5D0"/>
<ellipse cx="75.3585" cy="192.697" rx="3.92857" ry="3.93945" fill="#F7E5D0"/>
<ellipse cx="91.0729" cy="192.697" rx="3.92857" ry="3.93945" fill="#F7E5D0"/>
<ellipse cx="106.787" cy="192.697" rx="3.92857" ry="3.93945" fill="#F7E5D0"/>
<ellipse cx="122.501" cy="192.697" rx="3.92856" ry="3.93945" fill="#F7E5D0"/>
<ellipse cx="138.216" cy="192.697" rx="3.92856" ry="3.93945" fill="#F7E5D0"/>
<ellipse cx="153.93" cy="192.697" rx="3.92857" ry="3.93945" fill="#F7E5D0"/>
<ellipse cx="169.644" cy="192.697" rx="3.92858" ry="3.93945" fill="#F7E5D0"/>
<ellipse cx="75.3585" cy="208.455" rx="3.92857" ry="3.93958" fill="#F7E5D0"/>
<ellipse cx="91.0729" cy="208.455" rx="3.92857" ry="3.93958" fill="#F7E5D0"/>
<ellipse cx="106.787" cy="208.455" rx="3.92857" ry="3.93958" fill="#F7E5D0"/>
<ellipse cx="122.501" cy="208.455" rx="3.92856" ry="3.93958" fill="#F7E5D0"/>
<ellipse cx="138.216" cy="208.455" rx="3.92856" ry="3.93958" fill="#F7E5D0"/>
<ellipse cx="153.93" cy="208.455" rx="3.92857" ry="3.93958" fill="#F7E5D0"/>
<ellipse cx="169.644" cy="208.455" rx="3.92858" ry="3.93958" fill="#F7E5D0"/>
<ellipse cx="75.3585" cy="224.214" rx="3.92857" ry="3.93933" fill="#F7E5D0"/>
<ellipse cx="91.0729" cy="224.214" rx="3.92857" ry="3.93933" fill="#F7E5D0"/>
<ellipse cx="106.787" cy="224.214" rx="3.92857" ry="3.93933" fill="#F7E5D0"/>
<ellipse cx="122.501" cy="224.214" rx="3.92856" ry="3.93933" fill="#F7E5D0"/>
<ellipse cx="138.216" cy="224.214" rx="3.92856" ry="3.93933" fill="#F7E5D0"/>
<ellipse cx="153.93" cy="224.214" rx="3.92857" ry="3.93933" fill="#F7E5D0"/>
<ellipse cx="169.644" cy="224.214" rx="3.92858" ry="3.93933" fill="#F7E5D0"/>
<path d="M42.253 158.93H43.256L48.271 171H47.013L45.449 167.226H40.026L38.479 171H37.204L42.253 158.93ZM45.177 166.291L42.746 160.324L40.281 166.291H45.177ZM49.8143 158.59H50.9703V168.994C50.9703 169.436 51.0496 169.725 51.2083 169.861C51.3669 169.997 51.5596 170.065 51.7863 170.065C51.9903 170.065 52.1943 170.042 52.3983 169.997C52.6023 169.952 52.7779 169.906 52.9253 169.861L53.1293 170.796C52.9139 170.887 52.6476 170.96 52.3303 171.017C52.0243 171.074 51.7579 171.102 51.5313 171.102C51.0099 171.102 50.5906 170.949 50.2733 170.643C49.9673 170.337 49.8143 169.918 49.8143 169.385V158.59ZM54.4461 158.59H55.6021V168.994C55.6021 169.436 55.6815 169.725 55.8401 169.861C55.9988 169.997 56.1915 170.065 56.4181 170.065C56.6221 170.065 56.8261 170.042 57.0301 169.997C57.2341 169.952 57.4098 169.906 57.5571 169.861L57.7611 170.796C57.5458 170.887 57.2795 170.96 56.9621 171.017C56.6561 171.074 56.3898 171.102 56.1631 171.102C55.6418 171.102 55.2225 170.949 54.9051 170.643C54.5991 170.337 54.4461 169.918 54.4461 169.385V158.59ZM62.852 171.17C62.2173 171.17 61.628 171.051 61.084 170.813C60.54 170.564 60.0696 170.229 59.673 169.81C59.2763 169.379 58.9646 168.886 58.738 168.331C58.5226 167.776 58.415 167.181 58.415 166.546C58.415 165.719 58.602 164.959 58.976 164.268C59.3613 163.577 59.8883 163.027 60.557 162.619C61.2256 162.2 61.985 161.99 62.835 161.99C63.7076 161.99 64.467 162.2 65.113 162.619C65.7703 163.038 66.286 163.594 66.66 164.285C67.034 164.965 67.221 165.713 67.221 166.529C67.221 166.62 67.221 166.71 67.221 166.801C67.221 166.88 67.2153 166.943 67.204 166.988H59.622C59.6786 167.623 59.8543 168.189 60.149 168.688C60.455 169.175 60.846 169.566 61.322 169.861C61.8093 170.144 62.3363 170.286 62.903 170.286C63.481 170.286 64.025 170.139 64.535 169.844C65.0563 169.549 65.419 169.164 65.623 168.688L66.626 168.96C66.4446 169.379 66.167 169.759 65.793 170.099C65.419 170.439 64.977 170.705 64.467 170.898C63.9683 171.079 63.43 171.17 62.852 171.17ZM59.588 166.155H66.133C66.0876 165.509 65.912 164.942 65.606 164.455C65.3113 163.968 64.9203 163.588 64.433 163.316C63.957 163.033 63.43 162.891 62.852 162.891C62.274 162.891 61.747 163.033 61.271 163.316C60.795 163.588 60.404 163.973 60.098 164.472C59.8033 164.959 59.6333 165.52 59.588 166.155ZM68.1403 170.218L74.0733 163.01H68.2763V162.143H75.3823V162.925L69.4833 170.133H75.3653V171H68.1403V170.218ZM80.9935 166.597C80.9935 165.758 81.1635 164.993 81.5035 164.302C81.8548 163.599 82.3365 163.038 82.9485 162.619C83.5605 162.2 84.2575 161.99 85.0395 161.99C85.7761 161.99 86.4335 162.188 87.0115 162.585C87.6008 162.97 88.0598 163.441 88.3885 163.996V158.59H89.5445V169.606C89.5445 169.765 89.5785 169.884 89.6465 169.963C89.7145 170.031 89.8165 170.071 89.9525 170.082V171C89.7258 171.034 89.5501 171.045 89.4255 171.034C89.1875 171.023 88.9778 170.926 88.7965 170.745C88.6151 170.564 88.5245 170.365 88.5245 170.15V169.283C88.1731 169.861 87.6971 170.32 87.0965 170.66C86.4958 171 85.8725 171.17 85.2265 171.17C84.6145 171.17 84.0478 171.045 83.5265 170.796C83.0165 170.547 82.5688 170.207 82.1835 169.776C81.8095 169.345 81.5148 168.858 81.2995 168.314C81.0955 167.759 80.9935 167.186 80.9935 166.597ZM88.3885 167.957V165.22C88.2411 164.812 88.0031 164.444 87.6745 164.115C87.3458 163.775 86.9718 163.509 86.5525 163.316C86.1445 163.112 85.7365 163.01 85.3285 163.01C84.8525 163.01 84.4218 163.112 84.0365 163.316C83.6511 163.509 83.3168 163.775 83.0335 164.115C82.7615 164.455 82.5518 164.84 82.4045 165.271C82.2571 165.702 82.1835 166.144 82.1835 166.597C82.1835 167.073 82.2628 167.526 82.4215 167.957C82.5915 168.388 82.8295 168.773 83.1355 169.113C83.4415 169.442 83.7928 169.697 84.1895 169.878C84.5861 170.059 85.0168 170.15 85.4815 170.15C85.7761 170.15 86.0821 170.093 86.3995 169.98C86.7168 169.867 87.0171 169.714 87.3005 169.521C87.5951 169.317 87.8388 169.079 88.0315 168.807C88.2241 168.535 88.3431 168.252 88.3885 167.957ZM91.4497 168.45C91.4497 167.895 91.6083 167.419 91.9257 167.022C92.243 166.614 92.6793 166.302 93.2347 166.087C93.8013 165.86 94.453 165.747 95.1897 165.747C95.6203 165.747 96.068 165.781 96.5327 165.849C96.9973 165.917 97.411 166.019 97.7737 166.155V165.407C97.7737 164.659 97.5527 164.064 97.1107 163.622C96.6687 163.18 96.0567 162.959 95.2747 162.959C94.7987 162.959 94.3283 163.05 93.8637 163.231C93.4103 163.401 92.9343 163.656 92.4357 163.996L91.9937 163.18C92.5717 162.783 93.1383 162.489 93.6937 162.296C94.249 162.092 94.8157 161.99 95.3937 161.99C96.4817 161.99 97.343 162.302 97.9777 162.925C98.6123 163.548 98.9297 164.41 98.9297 165.509V169.606C98.9297 169.765 98.9637 169.884 99.0317 169.963C99.0997 170.031 99.2073 170.071 99.3547 170.082V171C99.23 171.011 99.1223 171.023 99.0317 171.034C98.941 171.045 98.873 171.045 98.8277 171.034C98.5443 171.023 98.329 170.932 98.1817 170.762C98.0343 170.592 97.955 170.411 97.9437 170.218L97.9267 169.572C97.53 170.082 97.0143 170.479 96.3797 170.762C95.745 171.034 95.099 171.17 94.4417 171.17C93.875 171.17 93.3593 171.051 92.8947 170.813C92.4413 170.564 92.0843 170.235 91.8237 169.827C91.5743 169.408 91.4497 168.949 91.4497 168.45ZM97.3827 169.13C97.5073 168.971 97.6037 168.818 97.6717 168.671C97.7397 168.524 97.7737 168.393 97.7737 168.28V166.988C97.3883 166.841 96.986 166.727 96.5667 166.648C96.1587 166.569 95.745 166.529 95.3257 166.529C94.4983 166.529 93.8297 166.693 93.3197 167.022C92.8097 167.351 92.5547 167.798 92.5547 168.365C92.5547 168.694 92.6397 169.005 92.8097 169.3C92.9797 169.583 93.229 169.821 93.5577 170.014C93.8863 170.195 94.2717 170.286 94.7137 170.286C95.269 170.286 95.7847 170.178 96.2607 169.963C96.748 169.748 97.122 169.47 97.3827 169.13ZM108.873 171H107.717V166.053C107.717 165.01 107.564 164.251 107.258 163.775C106.952 163.288 106.471 163.044 105.813 163.044C105.36 163.044 104.912 163.157 104.47 163.384C104.028 163.599 103.637 163.9 103.297 164.285C102.969 164.659 102.731 165.09 102.583 165.577V171H101.427V162.143H102.481V164.149C102.719 163.718 103.031 163.344 103.416 163.027C103.802 162.698 104.238 162.443 104.725 162.262C105.213 162.081 105.717 161.99 106.238 161.99C106.726 161.99 107.139 162.081 107.479 162.262C107.819 162.443 108.091 162.704 108.295 163.044C108.499 163.373 108.647 163.775 108.737 164.251C108.828 164.716 108.873 165.237 108.873 165.815V171ZM114.245 171.17C113.52 171.17 112.846 171.051 112.222 170.813C111.599 170.575 111.061 170.212 110.607 169.725L111.083 168.909C111.582 169.374 112.081 169.714 112.579 169.929C113.089 170.133 113.628 170.235 114.194 170.235C114.886 170.235 115.447 170.099 115.877 169.827C116.308 169.544 116.523 169.141 116.523 168.62C116.523 168.269 116.416 168.002 116.2 167.821C115.996 167.628 115.696 167.475 115.299 167.362C114.914 167.237 114.449 167.107 113.905 166.971C113.293 166.801 112.778 166.625 112.358 166.444C111.95 166.251 111.639 166.013 111.423 165.73C111.219 165.435 111.117 165.056 111.117 164.591C111.117 164.013 111.259 163.537 111.542 163.163C111.837 162.778 112.234 162.489 112.732 162.296C113.242 162.092 113.809 161.99 114.432 161.99C115.112 161.99 115.713 162.098 116.234 162.313C116.756 162.528 117.181 162.829 117.509 163.214L116.948 163.996C116.631 163.633 116.251 163.367 115.809 163.197C115.379 163.016 114.897 162.925 114.364 162.925C114.002 162.925 113.656 162.976 113.327 163.078C112.999 163.169 112.727 163.327 112.511 163.554C112.307 163.769 112.205 164.07 112.205 164.455C112.205 164.772 112.285 165.022 112.443 165.203C112.602 165.373 112.84 165.52 113.157 165.645C113.475 165.758 113.866 165.883 114.33 166.019C114.999 166.2 115.583 166.387 116.081 166.58C116.58 166.761 116.965 166.999 117.237 167.294C117.509 167.589 117.645 168.002 117.645 168.535C117.645 169.362 117.334 170.008 116.71 170.473C116.087 170.938 115.265 171.17 114.245 171.17ZM123.804 167.345V162.143H124.96V167.141C124.96 168.15 125.13 168.903 125.47 169.402C125.822 169.901 126.337 170.15 127.017 170.15C127.471 170.15 127.907 170.054 128.326 169.861C128.757 169.657 129.137 169.374 129.465 169.011C129.794 168.637 130.043 168.206 130.213 167.719V162.143H131.369V169.606C131.369 169.765 131.403 169.884 131.471 169.963C131.539 170.031 131.641 170.071 131.777 170.082V171C131.641 171.011 131.534 171.017 131.454 171.017C131.375 171.028 131.301 171.034 131.233 171.034C131.007 171.011 130.808 170.921 130.638 170.762C130.48 170.603 130.395 170.411 130.383 170.184L130.349 168.994C129.964 169.674 129.437 170.207 128.768 170.592C128.111 170.977 127.397 171.17 126.626 171.17C125.697 171.17 124.994 170.847 124.518 170.201C124.042 169.555 123.804 168.603 123.804 167.345ZM141.429 171H140.273V166.053C140.273 165.01 140.12 164.251 139.814 163.775C139.508 163.288 139.026 163.044 138.369 163.044C137.916 163.044 137.468 163.157 137.026 163.384C136.584 163.599 136.193 163.9 135.853 164.285C135.524 164.659 135.286 165.09 135.139 165.577V171H133.983V162.143H135.037V164.149C135.275 163.718 135.587 163.344 135.972 163.027C136.357 162.698 136.794 162.443 137.281 162.262C137.768 162.081 138.273 161.99 138.794 161.99C139.281 161.99 139.695 162.081 140.035 162.262C140.375 162.443 140.647 162.704 140.851 163.044C141.055 163.373 141.202 163.775 141.293 164.251C141.384 164.716 141.429 165.237 141.429 165.815V171ZM147.719 171.17C147.084 171.17 146.495 171.051 145.951 170.813C145.407 170.564 144.937 170.229 144.54 169.81C144.143 169.379 143.832 168.886 143.605 168.331C143.39 167.776 143.282 167.181 143.282 166.546C143.282 165.719 143.469 164.959 143.843 164.268C144.228 163.577 144.755 163.027 145.424 162.619C146.093 162.2 146.852 161.99 147.702 161.99C148.575 161.99 149.334 162.2 149.98 162.619C150.637 163.038 151.153 163.594 151.527 164.285C151.901 164.965 152.088 165.713 152.088 166.529C152.088 166.62 152.088 166.71 152.088 166.801C152.088 166.88 152.082 166.943 152.071 166.988H144.489C144.546 167.623 144.721 168.189 145.016 168.688C145.322 169.175 145.713 169.566 146.189 169.861C146.676 170.144 147.203 170.286 147.77 170.286C148.348 170.286 148.892 170.139 149.402 169.844C149.923 169.549 150.286 169.164 150.49 168.688L151.493 168.96C151.312 169.379 151.034 169.759 150.66 170.099C150.286 170.439 149.844 170.705 149.334 170.898C148.835 171.079 148.297 171.17 147.719 171.17ZM144.455 166.155H151C150.955 165.509 150.779 164.942 150.473 164.455C150.178 163.968 149.787 163.588 149.3 163.316C148.824 163.033 148.297 162.891 147.719 162.891C147.141 162.891 146.614 163.033 146.138 163.316C145.662 163.588 145.271 163.973 144.965 164.472C144.67 164.959 144.5 165.52 144.455 166.155ZM42.61 194.17C41.9187 194.17 41.2783 193.994 40.689 193.643C40.0997 193.28 39.6407 192.827 39.312 192.283V194H38.275V181.59H39.431V186.996C39.8277 186.395 40.3037 185.914 40.859 185.551C41.4143 185.177 42.0603 184.99 42.797 184.99C43.4203 184.99 43.9757 185.12 44.463 185.381C44.9617 185.642 45.3867 185.993 45.738 186.435C46.0893 186.866 46.3557 187.359 46.537 187.914C46.7183 188.458 46.809 189.019 46.809 189.597C46.809 190.22 46.7013 190.804 46.486 191.348C46.282 191.892 45.9873 192.379 45.602 192.81C45.2167 193.229 44.769 193.564 44.259 193.813C43.7603 194.051 43.2107 194.17 42.61 194.17ZM42.338 193.15C42.814 193.15 43.256 193.054 43.664 192.861C44.072 192.668 44.4233 192.402 44.718 192.062C45.0127 191.722 45.2393 191.342 45.398 190.923C45.5567 190.492 45.636 190.05 45.636 189.597C45.636 188.974 45.5 188.39 45.228 187.846C44.9673 187.291 44.599 186.849 44.123 186.52C43.6583 186.18 43.1087 186.01 42.474 186.01C42.0207 186.01 41.5957 186.112 41.199 186.316C40.8137 186.52 40.468 186.792 40.162 187.132C39.8673 187.461 39.6237 187.823 39.431 188.22V190.974C39.4763 191.28 39.5953 191.569 39.788 191.841C39.9807 192.102 40.2187 192.328 40.502 192.521C40.7967 192.714 41.1027 192.867 41.42 192.98C41.7373 193.093 42.0433 193.15 42.338 193.15ZM52.5412 194.17C51.9065 194.17 51.3172 194.051 50.7732 193.813C50.2405 193.564 49.7759 193.229 49.3792 192.81C48.9939 192.379 48.6935 191.892 48.4782 191.348C48.2629 190.793 48.1552 190.209 48.1552 189.597C48.1552 188.962 48.2629 188.373 48.4782 187.829C48.6935 187.274 48.9995 186.786 49.3962 186.367C49.7929 185.936 50.2575 185.602 50.7902 185.364C51.3342 185.115 51.9235 184.99 52.5582 184.99C53.1929 184.99 53.7765 185.115 54.3092 185.364C54.8419 185.602 55.3065 185.936 55.7032 186.367C56.0999 186.786 56.4059 187.274 56.6212 187.829C56.8365 188.373 56.9442 188.962 56.9442 189.597C56.9442 190.209 56.8365 190.793 56.6212 191.348C56.4059 191.892 56.0999 192.379 55.7032 192.81C55.3179 193.229 54.8532 193.564 54.3092 193.813C53.7765 194.051 53.1872 194.17 52.5412 194.17ZM49.3282 189.614C49.3282 190.271 49.4699 190.872 49.7532 191.416C50.0479 191.949 50.4389 192.374 50.9262 192.691C51.4135 192.997 51.9519 193.15 52.5412 193.15C53.1305 193.15 53.6689 192.991 54.1562 192.674C54.6435 192.357 55.0345 191.926 55.3292 191.382C55.6239 190.827 55.7712 190.226 55.7712 189.58C55.7712 188.923 55.6239 188.322 55.3292 187.778C55.0345 187.234 54.6435 186.803 54.1562 186.486C53.6689 186.169 53.1305 186.01 52.5412 186.01C51.9519 186.01 51.4135 186.174 50.9262 186.503C50.4502 186.832 50.0649 187.268 49.7702 187.812C49.4755 188.345 49.3282 188.945 49.3282 189.614ZM58.7925 190.345V185.143H59.9485V190.141C59.9485 191.15 60.1185 191.903 60.4585 192.402C60.8099 192.901 61.3255 193.15 62.0055 193.15C62.4589 193.15 62.8952 193.054 63.3145 192.861C63.7452 192.657 64.1249 192.374 64.4535 192.011C64.7822 191.637 65.0315 191.206 65.2015 190.719V185.143H66.3575V192.606C66.3575 192.765 66.3915 192.884 66.4595 192.963C66.5275 193.031 66.6295 193.071 66.7655 193.082V194C66.6295 194.011 66.5219 194.017 66.4425 194.017C66.3632 194.028 66.2895 194.034 66.2215 194.034C65.9949 194.011 65.7965 193.921 65.6265 193.762C65.4679 193.603 65.3829 193.411 65.3715 193.184L65.3375 191.994C64.9522 192.674 64.4252 193.207 63.7565 193.592C63.0992 193.977 62.3852 194.17 61.6145 194.17C60.6852 194.17 59.9825 193.847 59.5065 193.201C59.0305 192.555 58.7925 191.603 58.7925 190.345ZM69.0223 181.59H70.1783V191.994C70.1783 192.436 70.2576 192.725 70.4163 192.861C70.575 192.997 70.7676 193.065 70.9943 193.065C71.1983 193.065 71.4023 193.042 71.6063 192.997C71.8103 192.952 71.986 192.906 72.1333 192.861L72.3373 193.796C72.122 193.887 71.8556 193.96 71.5383 194.017C71.2323 194.074 70.966 194.102 70.7393 194.102C70.218 194.102 69.7986 193.949 69.4813 193.643C69.1753 193.337 69.0223 192.918 69.0223 192.385V181.59ZM72.8891 191.45C72.8891 190.895 73.0478 190.419 73.3651 190.022C73.6825 189.614 74.1188 189.302 74.6741 189.087C75.2408 188.86 75.8925 188.747 76.6291 188.747C77.0598 188.747 77.5075 188.781 77.9721 188.849C78.4368 188.917 78.8505 189.019 79.2131 189.155V188.407C79.2131 187.659 78.9921 187.064 78.5501 186.622C78.1081 186.18 77.4961 185.959 76.7141 185.959C76.2381 185.959 75.7678 186.05 75.3031 186.231C74.8498 186.401 74.3738 186.656 73.8751 186.996L73.4331 186.18C74.0111 185.783 74.5778 185.489 75.1331 185.296C75.6885 185.092 76.2551 184.99 76.8331 184.99C77.9211 184.99 78.7825 185.302 79.4171 185.925C80.0518 186.548 80.3691 187.41 80.3691 188.509V192.606C80.3691 192.765 80.4031 192.884 80.4711 192.963C80.5391 193.031 80.6468 193.071 80.7941 193.082V194C80.6695 194.011 80.5618 194.023 80.4711 194.034C80.3805 194.045 80.3125 194.045 80.2671 194.034C79.9838 194.023 79.7685 193.932 79.6211 193.762C79.4738 193.592 79.3945 193.411 79.3831 193.218L79.3661 192.572C78.9695 193.082 78.4538 193.479 77.8191 193.762C77.1845 194.034 76.5385 194.17 75.8811 194.17C75.3145 194.17 74.7988 194.051 74.3341 193.813C73.8808 193.564 73.5238 193.235 73.2631 192.827C73.0138 192.408 72.8891 191.949 72.8891 191.45ZM78.8221 192.13C78.9468 191.971 79.0431 191.818 79.1111 191.671C79.1791 191.524 79.2131 191.393 79.2131 191.28V189.988C78.8278 189.841 78.4255 189.727 78.0061 189.648C77.5981 189.569 77.1845 189.529 76.7651 189.529C75.9378 189.529 75.2691 189.693 74.7591 190.022C74.2491 190.351 73.9941 190.798 73.9941 191.365C73.9941 191.694 74.0791 192.005 74.2491 192.3C74.4191 192.583 74.6685 192.821 74.9971 193.014C75.3258 193.195 75.7111 193.286 76.1531 193.286C76.7085 193.286 77.2241 193.178 77.7001 192.963C78.1875 192.748 78.5615 192.47 78.8221 192.13ZM90.3128 194H89.1568V189.053C89.1568 188.01 89.0038 187.251 88.6978 186.775C88.3918 186.288 87.9101 186.044 87.2528 186.044C86.7995 186.044 86.3518 186.157 85.9098 186.384C85.4678 186.599 85.0768 186.9 84.7368 187.285C84.4081 187.659 84.1701 188.09 84.0228 188.577V194H82.8668V185.143H83.9208V187.149C84.1588 186.718 84.4705 186.344 84.8558 186.027C85.2411 185.698 85.6775 185.443 86.1648 185.262C86.6521 185.081 87.1565 184.99 87.6778 184.99C88.1651 184.99 88.5788 185.081 88.9188 185.262C89.2588 185.443 89.5308 185.704 89.7348 186.044C89.9388 186.373 90.0861 186.775 90.1768 187.251C90.2675 187.716 90.3128 188.237 90.3128 188.815V194ZM96.3309 194.119C95.7303 194.119 95.1749 193.994 94.6649 193.745C94.1549 193.496 93.7129 193.161 93.3389 192.742C92.9763 192.311 92.6929 191.824 92.4889 191.28C92.2849 190.736 92.1829 190.175 92.1829 189.597C92.1829 188.974 92.2793 188.39 92.4719 187.846C92.6759 187.291 92.9593 186.798 93.3219 186.367C93.6959 185.936 94.1323 185.602 94.6309 185.364C95.1296 185.115 95.6849 184.99 96.2969 184.99C97.0563 184.99 97.7136 185.183 98.2689 185.568C98.8356 185.953 99.3116 186.429 99.6969 186.996V185.143H100.734V194.034C100.734 194.85 100.536 195.536 100.139 196.091C99.7536 196.658 99.2266 197.083 98.5579 197.366C97.9006 197.649 97.1809 197.791 96.3989 197.791C95.3903 197.791 94.5743 197.61 93.9509 197.247C93.3276 196.884 92.8176 196.397 92.4209 195.785L93.1349 195.224C93.4863 195.779 93.9509 196.193 94.5289 196.465C95.1183 196.737 95.7416 196.873 96.3989 196.873C96.9769 196.873 97.5039 196.765 97.9799 196.55C98.4673 196.346 98.8526 196.034 99.1359 195.615C99.4306 195.196 99.5779 194.669 99.5779 194.034V192.283C99.2379 192.838 98.7733 193.286 98.1839 193.626C97.5946 193.955 96.9769 194.119 96.3309 194.119ZM96.6539 193.15C97.0053 193.15 97.3396 193.088 97.6569 192.963C97.9856 192.838 98.2859 192.674 98.5579 192.47C98.8299 192.255 99.0566 192.017 99.2379 191.756C99.4193 191.495 99.5326 191.229 99.5779 190.957V188.22C99.4079 187.789 99.1643 187.41 98.8469 187.081C98.5296 186.741 98.1669 186.48 97.7589 186.299C97.3623 186.106 96.9486 186.01 96.5179 186.01C96.0193 186.01 95.5716 186.118 95.1749 186.333C94.7896 186.537 94.4609 186.815 94.1889 187.166C93.9283 187.506 93.7243 187.891 93.5769 188.322C93.4296 188.753 93.3559 189.183 93.3559 189.614C93.3559 190.09 93.4409 190.543 93.6109 190.974C93.7809 191.393 94.0133 191.773 94.3079 192.113C94.6139 192.442 94.9653 192.697 95.3619 192.878C95.7699 193.059 96.2006 193.15 96.6539 193.15ZM107.112 194.17C106.477 194.17 105.888 194.051 105.344 193.813C104.8 193.564 104.329 193.229 103.933 192.81C103.536 192.379 103.224 191.886 102.998 191.331C102.782 190.776 102.675 190.181 102.675 189.546C102.675 188.719 102.862 187.959 103.236 187.268C103.621 186.577 104.148 186.027 104.817 185.619C105.485 185.2 106.245 184.99 107.095 184.99C107.967 184.99 108.727 185.2 109.373 185.619C110.03 186.038 110.546 186.594 110.92 187.285C111.294 187.965 111.481 188.713 111.481 189.529C111.481 189.62 111.481 189.71 111.481 189.801C111.481 189.88 111.475 189.943 111.464 189.988H103.882C103.938 190.623 104.114 191.189 104.409 191.688C104.715 192.175 105.106 192.566 105.582 192.861C106.069 193.144 106.596 193.286 107.163 193.286C107.741 193.286 108.285 193.139 108.795 192.844C109.316 192.549 109.679 192.164 109.883 191.688L110.886 191.96C110.704 192.379 110.427 192.759 110.053 193.099C109.679 193.439 109.237 193.705 108.727 193.898C108.228 194.079 107.69 194.17 107.112 194.17ZM103.848 189.155H110.393C110.347 188.509 110.172 187.942 109.866 187.455C109.571 186.968 109.18 186.588 108.693 186.316C108.217 186.033 107.69 185.891 107.112 185.891C106.534 185.891 106.007 186.033 105.531 186.316C105.055 186.588 104.664 186.973 104.358 187.472C104.063 187.959 103.893 188.52 103.848 189.155ZM117.684 186.163C116.914 186.186 116.234 186.401 115.644 186.809C115.066 187.217 114.658 187.778 114.42 188.492V194H113.264V185.143H114.352V187.268C114.658 186.645 115.061 186.14 115.559 185.755C116.069 185.37 116.608 185.154 117.174 185.109C117.288 185.098 117.384 185.092 117.463 185.092C117.554 185.092 117.628 185.098 117.684 185.109V186.163ZM119.224 194V185.143H120.38V194H119.224ZM119.224 183.29V181.59H120.38V183.29H119.224ZM126.751 194.17C126.117 194.17 125.527 194.051 124.983 193.813C124.439 193.564 123.969 193.229 123.572 192.81C123.176 192.379 122.864 191.886 122.637 191.331C122.422 190.776 122.314 190.181 122.314 189.546C122.314 188.719 122.501 187.959 122.875 187.268C123.261 186.577 123.788 186.027 124.456 185.619C125.125 185.2 125.884 184.99 126.734 184.99C127.607 184.99 128.366 185.2 129.012 185.619C129.67 186.038 130.185 186.594 130.559 187.285C130.933 187.965 131.12 188.713 131.12 189.529C131.12 189.62 131.12 189.71 131.12 189.801C131.12 189.88 131.115 189.943 131.103 189.988H123.521C123.578 190.623 123.754 191.189 124.048 191.688C124.354 192.175 124.745 192.566 125.221 192.861C125.709 193.144 126.236 193.286 126.802 193.286C127.38 193.286 127.924 193.139 128.434 192.844C128.956 192.549 129.318 192.164 129.522 191.688L130.525 191.96C130.344 192.379 130.066 192.759 129.692 193.099C129.318 193.439 128.876 193.705 128.366 193.898C127.868 194.079 127.329 194.17 126.751 194.17ZM123.487 189.155H130.032C129.987 188.509 129.811 187.942 129.505 187.455C129.211 186.968 128.82 186.588 128.332 186.316C127.856 186.033 127.329 185.891 126.751 185.891C126.173 185.891 125.646 186.033 125.17 186.316C124.694 186.588 124.303 186.973 123.997 187.472C123.703 187.959 123.533 188.52 123.487 189.155ZM42.797 217.17C42.0603 217.17 41.3973 216.977 40.808 216.592C40.23 216.207 39.771 215.731 39.431 215.164V220.621H38.275V208.143H39.312V209.86C39.6633 209.305 40.1337 208.857 40.723 208.517C41.3123 208.166 41.9413 207.99 42.61 207.99C43.222 207.99 43.783 208.12 44.293 208.381C44.803 208.63 45.245 208.97 45.619 209.401C45.993 209.832 46.282 210.325 46.486 210.88C46.7013 211.424 46.809 211.991 46.809 212.58C46.809 213.407 46.639 214.172 46.299 214.875C45.9703 215.566 45.5057 216.122 44.905 216.541C44.3043 216.96 43.6017 217.17 42.797 217.17ZM42.474 216.15C42.9613 216.15 43.3977 216.054 43.783 215.861C44.1683 215.657 44.497 215.385 44.769 215.045C45.0523 214.705 45.2677 214.325 45.415 213.906C45.5623 213.475 45.636 213.033 45.636 212.58C45.636 212.104 45.551 211.651 45.381 211.22C45.2223 210.789 44.99 210.41 44.684 210.081C44.378 209.752 44.0267 209.492 43.63 209.299C43.2333 209.106 42.8027 209.01 42.338 209.01C42.0433 209.01 41.7373 209.067 41.42 209.18C41.1027 209.293 40.7967 209.458 40.502 209.673C40.2187 209.877 39.9807 210.109 39.788 210.37C39.5953 210.631 39.4763 210.908 39.431 211.203V213.923C39.6123 214.342 39.856 214.722 40.162 215.062C40.468 215.391 40.8193 215.657 41.216 215.861C41.624 216.054 42.0433 216.15 42.474 216.15ZM48.0532 214.45C48.0532 213.895 48.2119 213.419 48.5292 213.022C48.8465 212.614 49.2829 212.302 49.8382 212.087C50.4049 211.86 51.0565 211.747 51.7932 211.747C52.2239 211.747 52.6715 211.781 53.1362 211.849C53.6009 211.917 54.0145 212.019 54.3772 212.155V211.407C54.3772 210.659 54.1562 210.064 53.7142 209.622C53.2722 209.18 52.6602 208.959 51.8782 208.959C51.4022 208.959 50.9319 209.05 50.4672 209.231C50.0139 209.401 49.5379 209.656 49.0392 209.996L48.5972 209.18C49.1752 208.783 49.7419 208.489 50.2972 208.296C50.8525 208.092 51.4192 207.99 51.9972 207.99C53.0852 207.99 53.9465 208.302 54.5812 208.925C55.2159 209.548 55.5332 210.41 55.5332 211.509V215.606C55.5332 215.765 55.5672 215.884 55.6352 215.963C55.7032 216.031 55.8109 216.071 55.9582 216.082V217C55.8335 217.011 55.7259 217.023 55.6352 217.034C55.5445 217.045 55.4765 217.045 55.4312 217.034C55.1479 217.023 54.9325 216.932 54.7852 216.762C54.6379 216.592 54.5585 216.411 54.5472 216.218L54.5302 215.572C54.1335 216.082 53.6179 216.479 52.9832 216.762C52.3485 217.034 51.7025 217.17 51.0452 217.17C50.4785 217.17 49.9629 217.051 49.4982 216.813C49.0449 216.564 48.6879 216.235 48.4272 215.827C48.1779 215.408 48.0532 214.949 48.0532 214.45ZM53.9862 215.13C54.1109 214.971 54.2072 214.818 54.2752 214.671C54.3432 214.524 54.3772 214.393 54.3772 214.28V212.988C53.9919 212.841 53.5895 212.727 53.1702 212.648C52.7622 212.569 52.3485 212.529 51.9292 212.529C51.1019 212.529 50.4332 212.693 49.9232 213.022C49.4132 213.351 49.1582 213.798 49.1582 214.365C49.1582 214.694 49.2432 215.005 49.4132 215.3C49.5832 215.583 49.8325 215.821 50.1612 216.014C50.4899 216.195 50.8752 216.286 51.3172 216.286C51.8725 216.286 52.3882 216.178 52.8642 215.963C53.3515 215.748 53.7255 215.47 53.9862 215.13ZM62.4509 209.163C61.6802 209.186 61.0002 209.401 60.4109 209.809C59.8329 210.217 59.4249 210.778 59.1869 211.492V217H58.0309V208.143H59.1189V210.268C59.4249 209.645 59.8272 209.14 60.3259 208.755C60.8359 208.37 61.3742 208.154 61.9409 208.109C62.0542 208.098 62.1505 208.092 62.2299 208.092C62.3205 208.092 62.3942 208.098 62.4509 208.109V209.163ZM68.2408 216.575C68.1502 216.609 68.0085 216.671 67.8158 216.762C67.6232 216.853 67.3908 216.932 67.1188 217C66.8468 217.068 66.5522 217.102 66.2348 217.102C65.9062 217.102 65.5945 217.04 65.2998 216.915C65.0165 216.79 64.7898 216.603 64.6198 216.354C64.4498 216.093 64.3648 215.776 64.3648 215.402V209.061H63.1408V208.143H64.3648V205.151H65.5208V208.143H67.5608V209.061H65.5208V215.079C65.5435 215.396 65.6568 215.634 65.8608 215.793C66.0762 215.952 66.3198 216.031 66.5918 216.031C66.9092 216.031 67.1982 215.98 67.4588 215.878C67.7195 215.765 67.8782 215.685 67.9348 215.64L68.2408 216.575ZM73.3607 217.17C72.7261 217.17 72.1367 217.051 71.5927 216.813C71.0487 216.564 70.5784 216.229 70.1817 215.81C69.7851 215.379 69.4734 214.886 69.2467 214.331C69.0314 213.776 68.9237 213.181 68.9237 212.546C68.9237 211.719 69.1107 210.959 69.4847 210.268C69.8701 209.577 70.3971 209.027 71.0657 208.619C71.7344 208.2 72.4937 207.99 73.3437 207.99C74.2164 207.99 74.9757 208.2 75.6217 208.619C76.2791 209.038 76.7947 209.594 77.1687 210.285C77.5427 210.965 77.7297 211.713 77.7297 212.529C77.7297 212.62 77.7297 212.71 77.7297 212.801C77.7297 212.88 77.7241 212.943 77.7127 212.988H70.1307C70.1874 213.623 70.3631 214.189 70.6577 214.688C70.9637 215.175 71.3547 215.566 71.8307 215.861C72.3181 216.144 72.8451 216.286 73.4117 216.286C73.9897 216.286 74.5337 216.139 75.0437 215.844C75.5651 215.549 75.9277 215.164 76.1317 214.688L77.1347 214.96C76.9534 215.379 76.6757 215.759 76.3017 216.099C75.9277 216.439 75.4857 216.705 74.9757 216.898C74.4771 217.079 73.9387 217.17 73.3607 217.17ZM70.0967 212.155H76.6417C76.5964 211.509 76.4207 210.942 76.1147 210.455C75.8201 209.968 75.4291 209.588 74.9417 209.316C74.4657 209.033 73.9387 208.891 73.3607 208.891C72.7827 208.891 72.2557 209.033 71.7797 209.316C71.3037 209.588 70.9127 209.973 70.6067 210.472C70.3121 210.959 70.1421 211.52 70.0967 212.155ZM86.9593 217H85.8033V212.053C85.8033 211.01 85.6503 210.251 85.3443 209.775C85.0383 209.288 84.5566 209.044 83.8993 209.044C83.4459 209.044 82.9983 209.157 82.5563 209.384C82.1143 209.599 81.7233 209.9 81.3833 210.285C81.0546 210.659 80.8166 211.09 80.6693 211.577V217H79.5133V208.143H80.5673V210.149C80.8053 209.718 81.1169 209.344 81.5023 209.027C81.8876 208.698 82.3239 208.443 82.8113 208.262C83.2986 208.081 83.8029 207.99 84.3243 207.99C84.8116 207.99 85.2253 208.081 85.5653 208.262C85.9053 208.443 86.1773 208.704 86.3813 209.044C86.5853 209.373 86.7326 209.775 86.8233 210.251C86.9139 210.716 86.9593 211.237 86.9593 211.815V217ZM88.7104 214.45C88.7104 213.895 88.8691 213.419 89.1864 213.022C89.5037 212.614 89.9401 212.302 90.4954 212.087C91.0621 211.86 91.7137 211.747 92.4504 211.747C92.8811 211.747 93.3287 211.781 93.7934 211.849C94.2581 211.917 94.6717 212.019 95.0344 212.155V211.407C95.0344 210.659 94.8134 210.064 94.3714 209.622C93.9294 209.18 93.3174 208.959 92.5354 208.959C92.0594 208.959 91.5891 209.05 91.1244 209.231C90.6711 209.401 90.1951 209.656 89.6964 209.996L89.2544 209.18C89.8324 208.783 90.3991 208.489 90.9544 208.296C91.5097 208.092 92.0764 207.99 92.6544 207.99C93.7424 207.99 94.6037 208.302 95.2384 208.925C95.8731 209.548 96.1904 210.41 96.1904 211.509V215.606C96.1904 215.765 96.2244 215.884 96.2924 215.963C96.3604 216.031 96.4681 216.071 96.6154 216.082V217C96.4907 217.011 96.3831 217.023 96.2924 217.034C96.2017 217.045 96.1337 217.045 96.0884 217.034C95.8051 217.023 95.5897 216.932 95.4424 216.762C95.2951 216.592 95.2157 216.411 95.2044 216.218L95.1874 215.572C94.7907 216.082 94.2751 216.479 93.6404 216.762C93.0057 217.034 92.3597 217.17 91.7024 217.17C91.1357 217.17 90.6201 217.051 90.1554 216.813C89.7021 216.564 89.3451 216.235 89.0844 215.827C88.8351 215.408 88.7104 214.949 88.7104 214.45ZM94.6434 215.13C94.7681 214.971 94.8644 214.818 94.9324 214.671C95.0004 214.524 95.0344 214.393 95.0344 214.28V212.988C94.6491 212.841 94.2467 212.727 93.8274 212.648C93.4194 212.569 93.0057 212.529 92.5864 212.529C91.7591 212.529 91.0904 212.693 90.5804 213.022C90.0704 213.351 89.8154 213.798 89.8154 214.365C89.8154 214.694 89.9004 215.005 90.0704 215.3C90.2404 215.583 90.4897 215.821 90.8184 216.014C91.1471 216.195 91.5324 216.286 91.9744 216.286C92.5297 216.286 93.0454 216.178 93.5214 215.963C94.0087 215.748 94.3827 215.47 94.6434 215.13ZM98.6881 217V208.143H99.8441V217H98.6881ZM98.6881 206.29V204.59H99.8441V206.29H98.6881ZM106.81 209.163C106.04 209.186 105.36 209.401 104.77 209.809C104.192 210.217 103.784 210.778 103.546 211.492V217H102.39V208.143H103.478V210.268C103.784 209.645 104.187 209.14 104.685 208.755C105.195 208.37 105.734 208.154 106.3 208.109C106.414 208.098 106.51 208.092 106.589 208.092C106.68 208.092 106.754 208.098 106.81 208.109V209.163ZM111.893 217.17C111.258 217.17 110.669 217.051 110.125 216.813C109.581 216.564 109.111 216.229 108.714 215.81C108.317 215.379 108.006 214.886 107.779 214.331C107.564 213.776 107.456 213.181 107.456 212.546C107.456 211.719 107.643 210.959 108.017 210.268C108.402 209.577 108.929 209.027 109.598 208.619C110.267 208.2 111.026 207.99 111.876 207.99C112.749 207.99 113.508 208.2 114.154 208.619C114.811 209.038 115.327 209.594 115.701 210.285C116.075 210.965 116.262 211.713 116.262 212.529C116.262 212.62 116.262 212.71 116.262 212.801C116.262 212.88 116.256 212.943 116.245 212.988H108.663C108.72 213.623 108.895 214.189 109.19 214.688C109.496 215.175 109.887 215.566 110.363 215.861C110.85 216.144 111.377 216.286 111.944 216.286C112.522 216.286 113.066 216.139 113.576 215.844C114.097 215.549 114.46 215.164 114.664 214.688L115.667 214.96C115.486 215.379 115.208 215.759 114.834 216.099C114.46 216.439 114.018 216.705 113.508 216.898C113.009 217.079 112.471 217.17 111.893 217.17ZM108.629 212.155H115.174C115.129 211.509 114.953 210.942 114.647 210.455C114.352 209.968 113.961 209.588 113.474 209.316C112.998 209.033 112.471 208.891 111.893 208.891C111.315 208.891 110.788 209.033 110.312 209.316C109.836 209.588 109.445 209.973 109.139 210.472C108.844 210.959 108.674 211.52 108.629 212.155Z" fill="black"/>
<path d="M128.984 133.729C128.172 133.666 127.516 133.698 127.016 133.823C126.578 133.948 126.297 133.729 126.172 133.166C125.734 133.541 125.453 133.698 125.328 133.635C125.266 133.573 125.141 133.573 124.953 133.635C124.953 133.198 124.641 133.073 124.016 133.26C123.453 133.448 123.047 133.385 122.797 133.073C122.609 133.198 122.484 133.323 122.422 133.448C122.359 133.635 122.203 133.76 121.953 133.823C121.453 133.76 121.047 133.729 120.734 133.729C120.422 133.729 120.078 133.635 119.703 133.448C119.453 133.323 119.109 133.198 118.672 133.073C118.234 132.948 117.828 132.823 117.453 132.698C117.078 132.885 116.766 132.916 116.516 132.791C116.266 132.604 116.141 132.635 116.141 132.885C115.391 132.823 114.797 132.823 114.359 132.885C113.984 132.948 113.641 133.073 113.328 133.26C112.328 133.01 111.641 132.823 111.266 132.698C110.891 132.573 110.453 132.666 109.953 132.979C109.766 132.729 109.422 132.635 108.922 132.698C108.422 132.698 108.016 132.76 107.703 132.885C107.578 132.698 107.359 132.604 107.047 132.604C106.734 132.604 106.422 132.635 106.109 132.698C106.172 132.948 106.078 133.104 105.828 133.166C105.578 133.166 105.297 133.166 104.984 133.166C104.672 133.166 104.328 133.166 103.953 133.166C103.641 133.104 103.391 133.135 103.203 133.26C102.391 133.073 101.797 133.01 101.422 133.073C101.047 133.073 100.641 133.135 100.203 133.26C99.7656 133.323 99.3281 133.416 98.8906 133.541C98.5156 133.666 98.1406 133.729 97.7656 133.729C97.2656 133.541 96.8281 133.479 96.4531 133.541C96.1406 133.666 95.8281 133.666 95.5156 133.541C95.2031 133.854 94.6719 134.104 93.9219 134.291C93.2344 134.479 92.5781 134.604 91.9531 134.666C91.4531 134.729 90.9844 134.666 90.5469 134.479C90.1094 134.291 89.8906 133.885 89.8906 133.26C91.7031 132.76 93.4531 132.291 95.1406 131.854C96.8281 131.354 98.2656 130.604 99.4531 129.604C98.9531 129.166 98.8594 128.854 99.1719 128.666C99.4844 128.479 99.7969 128.479 100.109 128.666C100.047 128.166 100.297 127.729 100.859 127.354C101.234 127.479 101.578 127.354 101.891 126.979C101.703 126.729 101.672 126.416 101.797 126.041C101.984 125.666 102.109 125.323 102.172 125.01C102.297 124.698 102.297 124.416 102.172 124.166C102.109 123.916 101.797 123.76 101.234 123.698C101.297 123.51 101.266 123.354 101.141 123.229C101.078 123.104 101.047 122.916 101.047 122.666C101.672 122.104 102.047 121.51 102.172 120.885C102.359 120.198 102.422 119.51 102.359 118.823C101.922 118.573 101.672 118.291 101.609 117.979C101.609 117.604 101.672 117.26 101.797 116.948C101.984 116.573 102.172 116.198 102.359 115.823C102.547 115.448 102.609 115.073 102.547 114.698L101.516 115.541C101.328 115.416 101.172 115.479 101.047 115.729C100.984 115.916 100.766 116.01 100.391 116.01C100.516 115.323 100.703 114.948 100.953 114.885C101.203 114.823 101.328 114.635 101.328 114.323C101.578 113.885 101.734 113.604 101.797 113.479C101.922 113.291 101.891 113.135 101.703 113.01C102.328 112.198 102.672 111.416 102.734 110.666C102.859 109.854 102.672 109.198 102.172 108.698C102.109 108.26 102.141 108.041 102.266 108.041C102.391 107.979 102.516 107.885 102.641 107.76C102.641 107.01 102.766 106.135 103.016 105.135C103.266 104.073 103.141 103.104 102.641 102.229C102.641 101.541 102.359 101.198 101.797 101.198C102.047 100.573 102.078 100.26 101.891 100.26C101.766 100.26 101.734 100.198 101.797 100.073C102.734 98.8225 103.047 97.51 102.734 96.135C102.672 95.9475 102.578 95.76 102.453 95.5725C102.391 95.385 102.328 95.1975 102.266 95.01C102.266 94.76 102.297 94.4788 102.359 94.1663C102.484 93.8538 102.578 93.5413 102.641 93.2288C102.703 92.9163 102.703 92.635 102.641 92.385C102.641 92.135 102.453 91.9163 102.078 91.7288C102.141 91.4163 102.078 91.1038 101.891 90.7913C101.703 90.4788 101.828 90.26 102.266 90.135C102.391 88.51 102.453 86.9163 102.453 85.3538C102.453 83.7288 102.422 82.1975 102.359 80.76C102.047 81.01 101.703 81.26 101.328 81.51C100.953 81.6975 100.609 81.9788 100.297 82.3538C99.7969 82.6038 99.5469 82.635 99.5469 82.4475C99.5469 82.1975 99.4844 82.01 99.3594 81.885C99.3594 81.1975 99.5469 80.8225 99.9219 80.76C100.359 80.6975 100.734 80.5413 101.047 80.2913C101.297 79.8538 101.547 79.4475 101.797 79.0725C102.047 78.635 102.078 78.1975 101.891 77.76C101.391 77.885 101.016 78.1038 100.766 78.4163C100.578 78.6663 100.266 78.8538 99.8281 78.9788C99.8281 78.2913 99.7656 77.9788 99.6406 78.0413C99.5156 78.1038 99.4219 78.0725 99.3594 77.9475C99.7969 77.3225 100.234 76.9788 100.672 76.9163C100.609 76.4163 100.703 76.135 100.953 76.0725C101.266 76.01 101.484 75.885 101.609 75.6975C101.422 74.885 101.203 74.4475 100.953 74.385C100.703 74.3225 100.516 74.135 100.391 73.8225C100.828 73.3225 101.016 72.8225 100.953 72.3225C100.953 71.8225 100.797 71.385 100.484 71.01C100.172 70.5725 99.7656 70.26 99.2656 70.0725C98.7656 69.885 98.2344 69.8225 97.6719 69.885C96.6094 69.635 95.6406 69.6038 94.7656 69.7913C93.8906 69.9163 93.0156 70.0725 92.1406 70.26C92.0156 70.135 91.8594 70.01 91.6719 69.885C91.4844 69.76 91.2656 69.7913 91.0156 69.9788C90.8906 69.6663 90.7656 69.385 90.6406 69.135C90.5781 68.885 90.6094 68.5725 90.7344 68.1975C91.4219 67.76 92.1094 67.4788 92.7969 67.3538C93.5469 67.1663 94.4219 67.2288 95.4219 67.5413C96.4219 67.2288 97.4844 67.135 98.6094 67.26C99.7969 67.385 100.953 67.1975 102.078 66.6975C105.016 66.4475 107.797 65.8225 110.422 64.8225C111.859 64.635 112.891 64.1975 113.516 63.51C114.203 62.76 114.797 61.9475 115.297 61.0725C116.547 61.135 117.172 61.4788 117.172 62.1038C117.172 62.7288 117.016 63.3538 116.703 63.9788C116.828 64.3538 116.859 64.635 116.797 64.8225C116.734 65.01 116.797 65.26 116.984 65.5725C117.422 65.6975 117.828 65.635 118.203 65.385C118.641 65.135 118.891 64.8538 118.953 64.5413C119.516 64.4788 119.766 64.385 119.703 64.26C119.641 64.0725 119.766 63.9788 120.078 63.9788C120.078 64.9163 119.922 65.51 119.609 65.76C119.297 66.01 118.953 66.26 118.578 66.51C118.141 65.9475 117.797 65.76 117.547 65.9475C117.359 66.0725 117.172 66.2288 116.984 66.4163C117.359 66.2288 117.609 66.1975 117.734 66.3225C117.859 66.4475 118.047 66.4788 118.297 66.4163C117.547 66.9163 117.078 67.4475 116.891 68.01C117.016 68.6975 116.984 69.3225 116.797 69.885C116.672 70.4475 116.703 71.135 116.891 71.9475C117.078 72.635 117.141 73.1975 117.078 73.635C117.016 74.01 117.047 74.4475 117.172 74.9475C116.859 75.135 116.734 75.385 116.797 75.6975C116.859 75.9475 116.984 76.135 117.172 76.26C117.047 76.5725 116.984 76.8538 116.984 77.1038C117.047 77.2913 116.922 77.51 116.609 77.76C117.109 78.26 117.328 78.6663 117.266 78.9788C117.203 79.2913 117.234 79.5413 117.359 79.7288C117.172 80.4788 117.172 80.8538 117.359 80.8538C117.609 80.7913 117.797 80.8225 117.922 80.9475C117.359 81.9475 117.078 82.6663 117.078 83.1038C117.078 83.5413 117.109 84.0413 117.172 84.6038C116.984 85.1038 116.953 85.385 117.078 85.4475C117.266 85.51 117.391 85.6038 117.453 85.7288C117.453 86.3538 117.484 86.6663 117.547 86.6663C117.609 86.6663 117.609 86.7288 117.547 86.8538C117.359 86.8538 117.172 86.9475 116.984 87.135C116.859 87.26 116.703 87.1975 116.516 86.9475C116.516 87.26 116.609 87.4475 116.797 87.51C116.984 87.5725 117.078 87.7288 117.078 87.9788C116.391 88.1038 116.109 88.3538 116.234 88.7288C116.734 89.6038 116.953 90.2288 116.891 90.6038C116.891 90.9163 116.922 91.2913 116.984 91.7288C116.797 92.6038 116.734 93.26 116.797 93.6975C116.859 94.135 116.828 94.5413 116.703 94.9163C117.266 94.6038 117.672 94.4788 117.922 94.5413C118.172 94.5413 118.391 94.6038 118.578 94.7288C118.391 95.2913 118.109 95.7913 117.734 96.2288C117.359 96.6663 117.016 97.1975 116.703 97.8225C116.828 98.0725 116.859 98.4163 116.797 98.8538C116.797 99.2288 116.672 99.5413 116.422 99.7913C116.609 100.166 116.703 100.635 116.703 101.198C116.766 101.698 116.641 102.104 116.328 102.416C116.641 102.541 116.828 102.791 116.891 103.166C117.016 103.479 117.266 103.698 117.641 103.823C117.016 104.198 116.734 104.604 116.797 105.041C116.922 105.479 117.047 105.854 117.172 106.166C116.547 107.604 116.359 108.76 116.609 109.635C116.547 109.885 116.422 110.041 116.234 110.104C116.109 110.166 116.016 110.323 115.953 110.573C116.516 110.573 116.703 110.76 116.516 111.135C116.328 111.448 116.203 111.635 116.141 111.698C116.453 112.385 116.484 113.073 116.234 113.76C116.047 114.448 116.078 115.041 116.328 115.541C116.203 116.104 116.234 116.729 116.422 117.416C116.609 118.104 116.578 118.791 116.328 119.479C116.453 120.166 116.516 120.698 116.516 121.073C116.578 121.385 116.547 121.698 116.422 122.01C117.109 122.448 117.453 122.76 117.453 122.948C117.516 123.135 117.484 123.354 117.359 123.604C117.297 123.791 117.172 124.01 116.984 124.26C116.797 124.51 116.703 124.729 116.703 124.916C116.641 125.479 116.734 125.979 116.984 126.416C117.234 126.854 117.328 127.385 117.266 128.01C117.641 128.385 117.922 128.698 118.109 128.948C118.859 128.948 119.266 129.041 119.328 129.229C119.391 129.416 119.516 129.541 119.703 129.604C119.328 130.291 119.234 130.698 119.422 130.823C119.672 130.948 119.891 131.073 120.078 131.198C120.766 130.948 120.984 130.791 120.734 130.729C120.547 130.604 120.516 130.448 120.641 130.26C121.016 130.26 121.172 130.479 121.109 130.916C121.109 131.291 121.234 131.541 121.484 131.666C122.609 131.666 123.766 131.698 124.953 131.76C126.203 131.76 127.234 131.51 128.047 131.01C128.422 131.135 128.641 131.354 128.703 131.666C128.828 131.916 128.859 132.198 128.797 132.51C128.734 132.823 128.703 133.104 128.703 133.354C128.703 133.604 128.797 133.729 128.984 133.729ZM121.484 130.635C121.359 130.448 121.234 130.291 121.109 130.166C120.984 129.979 120.766 129.854 120.453 129.791C120.703 129.416 120.859 129.291 120.922 129.416C121.047 129.479 121.141 129.573 121.203 129.698C121.328 129.76 121.422 129.885 121.484 130.073C121.547 130.198 121.547 130.385 121.484 130.635ZM104.891 68.9475C104.391 68.8225 103.922 68.8538 103.484 69.0413C103.047 69.2288 102.516 69.26 101.891 69.135C102.141 69.4475 102.234 69.8225 102.172 70.26C102.109 70.635 102.234 71.01 102.547 71.385C102.859 71.26 103.078 71.1038 103.203 70.9163C103.391 70.6663 103.547 70.4163 103.672 70.1663C104.359 70.1038 104.766 69.6975 104.891 68.9475ZM116.422 78.6975C115.859 78.1975 115.578 77.5725 115.578 76.8225C115.578 76.0725 115.578 75.3538 115.578 74.6663C115.328 74.1663 115.391 73.6038 115.766 72.9788C115.453 72.9163 115.297 72.6038 115.297 72.0413C115.234 71.2913 115.234 70.76 115.297 70.4475C115.359 70.135 115.328 69.7913 115.203 69.4163C114.891 69.5413 114.609 69.6975 114.359 69.885C114.109 70.01 113.797 70.0413 113.422 69.9788C113.547 70.5413 113.328 70.9475 112.766 71.1975C112.203 71.4475 111.703 71.5413 111.266 71.4788C111.391 71.1663 111.641 71.01 112.016 71.01C112.453 71.01 112.734 70.8538 112.859 70.5413C112.359 70.1663 111.984 69.9788 111.734 69.9788C111.484 69.9788 111.172 70.135 110.797 70.4475C110.859 70.135 110.891 69.9163 110.891 69.7913C110.891 69.6038 111.047 69.4788 111.359 69.4163C111.922 69.5413 112.297 69.5413 112.484 69.4163C112.734 69.2913 112.859 69.3538 112.859 69.6038C113.297 69.4163 113.609 69.2913 113.797 69.2288C114.047 69.1038 114.234 69.01 114.359 68.9475C114.734 68.6975 115.016 68.26 115.203 67.635C114.891 67.76 114.609 67.885 114.359 68.01C114.109 68.135 113.828 68.2913 113.516 68.4788C113.266 68.6038 113.172 68.5725 113.234 68.385C113.359 68.1975 113.484 68.01 113.609 67.8225C113.734 67.635 113.859 67.51 113.984 67.4475C114.172 67.3225 114.359 67.3538 114.547 67.5413C114.609 66.7913 114.766 66.2913 115.016 66.0413C115.266 65.7913 115.328 65.51 115.203 65.1975C114.391 65.9475 113.484 66.4475 112.484 66.6975C112.234 67.135 111.953 67.4475 111.641 67.635C111.328 67.76 111.016 67.76 110.703 67.635C110.578 68.0725 110.297 68.3538 109.859 68.4788C109.484 68.5413 109.141 68.6975 108.828 68.9475C108.578 69.01 108.422 69.1663 108.359 69.4163C108.297 69.6038 108.109 69.6663 107.797 69.6038C107.797 69.9788 107.609 70.2288 107.234 70.3538C106.922 70.4788 106.672 70.51 106.484 70.4475C106.109 70.8225 105.828 71.1975 105.641 71.5725C105.516 71.9475 105.266 72.1663 104.891 72.2288C104.641 72.9163 104.109 73.4788 103.297 73.9163C103.484 74.2288 103.547 74.4163 103.484 74.4788C103.484 74.5413 103.422 74.7288 103.297 75.0413C103.797 74.6663 104.234 74.4475 104.609 74.385C104.984 74.26 105.297 74.1663 105.547 74.1038C105.859 73.7288 106.141 73.3538 106.391 72.9788C106.641 72.6038 107.109 72.4475 107.797 72.51C107.734 71.885 107.828 71.6663 108.078 71.8538C108.391 71.9788 108.609 71.885 108.734 71.5725C108.922 71.01 109.109 70.76 109.297 70.8225C109.547 70.8225 109.703 70.885 109.766 71.01C109.578 71.385 109.203 71.8225 108.641 72.3225C108.141 72.76 107.547 73.2288 106.859 73.7288C106.297 73.9788 105.922 74.1975 105.734 74.385C105.547 74.51 105.359 74.7288 105.172 75.0413C104.672 75.0413 104.297 75.3225 104.047 75.885C103.797 76.385 103.547 76.8538 103.297 77.2913C103.609 77.4788 103.891 77.4475 104.141 77.1975C104.453 76.9475 104.703 76.9475 104.891 77.1975C105.391 76.76 105.672 76.385 105.734 76.0725C105.859 76.26 106.078 76.385 106.391 76.4475C106.703 76.4475 106.922 76.4163 107.047 76.3538C107.109 76.0413 107.047 75.8538 106.859 75.7913C106.734 75.7288 106.641 75.6038 106.578 75.4163C106.828 75.6663 107.141 75.7288 107.516 75.6038C107.891 75.4163 108.141 75.5413 108.266 75.9788C108.391 75.8538 108.453 75.6663 108.453 75.4163C108.516 75.1663 108.578 74.9475 108.641 74.76C108.578 74.26 108.578 73.9475 108.641 73.8225C108.703 73.6975 108.766 73.5725 108.828 73.4475C109.578 73.885 109.984 74.1663 110.047 74.2913C110.109 74.3538 110.297 74.3225 110.609 74.1975C111.047 73.9475 111.328 73.76 111.453 73.635C111.641 73.51 111.891 73.385 112.203 73.26C112.578 73.3225 112.734 73.4788 112.672 73.7288C112.609 73.9788 112.734 74.1663 113.047 74.2913C112.047 74.2913 111.422 74.2288 111.172 74.1038C111.234 74.4163 111.141 74.6038 110.891 74.6663C110.703 74.6663 110.484 74.6663 110.234 74.6663C109.859 75.3538 109.172 75.9163 108.172 76.3538C107.234 76.7913 106.578 77.3225 106.203 77.9475C105.016 78.635 104.203 79.51 103.766 80.5725C103.516 81.0725 103.484 81.3538 103.672 81.4163C103.922 81.4163 104.047 81.51 104.047 81.6975C104.109 82.01 104.172 82.4163 104.234 82.9163C104.297 83.3538 104.172 83.635 103.859 83.76C104.172 83.885 104.266 84.1663 104.141 84.6038C104.016 85.0413 103.922 85.385 103.859 85.635C104.297 85.26 104.703 84.9788 105.078 84.7913C105.453 84.6038 105.891 84.4475 106.391 84.3225C106.078 83.885 105.797 83.635 105.547 83.5725C106.047 83.26 106.422 83.01 106.672 82.8225C106.984 82.635 107.422 82.635 107.984 82.8225C107.672 82.4475 107.391 82.3225 107.141 82.4475C106.953 82.51 106.797 82.385 106.672 82.0725C106.859 82.01 106.953 81.8538 106.953 81.6038C106.953 81.3538 106.891 81.1663 106.766 81.0413C107.078 80.9163 107.297 80.885 107.422 80.9475C107.547 81.01 107.703 81.01 107.891 80.9475C108.328 81.4475 108.578 81.7288 108.641 81.7913C108.703 81.8538 108.734 81.9475 108.734 82.0725C108.859 81.9475 109.016 81.8225 109.203 81.6975C109.391 81.51 109.609 81.4788 109.859 81.6038C110.047 81.4163 110.203 81.26 110.328 81.135C110.453 80.9475 110.609 80.7913 110.797 80.6663C111.172 80.8538 111.391 80.885 111.453 80.76C111.516 80.635 111.641 80.6038 111.828 80.6663C112.203 79.9788 112.484 79.6975 112.672 79.8225C112.922 79.9475 113.203 79.9163 113.516 79.7288C113.891 79.5413 114.047 79.385 113.984 79.26C113.922 79.0725 114.047 78.9788 114.359 78.9788C114.672 79.1663 114.734 79.4475 114.547 79.8225C114.422 80.1975 114.297 80.4475 114.172 80.5725C113.734 80.8225 113.422 80.9163 113.234 80.8538C113.047 80.7288 112.984 80.7913 113.047 81.0413C112.672 81.7288 112.359 82.135 112.109 82.26C111.922 82.3225 111.672 82.3538 111.359 82.3538C111.109 82.3538 110.828 82.3538 110.516 82.3538C110.266 82.3538 110.078 82.4475 109.953 82.635C109.703 83.3225 109.641 83.7288 109.766 83.8538C109.953 83.9163 109.859 83.9788 109.484 84.0413C108.797 83.9788 108.266 83.885 107.891 83.76C107.516 83.635 107.078 83.5725 106.578 83.5725C106.828 84.135 107.016 84.4163 107.141 84.4163C107.328 84.4163 107.391 84.51 107.328 84.6975C107.641 84.6975 107.922 84.76 108.172 84.885C108.422 85.01 108.703 84.885 109.016 84.51C109.016 84.635 109.078 84.76 109.203 84.885C109.391 85.01 109.734 85.0413 110.234 84.9788C110.172 84.6663 110.328 84.5725 110.703 84.6975C111.078 84.8225 111.266 84.7288 111.266 84.4163C111.641 84.7288 111.828 84.9788 111.828 85.1663C111.828 85.3538 111.828 85.51 111.828 85.635C111.516 85.3225 111.141 85.26 110.703 85.4475C110.266 85.635 109.891 85.76 109.578 85.8225C109.078 86.26 108.578 86.8538 108.078 87.6038C107.578 88.3538 107.047 88.6975 106.484 88.635C106.359 88.4475 106.203 88.4788 106.016 88.7288C105.891 88.9163 105.578 88.9163 105.078 88.7288C105.391 89.2288 105.484 89.51 105.359 89.5725C105.234 89.635 105.109 89.6975 104.984 89.76C104.859 90.1975 104.703 90.51 104.516 90.6975C104.391 90.8225 104.234 90.9475 104.047 91.0725C104.172 91.385 104.172 91.6663 104.047 91.9163C103.984 92.1663 103.891 92.3538 103.766 92.4788C104.578 92.6663 104.984 92.8538 104.984 93.0413C105.859 93.1038 106.359 93.3225 106.484 93.6975C106.172 93.76 105.891 93.885 105.641 94.0725C105.453 94.26 105.266 94.4788 105.078 94.7288C104.953 94.9163 104.797 95.135 104.609 95.385C104.422 95.5725 104.203 95.6975 103.953 95.76C104.078 96.0725 104.109 96.2913 104.047 96.4163C104.047 96.5413 103.984 96.76 103.859 97.0725C103.984 97.1975 104.141 97.1975 104.328 97.0725C104.516 96.885 104.703 96.8225 104.891 96.885C104.891 97.1975 104.922 97.385 104.984 97.4475C105.047 97.4475 105.016 97.6038 104.891 97.9163C105.078 98.2288 105.078 98.51 104.891 98.76C104.766 98.9475 104.703 99.1975 104.703 99.51C104.641 99.76 104.516 99.9475 104.328 100.073C104.141 100.135 104.078 100.354 104.141 100.729C104.453 101.229 104.672 101.479 104.797 101.479C104.922 101.479 104.953 101.573 104.891 101.76C105.578 101.573 106.297 101.135 107.047 100.448C107.859 99.6975 108.578 98.8538 109.203 97.9163C109.391 97.9788 109.516 98.01 109.578 98.01C109.703 97.9475 109.922 97.9788 110.234 98.1038C110.547 97.6663 110.828 97.2913 111.078 96.9788C111.391 96.6038 111.797 96.3538 112.297 96.2288C112.859 95.4788 113.297 94.9788 113.609 94.7288C113.984 94.4788 114.234 94.1038 114.359 93.6038C113.609 93.4163 113.172 93.385 113.047 93.51C112.922 93.5725 112.703 93.5413 112.391 93.4163C112.266 93.6038 112.078 93.7288 111.828 93.7913C111.578 93.7913 111.328 93.8225 111.078 93.885C110.828 93.885 110.641 93.9475 110.516 94.0725C110.391 94.135 110.391 94.3538 110.516 94.7288C109.766 95.1663 109.359 95.4788 109.297 95.6663C109.234 95.7913 109.078 95.885 108.828 95.9475C108.328 96.1975 108.016 96.2913 107.891 96.2288C107.828 96.1038 107.766 95.9475 107.703 95.76C107.953 95.5725 108.172 95.385 108.359 95.1975C108.547 95.01 108.891 94.9475 109.391 95.01C109.516 94.5725 109.703 94.3538 109.953 94.3538C110.203 94.3538 110.328 94.2288 110.328 93.9788C110.266 93.6038 110.422 93.385 110.797 93.3225C111.172 93.1975 111.484 93.26 111.734 93.51C112.047 93.0725 112.297 92.76 112.484 92.5725C112.672 92.3225 113.016 92.26 113.516 92.385C113.891 92.1975 114.109 91.9475 114.172 91.635C114.234 91.26 114.422 91.0725 114.734 91.0725C115.297 91.135 115.547 90.9475 115.484 90.51C115.422 90.0725 115.391 89.6663 115.391 89.2913C115.016 89.1663 114.672 89.01 114.359 88.8225C114.109 88.5725 114.141 88.1975 114.453 87.6975C114.141 87.76 113.922 87.76 113.797 87.6975C113.734 87.5725 113.578 87.5413 113.328 87.6038C112.641 87.7913 112.266 87.9475 112.203 88.0725C112.141 88.1975 112.141 88.3538 112.203 88.5413C111.953 88.7288 111.578 88.885 111.078 89.01C110.641 89.135 110.391 89.26 110.328 89.385C110.516 89.76 110.641 89.9788 110.703 90.0413C110.828 90.1038 110.922 90.1975 110.984 90.3225C110.359 90.51 109.891 90.6663 109.578 90.7913C109.266 90.8538 109.172 91.1038 109.297 91.5413L108.359 91.0725C108.172 91.5725 108.016 91.9163 107.891 92.1038C107.766 92.2288 107.641 92.3538 107.516 92.4788C107.516 92.7913 107.422 92.9788 107.234 93.0413C107.109 93.1038 107.016 93.2288 106.953 93.4163C106.453 93.0413 106.203 92.7913 106.203 92.6663C106.266 92.4788 106.172 92.4163 105.922 92.4788C105.422 92.6038 105.172 92.6038 105.172 92.4788C105.172 92.2913 105.109 92.0413 104.984 91.7288C105.234 91.6038 105.484 91.5725 105.734 91.635C105.984 91.6975 106.141 91.5413 106.203 91.1663C106.516 91.1663 106.734 91.1038 106.859 90.9788C107.047 90.7913 107.266 90.8225 107.516 91.0725C107.641 90.885 107.797 90.76 107.984 90.6975C108.172 90.5725 108.391 90.5413 108.641 90.6038C108.953 90.6038 109.203 90.5413 109.391 90.4163C109.578 90.2288 109.734 90.1975 109.859 90.3225C109.547 89.8225 109.422 89.5413 109.484 89.4788C109.547 89.4163 109.547 89.26 109.484 89.01C109.734 88.9475 109.891 88.9163 109.953 88.9163C110.016 88.8538 110.203 88.8225 110.516 88.8225C110.016 88.3225 109.734 88.0725 109.672 88.0725C109.672 88.0725 109.672 88.01 109.672 87.885C110.234 88.01 110.578 88.0725 110.703 88.0725C110.891 88.01 111.047 88.1038 111.172 88.3538C111.484 88.1663 111.766 87.9788 112.016 87.7913C112.266 87.6038 112.641 87.51 113.141 87.51C113.078 87.135 113.234 86.9788 113.609 87.0413C113.984 87.0413 114.234 86.9163 114.359 86.6663C114.672 86.2288 114.922 85.8225 115.109 85.4475C115.359 85.01 115.391 84.5413 115.203 84.0413C114.891 84.0413 114.609 84.1663 114.359 84.4163C114.172 84.6038 113.984 84.7913 113.797 84.9788C113.672 85.1663 113.484 85.3538 113.234 85.5413C113.047 85.6663 112.797 85.6663 112.484 85.5413C112.734 85.2288 113.078 85.01 113.516 84.885C114.016 84.6975 114.359 84.4163 114.547 84.0413C115.109 83.3538 115.328 82.9475 115.203 82.8225C115.078 82.6975 115.047 82.4788 115.109 82.1663C115.109 81.6663 115.172 81.3538 115.297 81.2288C115.422 81.0413 115.578 80.885 115.766 80.76C115.703 80.635 115.641 80.4788 115.578 80.2913C115.516 80.1038 115.516 79.885 115.578 79.635C116.016 79.135 116.297 78.8225 116.422 78.6975ZM108.453 82.4475C108.266 82.3225 108.016 82.135 107.703 81.885C107.453 81.5725 107.234 81.5725 107.047 81.885C107.234 82.01 107.453 82.1038 107.703 82.1663C108.016 82.2288 108.266 82.3225 108.453 82.4475ZM115.297 93.0413L114.359 93.51C114.672 93.5725 114.828 93.51 114.828 93.3225C114.828 93.0725 114.984 92.9788 115.297 93.0413ZM109.016 86.01C108.766 85.9475 108.516 85.9788 108.266 86.1038C108.078 86.2288 107.922 86.26 107.797 86.1975C107.922 85.885 108.109 85.76 108.359 85.8225C108.609 85.885 108.797 85.7913 108.922 85.5413C108.672 85.1038 108.297 85.0413 107.797 85.3538C107.672 84.8538 107.453 84.6663 107.141 84.7913C106.891 84.9163 106.578 84.9788 106.203 84.9788C106.266 85.2913 106.391 85.51 106.578 85.635C106.828 85.6975 107.078 85.7913 107.328 85.9163C107.016 85.8538 106.828 85.9163 106.766 86.1038C106.703 86.2913 106.516 86.3538 106.203 86.2913C106.141 86.4163 106.109 86.6038 106.109 86.8538C106.172 87.0413 106.047 87.1975 105.734 87.3225C105.297 86.8225 105.016 86.6038 104.891 86.6663C104.766 86.7288 104.641 86.7913 104.516 86.8538C104.641 87.3538 104.578 87.6663 104.328 87.7913C104.141 87.9163 104.109 88.0725 104.234 88.26C104.922 88.135 105.266 88.01 105.266 87.885C105.266 87.6975 105.328 87.5725 105.453 87.51C106.141 87.6975 106.484 87.8538 106.484 87.9788C106.484 88.0413 106.547 88.0413 106.672 87.9788C106.922 87.6038 107.203 87.26 107.516 86.9475C107.891 86.635 108.328 86.51 108.828 86.5725L109.016 86.01ZM116.047 120.323C115.672 120.26 115.422 120.229 115.297 120.229C115.172 120.229 115.078 120.229 115.016 120.229C115.016 119.291 114.891 118.604 114.641 118.166C114.453 117.729 114.516 117.385 114.828 117.135C114.391 116.51 114.172 116.291 114.172 116.479C114.172 116.604 114.016 116.635 113.703 116.573C113.266 117.198 113.078 117.541 113.141 117.604C113.203 117.604 113.234 117.666 113.234 117.791C112.797 117.104 112.703 116.635 112.953 116.385C113.266 116.135 113.328 115.854 113.141 115.541C113.516 115.166 113.922 115.135 114.359 115.448C114.547 114.573 114.641 113.823 114.641 113.198C114.703 112.573 114.953 112.041 115.391 111.604C115.141 110.979 115.016 110.573 115.016 110.385C114.703 109.948 114.484 109.76 114.359 109.823C114.234 109.823 114.141 109.76 114.078 109.635C114.078 110.323 113.984 110.666 113.797 110.666C113.609 110.604 113.453 110.541 113.328 110.479C113.641 110.104 113.828 109.823 113.891 109.635C113.953 109.385 114.141 109.354 114.453 109.541C114.641 109.229 114.766 108.916 114.828 108.604C114.953 108.229 115.078 107.885 115.203 107.573C114.641 107.323 114.234 107.354 113.984 107.666C113.797 107.916 113.578 108.166 113.328 108.416C113.453 107.916 113.609 107.541 113.797 107.291C114.047 107.041 114.297 106.979 114.547 107.104C114.547 106.354 114.516 105.885 114.453 105.698C114.453 105.51 114.391 105.354 114.266 105.229C114.016 105.541 113.828 105.729 113.703 105.791C113.578 105.854 113.453 105.823 113.328 105.698C113.391 105.448 113.547 105.323 113.797 105.323C114.047 105.26 114.234 105.135 114.359 104.948C114.984 104.385 115.328 103.979 115.391 103.729C115.516 103.416 115.547 103.104 115.484 102.791C115.484 102.416 115.453 102.073 115.391 101.76C115.328 101.385 115.391 101.041 115.578 100.729C115.391 100.041 115.297 99.5725 115.297 99.3225C115.359 99.0725 115.391 98.885 115.391 98.76C115.203 98.635 114.953 98.51 114.641 98.385C114.391 98.26 114.297 98.385 114.359 98.76C114.547 98.3225 114.703 98.0725 114.828 98.01C114.953 97.885 115.078 97.885 115.203 98.01C115.141 97.6975 114.984 97.51 114.734 97.4475C114.484 97.3225 114.172 97.2288 113.797 97.1663C113.797 97.6038 113.484 97.76 112.859 97.635C112.484 98.26 112.141 98.635 111.828 98.76C111.578 98.885 111.391 99.1038 111.266 99.4163C110.828 99.5413 110.578 99.6663 110.516 99.7913C110.516 99.9163 110.453 100.041 110.328 100.166C109.891 100.291 109.578 100.51 109.391 100.823C109.203 101.073 108.891 101.229 108.453 101.291C108.141 101.666 107.766 102.01 107.328 102.323C106.891 102.635 106.453 102.979 106.016 103.354C105.578 103.666 105.203 104.041 104.891 104.479C104.578 104.854 104.422 105.323 104.422 105.885C104.859 105.948 105.141 106.01 105.266 106.073C105.391 106.073 105.453 106.135 105.453 106.26C105.078 106.26 104.766 106.416 104.516 106.729C104.328 106.979 104.328 107.291 104.516 107.666C104.828 107.791 104.859 108.041 104.609 108.416C104.359 108.791 104.109 109.104 103.859 109.354C104.234 109.541 104.453 109.729 104.516 109.916C104.578 110.104 104.547 110.26 104.422 110.385C104.359 111.073 104.328 111.635 104.328 112.073C104.328 112.51 104.484 112.76 104.797 112.823C105.609 112.448 105.953 112.229 105.828 112.166C105.703 112.041 105.703 111.948 105.828 111.885C105.453 112.51 105.172 112.948 104.984 113.198C104.859 113.385 104.703 113.604 104.516 113.854C104.328 114.041 104.203 114.26 104.141 114.51C104.141 114.698 104.297 114.916 104.609 115.166C104.672 114.916 104.797 114.76 104.984 114.698C105.172 114.635 105.391 114.635 105.641 114.698C105.891 114.698 106.141 114.729 106.391 114.791C106.703 114.791 106.953 114.729 107.141 114.604C107.016 114.354 106.859 114.166 106.672 114.041C106.484 113.916 106.297 113.791 106.109 113.666C106.797 113.541 107.203 113.416 107.328 113.291C107.516 113.104 107.859 113.073 108.359 113.198C108.359 112.885 108.234 112.729 107.984 112.729C107.797 112.666 107.703 112.541 107.703 112.354C108.078 112.354 108.422 112.416 108.734 112.541C109.047 112.729 109.234 113.041 109.297 113.479C108.984 113.604 108.766 113.698 108.641 113.76C108.516 113.76 108.328 113.823 108.078 113.948C107.891 114.573 107.516 114.948 106.953 115.073C106.453 115.198 106.172 115.573 106.109 116.198C105.609 116.51 105.078 116.885 104.516 117.323C104.016 117.76 103.891 118.229 104.141 118.729C104.328 118.791 104.547 118.854 104.797 118.916C105.047 118.979 105.234 118.854 105.359 118.541C105.297 119.041 105.078 119.479 104.703 119.854C105.141 120.291 105.609 120.385 106.109 120.135C106.609 119.823 107.016 119.885 107.328 120.323C107.016 120.448 106.703 120.573 106.391 120.698C106.141 120.76 105.828 120.791 105.453 120.791C105.016 121.416 104.672 121.885 104.422 122.198C104.234 122.448 104.047 122.666 103.859 122.854C103.984 123.291 103.984 123.666 103.859 123.979C103.797 124.291 103.828 124.604 103.953 124.916C104.641 124.729 105.234 124.448 105.734 124.073C106.047 124.448 106.266 124.604 106.391 124.541C106.578 124.479 106.766 124.416 106.953 124.354C107.203 123.916 107.391 123.635 107.516 123.51C107.703 123.385 107.953 123.26 108.266 123.135C107.891 122.76 107.641 122.635 107.516 122.76C107.453 122.885 107.328 123.01 107.141 123.135C107.391 122.51 107.641 122.229 107.891 122.291C108.141 122.291 108.328 122.229 108.453 122.104C108.953 122.041 109.547 122.041 110.234 122.104C110.984 122.166 111.453 121.948 111.641 121.448C112.141 121.26 112.422 121.198 112.484 121.26C112.547 121.323 112.672 121.385 112.859 121.448C113.234 120.885 113.641 120.541 114.078 120.416C113.891 121.229 113.578 121.823 113.141 122.198C112.766 122.51 112.328 122.635 111.828 122.573C111.328 122.76 111.047 122.823 110.984 122.76C110.922 122.698 110.797 122.666 110.609 122.666C110.922 122.854 111.109 123.041 111.172 123.229C111.234 123.416 111.359 123.541 111.547 123.604C111.984 123.604 112.203 123.666 112.203 123.791C112.203 123.916 112.234 124.135 112.297 124.448C112.047 125.01 111.734 125.416 111.359 125.666C110.984 125.854 110.672 126.01 110.422 126.135C110.422 125.51 110.609 125.104 110.984 124.916C111.172 124.791 111.328 124.666 111.453 124.541C111.578 124.354 111.734 124.323 111.922 124.448C111.484 123.948 111.172 123.729 110.984 123.791C110.859 123.854 110.703 123.823 110.516 123.698C109.703 123.385 109.172 123.323 108.922 123.51C108.672 123.698 108.359 123.854 107.984 123.979C108.109 124.416 108.016 124.635 107.703 124.635C107.453 124.635 107.266 124.823 107.141 125.198C107.578 124.948 107.828 124.854 107.891 124.916C108.016 124.979 108.172 125.073 108.359 125.198L107.984 126.51C108.672 126.26 109.047 126.198 109.109 126.323C109.234 126.385 109.359 126.416 109.484 126.416C109.672 126.729 109.578 126.948 109.203 127.073C108.891 127.135 108.609 127.291 108.359 127.541C108.109 128.041 107.828 128.416 107.516 128.666C107.266 128.854 106.953 128.948 106.578 128.948C106.016 129.448 105.609 129.823 105.359 130.073C105.109 130.323 104.859 130.604 104.609 130.916C105.047 130.916 105.578 130.948 106.203 131.01C106.828 131.073 107.359 131.01 107.797 130.823C108.047 130.573 108.266 130.385 108.453 130.26C108.703 130.073 108.984 129.916 109.297 129.791C109.672 129.979 109.828 129.948 109.766 129.698C109.766 129.385 109.922 129.135 110.234 128.948C109.984 128.635 109.984 128.479 110.234 128.479C110.484 128.479 110.641 128.291 110.703 127.916C111.641 127.729 112.203 127.541 112.391 127.354C112.578 127.166 112.734 126.979 112.859 126.791C113.047 126.604 113.234 126.416 113.422 126.229C113.672 126.041 113.984 125.979 114.359 126.041C113.797 126.604 113.516 126.948 113.516 127.073C113.578 127.135 113.547 127.166 113.422 127.166C114.297 127.291 114.797 127.323 114.922 127.26C115.109 127.135 115.266 127.01 115.391 126.885C115.328 126.698 115.328 126.479 115.391 126.229C115.453 125.916 115.391 125.76 115.203 125.76C114.578 125.198 114.422 124.885 114.734 124.823C115.109 124.76 115.359 124.604 115.484 124.354C115.359 124.229 115.266 124.104 115.203 123.979C115.141 123.791 114.984 123.666 114.734 123.604C114.484 123.791 114.234 124.01 113.984 124.26C113.734 124.51 113.359 124.604 112.859 124.541C112.734 123.979 112.703 123.635 112.766 123.51C112.891 123.385 113.047 123.354 113.234 123.416C113.547 123.604 113.828 123.51 114.078 123.135C114.328 122.698 114.703 122.416 115.203 122.291C114.953 121.979 114.828 121.729 114.828 121.541C114.891 121.291 114.953 120.948 115.016 120.51C115.141 120.448 115.297 120.448 115.484 120.51C115.734 120.51 115.922 120.448 116.047 120.323ZM117.172 130.073C116.797 129.76 116.609 129.479 116.609 129.229C116.672 128.979 116.547 128.698 116.234 128.385C115.859 128.51 115.516 128.479 115.203 128.291C114.891 128.041 114.547 127.885 114.172 127.823C114.234 128.135 114.109 128.291 113.797 128.291C113.547 128.291 113.422 128.448 113.422 128.76C112.547 129.073 111.984 129.385 111.734 129.698C111.484 130.01 111.172 130.291 110.797 130.541C111.234 131.104 111.609 131.385 111.922 131.385C112.234 131.385 112.516 131.26 112.766 131.01C113.203 130.823 113.641 130.729 114.078 130.729C114.578 130.666 115.141 130.666 115.766 130.729C115.891 130.416 116.078 130.26 116.328 130.26C116.641 130.26 116.922 130.198 117.172 130.073ZM107.516 126.698C107.203 126.323 107.016 126.041 106.953 125.854C106.891 125.604 106.922 125.416 107.047 125.291C106.484 126.104 105.766 126.448 104.891 126.323C104.766 126.823 104.516 127.166 104.141 127.354C103.766 127.479 103.609 127.854 103.672 128.479H104.797C105.797 128.666 106.547 128.635 107.047 128.385C107.172 127.76 106.953 127.323 106.391 127.073C106.078 127.26 106.016 127.51 106.203 127.823C106.391 128.135 106.234 128.291 105.734 128.291C105.859 127.666 105.672 127.229 105.172 126.979C105.984 126.729 106.516 126.666 106.766 126.791C107.016 126.916 107.266 126.885 107.516 126.698ZM104.141 129.604C103.953 129.104 103.859 128.823 103.859 128.76C103.859 128.635 103.797 128.604 103.672 128.666C103.859 128.854 103.922 129.073 103.859 129.323C103.859 129.51 103.953 129.604 104.141 129.604ZM114.641 73.1663C114.453 73.1038 114.297 73.1038 114.172 73.1663C114.047 73.2288 113.859 73.26 113.609 73.26C114.234 72.885 114.547 72.5725 114.547 72.3225L114.641 73.1663ZM110.797 72.6038C110.734 72.8538 110.547 73.01 110.234 73.0725C109.984 73.0725 109.891 73.2288 109.953 73.5413C110.141 73.0413 110.266 72.76 110.328 72.6975C110.391 72.5725 110.547 72.5413 110.797 72.6038ZM115.109 75.9788C114.859 76.4788 114.453 76.8225 113.891 77.01C113.391 77.135 112.984 77.385 112.672 77.76C112.234 77.885 111.891 78.135 111.641 78.51C111.391 78.885 111.172 79.2288 110.984 79.5413C110.547 79.4163 110.297 79.385 110.234 79.4475C110.234 79.51 110.141 79.5725 109.953 79.635C110.016 79.1975 110.203 78.885 110.516 78.6975C110.828 78.51 111.203 78.385 111.641 78.3225C111.516 77.385 112.016 76.76 113.141 76.4475C113.328 76.3225 113.453 76.135 113.516 75.885C113.578 75.5725 113.859 75.4163 114.359 75.4163L115.109 75.9788ZM107.891 74.4788C107.453 75.0413 107.203 75.2913 107.141 75.2288C107.141 75.1663 107.078 75.1038 106.953 75.0413C107.266 74.5413 107.484 74.26 107.609 74.1975C107.797 74.135 107.891 74.2288 107.891 74.4788ZM113.797 83.385C113.484 83.0725 113.234 83.01 113.047 83.1975C112.859 83.3225 112.609 83.2913 112.297 83.1038C112.359 82.8538 112.484 82.6975 112.672 82.635C112.922 82.51 113.109 82.3225 113.234 82.0725C113.297 82.26 113.391 82.4475 113.516 82.635C113.641 82.8225 113.734 83.0725 113.797 83.385ZM112.203 83.76C111.641 84.0725 111.266 84.1038 111.078 83.8538C110.953 83.5413 110.734 83.5725 110.422 83.9475C110.609 83.6975 110.891 83.6038 111.266 83.6663C111.703 83.7288 111.859 83.5413 111.734 83.1038L112.203 83.76ZM112.109 86.8538C111.359 87.2288 110.984 87.1975 110.984 86.76C111.422 86.5725 111.641 86.5725 111.641 86.76C111.641 86.9475 111.797 86.9788 112.109 86.8538ZM114.266 89.4788C113.578 89.4163 113.203 89.4788 113.141 89.6663C113.078 89.7913 113.109 89.8225 113.234 89.76C113.234 89.4475 113.328 89.2913 113.516 89.2913C113.703 89.2288 113.922 89.2288 114.172 89.2913L114.266 89.4788ZM112.672 90.2288C111.922 90.3538 111.609 90.7913 111.734 91.5413C111.422 91.3538 111.141 91.4163 110.891 91.7288C110.641 92.0413 110.453 92.01 110.328 91.635C110.516 91.6975 110.703 91.6038 110.891 91.3538C111.078 91.0413 111.328 90.76 111.641 90.51C111.891 90.385 112.078 90.3538 112.203 90.4163C112.391 90.4788 112.547 90.4163 112.672 90.2288ZM109.297 88.9163C108.859 89.0413 108.547 89.1663 108.359 89.2913C108.172 89.3538 108.016 89.4163 107.891 89.4788C107.766 89.1663 107.859 88.9788 108.172 88.9163C108.547 88.8538 108.828 88.7913 109.016 88.7288L109.297 88.9163ZM109.391 94.26C108.891 93.5725 108.859 93.2288 109.297 93.2288C109.234 93.4788 109.203 93.6663 109.203 93.7913C109.203 93.9163 109.266 94.0725 109.391 94.26ZM113.703 98.1038C113.391 99.1038 113.016 99.6663 112.578 99.7913C112.203 99.8538 111.922 100.01 111.734 100.26C112.359 99.6975 112.766 99.26 112.953 98.9475C113.141 98.5725 113.391 98.2913 113.703 98.1038ZM107.703 96.9788C107.078 96.6663 106.734 96.6038 106.672 96.7913C106.609 96.9788 106.453 97.0725 106.203 97.0725C106.391 96.8225 106.516 96.635 106.578 96.51C106.641 96.385 106.766 96.2913 106.953 96.2288C106.516 95.6038 106.453 95.26 106.766 95.1975C107.078 95.0725 107.359 95.01 107.609 95.01C107.484 95.1975 107.359 95.385 107.234 95.5725C107.172 95.6975 107.109 95.9163 107.047 96.2288L107.703 96.9788ZM106.484 97.9163C106.422 98.1038 106.266 98.2288 106.016 98.2913C105.828 98.3538 105.641 98.4163 105.453 98.4788C105.516 98.1038 105.859 97.9163 106.484 97.9163ZM113.328 106.541C112.766 106.979 112.453 107.135 112.391 107.01C112.391 106.885 112.328 106.854 112.203 106.916C112.328 106.666 112.484 106.573 112.672 106.635C112.859 106.698 112.984 106.541 113.047 106.166L113.328 106.541ZM112.297 107.479C112.047 107.229 111.859 107.229 111.734 107.479C111.609 107.729 111.453 107.854 111.266 107.854C110.828 107.166 110.797 106.916 111.172 107.104C111.547 107.229 111.703 107.104 111.641 106.729L112.297 107.479ZM114.547 110.948C114.297 111.385 113.672 111.604 112.672 111.604C113.109 111.354 113.453 111.166 113.703 111.041C114.016 110.854 114.297 110.823 114.547 110.948ZM113.047 111.885C112.547 112.51 112.266 112.885 112.203 113.01C112.141 113.135 111.953 113.198 111.641 113.198C112.141 112.948 112.359 112.573 112.297 112.073C112.297 111.573 111.953 111.354 111.266 111.416C110.891 112.104 110.547 112.541 110.234 112.729C109.984 112.916 109.703 112.948 109.391 112.823C109.453 112.635 109.578 112.51 109.766 112.448C110.016 112.385 110.172 112.198 110.234 111.885C109.859 111.573 109.734 111.416 109.859 111.416C109.984 111.354 110.109 111.323 110.234 111.323C110.422 111.323 110.578 111.323 110.703 111.323C110.828 111.323 110.922 111.198 110.984 110.948C111.234 111.198 111.453 111.26 111.641 111.135C111.891 111.01 112.109 110.885 112.297 110.76C112.172 111.135 112.203 111.385 112.391 111.51C112.578 111.635 112.609 111.76 112.484 111.885H113.047ZM111.547 113.291C111.672 113.604 111.578 113.823 111.266 113.948C110.953 114.073 110.641 114.198 110.328 114.323C110.578 114.01 110.766 113.791 110.891 113.666C111.016 113.479 111.234 113.354 111.547 113.291ZM109.953 114.51C110.078 114.698 110.016 114.948 109.766 115.26C109.578 115.51 109.328 115.666 109.016 115.729C109.016 115.541 109.141 115.323 109.391 115.073C109.641 114.823 109.828 114.635 109.953 114.51ZM112.391 116.01C111.953 116.51 111.672 116.823 111.547 116.948C111.422 117.01 111.391 117.166 111.453 117.416C110.828 117.479 110.516 117.573 110.516 117.698C110.516 117.823 110.484 117.948 110.422 118.073C109.922 118.01 109.609 118.073 109.484 118.26C109.359 118.385 109.141 118.448 108.828 118.448C108.703 118.26 108.734 118.073 108.922 117.885C109.109 117.698 109.266 117.541 109.391 117.416C109.641 117.166 109.922 117.104 110.234 117.229C110.609 117.354 110.797 117.198 110.797 116.76C111.047 116.885 111.266 116.916 111.453 116.854C111.703 116.729 111.797 116.51 111.734 116.198L112.391 116.01ZM112.297 118.26C111.484 118.635 111.047 118.885 110.984 119.01C110.797 118.76 110.828 118.541 111.078 118.354C111.328 118.166 111.578 118.01 111.828 117.885L112.297 118.26ZM108.734 118.448C108.672 118.76 108.453 119.073 108.078 119.385C107.703 119.635 107.359 119.635 107.047 119.385C107.422 119.26 107.672 119.073 107.797 118.823C107.922 118.51 108.234 118.385 108.734 118.448ZM106.391 117.885C105.891 118.385 105.641 118.604 105.641 118.541C105.641 118.416 105.578 118.385 105.453 118.448C105.891 118.073 106.203 117.885 106.391 117.885ZM108.922 120.604C108.172 121.104 107.766 121.323 107.703 121.26C107.766 120.948 107.859 120.698 107.984 120.51C108.172 120.323 108.359 120.104 108.547 119.854L108.922 120.604ZM115.578 129.041C114.828 129.229 114.203 129.416 113.703 129.604C113.828 129.291 114.016 129.104 114.266 129.041C114.516 128.979 114.578 128.791 114.453 128.479C114.578 128.791 114.766 128.885 115.016 128.76C115.266 128.635 115.453 128.729 115.578 129.041ZM110.422 124.26C110.047 124.76 109.641 125.041 109.203 125.104C109.141 124.791 109.203 124.635 109.391 124.635C109.578 124.573 109.734 124.448 109.859 124.26H110.422ZM106.859 123.135C106.984 123.448 106.828 123.666 106.391 123.791C105.953 123.854 105.672 123.729 105.547 123.416C106.047 123.229 106.359 123.166 106.484 123.229C106.609 123.291 106.734 123.26 106.859 123.135Z" fill="#7B4F2F"/>
</svg>
