<svg width="217" height="271" viewBox="0 0 217 271" fill="none" xmlns="http://www.w3.org/2000/svg">
<rect x="0.5" y="0.5" width="216" height="270" rx="14.5" stroke="#7B4F2F"/>
<ellipse cx="75.3585" cy="176.939" rx="3.92857" ry="3.93945" fill="#F7E5D0"/>
<ellipse cx="91.0729" cy="176.939" rx="3.92857" ry="3.93945" fill="#F7E5D0"/>
<ellipse cx="106.787" cy="176.939" rx="3.92857" ry="3.93945" fill="#F7E5D0"/>
<ellipse cx="122.501" cy="176.939" rx="3.92856" ry="3.93945" fill="#F7E5D0"/>
<ellipse cx="138.216" cy="176.939" rx="3.92857" ry="3.93945" fill="#F7E5D0"/>
<ellipse cx="153.93" cy="176.939" rx="3.92857" ry="3.93945" fill="#F7E5D0"/>
<ellipse cx="169.644" cy="176.939" rx="3.92858" ry="3.93945" fill="#F7E5D0"/>
<ellipse cx="75.3585" cy="192.697" rx="3.92857" ry="3.93945" fill="#F7E5D0"/>
<ellipse cx="91.0729" cy="192.697" rx="3.92857" ry="3.93945" fill="#F7E5D0"/>
<ellipse cx="106.787" cy="192.697" rx="3.92857" ry="3.93945" fill="#F7E5D0"/>
<ellipse cx="122.501" cy="192.697" rx="3.92856" ry="3.93945" fill="#F7E5D0"/>
<ellipse cx="138.216" cy="192.697" rx="3.92856" ry="3.93945" fill="#F7E5D0"/>
<ellipse cx="153.93" cy="192.697" rx="3.92857" ry="3.93945" fill="#F7E5D0"/>
<ellipse cx="169.644" cy="192.697" rx="3.92858" ry="3.93945" fill="#F7E5D0"/>
<ellipse cx="75.3585" cy="208.455" rx="3.92857" ry="3.93958" fill="#F7E5D0"/>
<ellipse cx="91.0729" cy="208.455" rx="3.92857" ry="3.93958" fill="#F7E5D0"/>
<ellipse cx="106.787" cy="208.455" rx="3.92857" ry="3.93958" fill="#F7E5D0"/>
<ellipse cx="122.501" cy="208.455" rx="3.92856" ry="3.93958" fill="#F7E5D0"/>
<ellipse cx="138.216" cy="208.455" rx="3.92856" ry="3.93958" fill="#F7E5D0"/>
<ellipse cx="153.93" cy="208.455" rx="3.92857" ry="3.93958" fill="#F7E5D0"/>
<ellipse cx="169.644" cy="208.455" rx="3.92858" ry="3.93958" fill="#F7E5D0"/>
<ellipse cx="75.3585" cy="224.214" rx="3.92857" ry="3.93933" fill="#F7E5D0"/>
<ellipse cx="91.0729" cy="224.214" rx="3.92857" ry="3.93933" fill="#F7E5D0"/>
<ellipse cx="106.787" cy="224.214" rx="3.92857" ry="3.93933" fill="#F7E5D0"/>
<ellipse cx="122.501" cy="224.214" rx="3.92856" ry="3.93933" fill="#F7E5D0"/>
<ellipse cx="138.216" cy="224.214" rx="3.92856" ry="3.93933" fill="#F7E5D0"/>
<ellipse cx="153.93" cy="224.214" rx="3.92857" ry="3.93933" fill="#F7E5D0"/>
<ellipse cx="169.644" cy="224.214" rx="3.92858" ry="3.93933" fill="#F7E5D0"/>
<path d="M42.253 158.93H43.256L48.271 171H47.013L45.449 167.226H40.026L38.479 171H37.204L42.253 158.93ZM45.177 166.291L42.746 160.324L40.281 166.291H45.177ZM53.3563 171.17C52.7103 171.17 52.1153 171.051 51.5713 170.813C51.0386 170.564 50.5683 170.224 50.1603 169.793C49.7636 169.362 49.4519 168.869 49.2253 168.314C49.0099 167.759 48.9023 167.169 48.9023 166.546C48.9023 165.707 49.0893 164.942 49.4633 164.251C49.8373 163.56 50.3586 163.01 51.0273 162.602C51.6959 162.194 52.4666 161.99 53.3393 161.99C54.1666 161.99 54.8976 162.183 55.5323 162.568C56.1669 162.942 56.6373 163.452 56.9433 164.098L55.8213 164.455C55.5719 164.002 55.2206 163.65 54.7673 163.401C54.3253 163.14 53.8323 163.01 53.2883 163.01C52.6989 163.01 52.1606 163.163 51.6733 163.469C51.1859 163.775 50.7949 164.194 50.5003 164.727C50.2169 165.26 50.0753 165.866 50.0753 166.546C50.0753 167.215 50.2226 167.821 50.5173 168.365C50.8119 168.909 51.2029 169.345 51.6903 169.674C52.1776 169.991 52.7159 170.15 53.3053 170.15C53.6906 170.15 54.0589 170.082 54.4103 169.946C54.7729 169.81 55.0846 169.629 55.3453 169.402C55.6173 169.164 55.7986 168.909 55.8893 168.637L57.0283 168.977C56.8696 169.396 56.6033 169.776 56.2293 170.116C55.8666 170.445 55.4359 170.705 54.9373 170.898C54.4499 171.079 53.9229 171.17 53.3563 171.17ZM66.2903 171H65.1343V166.053C65.1343 165.056 64.9587 164.308 64.6073 163.809C64.256 163.299 63.7517 163.044 63.0943 163.044C62.6637 163.044 62.233 163.157 61.8023 163.384C61.383 163.599 61.009 163.9 60.6803 164.285C60.363 164.659 60.1363 165.09 60.0003 165.577V171H58.8443V158.59H60.0003V164.149C60.3517 163.492 60.839 162.97 61.4623 162.585C62.097 162.188 62.7713 161.99 63.4853 161.99C63.9953 161.99 64.426 162.081 64.7773 162.262C65.14 162.443 65.429 162.71 65.6443 163.061C65.871 163.401 66.0353 163.803 66.1373 164.268C66.2393 164.721 66.2903 165.237 66.2903 165.815V171ZM72.5805 171.17C71.9458 171.17 71.3565 171.051 70.8125 170.813C70.2685 170.564 69.7981 170.229 69.4015 169.81C69.0048 169.379 68.6931 168.886 68.4665 168.331C68.2511 167.776 68.1435 167.181 68.1435 166.546C68.1435 165.719 68.3305 164.959 68.7045 164.268C69.0898 163.577 69.6168 163.027 70.2855 162.619C70.9541 162.2 71.7135 161.99 72.5635 161.99C73.4361 161.99 74.1955 162.2 74.8415 162.619C75.4988 163.038 76.0145 163.594 76.3885 164.285C76.7625 164.965 76.9495 165.713 76.9495 166.529C76.9495 166.62 76.9495 166.71 76.9495 166.801C76.9495 166.88 76.9438 166.943 76.9325 166.988H69.3505C69.4071 167.623 69.5828 168.189 69.8775 168.688C70.1835 169.175 70.5745 169.566 71.0505 169.861C71.5378 170.144 72.0648 170.286 72.6315 170.286C73.2095 170.286 73.7535 170.139 74.2635 169.844C74.7848 169.549 75.1475 169.164 75.3515 168.688L76.3545 168.96C76.1731 169.379 75.8955 169.759 75.5215 170.099C75.1475 170.439 74.7055 170.705 74.1955 170.898C73.6968 171.079 73.1585 171.17 72.5805 171.17ZM69.3165 166.155H75.8615C75.8161 165.509 75.6405 164.942 75.3345 164.455C75.0398 163.968 74.6488 163.588 74.1615 163.316C73.6855 163.033 73.1585 162.891 72.5805 162.891C72.0025 162.891 71.4755 163.033 70.9995 163.316C70.5235 163.588 70.1325 163.973 69.8265 164.472C69.5318 164.959 69.3618 165.52 69.3165 166.155ZM82.9 170.575C82.8093 170.609 82.6677 170.671 82.475 170.762C82.2823 170.853 82.05 170.932 81.778 171C81.506 171.068 81.2113 171.102 80.894 171.102C80.5653 171.102 80.2537 171.04 79.959 170.915C79.6757 170.79 79.449 170.603 79.279 170.354C79.109 170.093 79.024 169.776 79.024 169.402V163.061H77.8V162.143H79.024V159.151H80.18V162.143H82.22V163.061H80.18V169.079C80.2027 169.396 80.316 169.634 80.52 169.793C80.7353 169.952 80.979 170.031 81.251 170.031C81.5683 170.031 81.8573 169.98 82.118 169.878C82.3787 169.765 82.5373 169.685 82.594 169.64L82.9 170.575ZM88.0199 171.17C87.3853 171.17 86.7959 171.051 86.2519 170.813C85.7079 170.564 85.2376 170.229 84.8409 169.81C84.4443 169.379 84.1326 168.886 83.9059 168.331C83.6906 167.776 83.5829 167.181 83.5829 166.546C83.5829 165.719 83.7699 164.959 84.1439 164.268C84.5293 163.577 85.0563 163.027 85.7249 162.619C86.3936 162.2 87.1529 161.99 88.0029 161.99C88.8756 161.99 89.6349 162.2 90.2809 162.619C90.9383 163.038 91.4539 163.594 91.8279 164.285C92.2019 164.965 92.3889 165.713 92.3889 166.529C92.3889 166.62 92.3889 166.71 92.3889 166.801C92.3889 166.88 92.3833 166.943 92.3719 166.988H84.7899C84.8466 167.623 85.0223 168.189 85.3169 168.688C85.6229 169.175 86.0139 169.566 86.4899 169.861C86.9773 170.144 87.5043 170.286 88.0709 170.286C88.6489 170.286 89.1929 170.139 89.7029 169.844C90.2243 169.549 90.5869 169.164 90.7909 168.688L91.7939 168.96C91.6126 169.379 91.3349 169.759 90.9609 170.099C90.5869 170.439 90.1449 170.705 89.6349 170.898C89.1363 171.079 88.5979 171.17 88.0199 171.17ZM84.7559 166.155H91.3009C91.2556 165.509 91.0799 164.942 90.7739 164.455C90.4793 163.968 90.0883 163.588 89.6009 163.316C89.1249 163.033 88.5979 162.891 88.0199 162.891C87.4419 162.891 86.9149 163.033 86.4389 163.316C85.9629 163.588 85.5719 163.973 85.2659 164.472C84.9713 164.959 84.8013 165.52 84.7559 166.155ZM93.3083 170.218L99.2413 163.01H93.4443V162.143H100.55V162.925L94.6513 170.133H100.533V171H93.3083V170.218ZM108.927 171L105.34 162.143H106.547L109.573 169.844L112.616 162.143H113.755L110.168 171H108.927ZM118.831 171.17C118.197 171.17 117.607 171.051 117.063 170.813C116.531 170.564 116.066 170.229 115.669 169.81C115.284 169.379 114.984 168.892 114.768 168.348C114.553 167.793 114.445 167.209 114.445 166.597C114.445 165.962 114.553 165.373 114.768 164.829C114.984 164.274 115.29 163.786 115.686 163.367C116.083 162.936 116.548 162.602 117.08 162.364C117.624 162.115 118.214 161.99 118.848 161.99C119.483 161.99 120.067 162.115 120.599 162.364C121.132 162.602 121.597 162.936 121.993 163.367C122.39 163.786 122.696 164.274 122.911 164.829C123.127 165.373 123.234 165.962 123.234 166.597C123.234 167.209 123.127 167.793 122.911 168.348C122.696 168.892 122.39 169.379 121.993 169.81C121.608 170.229 121.143 170.564 120.599 170.813C120.067 171.051 119.477 171.17 118.831 171.17ZM115.618 166.614C115.618 167.271 115.76 167.872 116.043 168.416C116.338 168.949 116.729 169.374 117.216 169.691C117.704 169.997 118.242 170.15 118.831 170.15C119.421 170.15 119.959 169.991 120.446 169.674C120.934 169.357 121.325 168.926 121.619 168.382C121.914 167.827 122.061 167.226 122.061 166.58C122.061 165.923 121.914 165.322 121.619 164.778C121.325 164.234 120.934 163.803 120.446 163.486C119.959 163.169 119.421 163.01 118.831 163.01C118.242 163.01 117.704 163.174 117.216 163.503C116.74 163.832 116.355 164.268 116.06 164.812C115.766 165.345 115.618 165.945 115.618 166.614ZM128.075 171.17C127.349 171.17 126.675 171.051 126.052 170.813C125.428 170.575 124.89 170.212 124.437 169.725L124.913 168.909C125.411 169.374 125.91 169.714 126.409 169.929C126.919 170.133 127.457 170.235 128.024 170.235C128.715 170.235 129.276 170.099 129.707 169.827C130.137 169.544 130.353 169.141 130.353 168.62C130.353 168.269 130.245 168.002 130.03 167.821C129.826 167.628 129.525 167.475 129.129 167.362C128.743 167.237 128.279 167.107 127.735 166.971C127.123 166.801 126.607 166.625 126.188 166.444C125.78 166.251 125.468 166.013 125.253 165.73C125.049 165.435 124.947 165.056 124.947 164.591C124.947 164.013 125.088 163.537 125.372 163.163C125.666 162.778 126.063 162.489 126.562 162.296C127.072 162.092 127.638 161.99 128.262 161.99C128.942 161.99 129.542 162.098 130.064 162.313C130.585 162.528 131.01 162.829 131.339 163.214L130.778 163.996C130.46 163.633 130.081 163.367 129.639 163.197C129.208 163.016 128.726 162.925 128.194 162.925C127.831 162.925 127.485 162.976 127.157 163.078C126.828 163.169 126.556 163.327 126.341 163.554C126.137 163.769 126.035 164.07 126.035 164.455C126.035 164.772 126.114 165.022 126.273 165.203C126.431 165.373 126.669 165.52 126.987 165.645C127.304 165.758 127.695 165.883 128.16 166.019C128.828 166.2 129.412 166.387 129.911 166.58C130.409 166.761 130.795 166.999 131.067 167.294C131.339 167.589 131.475 168.002 131.475 168.535C131.475 169.362 131.163 170.008 130.54 170.473C129.916 170.938 129.095 171.17 128.075 171.17ZM42.61 194.17C41.9187 194.17 41.2783 193.994 40.689 193.643C40.0997 193.28 39.6407 192.827 39.312 192.283V194H38.275V181.59H39.431V186.996C39.8277 186.395 40.3037 185.914 40.859 185.551C41.4143 185.177 42.0603 184.99 42.797 184.99C43.4203 184.99 43.9757 185.12 44.463 185.381C44.9617 185.642 45.3867 185.993 45.738 186.435C46.0893 186.866 46.3557 187.359 46.537 187.914C46.7183 188.458 46.809 189.019 46.809 189.597C46.809 190.22 46.7013 190.804 46.486 191.348C46.282 191.892 45.9873 192.379 45.602 192.81C45.2167 193.229 44.769 193.564 44.259 193.813C43.7603 194.051 43.2107 194.17 42.61 194.17ZM42.338 193.15C42.814 193.15 43.256 193.054 43.664 192.861C44.072 192.668 44.4233 192.402 44.718 192.062C45.0127 191.722 45.2393 191.342 45.398 190.923C45.5567 190.492 45.636 190.05 45.636 189.597C45.636 188.974 45.5 188.39 45.228 187.846C44.9673 187.291 44.599 186.849 44.123 186.52C43.6583 186.18 43.1087 186.01 42.474 186.01C42.0207 186.01 41.5957 186.112 41.199 186.316C40.8137 186.52 40.468 186.792 40.162 187.132C39.8673 187.461 39.6237 187.823 39.431 188.22V190.974C39.4763 191.28 39.5953 191.569 39.788 191.841C39.9807 192.102 40.2187 192.328 40.502 192.521C40.7967 192.714 41.1027 192.867 41.42 192.98C41.7373 193.093 42.0433 193.15 42.338 193.15ZM48.0532 191.45C48.0532 190.895 48.2119 190.419 48.5292 190.022C48.8465 189.614 49.2829 189.302 49.8382 189.087C50.4049 188.86 51.0565 188.747 51.7932 188.747C52.2239 188.747 52.6715 188.781 53.1362 188.849C53.6009 188.917 54.0145 189.019 54.3772 189.155V188.407C54.3772 187.659 54.1562 187.064 53.7142 186.622C53.2722 186.18 52.6602 185.959 51.8782 185.959C51.4022 185.959 50.9319 186.05 50.4672 186.231C50.0139 186.401 49.5379 186.656 49.0392 186.996L48.5972 186.18C49.1752 185.783 49.7419 185.489 50.2972 185.296C50.8525 185.092 51.4192 184.99 51.9972 184.99C53.0852 184.99 53.9465 185.302 54.5812 185.925C55.2159 186.548 55.5332 187.41 55.5332 188.509V192.606C55.5332 192.765 55.5672 192.884 55.6352 192.963C55.7032 193.031 55.8109 193.071 55.9582 193.082V194C55.8335 194.011 55.7259 194.023 55.6352 194.034C55.5445 194.045 55.4765 194.045 55.4312 194.034C55.1479 194.023 54.9325 193.932 54.7852 193.762C54.6379 193.592 54.5585 193.411 54.5472 193.218L54.5302 192.572C54.1335 193.082 53.6179 193.479 52.9832 193.762C52.3485 194.034 51.7025 194.17 51.0452 194.17C50.4785 194.17 49.9629 194.051 49.4982 193.813C49.0449 193.564 48.6879 193.235 48.4272 192.827C48.1779 192.408 48.0532 191.949 48.0532 191.45ZM53.9862 192.13C54.1109 191.971 54.2072 191.818 54.2752 191.671C54.3432 191.524 54.3772 191.393 54.3772 191.28V189.988C53.9919 189.841 53.5895 189.727 53.1702 189.648C52.7622 189.569 52.3485 189.529 51.9292 189.529C51.1019 189.529 50.4332 189.693 49.9232 190.022C49.4132 190.351 49.1582 190.798 49.1582 191.365C49.1582 191.694 49.2432 192.005 49.4132 192.3C49.5832 192.583 49.8325 192.821 50.1612 193.014C50.4899 193.195 50.8752 193.286 51.3172 193.286C51.8725 193.286 52.3882 193.178 52.8642 192.963C53.3515 192.748 53.7255 192.47 53.9862 192.13ZM61.5839 194.119C60.9832 194.119 60.4279 193.994 59.9179 193.745C59.4079 193.496 58.9659 193.161 58.5919 192.742C58.2292 192.311 57.9459 191.824 57.7419 191.28C57.5379 190.736 57.4359 190.175 57.4359 189.597C57.4359 188.974 57.5322 188.39 57.7249 187.846C57.9289 187.291 58.2122 186.798 58.5749 186.367C58.9489 185.936 59.3852 185.602 59.8839 185.364C60.3825 185.115 60.9379 184.99 61.5499 184.99C62.3092 184.99 62.9665 185.183 63.5219 185.568C64.0885 185.953 64.5645 186.429 64.9499 186.996V185.143H65.9869V194.034C65.9869 194.85 65.7885 195.536 65.3919 196.091C65.0065 196.658 64.4795 197.083 63.8109 197.366C63.1535 197.649 62.4339 197.791 61.6519 197.791C60.6432 197.791 59.8272 197.61 59.2039 197.247C58.5805 196.884 58.0705 196.397 57.6739 195.785L58.3879 195.224C58.7392 195.779 59.2039 196.193 59.7819 196.465C60.3712 196.737 60.9945 196.873 61.6519 196.873C62.2299 196.873 62.7569 196.765 63.2329 196.55C63.7202 196.346 64.1055 196.034 64.3889 195.615C64.6835 195.196 64.8309 194.669 64.8309 194.034V192.283C64.4909 192.838 64.0262 193.286 63.4369 193.626C62.8475 193.955 62.2299 194.119 61.5839 194.119ZM61.9069 193.15C62.2582 193.15 62.5925 193.088 62.9099 192.963C63.2385 192.838 63.5389 192.674 63.8109 192.47C64.0829 192.255 64.3095 192.017 64.4909 191.756C64.6722 191.495 64.7855 191.229 64.8309 190.957V188.22C64.6609 187.789 64.4172 187.41 64.0999 187.081C63.7825 186.741 63.4199 186.48 63.0119 186.299C62.6152 186.106 62.2015 186.01 61.7709 186.01C61.2722 186.01 60.8245 186.118 60.4279 186.333C60.0425 186.537 59.7139 186.815 59.4419 187.166C59.1812 187.506 58.9772 187.891 58.8299 188.322C58.6825 188.753 58.6089 189.183 58.6089 189.614C58.6089 190.09 58.6939 190.543 58.8639 190.974C59.0339 191.393 59.2662 191.773 59.5609 192.113C59.8669 192.442 60.2182 192.697 60.6149 192.878C61.0229 193.059 61.4535 193.15 61.9069 193.15ZM68.4546 190.345V185.143H69.6106V190.141C69.6106 191.15 69.7806 191.903 70.1206 192.402C70.472 192.901 70.9876 193.15 71.6676 193.15C72.121 193.15 72.5573 193.054 72.9766 192.861C73.4073 192.657 73.787 192.374 74.1156 192.011C74.4443 191.637 74.6936 191.206 74.8636 190.719V185.143H76.0196V192.606C76.0196 192.765 76.0536 192.884 76.1216 192.963C76.1896 193.031 76.2916 193.071 76.4276 193.082V194C76.2916 194.011 76.184 194.017 76.1046 194.017C76.0253 194.028 75.9516 194.034 75.8836 194.034C75.657 194.011 75.4586 193.921 75.2886 193.762C75.13 193.603 75.045 193.411 75.0336 193.184L74.9996 191.994C74.6143 192.674 74.0873 193.207 73.4186 193.592C72.7613 193.977 72.0473 194.17 71.2766 194.17C70.3473 194.17 69.6446 193.847 69.1686 193.201C68.6926 192.555 68.4546 191.603 68.4546 190.345ZM82.4584 194.17C81.8237 194.17 81.2344 194.051 80.6904 193.813C80.1464 193.564 79.6761 193.229 79.2794 192.81C78.8827 192.379 78.5711 191.886 78.3444 191.331C78.1291 190.776 78.0214 190.181 78.0214 189.546C78.0214 188.719 78.2084 187.959 78.5824 187.268C78.9677 186.577 79.4947 186.027 80.1634 185.619C80.8321 185.2 81.5914 184.99 82.4414 184.99C83.3141 184.99 84.0734 185.2 84.7194 185.619C85.3767 186.038 85.8924 186.594 86.2664 187.285C86.6404 187.965 86.8274 188.713 86.8274 189.529C86.8274 189.62 86.8274 189.71 86.8274 189.801C86.8274 189.88 86.8217 189.943 86.8104 189.988H79.2284C79.2851 190.623 79.4607 191.189 79.7554 191.688C80.0614 192.175 80.4524 192.566 80.9284 192.861C81.4157 193.144 81.9427 193.286 82.5094 193.286C83.0874 193.286 83.6314 193.139 84.1414 192.844C84.6627 192.549 85.0254 192.164 85.2294 191.688L86.2324 191.96C86.0511 192.379 85.7734 192.759 85.3994 193.099C85.0254 193.439 84.5834 193.705 84.0734 193.898C83.5747 194.079 83.0364 194.17 82.4584 194.17ZM79.1944 189.155H85.7394C85.6941 188.509 85.5184 187.942 85.2124 187.455C84.9177 186.968 84.5267 186.588 84.0394 186.316C83.5634 186.033 83.0364 185.891 82.4584 185.891C81.8804 185.891 81.3534 186.033 80.8774 186.316C80.4014 186.588 80.0104 186.973 79.7044 187.472C79.4097 187.959 79.2397 188.52 79.1944 189.155ZM92.7779 193.575C92.6873 193.609 92.5456 193.671 92.3529 193.762C92.1603 193.853 91.9279 193.932 91.6559 194C91.3839 194.068 91.0893 194.102 90.7719 194.102C90.4433 194.102 90.1316 194.04 89.8369 193.915C89.5536 193.79 89.3269 193.603 89.1569 193.354C88.9869 193.093 88.9019 192.776 88.9019 192.402V186.061H87.6779V185.143H88.9019V182.151H90.0579V185.143H92.0979V186.061H90.0579V192.079C90.0806 192.396 90.1939 192.634 90.3979 192.793C90.6133 192.952 90.8569 193.031 91.1289 193.031C91.4463 193.031 91.7353 192.98 91.9959 192.878C92.2566 192.765 92.4153 192.685 92.4719 192.64L92.7779 193.575ZM98.4723 193.575C98.3816 193.609 98.2399 193.671 98.0473 193.762C97.8546 193.853 97.6223 193.932 97.3503 194C97.0783 194.068 96.7836 194.102 96.4663 194.102C96.1376 194.102 95.8259 194.04 95.5313 193.915C95.2479 193.79 95.0213 193.603 94.8513 193.354C94.6813 193.093 94.5963 192.776 94.5963 192.402V186.061H93.3723V185.143H94.5963V182.151H95.7523V185.143H97.7923V186.061H95.7523V192.079C95.7749 192.396 95.8883 192.634 96.0923 192.793C96.3076 192.952 96.5513 193.031 96.8233 193.031C97.1406 193.031 97.4296 192.98 97.6903 192.878C97.9509 192.765 98.1096 192.685 98.1663 192.64L98.4723 193.575ZM103.592 194.17C102.958 194.17 102.368 194.051 101.824 193.813C101.28 193.564 100.81 193.229 100.413 192.81C100.017 192.379 99.7049 191.886 99.4782 191.331C99.2629 190.776 99.1552 190.181 99.1552 189.546C99.1552 188.719 99.3422 187.959 99.7162 187.268C100.102 186.577 100.629 186.027 101.297 185.619C101.966 185.2 102.725 184.99 103.575 184.99C104.448 184.99 105.207 185.2 105.853 185.619C106.511 186.038 107.026 186.594 107.4 187.285C107.774 187.965 107.961 188.713 107.961 189.529C107.961 189.62 107.961 189.71 107.961 189.801C107.961 189.88 107.956 189.943 107.944 189.988H100.362C100.419 190.623 100.595 191.189 100.889 191.688C101.195 192.175 101.586 192.566 102.062 192.861C102.55 193.144 103.077 193.286 103.643 193.286C104.221 193.286 104.765 193.139 105.275 192.844C105.797 192.549 106.159 192.164 106.363 191.688L107.366 191.96C107.185 192.379 106.907 192.759 106.533 193.099C106.159 193.439 105.717 193.705 105.207 193.898C104.709 194.079 104.17 194.17 103.592 194.17ZM100.328 189.155H106.873C106.828 188.509 106.652 187.942 106.346 187.455C106.052 186.968 105.661 186.588 105.173 186.316C104.697 186.033 104.17 185.891 103.592 185.891C103.014 185.891 102.487 186.033 102.011 186.316C101.535 186.588 101.144 186.973 100.838 187.472C100.544 187.959 100.374 188.52 100.328 189.155ZM112.652 194.17C111.926 194.17 111.252 194.051 110.629 193.813C110.005 193.575 109.467 193.212 109.014 192.725L109.49 191.909C109.988 192.374 110.487 192.714 110.986 192.929C111.496 193.133 112.034 193.235 112.601 193.235C113.292 193.235 113.853 193.099 114.284 192.827C114.714 192.544 114.93 192.141 114.93 191.62C114.93 191.269 114.822 191.002 114.607 190.821C114.403 190.628 114.102 190.475 113.706 190.362C113.32 190.237 112.856 190.107 112.312 189.971C111.7 189.801 111.184 189.625 110.765 189.444C110.357 189.251 110.045 189.013 109.83 188.73C109.626 188.435 109.524 188.056 109.524 187.591C109.524 187.013 109.665 186.537 109.949 186.163C110.243 185.778 110.64 185.489 111.139 185.296C111.649 185.092 112.215 184.99 112.839 184.99C113.519 184.99 114.119 185.098 114.641 185.313C115.162 185.528 115.587 185.829 115.916 186.214L115.355 186.996C115.037 186.633 114.658 186.367 114.216 186.197C113.785 186.016 113.303 185.925 112.771 185.925C112.408 185.925 112.062 185.976 111.734 186.078C111.405 186.169 111.133 186.327 110.918 186.554C110.714 186.769 110.612 187.07 110.612 187.455C110.612 187.772 110.691 188.022 110.85 188.203C111.008 188.373 111.246 188.52 111.564 188.645C111.881 188.758 112.272 188.883 112.737 189.019C113.405 189.2 113.989 189.387 114.488 189.58C114.986 189.761 115.372 189.999 115.644 190.294C115.916 190.589 116.052 191.002 116.052 191.535C116.052 192.362 115.74 193.008 115.117 193.473C114.493 193.938 113.672 194.17 112.652 194.17Z" fill="black"/>
<path d="M129.641 79.1663C129.266 79.6038 129.078 80.0413 129.078 80.4788C129.078 80.9163 129.047 81.3225 128.984 81.6975C129.109 81.9475 129.234 82.135 129.359 82.26C129.484 82.385 129.516 82.6038 129.453 82.9163C129.203 83.4788 129.016 83.9475 128.891 84.3225C128.828 84.635 128.922 84.9475 129.172 85.26C129.234 85.8225 129.203 86.26 129.078 86.5725C129.016 86.885 128.922 87.1975 128.797 87.51C128.734 87.76 128.672 88.0413 128.609 88.3538C128.547 88.6038 128.609 88.9163 128.797 89.2913C128.609 89.6663 128.453 89.9788 128.328 90.2288C128.266 90.4788 128.172 90.6975 128.047 90.885C128.109 91.135 128.047 91.385 127.859 91.635C127.672 91.885 127.703 92.1975 127.953 92.5725C127.703 92.5725 127.609 92.6975 127.672 92.9475C127.797 93.135 127.797 93.3538 127.672 93.6038L126.922 95.01C126.109 95.6975 125.703 96.4163 125.703 97.1663C125.328 97.1663 125.047 97.2913 124.859 97.5413C124.734 97.7288 124.578 97.9163 124.391 98.1038C124.516 98.4788 124.453 98.6975 124.203 98.76C123.953 98.8225 123.828 99.0413 123.828 99.4163C123.453 99.4163 123.141 99.4788 122.891 99.6038C122.703 99.6663 122.453 99.76 122.141 99.885C122.016 100.323 121.828 100.573 121.578 100.635C121.328 100.635 121.203 100.791 121.203 101.104C119.953 101.541 118.984 101.885 118.297 102.135C117.672 102.385 117.047 102.635 116.422 102.885C115.797 103.135 115.141 103.385 114.453 103.635C113.766 103.823 113.016 103.916 112.203 103.916C110.578 104.229 108.984 104.635 107.422 105.135C105.922 105.573 104.641 106.073 103.578 106.635C102.203 107.135 100.984 107.729 99.9219 108.416C98.8594 109.041 97.8906 109.791 97.0156 110.666C96.8281 110.604 96.6094 110.635 96.3594 110.76C96.1094 110.823 95.8281 110.916 95.5156 111.041C95.0156 111.479 94.6406 112.01 94.3906 112.635C94.1406 113.26 93.7656 113.791 93.2656 114.229C93.3281 114.541 93.2969 114.76 93.1719 114.885C93.0469 115.01 92.9219 115.198 92.7969 115.448C92.6719 116.135 92.5469 116.51 92.4219 116.573C92.2969 116.635 92.1719 116.698 92.0469 116.76C92.1094 117.448 92.0156 118.041 91.7656 118.541C91.5156 118.979 91.5469 119.416 91.8594 119.854C92.2969 119.604 92.8281 119.416 93.4531 119.291C94.0781 119.104 94.5469 118.791 94.8594 118.354C95.2344 118.541 95.6406 118.666 96.0781 118.729C96.5781 118.729 97.0781 118.729 97.5781 118.729C98.1406 118.729 98.6719 118.791 99.1719 118.916C99.7344 118.979 100.234 119.135 100.672 119.385C100.547 119.073 100.672 119.01 101.047 119.198C101.484 119.385 101.766 119.541 101.891 119.666C102.766 119.666 103.516 119.729 104.141 119.854C104.828 119.979 105.516 120.198 106.203 120.51C106.891 120.385 107.453 120.448 107.891 120.698C108.328 120.948 108.828 120.885 109.391 120.51C109.891 120.823 110.516 120.916 111.266 120.791C112.078 120.604 112.703 120.76 113.141 121.26C113.516 121.198 113.891 121.166 114.266 121.166C114.641 121.166 114.953 121.26 115.203 121.448C116.141 121.385 117.078 121.26 118.016 121.073C119.016 120.823 119.922 120.541 120.734 120.229C121.484 119.916 122.172 119.666 122.797 119.479C123.422 119.291 123.922 118.885 124.297 118.26C125.172 117.385 125.641 116.573 125.703 115.823C125.828 115.01 125.891 114.198 125.891 113.385C125.891 112.51 125.891 111.698 125.891 110.948C125.891 110.135 125.984 109.385 126.172 108.698C126.734 108.51 127.297 108.541 127.859 108.791C127.734 109.729 127.797 110.635 128.047 111.51C128.297 112.323 128.359 113.26 128.234 114.323C128.109 115.323 127.984 116.229 127.859 117.041C127.797 117.791 127.609 118.573 127.297 119.385C127.484 120.198 127.453 120.76 127.203 121.073C126.953 121.323 126.922 121.604 127.109 121.916C126.984 122.041 126.859 122.166 126.734 122.291C126.609 122.416 126.484 122.604 126.359 122.854C126.922 123.291 127.141 123.541 127.016 123.604C126.953 123.666 126.891 123.76 126.828 123.885C127.141 124.323 127.141 124.635 126.828 124.823C126.578 124.948 126.484 125.166 126.547 125.479C126.359 125.916 126.141 126.104 125.891 126.041C125.703 125.979 125.578 126.01 125.516 126.135C125.266 126.385 125.141 126.604 125.141 126.791C125.141 126.916 125.141 127.135 125.141 127.448C124.953 127.51 124.797 127.635 124.672 127.823C124.609 128.01 124.547 128.229 124.484 128.479C124.422 128.666 124.328 128.854 124.203 129.041C124.141 129.229 124.016 129.323 123.828 129.323C123.953 129.885 123.797 130.323 123.359 130.635C122.984 130.885 122.672 131.229 122.422 131.666C121.672 132.291 120.953 132.791 120.266 133.166C119.578 133.541 118.891 133.979 118.203 134.479C117.641 134.541 117.297 134.604 117.172 134.666C117.047 134.729 116.922 134.823 116.797 134.948C116.672 135.073 116.516 135.135 116.328 135.135C116.203 135.198 116.078 135.104 115.953 134.854C115.828 135.104 115.547 135.229 115.109 135.229C114.672 135.229 114.359 135.135 114.172 134.948C113.859 135.26 113.547 135.416 113.234 135.416C112.984 135.479 112.766 135.604 112.578 135.791C112.141 135.479 111.766 135.104 111.453 134.666C111.141 134.229 110.734 133.916 110.234 133.729C109.734 134.041 109.297 134.041 108.922 133.729C108.547 133.416 108.391 133.104 108.453 132.791C107.578 132.979 107.109 132.948 107.047 132.698C107.047 132.448 106.922 132.26 106.672 132.135C106.609 131.198 106.516 130.698 106.391 130.635C106.266 130.573 106.109 130.479 105.922 130.354C105.672 130.416 105.484 130.541 105.359 130.729C105.297 130.854 105.109 130.885 104.797 130.823C104.609 130.51 104.484 130.166 104.422 129.791C104.359 129.354 104.484 129.041 104.797 128.854C104.297 127.479 103.734 126.198 103.109 125.01C102.484 123.823 101.547 122.885 100.297 122.198C100.109 121.885 99.9219 121.698 99.7344 121.635C99.6094 121.51 99.3906 121.448 99.0781 121.448C98.6406 121.135 98.1094 121.073 97.4844 121.26C96.9219 121.385 96.4219 121.291 95.9844 120.979C95.0469 121.166 94.4531 121.416 94.2031 121.729C94.0156 121.979 93.7031 122.041 93.2656 121.916C93.5156 122.229 93.4219 122.51 92.9844 122.76C92.5469 122.948 92.2344 123.229 92.0469 123.604C91.6719 124.166 91.3906 124.698 91.2031 125.198C91.0156 125.698 90.8906 126.26 90.8281 126.885C90.8281 127.51 90.8594 128.166 90.9219 128.854C90.9844 129.541 91.0156 130.198 91.0156 130.823C90.5781 131.073 90.0156 131.26 89.3281 131.385C89.2656 131.073 89.1719 130.885 89.0469 130.823C88.9219 130.698 88.7969 130.51 88.6719 130.26C88.8594 128.948 88.8906 127.416 88.7656 125.666C88.6406 123.916 88.8281 122.416 89.3281 121.166C89.0781 120.166 89.1406 119.198 89.5156 118.26C89.9531 117.323 90.2344 116.416 90.3594 115.541C90.6719 115.229 90.9219 114.854 91.1094 114.416C91.2969 113.979 91.3281 113.573 91.2031 113.198C91.3906 112.573 91.6406 112.073 91.9531 111.698C92.3281 111.26 92.7031 110.854 93.0781 110.479C93.5156 110.104 93.9219 109.729 94.2969 109.354C94.6719 108.979 94.9531 108.541 95.1406 108.041C95.6406 107.541 96.1406 107.104 96.6406 106.729C97.1406 106.354 97.6406 105.948 98.1406 105.51C98.7031 105.135 99.1719 104.823 99.5469 104.573C99.9219 104.323 100.266 104.01 100.578 103.635C102.391 102.885 104.172 102.01 105.922 101.01C107.734 99.9475 109.422 98.8225 110.984 97.635C111.422 96.9475 111.547 96.635 111.359 96.6975C111.234 96.6975 111.234 96.6038 111.359 96.4163C111.859 95.7913 112.422 95.1663 113.047 94.5413C113.672 93.9163 114.078 93.135 114.266 92.1975C114.078 91.3225 114.078 90.6038 114.266 90.0413C114.453 89.4788 114.641 88.9163 114.828 88.3538C115.453 86.2288 115.734 84.2288 115.672 82.3538C115.672 80.4163 115.672 78.2913 115.672 75.9788C115.234 75.1038 115.109 74.4163 115.297 73.9163C115.547 73.4163 115.641 72.9163 115.578 72.4163C114.891 71.6038 114.516 70.7913 114.453 69.9788C114.391 69.1663 114.016 68.6038 113.328 68.2913C113.578 68.0413 113.578 67.8225 113.328 67.635C113.078 67.4475 113.016 67.1038 113.141 66.6038C112.891 66.4788 112.734 66.26 112.672 65.9475C112.672 65.5725 112.547 65.3225 112.297 65.1975C111.922 65.0725 111.422 64.76 110.797 64.26C110.172 63.76 109.453 63.4788 108.641 63.4163C107.891 63.7288 107.047 63.76 106.109 63.51C105.172 63.1975 104.297 63.1663 103.484 63.4163C103.172 63.7288 102.766 63.9788 102.266 64.1663C101.766 64.3538 101.266 64.5413 100.766 64.7288C100.266 64.8538 99.7969 65.0413 99.3594 65.2913C98.9219 65.5413 98.6094 65.885 98.4219 66.3225C97.2969 66.885 96.2969 67.635 95.4219 68.5725C94.5469 69.4475 93.6719 70.2288 92.7969 70.9163C93.0469 70.9788 93.1094 71.135 92.9844 71.385C92.9219 71.635 92.7344 71.8225 92.4219 71.9475C92.0469 72.1975 91.6406 72.51 91.2031 72.885C90.8281 73.26 90.4844 73.6975 90.1719 74.1975C90.1094 74.76 89.9531 75.26 89.7031 75.6975C89.5156 76.0725 89.3594 76.4788 89.2344 76.9163C89.2344 77.8538 89.2969 78.7913 89.4219 79.7288C89.6094 80.6038 90.2344 81.1038 91.2969 81.2288C94.1719 81.2288 96.3594 81.9475 97.8594 83.385C99.4219 84.76 100.484 86.4788 101.047 88.5413C100.547 89.3538 100.078 90.1975 99.6406 91.0725C99.2031 91.885 98.7344 92.6663 98.2344 93.4163C97.3594 94.1038 96.6406 94.5413 96.0781 94.7288C95.5781 94.8538 94.8281 94.9475 93.8281 95.01C92.0156 94.135 90.6406 92.9475 89.7031 91.4475C88.8281 89.885 88.0469 88.135 87.3594 86.1975C87.6719 85.5725 87.7344 84.9163 87.5469 84.2288C87.3594 83.4788 87.1406 82.76 86.8906 82.0725C87.2031 80.385 87.4844 78.6975 87.7344 77.01C87.9844 75.3225 88.5469 73.8225 89.4219 72.51C90.1719 71.8225 90.7969 71.0725 91.2969 70.26C91.7969 69.4475 92.3906 68.7288 93.0781 68.1038C93.5781 67.6038 94.0781 67.1663 94.5781 66.7913C95.1406 66.3538 95.6094 65.8538 95.9844 65.2913C97.4219 64.6663 98.7656 63.9788 100.016 63.2288C101.266 62.4788 102.672 61.8538 104.234 61.3538C105.422 61.4788 106.484 61.4788 107.422 61.3538C108.359 61.2288 109.359 61.2288 110.422 61.3538C110.734 61.4163 111.047 61.5413 111.359 61.7288C111.734 61.9163 112.078 62.01 112.391 62.01C112.641 62.0725 112.922 62.0725 113.234 62.01C113.547 61.9475 113.859 61.9163 114.172 61.9163C114.672 61.9788 115.109 62.0413 115.484 62.1038C115.922 62.1038 116.484 62.0413 117.172 61.9163C117.547 62.1038 117.766 62.1663 117.828 62.1038C117.891 62.0413 118.047 62.01 118.297 62.01C118.922 62.4475 119.547 62.885 120.172 63.3225C120.797 63.76 121.453 64.1663 122.141 64.5413C122.078 65.0413 122.172 65.51 122.422 65.9475C122.672 66.3225 123.016 66.5725 123.453 66.6975C123.828 67.635 124.172 68.3225 124.484 68.76C124.797 69.135 125.172 69.4475 125.609 69.6975C125.484 70.26 125.484 70.635 125.609 70.8225C125.734 71.01 125.891 71.2288 126.078 71.4788C126.266 71.6663 126.391 71.885 126.453 72.135C126.578 72.3225 126.516 72.4788 126.266 72.6038C126.328 72.9163 126.453 73.1663 126.641 73.3538C126.891 73.5413 126.922 73.7288 126.734 73.9163C126.859 74.1038 127.047 74.2288 127.297 74.2913C127.547 74.2913 127.797 74.3538 128.047 74.4788C127.984 75.1663 127.703 75.5725 127.203 75.6975C127.516 76.0725 127.797 76.51 128.047 77.01C128.359 77.4475 128.578 77.9475 128.703 78.51C128.828 79.01 128.984 79.26 129.172 79.26C129.359 79.1975 129.516 79.1663 129.641 79.1663ZM118.484 65.1038C117.984 65.4163 117.578 65.5725 117.266 65.5725C117.516 65.635 117.734 65.635 117.922 65.5725C118.172 65.4475 118.359 65.2913 118.484 65.1038ZM116.984 65.385C116.734 65.26 116.516 65.26 116.328 65.385C116.141 65.51 116.078 65.7288 116.141 66.0413C116.516 65.9788 116.734 65.9163 116.797 65.8538C116.922 65.7913 116.984 65.635 116.984 65.385ZM115.953 63.9788C115.641 63.7913 115.266 63.76 114.828 63.885C114.453 64.01 114.109 64.01 113.797 63.885C113.797 64.26 113.953 64.51 114.266 64.635C114.578 64.76 114.734 65.01 114.734 65.385C115.109 64.885 115.391 64.6038 115.578 64.5413C115.766 64.4163 115.891 64.2288 115.953 63.9788ZM118.391 66.51C118.016 66.4475 117.734 66.51 117.547 66.6975C117.422 66.885 117.203 67.0413 116.891 67.1663C116.391 66.8538 116.078 66.8538 115.953 67.1663C115.891 67.4788 115.797 67.76 115.672 68.01C116.234 67.885 116.578 67.8225 116.703 67.8225C117.078 67.635 117.422 67.4475 117.734 67.26C118.109 67.0725 118.328 66.8225 118.391 66.51ZM127.109 81.7913C126.922 81.6038 126.422 81.5725 125.609 81.6975C125.672 81.385 125.797 81.135 125.984 80.9475C126.234 80.6975 126.422 80.4475 126.547 80.1975C126.609 79.1975 126.578 78.6038 126.453 78.4163C126.328 78.1663 126.203 77.9163 126.078 77.6663C125.578 77.7288 125.234 77.7288 125.047 77.6663C124.922 77.5413 124.672 77.4475 124.297 77.385C124.609 77.385 124.828 77.26 124.953 77.01C125.141 76.76 125.109 76.51 124.859 76.26C124.672 76.0725 124.609 75.9163 124.672 75.7913C124.734 75.6038 124.828 75.385 124.953 75.135C124.828 74.9475 124.609 74.9163 124.297 75.0413C124.047 75.1038 123.766 75.135 123.453 75.135C123.578 74.6975 123.734 74.385 123.922 74.1975C124.172 73.9475 124.172 73.7288 123.922 73.5413C123.984 72.7913 123.922 72.4788 123.734 72.6038C123.547 72.6663 123.422 72.6038 123.359 72.4163C123.422 71.9788 123.391 71.635 123.266 71.385C123.141 71.0725 122.891 70.9163 122.516 70.9163C122.891 70.1038 122.922 69.6975 122.609 69.6975C122.297 69.635 122.016 69.6038 121.766 69.6038C121.391 68.6663 121.078 68.0413 120.828 67.7288C120.453 68.0413 120.047 68.135 119.609 68.01C119.672 67.51 119.672 67.1663 119.609 66.9788C119.547 66.7288 119.453 66.5413 119.328 66.4163C119.141 66.5413 119.047 66.7288 119.047 66.9788C119.109 67.1663 119.078 67.3225 118.953 67.4475C118.516 67.6975 118.078 67.885 117.641 68.01C117.266 68.0725 117.047 68.2913 116.984 68.6663C117.797 68.4163 118.547 68.0413 119.234 67.5413C119.109 67.7913 118.953 68.01 118.766 68.1975C118.641 68.3225 118.422 68.385 118.109 68.385C118.297 69.01 118.359 69.385 118.297 69.51C118.234 69.5725 118.016 69.5413 117.641 69.4163C117.453 69.9163 117.297 70.385 117.172 70.8225C117.109 71.26 117.203 71.635 117.453 71.9475C118.078 72.385 118.359 72.51 118.297 72.3225C118.234 72.135 118.297 72.0725 118.484 72.135C118.172 72.8225 118.078 73.2913 118.203 73.5413C118.391 73.7288 118.359 73.885 118.109 74.01C118.172 74.4475 118.109 74.7913 117.922 75.0413C117.797 75.2288 117.766 75.5725 117.828 76.0725C118.641 76.135 119.016 76.1663 118.953 76.1663C118.953 76.1663 119.109 76.0725 119.422 75.885C119.922 76.4475 120.172 76.635 120.172 76.4475C120.234 76.26 120.359 76.1663 120.547 76.1663C120.609 76.2913 120.703 76.3538 120.828 76.3538C121.016 76.3538 121.172 76.3225 121.297 76.26C121.484 76.1975 121.641 76.1663 121.766 76.1663C121.953 76.1038 122.109 76.1038 122.234 76.1663C121.734 76.6663 121.484 76.885 121.484 76.8225C121.484 76.76 121.422 76.7288 121.297 76.7288C120.859 76.8538 120.516 77.0725 120.266 77.385C120.078 77.6975 119.828 77.76 119.516 77.5725C119.078 77.26 118.703 77.3225 118.391 77.76C118.078 78.135 117.984 78.6038 118.109 79.1663C118.609 79.4788 119.016 79.6038 119.328 79.5413C119.641 79.4788 119.859 79.3225 119.984 79.0725C120.547 78.8225 120.891 78.76 121.016 78.885C121.078 79.4475 121.047 79.9163 120.922 80.2913C121.109 80.0413 121.297 79.9163 121.484 79.9163C121.734 79.8538 122.016 79.76 122.328 79.635C122.328 79.1975 122.422 78.885 122.609 78.6975C122.797 78.4475 122.953 78.1975 123.078 77.9475C123.328 78.135 123.578 78.1975 123.828 78.135C124.078 78.0725 124.172 77.885 124.109 77.5725C124.547 78.0725 124.734 78.385 124.672 78.51C124.609 78.5725 124.484 78.6038 124.297 78.6038C124.234 78.7913 123.891 78.885 123.266 78.885C122.953 79.385 122.641 79.7288 122.328 79.9163C122.078 80.0413 121.766 80.1663 121.391 80.2913C121.516 80.7913 121.422 81.135 121.109 81.3225C120.859 81.4475 120.516 81.51 120.078 81.51C119.953 81.135 120.047 80.9163 120.359 80.8538C120.672 80.7913 120.828 80.6038 120.828 80.2913C120.141 80.2288 119.672 80.2288 119.422 80.2913C119.234 80.3538 119.078 80.4475 118.953 80.5725C118.453 81.135 118.141 81.4788 118.016 81.6038C117.953 81.7288 117.984 81.8538 118.109 81.9788C118.297 81.9163 118.547 81.885 118.859 81.885C119.172 81.8225 119.391 81.8538 119.516 81.9788C119.141 82.3538 118.859 82.635 118.672 82.8225C118.547 82.9475 118.453 83.135 118.391 83.385C118.828 83.635 119.266 83.76 119.703 83.76C120.141 83.6975 120.422 83.8225 120.547 84.135C120.047 84.135 119.734 84.26 119.609 84.51C119.484 84.76 119.266 84.7913 118.953 84.6038C118.203 84.8538 117.922 85.01 118.109 85.0725C118.359 85.135 118.453 85.3225 118.391 85.635C117.766 86.01 117.391 86.26 117.266 86.385C117.203 86.51 117.109 86.635 116.984 86.76C117.109 87.3225 117.234 87.635 117.359 87.6975C117.547 87.76 117.797 87.8225 118.109 87.885C117.859 88.6975 117.734 89.1663 117.734 89.2913C117.797 89.4163 117.703 89.635 117.453 89.9475C117.016 90.3225 116.766 90.635 116.703 90.885C116.641 91.135 116.609 91.4163 116.609 91.7288C116.859 91.7288 117.016 91.6663 117.078 91.5413C117.203 91.3538 117.328 91.1975 117.453 91.0725C116.953 91.51 116.609 91.8225 116.422 92.01C116.297 92.135 116.172 92.26 116.047 92.385C116.047 93.135 116.109 93.51 116.234 93.51C116.359 93.51 116.391 93.6038 116.328 93.7913C115.891 94.4163 115.641 94.6663 115.578 94.5413C115.578 94.4163 115.516 94.385 115.391 94.4475C115.453 94.6975 115.547 94.885 115.672 95.01C115.859 95.135 116.016 95.3225 116.141 95.5725C115.641 95.5725 115.422 95.4788 115.484 95.2913C115.547 95.0413 115.422 94.8538 115.109 94.7288C115.047 95.0413 115.109 95.3225 115.297 95.5725C115.547 95.76 115.609 95.9475 115.484 96.135C114.922 96.51 114.547 96.7913 114.359 96.9788C114.234 97.1038 114.109 97.26 113.984 97.4475C113.922 97.635 113.797 97.8225 113.609 98.01C113.484 98.135 113.234 98.1975 112.859 98.1975C112.797 98.635 112.547 98.9163 112.109 99.0413C111.672 99.1038 111.297 99.26 110.984 99.51C109.547 100.76 108.203 101.698 106.953 102.323C105.766 102.885 104.641 103.51 103.578 104.198C104.391 104.323 105.016 104.198 105.453 103.823C105.953 103.385 106.578 103.166 107.328 103.166C107.516 102.666 107.828 102.51 108.266 102.698C108.766 102.823 109.266 102.729 109.766 102.416C109.766 102.166 109.953 101.979 110.328 101.854C110.703 101.666 111.016 101.604 111.266 101.666C111.453 101.979 111.797 102.104 112.297 102.041C112.859 101.979 113.266 101.916 113.516 101.854C114.266 101.729 114.984 101.51 115.672 101.198C116.422 100.885 117.078 100.666 117.641 100.541C117.141 100.041 116.859 99.8225 116.797 99.885C116.734 99.9475 116.609 99.9788 116.422 99.9788C116.422 99.6663 116.516 99.4788 116.703 99.4163C116.891 99.3538 117.109 99.26 117.359 99.135C117.859 98.385 118.203 97.76 118.391 97.26C118.953 96.6975 119.203 96.3538 119.141 96.2288C119.078 96.1038 119.047 95.9475 119.047 95.76C119.734 95.6975 120.078 95.76 120.078 95.9475C120.141 96.135 120.297 96.1975 120.547 96.135C120.547 95.885 120.609 95.7288 120.734 95.6663C120.859 95.5413 120.953 95.385 121.016 95.1975C121.141 95.3225 121.266 95.51 121.391 95.76C121.516 95.9475 121.734 96.1038 122.047 96.2288C122.109 95.9788 122.172 95.8225 122.234 95.76C122.297 95.635 122.297 95.4163 122.234 95.1038C122.609 94.7913 122.891 94.6038 123.078 94.5413C123.328 94.4163 123.578 94.3225 123.828 94.26C124.078 94.135 124.297 93.9788 124.484 93.7913C124.672 93.6038 124.734 93.2913 124.672 92.8538C125.984 91.0413 126.734 89.2913 126.922 87.6038C127.109 85.9163 127.172 83.9788 127.109 81.7913ZM124.016 95.4788C123.328 95.1038 122.953 95.0725 122.891 95.385C123.078 96.01 123.141 96.3538 123.078 96.4163C123.078 96.4163 123.047 96.4163 122.984 96.4163C122.297 96.6038 121.828 96.6663 121.578 96.6038C121.391 96.5413 121.359 96.4163 121.484 96.2288C121.297 96.4788 121.172 96.6975 121.109 96.885C121.047 97.0725 121.109 97.2288 121.297 97.3538C121.547 97.4788 121.453 97.6038 121.016 97.7288C120.578 97.8538 120.172 97.7913 119.797 97.5413C119.797 98.4163 119.641 99.0725 119.328 99.51C119.016 99.885 118.609 100.01 118.109 99.885C119.484 99.51 120.672 98.9788 121.672 98.2913C122.734 97.6038 123.516 96.6663 124.016 95.4788ZM120.734 97.1663L119.984 96.0413C119.734 96.4163 119.578 96.635 119.516 96.6975C119.516 96.76 119.516 96.9788 119.516 97.3538C119.766 97.2288 119.984 97.1975 120.172 97.26C120.422 97.3225 120.609 97.2913 120.734 97.1663ZM119.328 98.01C119.016 97.8225 118.797 97.7913 118.672 97.9163C118.609 98.0413 118.484 98.1038 118.297 98.1038C118.609 98.4163 118.797 98.51 118.859 98.385C118.984 98.1975 119.141 98.0725 119.328 98.01ZM94.7656 83.76C94.3281 83.4475 93.9531 83.4475 93.6406 83.76C93.3281 84.01 93.1094 84.2913 92.9844 84.6038C93.2969 84.7288 93.5781 84.6663 93.8281 84.4163C94.1406 84.1038 94.4531 83.885 94.7656 83.76ZM97.3906 85.635C97.3281 85.01 96.9531 84.7913 96.2656 84.9788C95.5781 85.1038 95.0781 85.3225 94.7656 85.635C94.4531 85.51 94.1719 85.5413 93.9219 85.7288C93.6719 85.8538 93.5469 86.0725 93.5469 86.385C93.8594 86.385 94.0156 86.5413 94.0156 86.8538C94.0781 87.1038 93.9844 87.2913 93.7344 87.4163C93.9219 87.3538 94.1406 87.1975 94.3906 86.9475C94.6406 86.6975 94.8906 86.4788 95.1406 86.2913C95.4531 86.1038 95.7344 85.9788 95.9844 85.9163C96.2969 85.8538 96.5781 85.9475 96.8281 86.1975L97.3906 85.635ZM89.5156 82.1663C89.1406 82.1663 88.9531 82.3225 88.9531 82.635C88.9531 82.885 89.0469 83.135 89.2344 83.385C89.2969 83.135 89.3594 82.9475 89.4219 82.8225C89.4844 82.635 89.5156 82.4163 89.5156 82.1663ZM98.4219 87.3225C98.1094 87.51 97.8594 87.635 97.6719 87.6975C97.4844 87.6975 97.3594 87.7913 97.2969 87.9788C96.9219 87.9163 96.6719 87.9163 96.5469 87.9788C96.4219 88.0413 96.3281 88.1663 96.2656 88.3538C96.3281 88.0413 96.4531 87.7913 96.6406 87.6038C96.8906 87.4163 97.0469 87.0725 97.1094 86.5725C96.5469 86.51 96.1406 86.4163 95.8906 86.2913C95.5156 86.6663 95.3906 86.8538 95.5156 86.8538C95.7031 86.8538 95.7969 87.01 95.7969 87.3225C95.5469 87.135 95.3594 87.01 95.2344 86.9475C95.1719 86.8225 95.1094 86.6975 95.0469 86.5725C94.9844 87.0725 94.8594 87.4788 94.6719 87.7913C94.5469 88.1038 94.3281 88.3538 94.0156 88.5413C93.7031 88.7288 93.3594 88.885 92.9844 89.01C92.6094 89.0725 92.3281 89.0725 92.1406 89.01C91.9531 89.635 91.7656 90.01 91.5781 90.135C91.3906 90.1975 91.3594 90.385 91.4844 90.6975C91.7344 90.76 91.8906 90.885 91.9531 91.0725C92.0156 91.26 92.1406 91.385 92.3281 91.4475C92.6406 91.01 93.0156 90.7913 93.4531 90.7913C93.6406 91.4163 93.6406 91.7913 93.4531 91.9163C93.2656 91.9788 93.2031 92.1663 93.2656 92.4788C93.8906 92.5413 94.3594 92.4163 94.6719 92.1038C94.9844 91.7288 95.3594 91.5725 95.7969 91.635C95.9219 91.51 96.1406 91.2913 96.4531 90.9788C96.7656 90.6038 97.0781 90.4475 97.3906 90.51C97.7656 90.01 98.1406 89.5413 98.5156 89.1038C98.8906 88.6038 98.8594 88.01 98.4219 87.3225ZM93.5469 86.8538C93.2969 86.9788 93.0781 87.1663 92.8906 87.4163C92.7656 87.6038 92.6094 87.635 92.4219 87.51C92.7344 87.51 93.0469 87.4788 93.3594 87.4163C93.6719 87.3538 93.7344 87.1663 93.5469 86.8538ZM90.5469 84.7913C89.9844 84.7913 89.7656 85.1038 89.8906 85.7288C90.2031 85.7913 90.3594 85.6975 90.3594 85.4475C90.4219 85.1975 90.4844 84.9788 90.5469 84.7913ZM97.5781 91.1663C97.3281 91.4163 97.1094 91.635 96.9219 91.8225C96.7344 92.01 96.5469 92.1663 96.3594 92.2913C96.1719 92.4163 96.0156 92.5725 95.8906 92.76C95.7656 92.885 95.7344 93.0413 95.7969 93.2288C96.1719 92.9788 96.5156 92.7288 96.8281 92.4788C97.2031 92.2288 97.4531 91.7913 97.5781 91.1663ZM92.1406 88.26C91.7656 88.1975 91.3906 88.2288 91.0156 88.3538C90.7031 88.4788 90.5781 88.6975 90.6406 89.01C90.7656 88.885 90.9219 88.8538 91.1094 88.9163C91.3594 88.9788 91.5469 88.9788 91.6719 88.9163L92.1406 88.26ZM121.391 123.416C121.391 122.916 121.234 122.729 120.922 122.854C120.609 122.916 120.328 123.01 120.078 123.135C120.641 123.698 120.891 123.885 120.828 123.698C120.828 123.448 121.016 123.354 121.391 123.416ZM102.828 104.76C102.391 105.073 102.016 105.166 101.703 105.041C101.453 104.916 101.359 104.979 101.422 105.229C101.547 105.354 101.766 105.354 102.078 105.229C102.453 105.041 102.703 104.885 102.828 104.76ZM120.734 124.073C120.547 124.073 120.297 124.041 119.984 123.979C119.672 123.854 119.547 123.916 119.609 124.166C120.109 124.291 120.391 124.354 120.453 124.354C120.516 124.291 120.609 124.198 120.734 124.073ZM118.672 125.01C117.984 125.073 117.641 125.166 117.641 125.291C117.641 125.354 117.578 125.448 117.453 125.573C117.953 125.51 118.266 125.448 118.391 125.385C118.516 125.323 118.609 125.198 118.672 125.01ZM124.766 122.479C124.266 123.104 123.828 123.385 123.453 123.323C122.953 124.26 122.547 124.76 122.234 124.823C121.922 124.885 121.641 124.979 121.391 125.104C121.016 125.729 120.766 126.104 120.641 126.229C120.516 126.354 120.359 126.416 120.172 126.416C119.984 127.291 119.734 127.729 119.422 127.729C119.172 127.729 118.922 127.791 118.672 127.916C119.109 128.229 119.328 128.323 119.328 128.198C119.391 128.01 119.578 127.916 119.891 127.916C120.016 128.041 120.141 128.135 120.266 128.198C120.453 128.198 120.609 128.354 120.734 128.666C120.297 128.604 120.078 128.698 120.078 128.948C120.078 129.135 119.922 129.198 119.609 129.135C119.672 129.698 119.484 130.073 119.047 130.26C118.672 130.448 118.266 130.573 117.828 130.635C117.953 131.323 117.797 131.698 117.359 131.76C116.984 131.823 116.641 132.01 116.328 132.323C117.391 132.448 118.484 132.166 119.609 131.479C120.734 130.791 121.547 129.791 122.047 128.479C122.359 128.291 122.516 128.104 122.516 127.916C122.578 127.666 122.547 127.51 122.422 127.448C122.422 127.26 122.453 127.104 122.516 126.979C122.641 126.791 122.766 126.635 122.891 126.51C123.141 125.573 123.484 124.916 123.922 124.541C124.422 124.104 124.703 123.416 124.766 122.479ZM118.859 123.604C118.359 123.479 117.922 123.323 117.547 123.135C117.172 122.948 116.891 123.01 116.703 123.323C116.141 123.135 115.766 123.01 115.578 122.948C115.391 122.885 115.234 122.948 115.109 123.135C115.109 123.885 115.047 124.323 114.922 124.448C114.859 124.51 114.891 124.666 115.016 124.916C114.516 124.854 114.203 125.01 114.078 125.385C114.016 125.698 113.828 125.948 113.516 126.135C113.016 126.385 112.703 126.604 112.578 126.791C112.516 126.979 112.391 127.104 112.203 127.166C112.328 127.604 112.297 127.854 112.109 127.916C111.922 127.916 111.922 128.041 112.109 128.291C112.734 128.104 113.016 127.979 112.953 127.916C112.953 127.791 113.016 127.729 113.141 127.729L114.172 126.885C114.109 126.635 114.078 126.323 114.078 125.948C114.141 125.573 114.453 125.541 115.016 125.854C114.766 125.979 114.578 126.166 114.453 126.416C114.391 126.666 114.297 126.916 114.172 127.166C114.484 127.291 114.734 127.291 114.922 127.166C115.109 127.041 115.391 126.979 115.766 126.979C115.328 126.729 115.141 126.541 115.203 126.416C115.328 126.229 115.328 126.041 115.203 125.854C115.578 125.791 115.859 125.666 116.047 125.479C116.297 125.291 116.297 125.073 116.047 124.823C116.734 124.26 117.141 123.948 117.266 123.885C117.391 123.76 117.703 123.666 118.203 123.604H118.859ZM119.234 128.666C118.547 128.729 118.266 128.823 118.391 128.948C118.516 129.01 118.484 129.104 118.297 129.229C117.734 129.104 117.391 129.135 117.266 129.323C117.203 129.51 117.016 129.635 116.703 129.698C116.828 130.198 117.078 130.385 117.453 130.26C117.891 130.073 118.359 129.948 118.859 129.885C118.734 129.385 118.797 129.104 119.047 129.041C119.297 128.979 119.359 128.854 119.234 128.666ZM118.297 126.791C117.984 126.666 117.734 126.666 117.547 126.791C117.422 126.854 117.234 126.885 116.984 126.885C116.609 127.198 116.453 127.385 116.516 127.448C116.578 127.51 116.578 127.635 116.516 127.823C116.203 127.948 115.922 128.104 115.672 128.291C115.422 128.479 115.109 128.51 114.734 128.385C114.484 129.01 114.297 129.323 114.172 129.323C114.047 129.26 114.078 129.354 114.266 129.604C113.891 130.229 113.547 130.541 113.234 130.541C112.922 130.479 112.703 130.541 112.578 130.729C112.266 131.166 112.109 131.448 112.109 131.573C112.172 131.635 112.172 131.698 112.109 131.76C111.859 131.76 111.609 131.729 111.359 131.666C111.172 131.604 111.047 131.729 110.984 132.041C111.484 132.416 111.797 132.635 111.922 132.698C112.047 132.76 112.172 132.823 112.297 132.885C112.422 132.573 112.609 132.479 112.859 132.604C113.172 132.666 113.391 132.541 113.516 132.229C113.891 131.416 114.328 130.885 114.828 130.635C115.328 130.323 115.641 129.885 115.766 129.323C116.391 128.823 116.797 128.416 116.984 128.104C117.172 127.729 117.328 127.416 117.453 127.166L118.297 126.791ZM114.172 123.416C113.859 123.416 113.516 123.416 113.141 123.416C112.828 123.354 112.578 123.198 112.391 122.948C112.078 123.073 111.828 123.291 111.641 123.604C111.453 123.916 111.203 124.135 110.891 124.26C110.641 124.635 110.297 124.979 109.859 125.291C109.484 125.541 109.391 125.823 109.578 126.135C109.016 126.385 108.672 126.541 108.547 126.604C108.484 126.666 108.453 126.76 108.453 126.885C109.328 126.948 109.672 127.104 109.484 127.354C109.359 127.541 109.141 127.76 108.828 128.01C108.578 128.198 108.328 128.448 108.078 128.76C107.891 129.01 107.859 129.323 107.984 129.698C108.359 129.698 108.578 129.604 108.641 129.416C108.766 129.166 108.953 128.979 109.203 128.854C109.328 128.479 109.516 128.291 109.766 128.291C110.016 128.229 110.234 128.26 110.422 128.385C110.422 128.073 110.297 127.916 110.047 127.916C109.859 127.854 109.766 127.666 109.766 127.354C110.016 126.916 110.141 126.635 110.141 126.51C110.141 126.323 110.266 126.26 110.516 126.323C111.078 125.823 111.422 125.573 111.547 125.573C111.859 125.135 112.297 124.76 112.859 124.448C113.422 124.135 113.859 123.791 114.172 123.416ZM113.516 128.76C112.828 128.76 112.266 128.76 111.828 128.76C111.453 128.76 111.234 128.948 111.172 129.323C110.922 129.323 110.734 129.354 110.609 129.416C110.484 129.479 110.297 129.479 110.047 129.416C110.172 130.104 110.203 130.479 110.141 130.541C110.141 130.541 110.109 130.604 110.047 130.729C110.484 130.541 110.672 130.385 110.609 130.26C110.609 130.073 110.703 130.01 110.891 130.073C111.516 130.01 112.016 129.979 112.391 129.979C112.516 129.729 112.641 129.479 112.766 129.229C112.891 128.916 113.141 128.76 113.516 128.76ZM107.891 122.291C107.516 122.229 107.172 122.166 106.859 122.104C106.547 122.041 106.297 122.166 106.109 122.479C106.359 123.166 106.391 123.51 106.203 123.51C105.891 123.323 105.672 123.291 105.547 123.416C105.484 123.479 105.422 123.604 105.359 123.791C105.297 123.916 105.234 124.073 105.172 124.26C105.109 124.448 104.984 124.541 104.797 124.541C104.797 124.791 104.859 125.01 104.984 125.198C105.172 125.385 105.328 125.573 105.453 125.76C105.641 125.948 105.766 126.135 105.828 126.323C105.891 126.448 105.797 126.635 105.547 126.885C105.984 126.948 106.203 126.916 106.203 126.791C106.266 126.604 106.391 126.666 106.578 126.979C106.578 126.166 106.484 125.635 106.297 125.385C106.172 125.135 106.047 124.791 105.922 124.354C106.797 123.791 107.453 123.104 107.891 122.291ZM122.516 73.0725C122.641 73.1975 122.641 73.4163 122.516 73.7288C122.391 74.0413 122.141 74.135 121.766 74.01C121.828 73.76 121.922 73.5725 122.047 73.4475C122.234 73.3225 122.391 73.1975 122.516 73.0725ZM119.516 71.1038C118.828 71.1663 118.516 71.3225 118.578 71.5725C118.641 71.8225 118.547 71.9163 118.297 71.8538C118.297 71.2288 118.703 70.9788 119.516 71.1038ZM123.078 75.7913C122.641 75.7288 122.234 75.7913 121.859 75.9788C122.172 75.7288 122.328 75.4788 122.328 75.2288C122.391 74.9163 122.578 74.76 122.891 74.76C123.078 74.885 123.109 75.0413 122.984 75.2288C122.922 75.3538 122.953 75.5413 123.078 75.7913ZM123.828 77.385C123.328 77.4475 123.078 77.385 123.078 77.1975C123.141 77.01 123.172 76.76 123.172 76.4475C123.484 76.51 123.609 76.6663 123.547 76.9163C123.484 77.1038 123.578 77.26 123.828 77.385ZM120.547 74.8538L118.859 75.135C119.109 74.9475 119.359 74.7288 119.609 74.4788C119.859 74.1663 120.172 74.0725 120.547 74.1975V74.8538ZM125.516 80.6663C125.266 80.7913 125.047 80.9163 124.859 81.0413C124.734 81.1663 124.516 81.2288 124.203 81.2288C124.891 80.7288 125.234 80.3225 125.234 80.01L125.516 80.6663ZM122.141 77.8538C122.016 78.1663 121.734 78.385 121.297 78.51C120.922 78.635 120.672 78.4788 120.547 78.0413C120.859 78.1663 121.141 78.1975 121.391 78.135C121.641 78.0725 121.891 77.9788 122.141 77.8538ZM124.109 81.135C123.422 81.635 123.016 81.8538 122.891 81.7913C122.766 81.7288 122.609 81.76 122.422 81.885C122.922 81.3225 123.266 81.0725 123.453 81.135C123.703 81.1975 123.922 81.1975 124.109 81.135ZM125.516 85.0725C125.203 85.3225 124.953 85.4475 124.766 85.4475C124.578 85.385 124.453 85.4788 124.391 85.7288C124.453 85.3538 124.578 85.1975 124.766 85.26C124.953 85.26 125.203 85.1975 125.516 85.0725ZM121.859 82.7288C121.734 82.7913 121.547 82.7913 121.297 82.7288C121.047 82.6663 120.859 82.76 120.734 83.01C120.234 82.76 120.047 82.635 120.172 82.635C120.359 82.5725 120.516 82.5413 120.641 82.5413C120.828 82.4788 120.953 82.4475 121.016 82.4475C121.141 82.385 121.203 82.26 121.203 82.0725L121.859 82.7288ZM123.266 86.76C122.516 87.135 122.109 87.26 122.047 87.135C121.984 87.01 121.859 86.9163 121.672 86.8538C122.109 86.5413 122.391 86.385 122.516 86.385C122.703 86.385 122.859 86.4475 122.984 86.5725L123.266 86.76ZM120.547 86.2913C120.359 86.6038 120.328 87.01 120.453 87.51C120.141 87.5725 119.953 87.4788 119.891 87.2288C119.828 86.9163 119.734 86.635 119.609 86.385L120.547 86.2913ZM123.922 90.135C124.359 90.385 124.453 90.6663 124.203 90.9788C123.953 91.2913 123.672 91.51 123.359 91.635C123.172 91.51 122.984 91.4788 122.797 91.5413C122.609 91.6038 122.359 91.6038 122.047 91.5413C122.359 91.1663 122.547 90.9475 122.609 90.885C122.672 90.76 122.828 90.76 123.078 90.885C123.203 90.6975 123.359 90.6038 123.547 90.6038C123.734 90.6038 123.859 90.4475 123.922 90.135ZM122.516 92.1038C122.703 92.4163 122.641 92.6663 122.328 92.8538C122.078 92.9788 122.078 93.1975 122.328 93.51C122.266 92.885 121.984 92.4788 121.484 92.2913C121.672 92.1663 121.828 92.135 121.953 92.1975C122.141 92.1975 122.328 92.1663 122.516 92.1038ZM120.922 92.4788C120.547 92.2913 120.359 92.01 120.359 91.635C120.422 91.26 120.609 91.1975 120.922 91.4475C120.797 91.5725 120.766 91.76 120.828 92.01C120.891 92.1975 120.922 92.3538 120.922 92.4788ZM121.766 93.0413C121.266 93.3538 120.984 93.5413 120.922 93.6038C120.922 93.6038 120.859 93.5413 120.734 93.4163C120.797 93.6663 120.734 93.885 120.547 94.0725C120.359 94.1975 120.172 94.3225 119.984 94.4475C119.859 94.135 119.859 93.9163 119.984 93.7913C120.109 93.6038 120.234 93.4788 120.359 93.4163C120.484 93.3538 120.609 93.2913 120.734 93.2288C120.922 93.1038 121.016 92.9163 121.016 92.6663L121.766 93.0413ZM122.141 94.9163C121.828 94.7913 121.578 94.76 121.391 94.8225C121.203 94.8225 121.047 94.6975 120.922 94.4475C121.109 94.1975 121.266 94.135 121.391 94.26C121.516 94.385 121.734 94.385 122.047 94.26L122.141 94.9163ZM118.297 93.6975C118.109 93.885 117.797 94.0725 117.359 94.26C116.984 94.385 116.891 94.51 117.078 94.635C116.578 94.4475 116.391 94.3225 116.516 94.26C116.641 94.1975 116.766 94.1663 116.891 94.1663C117.078 94.1038 117.234 94.0413 117.359 93.9788C117.484 93.9163 117.547 93.76 117.547 93.51L118.297 93.6975ZM118.203 96.885C118.391 97.135 118.328 97.3225 118.016 97.4475C117.703 97.5725 117.672 97.7913 117.922 98.1038C117.359 97.9788 117.047 97.9475 116.984 98.01C116.922 98.01 116.828 98.0413 116.703 98.1038C116.766 98.3538 116.672 98.51 116.422 98.5725C116.172 98.635 115.922 98.7288 115.672 98.8538C115.484 99.3538 115.359 99.7288 115.297 99.9788C115.172 99.9788 114.922 100.01 114.547 100.073C114.234 100.135 114.078 100.291 114.078 100.541C113.578 100.166 113.359 99.9475 113.422 99.885C113.547 99.76 113.516 99.5725 113.328 99.3225C114.141 99.3225 114.484 99.26 114.359 99.135C114.297 98.9475 114.266 98.76 114.266 98.5725C114.578 98.3225 114.953 98.26 115.391 98.385C115.828 98.51 116.109 98.3225 116.234 97.8225C116.484 97.8225 116.703 97.76 116.891 97.635C117.078 97.51 117.109 97.3225 116.984 97.0725C117.547 97.26 117.828 97.2913 117.828 97.1663C117.828 96.9788 117.953 96.885 118.203 96.885ZM95.7969 88.7288C95.4219 89.1663 95.1719 89.385 95.0469 89.385C94.9219 89.385 94.7031 89.4163 94.3906 89.4788C94.5156 89.9163 94.5156 90.26 94.3906 90.51C94.1406 90.4475 94.0469 90.26 94.1094 89.9475C94.2344 89.5725 94.2656 89.2288 94.2031 88.9163C94.5781 89.0413 94.8594 89.01 95.0469 88.8225C95.2344 88.5725 95.4844 88.5413 95.7969 88.7288Z" fill="#7B4F2F"/>
</svg>
