<svg xmlns="http://www.w3.org/2000/svg" viewBox="0 0 165.96 227.64"><defs><style>.cls-1{fill:#fff;}</style></defs><g id="Calque_2" data-name="Calque 2"><g id="logo_noir"><g id="blé_2"><path class="cls-1" d="M94.46,205.31c-.25-6.85-.53-13.69-1-20.52s-.92-13.65-1.57-20.45Q90,143.91,86.6,123.68l0-.13v-.16a11.36,11.36,0,0,0-.2-3.21,11.6,11.6,0,0,0-1.06-3.1,12.07,12.07,0,0,0-4.48-4.77,10.9,10.9,0,0,0-3-1.4,16.09,16.09,0,0,0-3.34-.51,27.11,27.11,0,0,1-3.62-.45,28,28,0,0,1-3.45-1.07l-.38-.1-.16,0-.06,0h0a.61.61,0,0,0,.22-.1.88.88,0,0,0,.17-.23.59.59,0,0,0,0-.27c0-.21,0-.15,0-.15l.22.24a15.88,15.88,0,0,0,1.29,1.11l2.82,2.14c.48.37.94.71,1.43,1.16a10.34,10.34,0,0,1,1.15,1.5c.64,1,1.21,2.05,1.85,3A20.5,20.5,0,0,0,78.14,120a11.8,11.8,0,0,0,2.65,2.23,10.62,10.62,0,0,0,6.76,1.34,10.46,10.46,0,0,1-7-1,15.75,15.75,0,0,1-5.19-4.95c-.71-1-1.34-2-2-2.93a9.84,9.84,0,0,0-1.05-1.28c-.39-.34-.9-.69-1.37-1l-2.91-2a14.75,14.75,0,0,1-1.45-1.14,5.33,5.33,0,0,1-.39-.41,1.2,1.2,0,0,1-.23-.54.79.79,0,0,1,.07-.38.68.68,0,0,1,.23-.31,1,1,0,0,1,.43-.17,1,1,0,0,1,.24,0h.16l.28.05c.18,0,.32.08.48.12a25.45,25.45,0,0,0,3.35.94,25.39,25.39,0,0,0,3.43.33,18.19,18.19,0,0,1,3.68.47,12.14,12.14,0,0,1,3.46,1.55,13.49,13.49,0,0,1,6.49,9,13.23,13.23,0,0,1,.24,3.85v-.3a403.91,403.91,0,0,1,5.13,40.84q.75,10.27,1,20.56C94.72,191.6,94.71,198.46,94.46,205.31Z"/><path class="cls-1" d="M87.55,123.52a17.72,17.72,0,0,0,2.34-14c-.52-2.41-1.16-4.77-1.91-7.14-.37-1.19-.74-2.39-1-3.67a14.21,14.21,0,0,1-.39-4c.08-1.32.28-2.57.45-3.8a16,16,0,0,0,.2-1.7v-.06a.06.06,0,0,0,0,0,.67.67,0,0,0,.06.16.81.81,0,0,0,.25.28,1,1,0,0,0,.58.17.85.85,0,0,0,.37-.12.31.31,0,0,0,.11-.08l0,0s0,.08-.08.11c-.14.21-.29.46-.43.72-1.17,2.12-2.2,4.43-3.31,6.65-2.13,4.45-4.45,8.95-4.11,14a16.26,16.26,0,0,1,.19-7.53,49.39,49.39,0,0,1,2.49-7.14c1-2.33,1.93-4.59,3.07-6.9a9.53,9.53,0,0,1,.51-.9,2.77,2.77,0,0,1,.19-.26l.13-.15a1.13,1.13,0,0,1,.77-.38,1,1,0,0,1,.68.19.92.92,0,0,1,.32.37,1.15,1.15,0,0,1,.1.27c0,.09,0,.19,0,.27v.18a18.08,18.08,0,0,1-.19,2c-.17,1.24-.33,2.45-.39,3.63-.17,2.29.56,4.59,1.23,7a59.72,59.72,0,0,1,1.63,7.39,21.36,21.36,0,0,1,.29,3.85,18.06,18.06,0,0,1-.56,3.82A15.45,15.45,0,0,1,87.55,123.52Z"/><path class="cls-1" d="M76.07,109.73a18.75,18.75,0,0,1-5.92-1.61A26.79,26.79,0,0,1,64.82,105a25.61,25.61,0,0,1-4.52-4.31,26.58,26.58,0,0,1-3.4-5.28l.12.18a9.48,9.48,0,0,1-.6-.81,2,2,0,0,1-.15-.26,2.17,2.17,0,0,1-.16-.36A1,1,0,0,1,56,93.8a1.14,1.14,0,0,1,.1-.62,1.08,1.08,0,0,1,.58-.56.61.61,0,0,1,.17-.07l.08,0,.19,0a2.54,2.54,0,0,1,.75.08c.18,0,.34.09.5.14l.88.29a29.1,29.1,0,0,0,3.39.94,15,15,0,0,0,3.39.3,11.21,11.21,0,0,0,1.69-.19,15,15,0,0,1,1.89-.22A15.91,15.91,0,0,1,77.06,95a12.83,12.83,0,0,1,5.71,4.63A14.41,14.41,0,0,0,76.7,96a16.3,16.3,0,0,0-6.9-.54c-.58.07-1.15.18-1.72.3a14.38,14.38,0,0,1-1.91.29,14.64,14.64,0,0,1-3.86-.21,28.58,28.58,0,0,1-3.64-1l-.85-.26-.38-.11c-.1,0-.24,0-.14,0h.1l.12,0a.85.85,0,0,0,.42-.42.83.83,0,0,0,.07-.4c0-.12,0-.08,0-.1l0,0a1.17,1.17,0,0,0,.08.13c.12.2.3.44.47.67l.07.09,0,.09a28.92,28.92,0,0,0,7.06,9.29A28,28,0,0,0,76.07,109.73Z"/><path class="cls-1" d="M84.66,95.39a28.41,28.41,0,0,0-.23-6.2,16.87,16.87,0,0,0-2.11-5.64c-.53-.87-1.1-1.72-1.65-2.66a12.43,12.43,0,0,1-1.38-3.07l-.2-.86a8.69,8.69,0,0,1-.07-.88,7.76,7.76,0,0,1,.07-1.74,11.23,11.23,0,0,1,.35-1.67l.1-.41a.88.88,0,0,0,0-.19s0,0,0,.06a.69.69,0,0,0,.24.42.67.67,0,0,0,.32.17.59.59,0,0,0,.21,0h.1a2.86,2.86,0,0,0-.38.26,5.14,5.14,0,0,0-.51.45,11.26,11.26,0,0,0-1,1.08A21,21,0,0,0,76.92,77a26.39,26.39,0,0,0-2.45,5.54,25.91,25.91,0,0,0-.7,12.21A21.25,21.25,0,0,1,73,82.13a24.11,24.11,0,0,1,2.3-6.07,20.3,20.3,0,0,1,1.8-2.75A14.49,14.49,0,0,1,78.17,72c.21-.21.42-.41.66-.61a3.74,3.74,0,0,1,.94-.57,1.79,1.79,0,0,1,.49-.11,1.51,1.51,0,0,1,.4,0,1.11,1.11,0,0,1,.49.26,1.27,1.27,0,0,1,.41.77,1.67,1.67,0,0,1,0,.45,3.37,3.37,0,0,1-.13.58l-.09.35A10,10,0,0,0,81,74.6,6.56,6.56,0,0,0,80.94,76c0,.23,0,.46,0,.69l.14.67c.38,1.81,1.64,3.53,2.57,5.47a16.11,16.11,0,0,1,1.71,6.26A21.48,21.48,0,0,1,84.66,95.39Z"/><path class="cls-1" d="M64.34,95.15a8.82,8.82,0,0,1-3.18-.93,15.27,15.27,0,0,1-2.76-1.91,23.74,23.74,0,0,1-4.34-5.09,29.6,29.6,0,0,1-3-6l-.52-1.6L50.14,78l-.35-1.63a8.66,8.66,0,0,1-.22-1.88,2,2,0,0,1,.08-.43,1.23,1.23,0,0,1,.69-.77,1.29,1.29,0,0,1,.87,0,2.48,2.48,0,0,1,.38.17,6.91,6.91,0,0,1,.79.56c.44.35.84.67,1.27,1a11.06,11.06,0,0,0,2.63,1.43,7.8,7.8,0,0,0,2.87.52,18.49,18.49,0,0,1,3.41.32,18.29,18.29,0,0,1,6.28,2.43,10.72,10.72,0,0,1,4.4,4.91,11.69,11.69,0,0,0-4.88-4,19.56,19.56,0,0,0-6-1.75,21.69,21.69,0,0,0-3.12-.1,9.94,9.94,0,0,1-3.55-.49,12.72,12.72,0,0,1-3.13-1.62c-.47-.33-.92-.68-1.35-1-.2-.15-.42-.31-.54-.38h0a.84.84,0,0,0,.48,0c.36-.18.4-.34.44-.46s0-.07,0,0A7.38,7.38,0,0,0,51.73,76l.32,1.58.37,1.53.45,1.52a33.05,33.05,0,0,0,2.53,5.83,26.53,26.53,0,0,0,3.68,5.19,16.08,16.08,0,0,0,2.37,2.14A9.57,9.57,0,0,0,64.34,95.15Z"/><path class="cls-1" d="M76.23,76.3a14.27,14.27,0,0,0,0-4.28,15.21,15.21,0,0,0-1.32-4c-.62-1.28-1.32-2.53-2-3.86a13.53,13.53,0,0,1-1.43-4.41v-.1l0-1.89a9.32,9.32,0,0,0-.17-1.71,1.14,1.14,0,0,0-.07-.19s0,0,0,0l.08.07a.65.65,0,0,0,.34.11c.24,0,.18,0,.14,0s-.14.12-.22.21a11.87,11.87,0,0,0-1.09,1.38c-.71,1-1.38,2.11-2,3.2S67,63.06,66.5,64.15a27.18,27.18,0,0,0-1.42,3.43l-.29.89-.21.91a18.67,18.67,0,0,0-.35,1.84,13.44,13.44,0,0,0,1,7.4,12,12,0,0,1-2.19-7.49,20.54,20.54,0,0,1,1.86-7.76,16.46,16.46,0,0,1,.9-1.78c.31-.57.63-1.13,1-1.69.66-1.13,1.32-2.24,2.07-3.35a11.28,11.28,0,0,1,1.32-1.66,3.79,3.79,0,0,1,.5-.42,1.82,1.82,0,0,1,1-.35,1.39,1.39,0,0,1,.78.28,1,1,0,0,1,.25.24,1.5,1.5,0,0,1,.17.23,2.93,2.93,0,0,1,.27.71,9.8,9.8,0,0,1,.2,2.14c0,.67,0,1.33,0,2v-.11a12.75,12.75,0,0,0,1.06,3.91c.53,1.32,1.19,2.63,1.68,4A14.13,14.13,0,0,1,77,72,11.81,11.81,0,0,1,76.23,76.3Z"/><path class="cls-1" d="M64.49,66.86c-1.63-1-3.22-2-4.89-2.81a26.3,26.3,0,0,0-5.13-2A41.22,41.22,0,0,0,49.05,61l-2.78-.38c-.45-.06-.91-.1-1.34-.13-.21,0-.43,0-.61,0a1.3,1.3,0,0,0-.38.05s0,0,.06,0a.66.66,0,0,0,.18-.19.59.59,0,0,0,.07-.43,1.31,1.31,0,0,0,.17.27,9,9,0,0,0,.86.93c.65.62,1.36,1.22,2.06,1.83a8.76,8.76,0,0,1,2,2.46,15.54,15.54,0,0,1,1,2.79,18.1,18.1,0,0,0,2,5,19.64,19.64,0,0,0,3.74,4.12,15.42,15.42,0,0,1-4.53-3.54,16.75,16.75,0,0,1-2.74-5.13,18.3,18.3,0,0,0-1.09-2.44,6.58,6.58,0,0,0-1.64-1.85c-.75-.59-1.48-1.21-2.21-1.87a10.76,10.76,0,0,1-1.07-1.14,2.84,2.84,0,0,1-.53-.94,1.37,1.37,0,0,1,.53-1.56,1.49,1.49,0,0,1,.38-.19,3.06,3.06,0,0,1,1-.16,7,7,0,0,1,.8,0c.5,0,1,.1,1.46.16,1,.14,1.9.28,2.82.46a33.37,33.37,0,0,1,5.6,1.44,22.85,22.85,0,0,1,5.16,2.64A34.28,34.28,0,0,1,64.49,66.86Z"/><path class="cls-1" d="M67.18,61.11c.33-4.73-1-9.22-2.83-13.46-.91-2.13-1.9-4.23-2.89-6.38-.5-1.07-1-2.17-1.38-3.29-.22-.56-.4-1.07-.64-1.55a4.18,4.18,0,0,0-.35-.64A1.55,1.55,0,0,0,59,35.6s0,0,0,0,0,0,0,0a.47.47,0,0,0,.17,0,.66.66,0,0,0,.47-.15,1.46,1.46,0,0,0-.07.13,3.63,3.63,0,0,0-.22.66c-.13.51-.23,1.06-.32,1.62-.17,1.13-.28,2.28-.4,3.44l-.35,3.5a20.46,20.46,0,0,1-.72,3.58c-.65,2.33-1.72,4.44-2.22,6.64a9.72,9.72,0,0,0-.2,3.36,13.42,13.42,0,0,0,.93,3.34,11.6,11.6,0,0,1-1.47-3.24,10.05,10.05,0,0,1-.23-3.63c.32-2.43,1.21-4.64,1.68-6.86a23.78,23.78,0,0,0,.48-3.34l.21-3.51c.08-1.18.19-2.36.36-3.56a18.14,18.14,0,0,1,.33-1.83,5.83,5.83,0,0,1,.33-1,2.55,2.55,0,0,1,.39-.62,1.42,1.42,0,0,1,1.22-.52,2.11,2.11,0,0,1,.38.09l.25.14a1.27,1.27,0,0,1,.34.28,2.73,2.73,0,0,1,.4.5,7.27,7.27,0,0,1,.48.9c.27.58.48,1.18.68,1.71.39,1.08.84,2.14,1.28,3.22.88,2.16,1.85,4.32,2.61,6.57A33.64,33.64,0,0,1,67.53,54,19.41,19.41,0,0,1,67.18,61.11Z"/><path class="cls-1" d="M56.5,49.39a19.78,19.78,0,0,0-5-2.19A41.3,41.3,0,0,0,46.22,46c-1.78-.26-3.58-.49-5.38-.59l-2.73-.15c-.45,0-.9,0-1.32,0a4.67,4.67,0,0,0-.57,0l-.1,0a.54.54,0,0,0,.17-.12.54.54,0,0,0,.19-.28.68.68,0,0,0,.06-.36.38.38,0,0,0,0-.21s0,0,0-.06h0l.15.16.47.39c.34.27.7.54,1.07.81l1.11.81a13.52,13.52,0,0,1,1.14.88,11.43,11.43,0,0,1,3.14,4.95,14.3,14.3,0,0,0,2.66,4.55,21.71,21.71,0,0,0,4.19,3.45,16.42,16.42,0,0,1-4.88-2.75,13.65,13.65,0,0,1-3.39-4.6c-.84-1.66-1.58-3.18-2.92-4.13-.64-.51-1.46-1.05-2.19-1.58l-1.15-.83-.6-.49c-.1-.09-.21-.21-.33-.34a2.6,2.6,0,0,1-.2-.28L34.63,45a1.43,1.43,0,0,1-.08-.37,1.46,1.46,0,0,1,.08-.53,1.57,1.57,0,0,1,.29-.42,1.67,1.67,0,0,1,.48-.29A2.37,2.37,0,0,1,36,43.3a8.15,8.15,0,0,1,.82,0c.49,0,1,0,1.43.06.94.06,1.85.12,2.78.22a41.37,41.37,0,0,1,5.54,1,29.33,29.33,0,0,1,5.33,1.8A15.4,15.4,0,0,1,56.5,49.39Z"/><path class="cls-1" d="M57.46,44.25a58.85,58.85,0,0,0-3-11.29,43.53,43.53,0,0,0-2.36-5.25c-.44-.85-.91-1.66-1.43-2.48-.26-.4-.52-.79-.79-1.15a2.88,2.88,0,0,0-.37-.43l0,0h0l.1.05a.79.79,0,0,0,.26,0,.93.93,0,0,0,.38-.11,1.1,1.1,0,0,0,.23-.19,1.08,1.08,0,0,0,.08-.13c0-.12,0,.15,0,.33s0,.44,0,.68l.08,1.45c.06,1,.12,2,.09,3,0,.52,0,1-.11,1.55a8.55,8.55,0,0,1-.36,1.61,15.72,15.72,0,0,1-1.29,2.81,13.57,13.57,0,0,0-2,5.22,12,12,0,0,0,.9,5.63,10.72,10.72,0,0,1-1.88-5.68A13.29,13.29,0,0,1,47.54,34a17.61,17.61,0,0,0,1-2.61,7,7,0,0,0,.23-1.28c0-.45,0-.92,0-1.39,0-.94-.07-1.9-.15-2.87l-.1-1.49c0-.25,0-.52,0-.8a3,3,0,0,1,.18-1.11,1.7,1.7,0,0,1,.17-.29,1.12,1.12,0,0,1,.37-.32,1.14,1.14,0,0,1,.55-.15,1.07,1.07,0,0,1,.44.08,1.23,1.23,0,0,1,.26.12.74.74,0,0,1,.16.11,1.8,1.8,0,0,1,.24.2,5.45,5.45,0,0,1,.58.69c.31.44.59.87.85,1.3a28.41,28.41,0,0,1,1.47,2.65,36.47,36.47,0,0,1,2.14,5.62A35.76,35.76,0,0,1,57.46,44.25Z"/><path class="cls-1" d="M39.82,44.4A16.81,16.81,0,0,1,35,41.83a31.43,31.43,0,0,1-7.55-7.93,19.88,19.88,0,0,1-1.4-2.44c-.11-.21-.2-.45-.3-.7a3.13,3.13,0,0,1-.2-1,1.28,1.28,0,0,1,.08-.45,1.17,1.17,0,0,1,.35-.56,1.41,1.41,0,0,1,.59-.31,3.62,3.62,0,0,1,.43,0,3.59,3.59,0,0,1,1,.22c1,.4,1.71.85,2.51,1.27s1.55.82,2.31,1.14a5.09,5.09,0,0,0,1.1.37,2.09,2.09,0,0,0,.47.06l.65,0c.91,0,1.83,0,2.74,0a23,23,0,0,1,5.46.79,13.05,13.05,0,0,1,2.55,1.09,7.61,7.61,0,0,1,2.08,1.78A10.16,10.16,0,0,0,43,33.17,27.65,27.65,0,0,0,37.79,33c-.88.05-1.75.12-2.64.2l-.68.06a4.85,4.85,0,0,1-.87-.05,8.49,8.49,0,0,1-1.47-.4,24.77,24.77,0,0,1-2.54-1.18,25.43,25.43,0,0,0-2.3-1.13l-.34-.1s.08,0,.1,0a.62.62,0,0,0,.29-.15.8.8,0,0,0,.19-.28c0-.07,0-.15,0-.12a.87.87,0,0,0,.08.3,5.4,5.4,0,0,0,.21.54c.35.74.79,1.51,1.23,2.25a35.87,35.87,0,0,0,3,4.28,42.42,42.42,0,0,0,3.56,3.91A23.53,23.53,0,0,0,39.82,44.4Z"/><path class="cls-1" d="M49.61,30.69a10.59,10.59,0,0,0-2-4c-.88-1.22-1.9-2.35-2.86-3.57a19.68,19.68,0,0,1-2.58-4c-.33-.7-.61-1.38-.94-2-.16-.33-.32-.66-.5-1a3.72,3.72,0,0,0-.47-.69s0,0,0,0l.11.06.19,0a.79.79,0,0,0,.56-.17.5.5,0,0,0,.18-.2c0-.12,0,.07,0,.18a6.53,6.53,0,0,0,0,1c0,.72.09,1.47.15,2.22s.13,1.51.21,2.26a8.83,8.83,0,0,1,.06,2.48c-.27,1.74-1,3-1.2,4.47a20,20,0,0,0-.15,4.53,14,14,0,0,1-.83-4.62,14.34,14.34,0,0,1,.28-2.37,14.21,14.21,0,0,0,.35-2.16,10.07,10.07,0,0,0-.24-2.08c-.13-.77-.26-1.53-.37-2.3s-.17-1.55-.21-2.36a9.32,9.32,0,0,1,0-1.29,2.47,2.47,0,0,1,.25-.93,1.55,1.55,0,0,1,.35-.42,1.17,1.17,0,0,1,.83-.24.87.87,0,0,1,.33.08l.24.11a2.69,2.69,0,0,1,.27.2,5.2,5.2,0,0,1,.84,1.2c.2.36.37.72.54,1.08.33.72.64,1.45.91,2.16A22.89,22.89,0,0,0,46,22.21c.82,1.27,1.7,2.55,2.42,3.95A8.88,8.88,0,0,1,49.61,30.69Z"/><path class="cls-1" d="M30.27,30.86a18.58,18.58,0,0,1-3.21-6.93A13.8,13.8,0,0,1,27,20a22.77,22.77,0,0,0,.16-3.66,20.21,20.21,0,0,0-.56-3.57l-.89-3.65c-.6-2.42-1.21-4.86-2-7.2l-.14-.43-.07-.21s0-.09,0,0C23,.52,24,2.66,25.38,1.16a1,1,0,0,0,0-.55h0v0c.08.25.19.55.3.83.22.57.46,1.14.71,1.71.49,1.13,1,2.25,1.57,3.37s1.12,2.25,1.72,3.24A16.94,16.94,0,0,0,32,12.56c1.71,1.71,3.86,3.11,5.62,5a12.51,12.51,0,0,1,3.11,6.93,13.48,13.48,0,0,0-3.81-6.24c-1.79-1.65-4-2.85-6-4.6a15.81,15.81,0,0,1-2.65-2.94c-.75-1.14-1.34-2.23-1.94-3.35S25.16,5.13,24.63,4c-.26-.59-.52-1.17-.76-1.77-.12-.31-.23-.6-.35-.94l0-.08,0-.07a1.12,1.12,0,0,1,0-.57c1.37-1.49,2.41.66,1.86-.1l.07.19.09.24.15.47c.75,2.46,1.36,4.91,1.9,7.38l.76,3.72c.12.61.22,1.28.31,1.92s.11,1.32.1,2a22,22,0,0,1-.43,3.86A13,13,0,0,0,28,23.81,21.7,21.7,0,0,0,30.27,30.86Z"/></g><g id="blé_1"><path class="cls-1" d="M111.36,197.25a74.53,74.53,0,0,0-4.83-15.41,140.75,140.75,0,0,0-7.12-14.48,136.14,136.14,0,0,0-8.66-13.57c-.82-1.06-1.59-2.15-2.43-3.2s-1.66-2.09-2.57-3.06A39,39,0,0,0,83,144.69a29,29,0,0,0-3-2.49l-.39-.29,0-.46a12.38,12.38,0,0,0-2.81-6.69,8.5,8.5,0,0,0-2.87-2.07,11.33,11.33,0,0,0-3.58-.7,18,18,0,0,0-3.8.26c-1.28.2-2.56.53-3.93.76a11.63,11.63,0,0,1-2.15.18,8.45,8.45,0,0,1-1.12-.09l-1-.18c-1.32-.25-2.64-.55-3.9-.74a4.81,4.81,0,0,0-.75-.05s0,0,.18-.14a.61.61,0,0,0,.16-.35.46.46,0,0,0,0-.19v0l0,.05a.53.53,0,0,0,.11.13,12.51,12.51,0,0,0,1.41,1.22c1,.8,2.14,1.56,3.22,2.33,2.18,1.51,4.4,3.06,6.6,4.49,4.38,2.88,10.13,3.21,15.22,1.73a19.23,19.23,0,0,1-11.93.68,17.42,17.42,0,0,1-3.79-1.57c-2.34-1.37-4.56-2.81-6.83-4.25-1.13-.72-2.24-1.46-3.35-2.26A13.81,13.81,0,0,1,53,132.62a1.94,1.94,0,0,1-.22-.25l-.11-.14a2.06,2.06,0,0,1-.12-.26.75.75,0,0,1-.07-.43.88.88,0,0,1,.24-.58,1.17,1.17,0,0,1,.63-.33,4.56,4.56,0,0,1,1.24,0c1.39.17,2.68.42,4,.63l1,.15a5.14,5.14,0,0,0,.88.06,9.81,9.81,0,0,0,1.83-.19c1.26-.24,2.56-.59,3.92-.83a20,20,0,0,1,4.17-.36,12.7,12.7,0,0,1,4.25.81,10.28,10.28,0,0,1,3.59,2.55,12.45,12.45,0,0,1,2.28,3.67,16,16,0,0,1,1.07,4.16l-.44-.74a29.23,29.23,0,0,1,3.23,2.7,40.44,40.44,0,0,1,2.87,3c.93,1,1.75,2.1,2.63,3.16s1.64,2.18,2.45,3.28a124,124,0,0,1,8.49,13.94,120.55,120.55,0,0,1,6.66,14.86l1.31,3.86,1.12,3.92c.32,1.32.6,2.65.9,4S111.16,195.91,111.36,197.25Z"/><path class="cls-1" d="M69.31,131a6.26,6.26,0,0,1,.18-2.75c.22-.9.56-1.75.85-2.61a12.66,12.66,0,0,0,1.07-5c0-.85-.18-1.73-.3-2.62l-.17-1.37c0-.24,0-.47-.06-.74a2.4,2.4,0,0,1,.12-1,1.18,1.18,0,0,1,.16-.29,1.22,1.22,0,0,1,.39-.33,1.1,1.1,0,0,1,.54-.12,1.27,1.27,0,0,1,.37.07,1.91,1.91,0,0,1,.61.39,5.73,5.73,0,0,1,.55.63c.31.39.57.78.83,1.17.51.77,1,1.55,1.46,2.34a49.26,49.26,0,0,1,4.69,10,18.64,18.64,0,0,1,.9,5.51,11.52,11.52,0,0,1-1.26,5.35,16.47,16.47,0,0,0-1.11-10.35,45.52,45.52,0,0,0-2.3-4.78c-.83-1.57-1.73-3.13-2.65-4.67-.44-.78-.9-1.55-1.37-2.29-.23-.37-.47-.73-.72-1.06a2.88,2.88,0,0,0-.33-.39s-.11-.07.06,0l.2,0a.79.79,0,0,0,.38-.09.72.72,0,0,0,.27-.22.64.64,0,0,0,.08-.14c0-.12,0,.13,0,.3s0,.4,0,.62l.1,1.33a25.3,25.3,0,0,1,.12,2.78,12.38,12.38,0,0,1-1.73,5.41C70.41,127.69,69.42,129.21,69.31,131Z"/><path class="cls-1" d="M62.57,132.12a18.12,18.12,0,0,1-5.42-1,20.29,20.29,0,0,1-4.88-2.68l-2.21-1.54c-.72-.51-1.47-.94-2.28-1.49a6.87,6.87,0,0,1-1.21-1l-.17-.22a1.42,1.42,0,0,1-.2-.41,1.51,1.51,0,0,1-.06-.37,1.15,1.15,0,0,1,.12-.52,1.27,1.27,0,0,1,.57-.54,2,2,0,0,1,.66-.17h.44c1,0,1.91.16,2.8.24a15,15,0,0,0,2.53.15,14.56,14.56,0,0,0,2.48-.47,45.73,45.73,0,0,1,5.36-1.27,12.24,12.24,0,0,1,5.64.59,15.67,15.67,0,0,1,4.74,2.8,21.25,21.25,0,0,0-5-1.86,12.39,12.39,0,0,0-5.11,0c-1.69.38-3.33,1-5.12,1.56a14.57,14.57,0,0,1-2.84.59,17,17,0,0,1-2.89-.11c-.9-.1-1.83-.25-2.6-.28h-.24c-.05,0-.13,0,0,0a.87.87,0,0,0,.32-.33.61.61,0,0,0,.08-.36.44.44,0,0,0,0-.2.27.27,0,0,0,0-.11l0,.05a8,8,0,0,0,.86.74c.67.51,1.46,1,2.2,1.6s1.43,1.15,2.12,1.73a24,24,0,0,0,4.33,3A25.45,25.45,0,0,0,62.57,132.12Z"/><path class="cls-1" d="M62.59,121.44a9.45,9.45,0,0,1-.53-3.47,18,18,0,0,1,.5-3.48c.11-.55.22-1.1.27-1.58a2.27,2.27,0,0,0,0-.64,5.57,5.57,0,0,0-.16-.72c-.14-.5-.29-1-.47-1.57l-.26-.86c0-.15-.08-.3-.12-.49a2.71,2.71,0,0,1,0-.33,2.08,2.08,0,0,1,0-.25,1.67,1.67,0,0,1,.1-.42,1.1,1.1,0,0,1,.72-.62,1.32,1.32,0,0,1,.26-.05H63a1.28,1.28,0,0,1,.27,0,1.46,1.46,0,0,1,.44.22,2.69,2.69,0,0,1,.45.37c.25.23.45.45.66.67.4.44.78.89,1.13,1.33a29.56,29.56,0,0,0,2.3,2.34,12.66,12.66,0,0,1,3.73,5.9,20.37,20.37,0,0,0-4.74-4.71,18.88,18.88,0,0,1-2.72-2.3c-.39-.42-.75-.84-1.13-1.23-.19-.19-.38-.38-.55-.53l-.22-.18s0,0,.07,0a.45.45,0,0,0,.16,0h.09a.76.76,0,0,0,.21,0,.87.87,0,0,0,.56-.49.66.66,0,0,0,.06-.22v.07a2.83,2.83,0,0,0,.07.33l.22.79c.15.55.33,1.11.44,1.72a7.1,7.1,0,0,1,.13,1,4.57,4.57,0,0,1-.07,1.06,9.7,9.7,0,0,1-.51,1.75A18.59,18.59,0,0,0,62.59,121.44Z"/><path class="cls-1" d="M55.81,123.06a12.68,12.68,0,0,1-5.38-.66,27.11,27.11,0,0,1-4.92-2.34c-.78-.44-1.55-.9-2.27-1.24-.32-.14-.78-.31-1.2-.47s-.85-.34-1.28-.54a8.65,8.65,0,0,1-1.29-.7,3,3,0,0,1-.73-.61,1.4,1.4,0,0,1-.34-1,1.31,1.31,0,0,1,.66-1,2.94,2.94,0,0,1,1-.32c.27,0,.52-.06.77-.08.48,0,.95,0,1.41,0s.92,0,1.38.08l1.24,0a19.82,19.82,0,0,0,2.53-.23c1.71-.22,3.45-.65,5.26-.88a17.27,17.27,0,0,1,5.51.05,14.35,14.35,0,0,1,5,2,18.66,18.66,0,0,0-5.15-1,19.32,19.32,0,0,0-5.13.52c-1.69.39-3.41.86-5.22,1.21a19.68,19.68,0,0,1-2.79.32l-1.42,0-1.3-.05q-.64,0-1.26,0a4.75,4.75,0,0,0-.56,0c-.16,0-.35.08-.29.06a.72.72,0,0,0,.28-.53c0-.33-.12-.39-.09-.37a1.5,1.5,0,0,0,.29.24,10.34,10.34,0,0,0,1.05.6c.37.2.76.38,1.16.56s.77.34,1.26.58a23.19,23.19,0,0,1,2.32,1.49C49.22,120.76,52.21,122.62,55.81,123.06Z"/><path class="cls-1" d="M54.81,113.57a3.39,3.39,0,0,1-1.22-1.42,6.69,6.69,0,0,1-.46-1.85c-.1-1.26,0-2.49,0-3.63a8.33,8.33,0,0,0-.15-1.62,3.48,3.48,0,0,0-.2-.69c-.09-.23-.23-.52-.35-.79a13.62,13.62,0,0,1-.71-1.79,2.14,2.14,0,0,1-.08-.34,1.73,1.73,0,0,1,0-.62,1.2,1.2,0,0,1,.41-.6,1.06,1.06,0,0,1,.35-.18l.18-.05h.35l.14,0,.24.07a4.9,4.9,0,0,1,1,.55,48.36,48.36,0,0,1,5.49,4.86,17.68,17.68,0,0,1,3.87,6.22,36.58,36.58,0,0,0-4.93-5.08l-2.8-2.21c-.92-.74-1.84-1.52-2.76-2.14a3.45,3.45,0,0,0-.55-.34h.24l.13,0a.82.82,0,0,0,.24-.13.71.71,0,0,0,.29-.42.45.45,0,0,0,0-.17.51.51,0,0,0,0,.1c.11.43.37,1,.57,1.56.11.29.21.55.31.88a4.62,4.62,0,0,1,.23,1,8.08,8.08,0,0,1,0,2c-.13,1.25-.42,2.4-.54,3.54A4.28,4.28,0,0,0,54.81,113.57Z"/><path class="cls-1" d="M53.47,108.18a34.51,34.51,0,0,0-9.19-1.59,23.36,23.36,0,0,0-4.54.49c-1.54.29-3.11.56-4.63.89a17.68,17.68,0,0,0-2.17.53,2.29,2.29,0,0,0-.38.15s0,0,0-.07a.62.62,0,0,0,.13-.36.57.57,0,0,0,0-.26.75.75,0,0,0-.05-.16c-.11-.16-.12-.12-.09-.11l.14.07c.13.07.28.13.44.2a21.45,21.45,0,0,0,2.18.67l1.16.31a5.25,5.25,0,0,1,1.27.58,30.19,30.19,0,0,1,3.66,3.21,11.63,11.63,0,0,0,4,2.41,9.3,9.3,0,0,1-2.37-.51,12.91,12.91,0,0,1-2.19-1.12c-1.37-.87-2.58-2-3.83-2.62a3.36,3.36,0,0,0-.92-.32l-1.16-.23a23.37,23.37,0,0,1-2.4-.6,4.1,4.1,0,0,1-.65-.25,3.78,3.78,0,0,1-.38-.21,1.55,1.55,0,0,1-.51-.52,1.85,1.85,0,0,1-.13-.29,1.46,1.46,0,0,1,0-.42,1.17,1.17,0,0,1,.24-.62,1.88,1.88,0,0,1,.51-.45,4.66,4.66,0,0,1,.71-.32,20.48,20.48,0,0,1,2.43-.65c1.58-.3,3.14-.56,4.72-.8a20.74,20.74,0,0,1,4.92-.17A21.85,21.85,0,0,1,53.47,108.18Z"/><path class="cls-1" d="M53.75,104.59a45.31,45.31,0,0,0-5.2-4.83,9.21,9.21,0,0,1-2.63-2.88,10,10,0,0,1-.66-1.83c-.09-.28-.17-.55-.27-.8a2.3,2.3,0,0,0-.26-.56l.07,0a.71.71,0,0,0,.58.12.68.68,0,0,0,.35-.18h0a3.72,3.72,0,0,0-.25.62c-.16.51-.28,1.08-.41,1.64a32.29,32.29,0,0,0-.63,3.41,9.46,9.46,0,0,0,1.35,6.59A6.63,6.63,0,0,1,43.56,103a10.39,10.39,0,0,1-.68-3.73,22.4,22.4,0,0,1,.33-3.69,16.63,16.63,0,0,1,.4-1.85,5,5,0,0,1,.41-1,2.1,2.1,0,0,1,.26-.36,1.34,1.34,0,0,1,.72-.42,1.28,1.28,0,0,1,1,.24,1.81,1.81,0,0,1,.37.38,5,5,0,0,1,.49,1.06c.1.31.19.62.27.91a10.75,10.75,0,0,0,.49,1.56,9.14,9.14,0,0,0,2,2.55A19.64,19.64,0,0,1,53.75,104.59Z"/><path class="cls-1" d="M43.65,100a16.22,16.22,0,0,0-3.79-1.3,12.21,12.21,0,0,0-3.85.13,29,29,0,0,0-3.86.81,32.68,32.68,0,0,0-3.73,1.26,11.43,11.43,0,0,0-1.68.79,1.61,1.61,0,0,0-.24.18s0,0,.07-.15a.84.84,0,0,0-.2-.81.45.45,0,0,0-.15-.1s0,0,0,0l.12,0,.39,0A6.34,6.34,0,0,1,31,102.38a20.17,20.17,0,0,1,1.46,1.49,8,8,0,0,0,1.45,1.21,13.15,13.15,0,0,0,3.72,1.4,9.81,9.81,0,0,1-4.16-.52,9.12,9.12,0,0,1-1.88-1.11c-.57-.44-1.06-.91-1.56-1.25a5,5,0,0,0-3.34-.85,4.42,4.42,0,0,1-.62,0,1.83,1.83,0,0,1-1-.41,1.2,1.2,0,0,1-.36-.6,1.34,1.34,0,0,1,.05-.67,1.83,1.83,0,0,1,.37-.56,3.8,3.8,0,0,1,.56-.44,12.27,12.27,0,0,1,2-1,24.44,24.44,0,0,1,8.21-1.76,11.09,11.09,0,0,1,4.25.47A11.42,11.42,0,0,1,43.65,100Z"/><path class="cls-1" d="M36.67,98a8.81,8.81,0,0,1-.79-3.2,9.73,9.73,0,0,1,.46-3.35c.28-1.06.8-2.1.52-2.57s-.27-1-.4-1.57c-.06-.28-.12-.56-.16-.88a4.5,4.5,0,0,1,0-.56,2.69,2.69,0,0,1,.06-.41,1.3,1.3,0,0,1,.45-.69,1.15,1.15,0,0,1,.54-.24,1.21,1.21,0,0,1,.43,0,1.53,1.53,0,0,1,.48.17,3.15,3.15,0,0,1,.49.34,8.14,8.14,0,0,1,.66.64c.39.42.75.85,1.07,1.27.65.86,1.32,1.71,1.9,2.65a13.89,13.89,0,0,1,1.46,3,7.55,7.55,0,0,1,.3,3.29,13.15,13.15,0,0,0-3-5.37C40.4,89.75,39.72,89,39,88.18c-.36-.4-.68-.79-1-1.14a6.6,6.6,0,0,0-.5-.46.64.64,0,0,0-.17-.11h0a.19.19,0,0,0,.09,0,.58.58,0,0,0,.23,0,.73.73,0,0,0,.37-.16c.22-.19.23-.3.24-.35s0,0,0,0a.68.68,0,0,0,0,.24,5,5,0,0,0,.1.69l.33,1.54,0,.21,0,.33a2.85,2.85,0,0,1,0,.59,5.24,5.24,0,0,1-.28.94c-.21.54-.45,1-.67,1.47A12.2,12.2,0,0,0,36.67,98Z"/><path class="cls-1" d="M30.6,99.09c-.47-.11-1-.16-1.46-.32a6,6,0,0,1-1.37-.67,5.29,5.29,0,0,1-2-2.41,33.62,33.62,0,0,1-1.46-5.81,13.4,13.4,0,0,0-2.14-5,30.47,30.47,0,0,0-3.73-4.3l-.25-.23-.11-.1s-.13-.08,0,0l.22.08c.46,0,.7.26,1.21-.73-.14-1.31-.22-.66-.19-.85l0,0,0,0,0,0,.11.09.27.2c.37.27.77.53,1.17.78.8.5,1.65,1,2.5,1.42,1.69.93,3.47,1.74,5.23,2.55A36.72,36.72,0,0,1,34,86.39a8.61,8.61,0,0,1,2.23,2.11,6,6,0,0,1,1,2.83,6.5,6.5,0,0,0-1.46-2.48,8.43,8.43,0,0,0-2.3-1.61A52.4,52.4,0,0,0,28,85.16a56.3,56.3,0,0,1-5.51-2.31c-.9-.44-1.79-.92-2.66-1.44-.44-.26-.87-.54-1.3-.84l-.33-.24-.17-.13-.1-.09L17.86,80,17.8,80c0-.19-.06.46-.2-.86.5-1,.76-.71,1.22-.74l.25.1a1.91,1.91,0,0,1,.28.2l.17.14.3.27a30.17,30.17,0,0,1,3.91,4.67,13.79,13.79,0,0,1,2.13,5.85,48.66,48.66,0,0,0,.85,5.75A5.55,5.55,0,0,0,30.6,99.09Z"/></g><path class="cls-1" d="M88.41,62.66A80.9,80.9,0,0,1,137,81.78a82.6,82.6,0,0,1,27.1,45.32,81.24,81.24,0,0,1,1.8,13.37A83.77,83.77,0,0,1,158,179.91,83.22,83.22,0,0,1,68.3,226.37a84.83,84.83,0,0,1-25.45-9,81.66,81.66,0,0,1-21.18-16.59A83.2,83.2,0,0,1,13.4,190.2,86.48,86.48,0,0,1,7,178.39l-1.26-3.11-.63-1.56-.53-1.59L3.49,169c-.32-1.07-.58-2.16-.87-3.24-.64-2.15-1-4.36-1.44-6.54C1,158.07.86,157,.7,155.85s-.34-2.2-.38-3.32a81.21,81.21,0,0,1,12.43-50.7,82.82,82.82,0,0,0-10,50.44A81.71,81.71,0,0,0,10,177a89.52,89.52,0,0,0,6.44,11.16,77.84,77.84,0,0,0,8.12,10,74.53,74.53,0,0,0,9.6,8.51,83.07,83.07,0,0,0,10.81,6.89,80.44,80.44,0,0,0,24.17,8.15,79.56,79.56,0,0,0,84.67-43.83,80.51,80.51,0,0,0-18.4-94.26,83,83,0,0,0-21.71-14.19A86.45,86.45,0,0,0,88.41,62.66Z"/></g></g></svg>