<svg width="661" height="20" viewBox="0 0 661 20" fill="none" xmlns="http://www.w3.org/2000/svg">
<path fill-rule="evenodd" clip-rule="evenodd" d="M1.45914 9.82849L9.34827 1.93936L17.2374 9.82849L9.34827 17.7176L1.45914 9.82849ZM0.0449219 9.82849L0.752029 9.12138L8.64116 1.23225L9.34827 0.525146L10.0554 1.23225L17.9445 9.12138L18.1516 9.32849H642.345L642.552 9.12138L650.441 1.23225L651.149 0.525146L651.856 1.23225L659.745 9.12138L660.452 9.82849L659.745 10.5356L651.856 18.4247L651.149 19.1318L650.441 18.4247L642.552 10.5356L642.345 10.3285H18.1516L17.9445 10.5356L10.0554 18.4247L9.34827 19.1318L8.64116 18.4247L0.752029 10.5356L0.0449219 9.82849ZM651.149 1.93936L643.259 9.82849L651.149 17.7176L659.038 9.82849L651.149 1.93936Z" fill="#7B4F2F"/>
</svg>
