<svg width="1001" height="25" viewBox="0 0 1001 25" fill="none" xmlns="http://www.w3.org/2000/svg">
<path fill-rule="evenodd" clip-rule="evenodd" d="M987.629 1.41425L976.563 12.4805L987.629 23.5467L998.695 12.4805L987.629 1.41425ZM975.856 11.7734L975.649 11.9803H24.4551L24.2477 11.773L13.1845 0.709757L12.4774 0.00265009L11.7703 0.709757L0.707107 11.773L0 12.4801L0.707107 13.1872L11.7703 24.2504L12.4774 24.9575L13.1845 24.2504L24.2477 13.1872L24.4546 12.9803H975.648L975.856 13.1876L986.922 24.2538L987.629 24.9609L988.336 24.2538L999.402 13.1876L1000.11 12.4805L999.402 11.7734L988.336 0.707141L987.629 3.45454e-05L986.922 0.707141L975.856 11.7734ZM1.41421 12.4801L12.4774 1.41686L23.5406 12.4801L12.4774 23.5433L1.41421 12.4801Z" fill="white"/>
</svg>
