<svg width="277" height="15" viewBox="0 0 277 15" fill="none" xmlns="http://www.w3.org/2000/svg">
<path fill-rule="evenodd" clip-rule="evenodd" d="M1.41421 7.2832L7.2832 1.41421L13.1522 7.2832L7.2832 13.1522L1.41421 7.2832ZM0 7.2832L0.707107 6.57609L6.57609 0.707107L7.2832 0L7.99031 0.707107L13.8593 6.57609L14.0631 6.77986H262.607L262.811 6.57609L268.68 0.707107L269.387 0L270.094 0.707107L275.963 6.57609L276.671 7.2832L275.963 7.99031L270.094 13.8593L269.387 14.5664L268.68 13.8593L262.811 7.99031L262.601 7.77986H14.0697L13.8593 7.99031L7.99031 13.8593L7.2832 14.5664L6.57609 13.8593L0.707107 7.99031L0 7.2832ZM269.387 1.41421L263.518 7.2832L269.387 13.1522L275.256 7.2832L269.387 1.41421Z" fill="white"/>
</svg>
