<svg width="801" height="23" viewBox="0 0 801 23" fill="none" xmlns="http://www.w3.org/2000/svg">
<path fill-rule="evenodd" clip-rule="evenodd" d="M1.45914 11.4801L10.9999 1.93936L20.5406 11.4801L10.9999 21.0208L1.45914 11.4801ZM0.0449219 11.4801L0.752029 10.773L10.2928 1.23225L10.9999 0.525146L11.707 1.23225L21.2477 10.773L21.4553 10.9806H778.649L778.856 10.7736L788.394 1.23474L789.102 0.527629L789.809 1.23474L799.347 10.7736L800.055 11.4807L799.347 12.1878L789.809 21.7267L789.102 22.4338L788.394 21.7267L778.856 12.1878L778.648 11.9806H21.4543L21.2477 12.1872L11.707 21.728L10.9999 22.4351L10.2928 21.728L0.752029 12.1872L0.0449219 11.4801ZM789.102 1.94184L779.563 11.4807L789.102 21.0196L798.64 11.4807L789.102 1.94184Z" fill="#7B4F2F"/>
</svg>
