<svg width="200" height="14" viewBox="0 0 200 14" fill="none" xmlns="http://www.w3.org/2000/svg">
<path fill-rule="evenodd" clip-rule="evenodd" d="M1.41227 6.71472L6.6963 1.41615L11.9803 6.71472L6.6963 12.0133L1.41227 6.71472ZM0 6.71472L0.706135 6.00664L5.99017 0.708077L6.6963 0L7.40244 0.708077L12.6865 6.00664L12.8931 6.21387H186.504L186.706 6.01115L191.992 0.710288L192.698 0.00219737L193.404 0.710288L198.691 6.01115L199.397 6.71924L198.691 7.42733L193.404 12.7282L192.698 13.4363L191.992 12.7282L186.706 7.42733L186.493 7.21387H12.8948L12.6865 7.4228L7.40244 12.7214L6.6963 13.4294L5.99017 12.7214L0.706135 7.4228L0 6.71472ZM192.698 1.41838L187.412 6.71924L192.698 12.0201L197.984 6.71924L192.698 1.41838Z" fill="white"/>
</svg>
