<svg width="1001" height="25" viewBox="0 0 1001 25" fill="none" xmlns="http://www.w3.org/2000/svg">
<path fill-rule="evenodd" clip-rule="evenodd" d="M987.629 1.41421L976.563 12.4804L987.629 23.5467L998.695 12.4804L987.629 1.41421ZM975.856 11.7733L975.649 11.9803H24.4551L24.2477 11.7729L13.1845 0.709722L12.4774 0.00261554L11.7703 0.709722L0.707107 11.7729L0 12.48L0.707107 13.1871L11.7703 24.2503L12.4774 24.9575L13.1845 24.2503L24.2477 13.1871L24.4546 12.9803H975.648L975.856 13.1875L986.922 24.2538L987.629 24.9609L988.336 24.2538L999.402 13.1875L1000.11 12.4804L999.402 11.7733L988.336 0.707107L987.629 0L986.922 0.707107L975.856 11.7733ZM1.41421 12.48L12.4774 1.41683L23.5406 12.48L12.4774 23.5432L1.41421 12.48Z" fill="#7B4F2F"/>
</svg>
