<svg width="601" height="18" viewBox="0 0 601 18" fill="none" xmlns="http://www.w3.org/2000/svg">
<path fill-rule="evenodd" clip-rule="evenodd" d="M1.41227 8.93275L8.90824 1.41616L16.4042 8.93275L8.90824 16.4493L1.41227 8.93275ZM0 8.93275L0.706135 8.22467L8.20211 0.708078L8.90824 0L9.61438 0.708078L17.1103 8.22467L17.3167 8.43164H582.928L583.13 8.22917L590.629 0.709244L591.335 0.00115336L592.041 0.709244L599.54 8.22917L600.246 8.93726L599.54 9.64535L592.041 17.1653L591.335 17.8734L590.629 17.1653L583.13 9.64535L582.917 9.43164H17.319L17.1103 9.64083L9.61438 17.1574L8.90824 17.8655L8.20211 17.1574L0.706135 9.64083L0 8.93275ZM591.335 1.41733L583.836 8.93726L591.335 16.4572L598.834 8.93726L591.335 1.41733Z" fill="white"/>
</svg>
