<svg width="401" height="16" viewBox="0 0 401 16" fill="none" xmlns="http://www.w3.org/2000/svg">
<path fill-rule="evenodd" clip-rule="evenodd" d="M1.41227 7.86005L7.83849 1.41615L14.2647 7.86005L7.83849 14.3039L1.41227 7.86005ZM0 7.86005L0.706135 7.15197L7.13235 0.708077L7.83849 0L8.54462 0.708077L14.9708 7.15197L15.1773 7.35896H385.789L385.99 7.15641L392.416 0.712788L393.122 0.00469731L393.828 0.712788L400.254 7.15641L400.96 7.8645L400.254 8.57259L393.828 15.0162L393.122 15.7243L392.416 15.0162L385.99 8.57259L385.777 8.35896H15.1794L14.9708 8.56813L8.54462 15.012L7.83849 15.7201L7.13235 15.012L0.706135 8.56813L0 7.86005ZM393.122 1.42088L386.697 7.8645L393.122 14.3081L399.548 7.8645L393.122 1.42088Z" fill="#7B4F2F"/>
</svg>
