<svg width="117" height="12" viewBox="0 0 117 12" fill="none" xmlns="http://www.w3.org/2000/svg">
<path fill-rule="evenodd" clip-rule="evenodd" d="M2.12778 5.71456L6.05406 1.77748L9.98034 5.71456L6.05406 9.65164L2.12778 5.71456ZM0.715515 5.71456L1.42165 5.00649L5.34793 1.06941L6.05406 0.361328L6.7602 1.06941L10.6865 5.00649L10.8931 5.21371H106.704L106.906 5.01099L110.832 1.07401L111.539 0.365915L112.245 1.07401L116.171 5.01099L116.877 5.71908L116.171 6.42717L112.245 10.3642L111.539 11.0722L110.832 10.3642L106.906 6.42717L106.694 6.21371H10.8948L10.6865 6.42264L6.7602 10.3597L6.05406 11.0678L5.34793 10.3597L1.42165 6.42264L0.715515 5.71456ZM111.539 1.7821L107.613 5.71908L111.539 9.65606L115.465 5.71908L111.539 1.7821Z" fill="#7B4F2F"/>
</svg>
